<svg width="61" height="61" viewBox="0 0 61 61" fill="none" xmlns="http://www.w3.org/2000/svg">
<path d="M37.33 22.2579L26.4263 33.1871L22.2325 28.9933C22.0047 28.7273 21.7243 28.5112 21.4089 28.3586C21.0936 28.2061 20.7501 28.1203 20.4001 28.1068C20.0501 28.0933 19.701 28.1523 19.3749 28.28C19.0487 28.4078 18.7525 28.6017 18.5048 28.8493C18.2571 29.097 18.0633 29.3933 17.9355 29.7194C17.8077 30.0456 17.7487 30.3946 17.7622 30.7447C17.7758 31.0947 17.8615 31.4382 18.014 31.7535C18.1666 32.0688 18.3827 32.3492 18.6488 32.5771L24.6217 38.5754C24.8592 38.811 25.1408 38.9973 25.4505 39.1238C25.7602 39.2503 26.0918 39.3144 26.4263 39.3125C27.093 39.3097 27.732 39.045 28.2054 38.5754L40.9138 25.8671C41.152 25.6308 41.3411 25.3497 41.4701 25.04C41.5992 24.7302 41.6656 24.398 41.6656 24.0625C41.6656 23.727 41.5992 23.3948 41.4701 23.085C41.3411 22.7753 41.152 22.4942 40.9138 22.2579C40.4375 21.7845 39.7934 21.5188 39.1219 21.5188C38.4504 21.5188 37.8062 21.7845 37.33 22.2579ZM30.4167 5C25.3897 5 20.4757 6.49066 16.2959 9.28348C12.1162 12.0763 8.85847 16.0458 6.93474 20.6901C5.01101 25.3344 4.50768 30.4449 5.48839 35.3752C6.46909 40.3056 8.8898 44.8344 12.4444 48.389C15.999 51.9436 20.5278 54.3643 25.4581 55.345C30.3885 56.3257 35.4989 55.8223 40.1432 53.8986C44.7875 51.9749 48.757 48.7172 51.5499 44.5374C54.3427 40.3577 55.8333 35.4436 55.8333 30.4167C55.8333 27.0789 55.1759 23.7738 53.8986 20.6901C52.6213 17.6064 50.7491 14.8045 48.389 12.4444C46.0288 10.0842 43.2269 8.21204 40.1432 6.93473C37.0595 5.65742 33.7544 5 30.4167 5ZM30.4167 50.75C26.3951 50.75 22.4639 49.5575 19.1201 47.3232C15.7763 45.089 13.1701 41.9133 11.6311 38.1979C10.0921 34.4825 9.68948 30.3941 10.474 26.4498C11.2586 22.5056 13.1952 18.8825 16.0388 16.0388C18.8825 13.1952 22.5056 11.2586 26.4498 10.474C30.3941 9.68947 34.4825 10.0921 38.1979 11.6311C41.9133 13.1701 45.089 15.7763 47.3232 19.1201C49.5575 22.4639 50.75 26.3951 50.75 30.4167C50.75 35.8094 48.6078 40.9813 44.7945 44.7945C40.9813 48.6077 35.8094 50.75 30.4167 50.75Z" fill="#2F7D7A"/>
</svg>
