<svg width="24" height="20" viewBox="0 0 24 20" fill="none" xmlns="http://www.w3.org/2000/svg">
<g clip-path="url(#clip0_459_1296)">
<path d="M14.72 6.79L10.43 11.09L8.78 9.44C8.69036 9.33532 8.58004 9.2503 8.45597 9.19027C8.33191 9.13025 8.19678 9.09652 8.05906 9.0912C7.92134 9.08588 7.78401 9.10909 7.65568 9.15936C7.52736 9.20964 7.41081 9.28589 7.31335 9.38335C7.2159 9.4808 7.13964 9.59735 7.08937 9.72568C7.03909 9.854 7.01589 9.99133 7.02121 10.1291C7.02653 10.2668 7.06026 10.4019 7.12028 10.526C7.1803 10.65 7.26532 10.7604 7.37 10.85L9.72 13.21C9.81344 13.3027 9.92426 13.376 10.0461 13.4258C10.1679 13.4755 10.2984 13.5008 10.43 13.5C10.6923 13.4989 10.9437 13.3947 11.13 13.21L16.13 8.21C16.2237 8.11704 16.2981 8.00644 16.3489 7.88458C16.3997 7.76272 16.4258 7.63201 16.4258 7.5C16.4258 7.36799 16.3997 7.23728 16.3489 7.11542C16.2981 6.99356 16.2237 6.88296 16.13 6.79C15.9426 6.60375 15.6892 6.49921 15.425 6.49921C15.1608 6.49921 14.9074 6.60375 14.72 6.79ZM12 0C10.0222 0 8.08879 0.58649 6.4443 1.6853C4.79981 2.78412 3.51809 4.3459 2.76121 6.17317C2.00433 8.00043 1.8063 10.0111 2.19215 11.9509C2.578 13.8907 3.53041 15.6725 4.92894 17.0711C6.32746 18.4696 8.10929 19.422 10.0491 19.8079C11.9889 20.1937 13.9996 19.9957 15.8268 19.2388C17.6541 18.4819 19.2159 17.2002 20.3147 15.5557C21.4135 13.9112 22 11.9778 22 10C22 8.68678 21.7413 7.38642 21.2388 6.17317C20.7363 4.95991 19.9997 3.85752 19.0711 2.92893C18.1425 2.00035 17.0401 1.26375 15.8268 0.761205C14.6136 0.258658 13.3132 0 12 0ZM12 18C10.4178 18 8.87104 17.5308 7.55544 16.6518C6.23985 15.7727 5.21447 14.5233 4.60897 13.0615C4.00347 11.5997 3.84504 9.99113 4.15372 8.43928C4.4624 6.88743 5.22433 5.46197 6.34315 4.34315C7.46197 3.22433 8.88743 2.4624 10.4393 2.15372C11.9911 1.84504 13.5997 2.00346 15.0615 2.60896C16.5233 3.21447 17.7727 4.23984 18.6518 5.55544C19.5308 6.87103 20 8.41775 20 10C20 12.1217 19.1572 14.1566 17.6569 15.6569C16.1566 17.1571 14.1217 18 12 18Z" fill="#1C3B3A"/>
</g>
<defs>
<clipPath id="clip0_459_1296">
<rect width="24" height="20" fill="white"/>
</clipPath>
</defs>
</svg>
