<svg width="58" height="58" viewBox="0 0 58 58" fill="none" xmlns="http://www.w3.org/2000/svg">
<rect width="58" height="58" rx="29" fill="#DDEBEA"/>
<path d="M28.319 24.4154C28.3763 24.4416 28.4386 24.4552 28.5016 24.4552C28.5647 24.4552 28.627 24.4416 28.6843 24.4154C29.4627 24.062 30.1546 23.5428 30.7116 22.8941C31.518 21.9453 31.9442 20.8075 31.9442 19.6038V17.6544C31.9442 17.5423 31.9014 17.4345 31.8246 17.353C31.7477 17.2714 31.6426 17.2223 31.5307 17.2157C30.7947 17.1765 30.0778 16.9671 29.4362 16.604C29.2066 16.4708 28.9898 16.3165 28.7886 16.1433C28.7088 16.0745 28.607 16.0366 28.5016 16.0366C28.3963 16.0366 28.2944 16.0745 28.2146 16.1433C28.0135 16.3166 27.7967 16.4708 27.5671 16.604C26.9256 16.967 26.2086 17.1764 25.4726 17.2157C25.3607 17.2223 25.2556 17.2714 25.1787 17.3529C25.1019 17.4345 25.0591 17.5423 25.0591 17.6544V19.6038C25.0591 20.8075 25.4854 21.9454 26.2919 22.8942C26.8488 23.5428 27.5406 24.062 28.319 24.4154ZM25.9379 18.0542C26.6669 17.9634 27.3706 17.7289 28.0082 17.3641C28.1787 17.2651 28.3435 17.1566 28.5017 17.0389C28.6598 17.1566 28.8246 17.2651 28.9951 17.3641C29.6328 17.7289 30.3365 17.9634 31.0655 18.0542V19.6038C31.0655 20.5961 30.7116 21.5371 30.0418 22.3251C29.6132 22.8242 29.0897 23.2332 28.5017 23.5282C27.9137 23.2333 27.3902 22.8244 26.9616 22.3252C26.2919 21.5372 25.9379 20.5962 25.9379 19.6038V18.0542ZM43.3713 27.3395C43.3305 27.2987 43.2821 27.2663 43.2288 27.2442C43.1755 27.2222 43.1183 27.2108 43.0606 27.2108C43.0029 27.2108 42.9457 27.2222 42.8924 27.2442C42.8391 27.2663 42.7907 27.2987 42.7499 27.3395L40.2095 29.8802L34.184 23.727C34.6549 22.9617 34.9651 22.1087 35.0958 21.2197L36.8083 19.4949C36.8489 19.4539 36.8811 19.4053 36.903 19.352C36.9249 19.2986 36.9361 19.2414 36.9359 19.1837C36.9357 19.1259 36.9241 19.0688 36.9019 19.0156C36.8796 18.9624 36.8471 18.914 36.8061 18.8734C36.7652 18.8327 36.7166 18.8005 36.6632 18.7786C36.6098 18.7567 36.5527 18.7455 36.4949 18.7457C36.4372 18.7459 36.3801 18.7575 36.3269 18.7798C36.2737 18.802 36.2253 18.8346 36.1847 18.8755L35.1588 19.9088C35.0718 18.1913 34.3244 16.5739 33.0729 15.3946C31.8214 14.2152 30.1627 13.5652 28.4432 13.5803C26.7238 13.5955 25.0767 14.2746 23.8462 15.4758C22.6156 16.677 21.8969 18.3073 21.84 20.0261L20.6481 18.8698C20.5643 18.7898 20.4522 18.7462 20.3363 18.7484C20.2205 18.7507 20.1102 18.7986 20.0295 18.8818C19.9488 18.965 19.9042 19.0767 19.9055 19.1926C19.9068 19.3085 19.9538 19.4192 20.0363 19.5006L21.9259 21.3339C22.0686 22.1997 22.3819 23.0285 22.8475 23.7723L16.8305 29.9169L14.2534 27.3395C14.2128 27.298 14.1643 27.265 14.1108 27.2423C14.0573 27.2196 13.9998 27.2078 13.9417 27.2075C13.8836 27.2072 13.8261 27.2184 13.7723 27.2405C13.7186 27.2626 13.6698 27.2951 13.6287 27.3362C13.5876 27.3773 13.5551 27.4261 13.533 27.4799C13.5109 27.5336 13.4997 27.5912 13.5 27.6493C13.5003 27.7074 13.5121 27.7649 13.5348 27.8184C13.5575 27.8719 13.5905 27.9203 13.632 27.961L16.4455 30.7748C16.4829 30.8393 16.5364 30.8928 16.6008 30.9301L16.9878 31.3171C17.1912 31.5219 17.4333 31.6843 17.7 31.7948C17.9666 31.9053 18.2526 31.9618 18.5412 31.961C18.7457 31.9611 18.9491 31.9327 19.1457 31.8766C19.1569 32.175 19.1893 32.4722 19.2428 32.766C19.0381 32.86 18.8517 32.9898 18.6926 33.1492L17.7279 34.1139C17.4616 34.3803 17.2803 34.7196 17.2068 35.089C17.1334 35.4584 17.1711 35.8413 17.3152 36.1892C17.4593 36.5372 17.7034 36.8346 18.0165 37.0439C18.3296 37.2531 18.6977 37.3648 19.0743 37.3648C19.1336 37.3648 19.1924 37.3619 19.2507 37.3565C19.226 37.6202 19.2567 37.8862 19.3408 38.1374C19.4248 38.3885 19.5604 38.6194 19.7387 38.8152C19.9171 39.0109 20.1344 39.1673 20.3767 39.2743C20.6189 39.3813 20.8808 39.4365 21.1457 39.4364C21.2047 39.4364 21.2632 39.4335 21.3212 39.4282C21.3159 39.4862 21.313 39.5447 21.313 39.6037C21.3129 39.8537 21.3621 40.1014 21.4578 40.3324C21.5534 40.5634 21.6937 40.7733 21.8705 40.9501C22.0474 41.1269 22.2573 41.2671 22.4884 41.3626C22.7194 41.4582 22.9671 41.5073 23.2171 41.5071C23.2757 41.5071 23.3342 41.5044 23.3927 41.4989C23.3873 41.5572 23.3843 41.6161 23.3843 41.6753C23.3837 41.9255 23.4326 42.1733 23.5284 42.4044C23.6241 42.6356 23.7647 42.8454 23.9421 43.0218C24.2995 43.3784 24.7837 43.5786 25.2885 43.5786C25.7933 43.5786 26.2775 43.3784 26.6348 43.0219L27.2693 42.3873L27.9038 43.022C28.1807 43.2991 28.5362 43.484 28.922 43.5516C29.3078 43.6191 29.7051 43.566 30.0595 43.3994C30.414 43.2328 30.7085 42.9609 30.9027 42.6207C31.097 42.2806 31.1816 41.8888 31.145 41.4988C31.2037 41.5043 31.2626 41.507 31.3216 41.507C31.5716 41.5072 31.8192 41.4581 32.0502 41.3626C32.2813 41.267 32.4912 41.1268 32.6681 40.9501C32.8449 40.7733 32.9852 40.5634 33.0808 40.3324C33.1765 40.1014 33.2257 39.8538 33.2257 39.6037C33.2257 39.5447 33.2227 39.4862 33.2175 39.4282C33.2755 39.4335 33.3339 39.4364 33.3929 39.4364C33.8979 39.4364 34.3822 39.2358 34.7393 38.8786C35.0964 38.5215 35.297 38.0371 35.297 37.5321C35.297 37.4731 35.2941 37.4146 35.2888 37.3565C35.3468 37.3618 35.4053 37.3647 35.4643 37.3647C35.8409 37.3647 36.209 37.253 36.5221 37.0438C36.8352 36.8345 37.0793 36.5371 37.2234 36.1892C37.3675 35.8412 37.4052 35.4583 37.3317 35.089C37.2583 34.7196 37.077 34.3803 36.8107 34.1139L36.2781 33.5813C36.8972 33.1103 37.4258 32.5309 37.8383 31.8713C38.0409 31.9309 38.2509 31.9611 38.4621 31.961C38.7507 31.9618 39.0366 31.9053 39.3033 31.7948C39.5699 31.6844 39.8119 31.522 40.0154 31.3173L43.3713 27.961C43.4121 27.9202 43.4445 27.8718 43.4666 27.8185C43.4886 27.7652 43.5 27.708 43.5 27.6503C43.5 27.5926 43.4886 27.5354 43.4666 27.4821C43.4445 27.4288 43.4122 27.3803 43.3713 27.3395ZM22.7746 21.0762C22.774 21.0699 22.7729 21.0636 22.772 21.0573C22.6392 20.1244 22.7362 19.1732 23.0545 18.2863C23.3728 17.3994 23.9028 16.6037 24.5985 15.9682C25.2942 15.3327 26.1345 14.8767 27.0464 14.6398C27.9584 14.4029 28.9143 14.3922 29.8313 14.6088C30.7483 14.8253 31.5985 15.2625 32.3082 15.8824C33.0178 16.5022 33.5654 17.286 33.9034 18.1656C34.2414 19.0452 34.3595 19.994 34.2475 20.9296C34.1355 21.8652 33.7968 22.7594 33.2608 23.5343L33.2578 23.5385C32.5968 24.4945 31.6631 25.2292 30.5785 25.6469C29.4939 26.0645 28.3087 26.1458 27.1773 25.88C26.0458 25.6143 25.0207 25.0139 24.2354 24.157C23.4501 23.3001 22.941 22.2266 22.7746 21.0762ZM18.5412 31.0821C18.3681 31.0826 18.1965 31.0487 18.0365 30.9824C17.8766 30.916 17.7313 30.8186 17.6093 30.6957L17.452 30.5384L23.3696 24.4952C23.7177 24.9148 24.1155 25.2905 24.5543 25.6141L19.4727 30.6962C19.3507 30.8189 19.2055 30.9162 19.0456 30.9825C18.8857 31.0487 18.7143 31.0826 18.5412 31.0821ZM19.7993 36.1856C19.7041 36.2808 19.5911 36.3563 19.4667 36.4079C19.3423 36.4594 19.209 36.4859 19.0743 36.4859C18.9397 36.4859 18.8064 36.4594 18.682 36.4079C18.5576 36.3563 18.4446 36.2808 18.3494 36.1856C18.1571 35.9933 18.0491 35.7324 18.0491 35.4605C18.0491 35.1885 18.1571 34.9277 18.3494 34.7354L19.3139 33.7708C19.409 33.6748 19.522 33.5987 19.6466 33.5466C19.7712 33.4945 19.9048 33.4675 20.0398 33.4672C20.1749 33.4669 20.3086 33.4933 20.4334 33.5448C20.5582 33.5964 20.6716 33.6721 20.7671 33.7675C20.8625 33.863 20.9382 33.9764 20.9898 34.1012C21.0413 34.226 21.0677 34.3598 21.0674 34.4948C21.0671 34.6299 21.0401 34.7635 20.988 34.8881C20.936 35.0127 20.8598 35.1258 20.7639 35.2208L19.7993 36.1856ZM21.1457 38.5575C21.011 38.5579 20.8776 38.5315 20.7531 38.48C20.6287 38.4284 20.5157 38.3527 20.4207 38.2572V38.2571C20.2287 38.0647 20.1209 37.8039 20.1209 37.5321C20.1209 37.2602 20.2287 36.9995 20.4207 36.807L21.3853 35.8423C21.5776 35.65 21.8384 35.5419 22.1103 35.5419C22.3822 35.5419 22.643 35.65 22.8353 35.8423C23.0276 36.0346 23.1356 36.2954 23.1356 36.5674C23.1356 36.8393 23.0276 37.1002 22.8353 37.2925L21.8707 38.2572C21.7757 38.3527 21.6627 38.4284 21.5383 38.48C21.4138 38.5315 21.2804 38.5579 21.1457 38.5575ZM22.4921 40.3288C22.2998 40.1365 22.1918 39.8757 22.1918 39.6037C22.1918 39.3318 22.2998 39.071 22.4921 38.8787L23.4567 37.9139C23.649 37.7216 23.9098 37.6136 24.1817 37.6136C24.4536 37.6136 24.7144 37.7216 24.9067 37.9139C25.099 38.1062 25.207 38.367 25.207 38.639C25.207 38.911 25.099 39.1718 24.9067 39.3641L23.942 40.3288C23.7496 40.5208 23.4889 40.6287 23.2171 40.6287C22.9452 40.6287 22.6845 40.5208 22.4921 40.3288ZM26.9781 41.4356L26.0135 42.4004C25.821 42.5924 25.5603 42.7003 25.2884 42.7003C25.0166 42.7003 24.7558 42.5924 24.5634 42.4004V42.4004C24.4682 42.3052 24.3927 42.1922 24.3412 42.0677C24.2896 41.9433 24.2631 41.81 24.2631 41.6753C24.2631 41.5407 24.2896 41.4073 24.3412 41.2829C24.3927 41.1585 24.4682 41.0455 24.5634 40.9503L25.5281 39.9855C25.7203 39.7932 25.9811 39.6852 26.253 39.6852C26.525 39.6851 26.7858 39.7932 26.978 39.9855C27.1703 40.1778 27.2784 40.4386 27.2784 40.7105C27.2784 40.9825 27.1704 41.2433 26.9781 41.4356ZM36.4896 35.4605C36.4896 35.6633 36.4295 35.8615 36.3168 36.0302C36.2042 36.1988 36.044 36.3302 35.8567 36.4078C35.6693 36.4855 35.4632 36.5058 35.2643 36.4662C35.0654 36.4266 34.8827 36.3289 34.7393 36.1855L31.5908 33.0367C31.55 32.9959 31.5016 32.9635 31.4483 32.9414C31.395 32.9193 31.3378 32.9079 31.2801 32.9079C31.2224 32.9079 31.1653 32.9193 31.112 32.9414C31.0586 32.9635 31.0102 32.9958 30.9694 33.0367C30.9286 33.0775 30.8962 33.1259 30.8741 33.1792C30.852 33.2326 30.8407 33.2897 30.8407 33.3474C30.8407 33.4051 30.852 33.4623 30.8741 33.5156C30.8962 33.5689 30.9286 33.6174 30.9694 33.6582L34.1178 36.807C34.2142 36.902 34.2909 37.0151 34.3434 37.1398C34.3959 37.2645 34.4232 37.3984 34.4237 37.5337C34.4243 37.669 34.398 37.8031 34.3465 37.9282C34.2949 38.0534 34.2191 38.167 34.1235 38.2627C34.0278 38.3584 33.9141 38.4342 33.789 38.4858C33.6639 38.5373 33.5298 38.5636 33.3945 38.5631C33.2592 38.5625 33.1253 38.5352 33.0006 38.4827C32.8759 38.4302 32.7629 38.3535 32.6679 38.2571L29.5195 35.1083C29.4371 35.0259 29.3253 34.9796 29.2088 34.9796C29.0922 34.9796 28.9805 35.0259 28.8981 35.1083C28.8157 35.1907 28.7694 35.3025 28.7694 35.419C28.7694 35.5356 28.8157 35.6474 28.8981 35.7298L32.0465 38.8786C32.1433 38.9735 32.2203 39.0866 32.2731 39.2114C32.3259 39.3362 32.3534 39.4702 32.3541 39.6058C32.3547 39.7413 32.3286 39.8756 32.277 40.0009C32.2255 40.1263 32.1496 40.2401 32.0538 40.336C31.958 40.4318 31.8441 40.5077 31.7188 40.5592C31.5935 40.6108 31.4592 40.637 31.3237 40.6363C31.1882 40.6356 31.0542 40.6081 30.9294 40.5553C30.8046 40.5025 30.6915 40.4255 30.5966 40.3287L27.4481 37.1799C27.4073 37.139 27.3588 37.1067 27.3055 37.0846C27.2522 37.0625 27.1951 37.0511 27.1374 37.0511C27.0796 37.0511 27.0225 37.0624 26.9692 37.0845C26.9159 37.1066 26.8674 37.1389 26.8266 37.1797C26.7858 37.2206 26.7534 37.269 26.7313 37.3223C26.7092 37.3756 26.6978 37.4328 26.6978 37.4905C26.6978 37.5482 26.7092 37.6054 26.7312 37.6587C26.7533 37.712 26.7857 37.7605 26.8265 37.8013L29.975 40.9502C30.0714 41.0451 30.1481 41.1582 30.2006 41.2829C30.2531 41.4076 30.2804 41.5415 30.281 41.6768C30.2815 41.8121 30.2553 41.9462 30.2038 42.0713C30.1522 42.1965 30.0765 42.3102 29.9808 42.4059C29.8851 42.5016 29.7715 42.5774 29.6464 42.6289C29.5213 42.6805 29.3872 42.7068 29.2519 42.7063C29.1166 42.7058 28.9827 42.6785 28.858 42.626C28.7333 42.5735 28.6202 42.4969 28.5253 42.4005L27.8589 41.734C28.0423 41.4461 28.1449 41.1143 28.1561 40.7731C28.1673 40.4319 28.0866 40.094 27.9224 39.7948C27.7583 39.4955 27.5167 39.2459 27.223 39.072C26.9293 38.8981 26.5943 38.8063 26.253 38.8063C26.1941 38.8063 26.1356 38.8092 26.0775 38.8145C26.0828 38.7565 26.0858 38.698 26.0858 38.639C26.0857 38.134 25.8851 37.6496 25.528 37.2925C25.1709 36.9354 24.6867 36.7347 24.1817 36.7347C24.1227 36.7347 24.0642 36.7376 24.0062 36.7429C24.0115 36.6849 24.0144 36.6264 24.0144 36.5674C24.0144 36.0623 23.8137 35.578 23.4567 35.2209C23.0996 34.8638 22.6153 34.6631 22.1103 34.6631C22.0513 34.6631 21.9928 34.666 21.9348 34.6713C21.9401 34.6133 21.943 34.5547 21.943 34.4958C21.9433 34.0021 21.7516 33.5276 21.4084 33.1727C21.0652 32.8177 20.5975 32.6102 20.104 32.594C20.0328 32.1955 20.0066 31.7903 20.0258 31.386L20.0941 31.3177L20.0947 31.3171L20.095 31.3168L25.2936 26.1177C25.3 26.1113 25.3056 26.1045 25.3115 26.0978C26.0005 26.4752 26.7512 26.7269 27.5285 26.841L24.8727 29.8094C24.6402 30.0696 24.516 30.4089 24.5257 30.7577C24.5354 31.1065 24.6781 31.4384 24.9247 31.6853C25.3927 32.1522 26.0268 32.4144 26.6878 32.4144C27.3489 32.4144 27.983 32.1522 28.4509 31.6852L30.7949 29.3404L36.1892 34.7354C36.2848 34.8304 36.3605 34.9434 36.4121 35.0679C36.4636 35.1923 36.49 35.3258 36.4896 35.4605ZM36.6312 32.0397C36.3417 32.3822 36.0124 32.6889 35.6502 32.9533L31.1766 28.4792C31.15 28.4585 31.1261 28.4347 31.1054 28.4083C31.0646 28.3675 31.0162 28.3351 30.9629 28.313C30.9095 28.2909 30.8524 28.2795 30.7947 28.2795C30.737 28.2795 30.6799 28.2909 30.6266 28.313C30.5732 28.3351 30.5248 28.3675 30.484 28.4083L27.8294 31.0638C27.5264 31.3661 27.1158 31.5359 26.6878 31.5359C26.2598 31.5359 25.8492 31.3661 25.5462 31.0638C25.4583 30.9758 25.4075 30.8575 25.404 30.7333C25.4006 30.609 25.4449 30.4881 25.5277 30.3954L28.6456 26.9105C29.7176 26.8886 30.7683 26.6068 31.7073 26.0891C31.7655 26.1647 31.8285 26.2365 31.896 26.3039L36.9086 31.3171C36.9572 31.3658 37.0079 31.4116 37.0601 31.4551C36.9299 31.6591 36.7866 31.8543 36.6312 32.0397ZM39.3939 30.6959C39.2715 30.8183 39.1262 30.9155 38.9663 30.9817C38.8064 31.048 38.6351 31.0821 38.462 31.0821C38.2889 31.0821 38.1175 31.0479 37.9577 30.9816C37.7978 30.9153 37.6525 30.8182 37.5302 30.6957L32.5174 25.6824C32.4949 25.6596 32.4732 25.636 32.4524 25.6116C32.9038 25.2782 33.3118 24.8896 33.6667 24.4548L39.588 30.5017L39.3939 30.6959Z" fill="black"/>
</svg>
