<svg width="72" height="72" viewBox="0 0 72 72" fill="none" xmlns="http://www.w3.org/2000/svg">
<path d="M38.7591 10.8973C38.9219 10.896 38.9219 10.896 39.0879 10.8946C39.4519 10.8924 39.8157 10.8942 40.1797 10.896C40.4405 10.8952 40.7013 10.8942 40.9621 10.893C41.6707 10.8904 42.3793 10.8914 43.088 10.8932C43.8292 10.8946 44.5704 10.8933 45.3116 10.8924C46.5565 10.8914 47.8014 10.8927 49.0464 10.8954C50.486 10.8985 51.9256 10.8975 53.3652 10.8944C54.6007 10.8918 55.8362 10.8915 57.0716 10.8929C57.8098 10.8938 58.5479 10.8939 59.286 10.8921C59.9801 10.8904 60.6741 10.8916 61.3681 10.8948C61.6229 10.8956 61.8778 10.8954 62.1326 10.8941C62.4803 10.8926 62.8278 10.8945 63.1755 10.8973C63.2765 10.8961 63.3775 10.8948 63.4815 10.8935C63.9629 10.901 64.2596 10.9655 64.6815 11.2031C65.0448 11.6185 65.0484 11.808 65.024 12.3536C65.0176 12.5165 65.0112 12.6793 65.0045 12.8471C64.9447 13.6965 64.8718 14.5425 64.782 15.3893C64.7618 15.5862 64.7416 15.7832 64.7216 15.9802C64.6671 16.5124 64.6115 17.0445 64.5557 17.5766C64.4963 18.1436 64.4381 18.7108 64.3797 19.2779C64.2673 20.367 64.1539 21.4559 64.04 22.5448C63.9486 23.4191 63.8575 24.2935 63.7667 25.1678C62.6247 36.1609 62.6247 36.1609 62.0175 41.573C61.9808 41.9007 61.9443 42.2283 61.9078 42.5559C61.7644 43.8404 61.6134 45.1238 61.4528 46.4062C61.4312 46.5823 61.4095 46.7583 61.3872 46.9397C61.322 47.4596 61.253 47.9788 61.1825 48.498C61.1636 48.6502 61.1447 48.8023 61.1252 48.9591C60.9699 50.0515 60.7111 51.1563 59.846 51.9044C59.7378 51.9698 59.6296 52.0352 59.5181 52.1026C59.053 52.4868 58.9339 52.6728 58.8135 53.2737C58.7654 53.9319 58.7806 54.5888 58.7985 55.248C58.8048 55.6959 58.8077 56.1437 58.8084 56.5917C58.8088 56.6984 58.8091 56.8051 58.8095 56.9151C58.7976 58.4398 58.2978 59.6334 57.2549 60.7467C56.2563 61.6817 55.1152 62.1674 53.7444 62.1789C53.6139 62.1802 53.4833 62.1816 53.3488 62.183C53.1394 62.1839 53.1394 62.1839 52.9258 62.1848C52.7075 62.186 52.7075 62.186 52.4849 62.1872C52.1772 62.1886 51.8695 62.1895 51.5619 62.19C51.0946 62.1914 50.6275 62.1957 50.1602 62.2002C49.8604 62.2011 49.5606 62.2018 49.2607 62.2024C49.0535 62.205 49.0535 62.205 48.842 62.2076C47.2225 62.2025 45.9101 61.7434 44.7217 60.6302C43.6467 59.482 43.2921 58.2809 43.3023 56.7383C43.3011 56.4998 43.2996 56.2613 43.2979 56.0228C43.2956 55.6481 43.2946 55.2737 43.2982 54.899C43.3011 54.5363 43.2979 54.1742 43.2935 53.8116C43.296 53.7001 43.2984 53.5886 43.3009 53.4737C43.2906 52.8643 43.2906 52.8643 42.9579 52.3775C42.7013 52.1914 42.7013 52.1914 42.436 52.0445C41.6167 51.5377 41.3886 50.6623 41.159 49.7821C41.0071 49.1187 40.9182 48.4532 40.8375 47.7779C40.8187 47.6281 40.7999 47.4783 40.7806 47.3239C40.7192 46.831 40.6596 46.3379 40.6002 45.8448C40.5571 45.4935 40.514 45.1422 40.4709 44.7909C40.0212 41.1012 39.6213 37.4061 39.2298 33.7099C39.1616 33.0666 39.093 32.4233 39.0244 31.7801C38.8003 29.6779 38.5776 27.5755 38.3558 25.4731C38.2565 24.5329 38.1568 23.5928 38.057 22.6526C37.9187 21.3488 37.7816 20.0449 37.6457 18.7409C37.5979 18.2817 37.5496 17.8227 37.5009 17.3636C37.4451 16.8365 37.3903 16.3093 37.3363 15.782C37.308 15.5082 37.2788 15.2346 37.2495 14.961C37.1642 14.1169 37.1032 13.2743 37.0782 12.4262C37.0733 12.268 37.0684 12.1098 37.0634 11.9467C37.208 10.9666 37.8959 10.8866 38.7591 10.8973ZM39.5153 13.2187C39.6031 14.7107 39.7015 16.1767 39.8757 17.6572C39.8951 17.8275 39.9146 17.9978 39.9347 18.1733C39.9818 18.5843 40.0297 18.9953 40.0778 19.4062C40.6811 19.4062 41.2844 19.4062 41.9059 19.4062C41.9096 19.1996 41.9132 18.9929 41.9169 18.78C41.9248 18.5083 41.9329 18.2366 41.9411 17.9648C41.9441 17.7606 41.9441 17.7606 41.9471 17.5523C41.9819 16.545 41.9819 16.545 42.308 16.0818C42.7239 15.8177 42.9694 15.81 43.4528 15.8906C43.7538 16.0818 43.7538 16.0818 44.0153 16.4531C44.1056 16.9563 44.1132 17.4546 44.1208 17.9648C44.1324 18.4405 44.144 18.9162 44.1559 19.4062C45.1769 19.4062 46.1978 19.4062 47.2497 19.4062C47.2736 18.4598 47.2736 18.4598 47.2916 17.5132C47.3268 16.5433 47.3268 16.5433 47.6518 16.0818C48.0677 15.8177 48.3132 15.81 48.7966 15.8906C49.0976 16.0818 49.0976 16.0818 49.3591 16.4531C49.4493 16.9563 49.4569 17.4546 49.4645 17.9648C49.4761 18.4405 49.4877 18.9162 49.4997 19.4062C50.5206 19.4062 51.5416 19.4062 52.5934 19.4062C52.6174 18.4598 52.6174 18.4598 52.6353 17.5132C52.6706 16.5433 52.6706 16.5433 52.9955 16.0818C53.4114 15.8177 53.6569 15.81 54.1403 15.8906C54.4413 16.0818 54.4413 16.0818 54.7028 16.4531C54.7931 16.9563 54.8007 17.4546 54.8083 17.9648C54.8199 18.4405 54.8315 18.9162 54.8434 19.4062C55.8644 19.4062 56.8853 19.4062 57.9372 19.4062C57.9611 18.4598 57.9611 18.4598 57.9791 17.5132C58.0143 16.5433 58.0143 16.5433 58.3393 16.0818C58.7552 15.8177 59.0007 15.81 59.4841 15.8906C59.7851 16.0818 59.7851 16.0818 60.0466 16.4531C60.1368 16.9559 60.1446 17.455 60.152 17.9648C60.1562 18.1031 60.1604 18.2415 60.1647 18.384C60.1746 18.7247 60.1812 19.0654 60.1872 19.4062C60.7905 19.4062 61.3937 19.4062 62.0153 19.4062C62.096 18.6607 62.1761 17.9151 62.2556 17.1695C62.2828 16.9161 62.31 16.6626 62.3375 16.4092C62.377 16.0441 62.4159 15.679 62.4548 15.3138C62.4732 15.145 62.4732 15.145 62.4921 14.9728C62.5089 14.8124 62.5089 14.8124 62.5262 14.6488C62.5362 14.5558 62.5462 14.4627 62.5565 14.3668C62.5832 13.985 62.5778 13.6015 62.5778 13.2187C54.9672 13.2187 47.3566 13.2187 39.5153 13.2187ZM40.6403 20.6719C40.3336 21.2852 40.3407 21.6661 40.39 22.3226C40.3973 22.4332 40.4046 22.5437 40.4121 22.6577C40.5182 24.1641 40.6852 25.6653 40.848 27.1664C40.883 27.4937 40.918 27.8209 40.9529 28.1481C41.0456 29.0143 41.1391 29.8803 41.2329 30.7463C41.2909 31.2816 41.3486 31.817 41.4062 32.3523C41.844 36.4177 42.2847 40.4826 42.7673 44.543C42.7866 44.7065 42.806 44.8701 42.8259 45.0386C42.9417 48.0448 42.9417 48.0448 44.2378 50.53C46.2141 51.9155 48.9111 51.947 51.2311 51.9346C51.3837 51.9341 51.3837 51.9341 51.5394 51.9336C54.9856 51.9289 54.9856 51.9289 58.0098 50.4423C58.7292 49.7006 58.823 48.9764 58.9325 47.9745C58.954 47.8042 58.9754 47.6339 58.9975 47.4584C59.0569 46.9777 59.1129 46.4968 59.1672 46.0155C59.2163 45.5846 59.2678 45.154 59.3192 44.7233C59.4954 43.2421 59.6617 41.7598 59.8262 40.2773C59.8713 39.8715 59.9166 39.4657 59.9619 39.06C60.3964 35.1719 60.8171 31.2824 61.2224 27.3912C61.2594 27.036 61.2965 26.6808 61.3336 26.3256C61.3914 25.7716 61.4488 25.2176 61.5058 24.6635C61.5266 24.4617 61.5475 24.2599 61.5685 24.0581C61.5971 23.7836 61.6251 23.5091 61.6531 23.2346C61.6688 23.0815 61.6846 22.9285 61.7008 22.7708C61.7311 22.3966 61.7365 22.0313 61.7341 21.6562C61.587 21.6557 61.587 21.6557 61.437 21.6552C59.0521 21.6469 56.6673 21.6363 54.2824 21.6231C53.1292 21.6168 51.9759 21.6112 50.8226 21.6075C49.8175 21.6043 48.8124 21.5996 47.8072 21.5931C47.275 21.5898 46.7427 21.5871 46.2104 21.5863C45.7095 21.5854 45.2085 21.5826 44.7076 21.5783C44.436 21.5765 44.1644 21.5767 43.8927 21.577C43.7311 21.5753 43.5694 21.5735 43.4028 21.5717C43.2622 21.571 43.1217 21.5704 42.977 21.5697C42.5473 21.5065 42.3561 21.3947 42.0466 21.0937C42.0002 20.9545 41.9538 20.8153 41.9059 20.6719C41.4883 20.6719 41.0706 20.6719 40.6403 20.6719ZM45.5622 53.5781C45.5499 54.1875 45.5424 54.7968 45.5358 55.4062C45.5323 55.5779 45.5288 55.7496 45.5251 55.9264C45.5158 57.0795 45.6017 57.8991 46.2302 58.8867C46.92 59.5766 47.7084 59.9196 48.6816 59.9289C48.7962 59.9302 48.9108 59.9316 49.0288 59.933C49.1516 59.9336 49.2743 59.9342 49.4008 59.9348C49.5923 59.936 49.5923 59.936 49.7876 59.9372C50.0575 59.9386 50.3275 59.9395 50.5975 59.94C51.008 59.9414 51.4183 59.9457 51.8288 59.9502C52.0917 59.9511 52.3547 59.9518 52.6176 59.9524C52.8 59.955 52.8 59.955 52.9862 59.9576C53.9555 59.9541 54.7475 59.8015 55.5114 59.1592C56.2871 58.2326 56.5508 57.5955 56.5447 56.3967C56.5442 56.2403 56.5438 56.084 56.5433 55.9229C56.5421 55.7611 56.5409 55.5993 56.5397 55.4326C56.5391 55.2681 56.5385 55.1036 56.5378 54.9341C56.5362 54.529 56.5338 54.1239 56.5309 53.7187C56.3914 53.7374 56.2518 53.7561 56.108 53.7753C55.915 53.8004 55.722 53.8255 55.529 53.8506C55.4382 53.8628 55.3473 53.875 55.2538 53.8876C53.6069 54.0994 51.9759 54.1673 50.3171 54.1055C50.1413 54.0993 49.9655 54.0932 49.7844 54.0868C48.3537 54.0264 46.9658 53.856 45.5622 53.5781Z" fill="#D4A24C"/>
<path d="M20.4425 9.80144C20.5778 9.80084 20.7132 9.80024 20.8526 9.79961C21.1371 9.79881 21.4215 9.79873 21.706 9.79935C22.1377 9.79979 22.5692 9.79648 23.0009 9.79293C23.279 9.79261 23.557 9.79251 23.8351 9.79265C23.9623 9.79136 24.0895 9.79006 24.2205 9.78873C25.8429 9.80033 27.1677 10.323 28.362 11.417C29.3862 12.4881 29.696 13.7036 29.6853 15.1463C29.685 15.2993 29.685 15.2993 29.6847 15.4554C29.6839 15.7792 29.6821 16.103 29.6804 16.4267C29.6796 16.6471 29.679 16.8675 29.6784 17.0878C29.6769 17.6263 29.6745 18.1647 29.6716 18.7031C29.8264 18.6993 29.8264 18.6993 29.9843 18.6954C30.1213 18.6934 30.2583 18.6914 30.3994 18.6894C30.5345 18.6868 30.6696 18.6843 30.8088 18.6817C32.0031 18.7442 32.9618 19.3867 33.7497 20.25C34.6433 21.4051 34.8726 22.6061 34.7341 24.0469C34.4837 25.2531 34.0161 26.2648 33.3278 27.2812C33.3822 27.3599 33.4366 27.4386 33.4926 27.5196C34.6897 29.3627 34.8787 31.4533 35.1334 33.5841C35.1686 33.8691 35.204 34.1542 35.2395 34.4392C35.3324 35.1889 35.4234 35.9389 35.514 36.6888C35.586 37.2827 35.6595 37.8765 35.733 38.4702C36.1088 41.5061 36.4706 44.5435 36.8176 47.5829C36.8324 47.7118 36.8472 47.8408 36.8624 47.9736C37.8657 56.7451 37.8657 56.7451 35.53 60.0425C34.5812 61.2033 33.3987 61.9026 31.9216 62.1562C31.289 62.1974 30.6578 62.1961 30.0241 62.1949C29.8338 62.1955 29.6436 62.1962 29.4534 62.197C28.9394 62.1989 28.4254 62.199 27.9114 62.1987C27.4809 62.1985 27.0504 62.1992 26.6199 62.1999C25.6034 62.2014 24.5869 62.2015 23.5703 62.2006C22.525 62.1998 21.4797 62.2015 20.4344 62.2045C19.534 62.207 18.6336 62.2078 17.7332 62.2074C17.1968 62.2071 16.6603 62.2075 16.1239 62.2094C15.6189 62.2112 15.1139 62.2109 14.6089 62.2091C14.3376 62.2086 14.0664 62.2102 13.7951 62.2119C12.0591 62.2015 10.6509 61.8664 9.33367 60.706C7.48176 58.6105 6.94659 56.1621 6.96996 53.4161C6.97036 53.3245 6.97076 53.2329 6.97117 53.1385C6.98569 50.8257 7.25678 48.543 7.54196 46.2507C7.60012 45.7801 7.65647 45.3093 7.71283 44.8386C7.85906 43.6172 8.00884 42.3963 8.16057 41.1756C8.26559 40.3302 8.36907 39.4846 8.47166 38.6388C8.60999 37.4991 8.7505 36.3597 8.89295 35.2205C8.94622 34.7945 8.99886 34.3684 9.05098 33.9422C9.11217 33.4428 9.17516 32.9436 9.23949 32.4446C9.2734 32.1786 9.30565 31.9125 9.33782 31.6463C9.52602 30.2123 9.81406 28.8359 10.7212 27.6773C10.8628 27.4129 10.8628 27.4129 10.7322 27.0884C10.5361 26.6978 10.3321 26.3125 10.1247 25.9277C9.48503 24.65 9.23371 23.3466 9.56219 21.9375C10.0264 20.6573 10.6672 19.7471 11.8611 19.0816C12.5041 18.7871 13.0485 18.676 13.7562 18.6894C13.8932 18.6914 14.0302 18.6933 14.1713 18.6954C14.2745 18.6979 14.3777 18.7005 14.4841 18.7031C14.4819 18.5289 14.4819 18.5289 14.4796 18.3511C14.4748 17.9134 14.4713 17.4757 14.4686 17.038C14.4665 16.7581 14.463 16.4781 14.4593 16.1982C14.449 14.1485 14.7212 12.6431 16.143 11.116C17.3666 9.97916 18.8336 9.79982 20.4425 9.80144ZM17.8063 12.832C17.7182 12.9111 17.6301 12.9901 17.5394 13.0715C16.1502 14.7184 16.8747 16.3643 16.8747 18.7031C20.3552 18.7031 23.8356 18.7031 27.4216 18.7031C27.678 15.5805 27.678 15.5805 26.6745 13.0342C25.7611 12.1208 24.7278 12.0721 23.4945 12.0701C23.3895 12.0696 23.2844 12.0692 23.1762 12.0687C22.9548 12.068 22.7334 12.0677 22.5121 12.0677C22.177 12.0674 21.8419 12.0648 21.5068 12.0622C19.5192 11.9829 19.5192 11.9829 17.8063 12.832ZM12.4247 21.5909C11.8063 22.3995 11.7108 22.8967 11.8122 23.9062C12.0494 24.7767 12.5242 25.4048 13.136 26.0541C13.4553 26.4017 13.6301 26.6447 13.6952 27.117C13.6073 27.8299 13.1588 28.2251 12.7065 28.7594C11.7845 30.0051 11.6611 31.5904 11.4842 33.0815C11.4563 33.3055 11.4283 33.5295 11.4001 33.7535C11.3252 34.3519 11.2525 34.9506 11.1804 35.5494C11.1202 36.047 11.0586 36.5445 10.997 37.0419C10.7962 38.6629 10.6003 40.2845 10.4059 41.9062C10.3924 42.0191 10.3789 42.132 10.3649 42.2483C10.1056 44.4108 9.84997 46.5738 9.60119 48.7375C9.58485 48.8788 9.56851 49.0202 9.55167 49.1658C8.95029 54.0813 8.95029 54.0813 10.5466 58.6406C11.2668 59.4546 12.0152 59.7513 13.0778 59.9062C13.336 59.9185 13.5946 59.9246 13.8532 59.925C14.0037 59.9256 14.1543 59.9262 14.3095 59.9269C14.5541 59.9268 14.5541 59.9268 14.8036 59.9267C14.9771 59.9271 15.1505 59.9276 15.3292 59.9281C15.8034 59.9292 16.2776 59.9297 16.7518 59.9298C17.0486 59.9299 17.3455 59.9302 17.6424 59.9305C18.6798 59.9318 19.7172 59.9324 20.7546 59.9323C21.7188 59.9322 22.6829 59.9337 23.6471 59.9359C24.4771 59.9378 25.3072 59.9385 26.1372 59.9384C26.632 59.9384 27.1267 59.9388 27.6214 59.9403C28.174 59.9419 28.7266 59.9412 29.2792 59.9404C29.5221 59.9416 29.5221 59.9416 29.7699 59.9428C31.0243 59.9379 32.3463 59.9324 33.3278 59.0625C34.6654 57.3667 34.9316 55.6035 34.9324 53.4985C34.9325 53.3597 34.9325 53.3597 34.9326 53.2182C34.9261 50.6855 34.5987 48.1852 34.2816 45.6762C34.1991 45.0196 34.1194 44.3627 34.0394 43.7058C33.9113 42.6575 33.7816 41.6095 33.6506 40.5616C33.4988 39.3459 33.3526 38.1296 33.2093 36.9128C33.1348 36.282 33.0589 35.6513 32.983 35.0206C32.9439 34.6936 32.9052 34.3665 32.867 34.0393C32.5632 30.9337 32.5632 30.9337 31.0778 28.2656C30.7048 27.8144 30.5495 27.4943 30.5686 26.8885C30.72 26.3506 31.1126 26.0183 31.4936 25.6245C32.1314 24.9319 32.4317 24.1629 32.4978 23.2267C32.4664 22.5299 32.167 22.0616 31.7282 21.542C31.1563 21.0654 30.664 20.9182 29.9257 20.9165C29.7816 20.9155 29.6375 20.9145 29.4891 20.9134C29.2542 20.914 29.2542 20.914 29.0146 20.9145C28.8485 20.9138 28.6825 20.9131 28.5113 20.9123C28.0569 20.9107 27.6025 20.9103 27.1481 20.9107C26.7682 20.9109 26.3884 20.9102 26.0085 20.9095C25.1121 20.9079 24.2157 20.9079 23.3193 20.9087C22.3956 20.9096 21.472 20.9078 20.5483 20.9048C19.7543 20.9024 18.9602 20.9015 18.1661 20.902C17.6923 20.9022 17.2185 20.9019 16.7447 20.8999C16.2162 20.8982 15.6877 20.8991 15.1592 20.9008C15.0029 20.8997 14.8466 20.8986 14.6856 20.8975C13.7938 20.9036 13.108 20.953 12.4247 21.5909Z" fill="#D4A24C"/>
<path d="M24.6091 33.75C24.7338 33.8283 24.8585 33.9066 24.987 33.9873C25.3199 34.3202 25.4183 34.5475 25.6022 34.9717C25.7619 35.3149 25.7619 35.3149 26.0153 35.5781C26.4431 35.6846 26.8303 35.6924 27.2705 35.6968C28.18 35.743 29.0331 36.2053 29.6716 36.8437C30.7018 38.1908 30.9529 39.3666 30.7966 41.0625C30.6511 41.4856 30.4672 41.8013 30.2341 42.1875C30.2341 42.7444 30.2611 42.8387 30.5153 43.2861C30.9944 44.3338 30.9882 45.5044 30.651 46.5963C30.1536 47.6909 29.445 48.586 28.3378 49.0995C27.5549 49.3634 26.8363 49.3991 26.0153 49.3594C25.9776 49.4409 25.9399 49.5225 25.9011 49.6066C25.3652 50.6748 24.7002 51.2999 23.5807 51.7324C22.4 52.0732 21.0752 52.023 19.9684 51.4687C18.5829 50.4398 18.5829 50.4398 18.2809 49.6406C18.2809 49.5014 18.2809 49.3622 18.2809 49.2187C18.0417 49.2622 18.0417 49.2622 17.7975 49.3066C16.71 49.4349 15.8135 49.1442 14.9263 48.5118C14.0636 47.7182 13.4579 46.6052 13.3069 45.4416C13.2851 44.4932 13.4173 43.8755 13.9221 43.0669C14.1022 42.6595 14.0545 42.4669 13.9216 42.0469C13.8295 41.8542 13.7326 41.6637 13.6315 41.4756C13.1696 40.4569 13.2066 39.3975 13.5876 38.3555C14.1103 37.2167 14.7584 36.4217 15.8903 35.8594C16.391 35.6925 16.7957 35.7051 17.3229 35.7099C17.5019 35.7112 17.6808 35.7125 17.8651 35.7138C18.0709 35.7162 18.0709 35.7162 18.2809 35.7187C18.294 35.616 18.307 35.5132 18.3205 35.4073C18.526 34.6111 19.1847 33.9736 19.8729 33.5484C21.3799 32.8511 23.199 32.8144 24.6091 33.75ZM20.6716 35.8594C20.3797 36.2438 20.3797 36.2438 20.2497 36.7031C20.4299 37.4715 20.8337 38.1153 21.2341 38.7861C21.2975 38.8952 21.361 39.0042 21.4263 39.1165C21.7296 39.691 21.7296 39.691 22.2184 40.0781C22.5065 39.6057 22.7892 39.1304 23.071 38.6543C23.1526 38.5205 23.2343 38.3867 23.3184 38.2489C23.395 38.1184 23.4716 37.9879 23.5505 37.8534C23.622 37.7341 23.6934 37.6148 23.767 37.4919C23.943 37.0271 23.8944 36.7563 23.7653 36.2812C23.4559 35.8171 23.3144 35.6153 22.7809 35.4375C22.0041 35.369 21.279 35.3071 20.6716 35.8594ZM16.0309 38.6719C15.7482 39.1734 15.6091 39.5108 15.6091 40.0869C15.7924 40.6255 15.9737 41.0283 16.4528 41.3437C17.0792 41.4502 17.6919 41.423 18.3249 41.3965C18.4961 41.3927 18.6673 41.3889 18.8437 41.3849C19.2658 41.375 19.6873 41.3611 20.1091 41.3437C20.036 41.2163 19.963 41.0889 19.8877 40.9576C19.7886 40.7845 19.6896 40.6115 19.5905 40.4385C19.5393 40.3492 19.488 40.2598 19.4353 40.1678C19.0877 39.5607 18.7497 38.9493 18.4227 38.3307C18.2919 38.0848 18.2919 38.0848 17.9997 37.9687C17.0839 37.8772 16.6809 37.9614 16.0309 38.6719ZM25.6559 38.5356C25.5543 38.7075 25.5543 38.7075 25.4506 38.8828C25.3763 39.0075 25.302 39.1322 25.2254 39.2607C25.1117 39.4565 25.1117 39.4565 24.9958 39.6562C24.8789 39.852 24.8789 39.852 24.7596 40.0517C24.351 40.6594 24.351 40.6594 24.1872 41.3437C24.7818 41.3683 25.3764 41.3832 25.9714 41.3965C26.1399 41.4035 26.3084 41.4106 26.482 41.4179C27.3374 41.4598 27.3374 41.4598 28.1146 41.1692C28.4373 40.7997 28.5468 40.4984 28.6257 40.0166C28.4961 39.1959 28.2097 38.7185 27.571 38.1885C26.8337 37.8123 26.1798 37.8515 25.6559 38.5356ZM15.9936 43.9936C15.7311 44.4714 15.5981 44.7355 15.6091 45.2812C15.848 46.0021 16.1947 46.5978 16.8747 46.9687C17.2923 47.0488 17.5629 47.0242 17.9997 46.9687C18.6386 46.4859 18.9836 45.7283 19.3708 45.0439C19.442 44.9202 19.5133 44.7965 19.5867 44.669C19.9352 44.1598 19.9352 44.1598 20.1091 43.5937C19.5144 43.5692 18.9199 43.5542 18.3249 43.541C18.1564 43.5339 17.9879 43.5269 17.8143 43.5196C16.7957 43.4631 16.7957 43.4631 15.9936 43.9936ZM24.1872 43.5937C24.3595 44.0452 24.5489 44.4621 24.7936 44.8786C24.8549 44.9829 24.9162 45.0872 24.9793 45.1947C25.0428 45.3016 25.1062 45.4084 25.1716 45.5185C25.235 45.627 25.2985 45.7355 25.3638 45.8473C25.7115 46.4443 25.7115 46.4443 26.1559 46.9687C26.5858 47.049 26.9909 47.0419 27.4216 46.9687C27.8406 46.6786 27.8406 46.6786 28.1247 46.2656C28.2088 46.1554 28.2929 46.0452 28.3796 45.9316C28.6357 45.3654 28.6649 44.9062 28.4517 44.3152C28.2761 44.0017 28.1316 43.812 27.8434 43.5937C27.2163 43.4697 26.6075 43.5011 25.9714 43.5322C25.7146 43.5389 25.7146 43.5389 25.4525 43.5457C25.0304 43.5573 24.609 43.5734 24.1872 43.5937ZM22.0778 44.8594C21.9699 45.0218 21.8691 45.1889 21.7713 45.3576C21.7102 45.4623 21.6491 45.567 21.5862 45.6748C21.5222 45.7857 21.4582 45.8965 21.3923 46.0107C21.2667 46.2266 21.1411 46.4425 21.0154 46.6584C20.9563 46.761 20.8972 46.8637 20.8362 46.9695C20.7005 47.2008 20.5568 47.4274 20.4112 47.6526C20.2066 47.9598 20.2066 47.9598 20.32 48.375C20.5686 48.8721 20.7944 49.158 21.2341 49.5C21.9635 49.7026 22.5051 49.649 23.2028 49.3594C23.7072 48.8815 23.8536 48.4984 23.9059 47.8125C23.7757 47.436 23.7757 47.436 23.5505 47.0841C23.4739 46.9536 23.3974 46.8231 23.3184 46.6886C23.2368 46.5548 23.1551 46.421 23.071 46.2832C22.9899 46.1461 22.9087 46.0091 22.8252 45.8679C22.625 45.5304 22.4227 45.1944 22.2184 44.8594C22.172 44.8594 22.1256 44.8594 22.0778 44.8594Z" fill="#D4A24C"/>
</svg>
