<svg width="30" height="30" viewBox="0 0 30 30" fill="none" xmlns="http://www.w3.org/2000/svg">
<path d="M27.6562 27.1875H26.25V10.7812C26.25 10.6569 26.2006 10.5377 26.1127 10.4498C26.0248 10.3619 25.9056 10.3125 25.7812 10.3125H24.375V8.90625C24.375 8.78193 24.3256 8.6627 24.2377 8.57479C24.1498 8.48689 24.0306 8.4375 23.9062 8.4375H22.5V7.03125C22.5 6.90693 22.4506 6.7877 22.3627 6.69979C22.2748 6.61189 22.1556 6.5625 22.0312 6.5625H21.0938V5.15625C21.0938 5.03193 21.0444 4.9127 20.9565 4.82479C20.8685 4.73689 20.7493 4.6875 20.625 4.6875C20.5007 4.6875 20.3815 4.73689 20.2935 4.82479C20.2056 4.9127 20.1562 5.03193 20.1562 5.15625V6.5625H19.2188C19.0944 6.5625 18.9752 6.61189 18.8873 6.69979C18.7994 6.7877 18.75 6.90693 18.75 7.03125V8.4375H17.8125V2.34375C17.8125 2.21943 17.7631 2.1002 17.6752 2.01229C17.5873 1.92439 17.4681 1.875 17.3438 1.875H4.21875C4.09443 1.875 3.9752 1.92439 3.88729 2.01229C3.79939 2.1002 3.75 2.21943 3.75 2.34375V27.1875H2.34375C2.21943 27.1875 2.1002 27.2369 2.01229 27.3248C1.92439 27.4127 1.875 27.5319 1.875 27.6562C1.875 27.7806 1.92439 27.8998 2.01229 27.9877C2.1002 28.0756 2.21943 28.125 2.34375 28.125H27.6562C27.7806 28.125 27.8998 28.0756 27.9877 27.9877C28.0756 27.8998 28.125 27.7806 28.125 27.6562C28.125 27.5319 28.0756 27.4127 27.9877 27.3248C27.8998 27.2369 27.7806 27.1875 27.6562 27.1875ZM19.6875 7.5H21.5625V8.4375H19.6875V7.5ZM23.4375 9.375V10.3125H17.8125V9.375H23.4375ZM4.6875 2.8125H16.875V10.3125H7.03125C6.90693 10.3125 6.7877 10.3619 6.69979 10.4498C6.61189 10.5377 6.5625 10.6569 6.5625 10.7812C6.5625 10.9056 6.61189 11.0248 6.69979 11.1127C6.7877 11.2006 6.90693 11.25 7.03125 11.25H15V13.125H7.03125C6.90693 13.125 6.7877 13.1744 6.69979 13.2623C6.61189 13.3502 6.5625 13.4694 6.5625 13.5938C6.5625 13.7181 6.61189 13.8373 6.69979 13.9252C6.7877 14.0131 6.90693 14.0625 7.03125 14.0625H15V15.9375H7.03125C6.90693 15.9375 6.7877 15.9869 6.69979 16.0748C6.61189 16.1627 6.5625 16.2819 6.5625 16.4062C6.5625 16.5306 6.61189 16.6498 6.69979 16.7377C6.7877 16.8256 6.90693 16.875 7.03125 16.875H15V18.75H7.03125C6.90693 18.75 6.7877 18.7994 6.69979 18.8873C6.61189 18.9752 6.5625 19.0944 6.5625 19.2188C6.5625 19.3431 6.61189 19.4623 6.69979 19.5502C6.7877 19.6381 6.90693 19.6875 7.03125 19.6875H15V21.5625H7.03125C6.90693 21.5625 6.7877 21.6119 6.69979 21.6998C6.61189 21.7877 6.5625 21.9069 6.5625 22.0312C6.5625 22.1556 6.61189 22.2748 6.69979 22.3627C6.7877 22.4506 6.90693 22.5 7.03125 22.5H15V24.375H7.03125C6.90693 24.375 6.7877 24.4244 6.69979 24.5123C6.61189 24.6002 6.5625 24.7194 6.5625 24.8438C6.5625 24.9681 6.61189 25.0873 6.69979 25.1752C6.7877 25.2631 6.90693 25.3125 7.03125 25.3125H15V27.1875H4.6875V2.8125ZM17.3438 27.1875H15.9375V11.25H25.3125V27.1875H17.3438Z" fill="#010101"/>
<path d="M7.03125 8.4375H15.4688C15.5931 8.4375 15.7123 8.38811 15.8002 8.30021C15.8881 8.2123 15.9375 8.09307 15.9375 7.96875C15.9375 7.84443 15.8881 7.7252 15.8002 7.63729C15.7123 7.54939 15.5931 7.5 15.4688 7.5H7.03125C6.90693 7.5 6.7877 7.54939 6.69979 7.63729C6.61189 7.7252 6.5625 7.84443 6.5625 7.96875C6.5625 8.09307 6.61189 8.2123 6.69979 8.30021C6.7877 8.38811 6.90693 8.4375 7.03125 8.4375ZM22.9688 13.125H18.2812C18.1569 13.125 18.0377 13.1744 17.9498 13.2623C17.8619 13.3502 17.8125 13.4694 17.8125 13.5938C17.8125 13.7181 17.8619 13.8373 17.9498 13.9252C18.0377 14.0131 18.1569 14.0625 18.2812 14.0625H22.9688C23.0931 14.0625 23.2123 14.0131 23.3002 13.9252C23.3881 13.8373 23.4375 13.7181 23.4375 13.5938C23.4375 13.4694 23.3881 13.3502 23.3002 13.2623C23.2123 13.1744 23.0931 13.125 22.9688 13.125ZM22.9688 16.875H18.2812C18.1569 16.875 18.0377 16.9244 17.9498 17.0123C17.8619 17.1002 17.8125 17.2194 17.8125 17.3438C17.8125 17.4681 17.8619 17.5873 17.9498 17.6752C18.0377 17.7631 18.1569 17.8125 18.2812 17.8125H22.9688C23.0931 17.8125 23.2123 17.7631 23.3002 17.6752C23.3881 17.5873 23.4375 17.4681 23.4375 17.3438C23.4375 17.2194 23.3881 17.1002 23.3002 17.0123C23.2123 16.9244 23.0931 16.875 22.9688 16.875ZM22.9688 20.625H18.2812C18.1569 20.625 18.0377 20.6744 17.9498 20.7623C17.8619 20.8502 17.8125 20.9694 17.8125 21.0938C17.8125 21.2181 17.8619 21.3373 17.9498 21.4252C18.0377 21.5131 18.1569 21.5625 18.2812 21.5625H22.9688C23.0931 21.5625 23.2123 21.5131 23.3002 21.4252C23.3881 21.3373 23.4375 21.2181 23.4375 21.0938C23.4375 20.9694 23.3881 20.8502 23.3002 20.7623C23.2123 20.6744 23.0931 20.625 22.9688 20.625ZM22.9688 24.375H18.2812C18.1569 24.375 18.0377 24.4244 17.9498 24.5123C17.8619 24.6002 17.8125 24.7194 17.8125 24.8438C17.8125 24.9681 17.8619 25.0873 17.9498 25.1752C18.0377 25.2631 18.1569 25.3125 18.2812 25.3125H22.9688C23.0931 25.3125 23.2123 25.2631 23.3002 25.1752C23.3881 25.0873 23.4375 24.9681 23.4375 24.8438C23.4375 24.7194 23.3881 24.6002 23.3002 24.5123C23.2123 24.4244 23.0931 24.375 22.9688 24.375ZM7.03125 5.625H15.4688C15.5931 5.625 15.7123 5.57561 15.8002 5.48771C15.8881 5.3998 15.9375 5.28057 15.9375 5.15625C15.9375 5.03193 15.8881 4.9127 15.8002 4.82479C15.7123 4.73689 15.5931 4.6875 15.4688 4.6875H7.03125C6.90693 4.6875 6.7877 4.73689 6.69979 4.82479C6.61189 4.9127 6.5625 5.03193 6.5625 5.15625C6.5625 5.28057 6.61189 5.3998 6.69979 5.48771C6.7877 5.57561 6.90693 5.625 7.03125 5.625Z" fill="#010101"/>
</svg>
