<svg width="31" height="31" viewBox="0 0 31 31" fill="none" xmlns="http://www.w3.org/2000/svg">
<g clip-path="url(#clip0_306_298)">
<path d="M1.48509 4.35938C1.08988 4.36371 0.712318 4.52369 0.4343 4.80461C0.156281 5.08553 0.000231218 5.46473 0 5.85997L0 25.142C0 25.9606 0.667469 26.6406 1.48509 26.6406H29.5149C30.3316 26.6406 31 25.9606 31 25.142V5.86094C31 5.46554 30.8441 5.08608 30.566 4.80495C30.288 4.52382 29.9103 4.36371 29.5149 4.35938H1.48509ZM1.48509 5.32812H29.5149C29.8055 5.32812 30.0312 5.55384 30.0312 5.85997V25.142C30.0337 25.2111 30.0222 25.28 29.9973 25.3445C29.9724 25.409 29.9347 25.4678 29.8864 25.5174C29.8382 25.5669 29.7804 25.6061 29.7165 25.6327C29.6526 25.6592 29.5841 25.6726 29.5149 25.6719H1.48509C1.41594 25.6726 1.34736 25.6592 1.2835 25.6327C1.21965 25.6061 1.16184 25.5669 1.11357 25.5174C1.06531 25.4678 1.02759 25.409 1.0027 25.3445C0.977807 25.28 0.966258 25.2111 0.96875 25.142V5.86094C0.966132 5.79165 0.977574 5.72256 1.00238 5.65782C1.0272 5.59308 1.06486 5.53403 1.11311 5.48424C1.16136 5.43445 1.2192 5.39495 1.28313 5.36812C1.34706 5.34129 1.41576 5.32768 1.48509 5.32812ZM26.8441 7.26562L4.64225 7.28791L4.56475 7.67444C4.42622 8.35547 3.95153 8.85922 3.29278 8.99484L2.90625 9.07816V23.0059L3.29181 23.0853C3.92634 23.2161 4.40781 23.6927 4.56766 24.336L4.65872 24.7031H26.8247L26.9158 24.336C27.0504 23.7915 27.3362 23.3963 27.8031 23.1909L28.0928 23.063V8.98322L27.8031 8.85728C27.3129 8.64222 27.0378 8.23534 26.9196 7.65312L26.8421 7.26562H26.8441ZM26.1398 8.23244V8.23438C26.3238 8.7575 26.6493 9.19731 27.126 9.50925V22.5331C26.6707 22.8286 26.3461 23.2413 26.1514 23.7344H5.29906C5.1678 23.4184 4.97396 23.1323 4.72923 22.8932C4.4845 22.6542 4.19393 22.4671 3.875 22.3432V9.73303C4.20481 9.60198 4.5032 9.40271 4.75062 9.14827C4.99804 8.89384 5.1889 8.59 5.31069 8.25666L26.1398 8.23244ZM9.20312 10.1719C9.07466 10.1719 8.95146 10.2229 8.86062 10.3137C8.76978 10.4046 8.71875 10.5278 8.71875 10.6562V13.5625C8.71875 13.691 8.76978 13.8142 8.86062 13.905C8.95146 13.9958 9.07466 14.0469 9.20312 14.0469H21.7969C21.9253 14.0469 22.0485 13.9958 22.1394 13.905C22.2302 13.8142 22.2812 13.691 22.2812 13.5625V10.6562C22.2812 10.5278 22.2302 10.4046 22.1394 10.3137C22.0485 10.2229 21.9253 10.1719 21.7969 10.1719H9.20312ZM9.6875 11.1406H21.3125V13.0781H9.6875V11.1406ZM8.71875 15.0156V15.9844H22.2812V15.0156H8.71875ZM5.8125 16.9531V17.9219H25.1875V16.9531H5.8125ZM5.8125 18.8906V19.8594H25.1875V18.8906H5.8125ZM5.8125 20.8281V21.7969H12.5938V20.8281H5.8125Z" fill="#1C3B3A" stroke="#1C3B3A" stroke-width="0.5"/>
</g>
<defs>
<clipPath id="clip0_306_298">
<rect width="31" height="31" fill="white"/>
</clipPath>
</defs>
</svg>
