<svg width="112" height="267" viewBox="0 0 112 267" fill="none" xmlns="http://www.w3.org/2000/svg">
<path d="M112 47.3896C109.612 47.3896 107.26 47.5326 104.896 47.9061C104.859 47.9119 104.823 47.9176 104.785 47.9236C104.228 48.0119 103.674 48.1103 103.12 48.216C103.083 48.2229 103.047 48.2297 103.01 48.2368C99.6405 48.8792 96.2876 49.9523 93.1175 51.3666C93.0683 51.3883 93.019 51.41 92.9683 51.4323C91.4059 52.1213 89.8404 52.8475 88.3583 53.7305C88.1679 53.8439 87.9746 53.9502 87.7805 54.0555C87.4927 54.2123 87.2132 54.3819 86.9347 54.5578C86.7557 54.6704 86.5755 54.7762 86.39 54.8754C86.0538 55.0577 85.735 55.2712 85.4137 55.4834C85.3175 55.5466 85.2209 55.6089 85.124 55.671C84.5858 56.0161 84.0586 56.3801 83.5321 56.7465C83.4053 56.8347 83.2783 56.9227 83.1513 57.0106C81.1044 58.4296 79.1534 60.0209 77.273 61.6963C77.2459 61.7204 77.2188 61.7445 77.1909 61.7693C76.8231 62.0965 76.4589 62.4273 76.1018 62.7686C75.9405 62.9225 75.777 63.0724 75.6109 63.2199C75.3601 63.4447 75.1248 63.6855 74.889 63.9287C74.7808 64.0402 74.6711 64.1492 74.5592 64.2562C74.3786 64.4289 74.2028 64.6073 74.027 64.7861C73.8841 64.9314 73.7402 65.0753 73.5952 65.2181C72.8502 65.96 72.1403 66.7402 71.4321 67.5243C71.2887 67.6831 71.1451 67.8416 71.0014 68C70.8892 68.1238 70.7771 68.2477 70.6651 68.3717C70.6121 68.4302 70.5592 68.4887 70.5062 68.5471C70.2526 68.8269 70.0009 69.1064 69.7693 69.4091C69.6956 69.5025 69.6178 69.5893 69.5377 69.676C69.4305 69.7927 69.3291 69.9116 69.231 70.0376C69.0681 70.2469 68.897 70.4469 68.7256 70.6477C68.4981 70.9149 68.2824 71.1878 68.0751 71.4747C67.9598 71.6291 67.8383 71.7763 67.7149 71.9228C67.5182 72.1566 67.3328 72.3979 67.1517 72.6467C67.0145 72.8314 66.8727 73.0114 66.7305 73.1914C66.5346 73.4397 66.3431 73.6902 66.1588 73.9492C66.076 74.0638 65.9922 74.177 65.9072 74.2897C65.608 74.687 65.3173 75.088 65.0394 75.5038C64.902 75.7086 64.7596 75.9059 64.6097 76.0999C64.3884 76.3883 64.1896 76.6915 63.9909 76.9992C63.8388 77.2345 63.684 77.4665 63.523 77.6945C63.3272 77.9731 63.1406 78.2573 62.9563 78.5451C62.8442 78.7199 62.7304 78.8933 62.6163 79.0665C62.3872 79.4148 62.1618 79.7654 61.9425 80.1212C61.9166 80.163 61.8908 80.2049 61.8641 80.248C61.7812 80.3824 61.6983 80.5169 61.6155 80.6514C61.5879 80.6962 61.5603 80.741 61.5318 80.7872C61.3604 81.0656 61.1894 81.3443 61.0188 81.6232C60.9608 81.7179 60.9027 81.8126 60.8446 81.9072C60.5032 82.4626 60.171 83.0214 59.8584 83.5972C59.7446 83.8064 59.6247 84.011 59.5035 84.2152C58.7489 85.4959 58.0414 86.8142 57.3688 88.1495C57.2735 88.3385 57.176 88.526 57.0784 88.7135C56.427 89.9661 55.8127 91.2352 55.2194 92.5223C55.0843 92.815 54.9462 93.1058 54.8062 93.3957C54.6502 93.7197 54.5052 94.0479 54.3656 94.3808C54.2668 94.6163 54.1644 94.8492 54.0584 95.0808C53.0083 97.383 52.0742 99.7509 51.1927 102.137C51.1792 102.174 51.1657 102.21 51.1517 102.248C50.3551 104.407 49.6023 106.59 48.9209 108.796C48.8731 108.951 48.825 109.105 48.7767 109.259C48.4051 110.446 48.0448 111.636 47.7048 112.835C47.6817 112.916 47.6817 112.916 47.6581 112.999C47.4791 113.63 47.3076 114.263 47.1448 114.899C47.0843 115.136 47.0218 115.371 46.9583 115.606C46.9391 115.678 46.9199 115.749 46.9007 115.82C46.8913 115.855 46.8819 115.89 46.8721 115.926C46.7238 116.477 46.5791 117.028 46.4577 117.587C46.3913 117.892 46.3149 118.193 46.2355 118.494C46.1402 118.855 46.0548 119.217 45.9795 119.584C45.9277 119.834 45.8674 120.08 45.8031 120.327C45.6445 120.942 45.5198 121.566 45.3907 122.189C45.3414 122.427 45.2916 122.665 45.2418 122.903C45.2073 123.068 45.1729 123.233 45.1386 123.398C45.0923 123.62 45.0455 123.841 44.9983 124.063C44.8724 124.656 44.7538 125.25 44.6479 125.848C44.5916 126.166 44.5329 126.482 44.4718 126.799C44.4609 126.855 44.4609 126.855 44.4497 126.913C44.4137 127.099 44.3776 127.284 44.3413 127.47C44.2741 127.815 44.2127 128.16 44.1622 128.508C44.1276 128.734 44.0882 128.959 44.0488 129.184C43.7729 130.764 43.5367 132.348 43.3172 133.939C43.2948 134.101 43.2723 134.263 43.2497 134.426C43.2106 134.708 43.1718 134.991 43.1332 135.273C43.1276 135.314 43.122 135.355 43.1162 135.397C43.049 135.889 42.9882 136.382 42.9337 136.876C42.918 137.017 42.9019 137.159 42.8858 137.3C42.3655 141.855 42.0071 146.425 41.8362 151.013C41.8344 151.059 41.8327 151.106 41.8309 151.154C41.7718 152.774 41.7443 154.393 41.7456 156.014C41.7458 156.255 41.7456 156.495 41.7455 156.736C41.7454 157.157 41.7454 157.578 41.7456 157.999C41.7458 158.629 41.7458 159.259 41.7457 159.89C41.7456 160.964 41.7457 162.039 41.7459 163.114C41.7461 164.201 41.7462 165.289 41.7462 166.377C41.7462 166.412 41.7462 166.446 41.7462 166.481C41.7462 166.797 41.7461 167.112 41.7461 167.428C41.7461 168.218 41.7461 169.009 41.7461 169.8C41.7461 169.836 41.7461 169.872 41.7461 169.909C41.7461 171.691 41.7463 173.473 41.7465 175.255C41.7466 175.882 41.7466 176.508 41.7467 177.135C41.7467 177.193 41.7467 177.193 41.7467 177.253C41.7469 179.06 41.747 180.868 41.747 182.675C41.747 182.793 41.747 182.912 41.747 183.03C41.747 183.743 41.747 184.457 41.7471 185.17C41.7471 186.944 41.7471 188.717 41.7472 190.491C41.7472 190.531 41.7472 190.572 41.7472 190.613C41.7473 193.226 41.7474 195.838 41.7476 198.451C41.7476 198.493 41.7476 198.535 41.7476 198.577C41.7477 199.846 41.7478 201.115 41.7479 202.384C41.748 203.788 41.7481 205.192 41.7482 206.596C41.7482 206.639 41.7482 206.681 41.7482 206.724C41.7486 210.695 41.7487 214.665 41.7489 218.636C41.7489 218.893 41.7489 219.15 41.7489 219.407C41.749 222.086 41.7491 224.765 41.7492 227.444C41.7492 227.483 41.7492 227.521 41.7492 227.561C41.7492 227.739 41.7492 227.916 41.7492 228.094C41.7496 241.063 41.7506 254.031 41.7514 267C64.9335 267 88.1155 267 112 267C112 194.529 112 122.057 112 47.3896Z" fill="#F9F8E4"/>
<path d="M112 0C110.431 0 108.878 0.0131944 107.313 0.0962063C107.138 0.105277 106.963 0.113539 106.788 0.121727C105.821 0.167058 104.858 0.236386 103.893 0.334252C103.605 0.363287 103.317 0.386752 103.029 0.409687C101.904 0.501795 100.778 0.620086 99.6604 0.783083C99.4223 0.817633 99.1839 0.848316 98.9453 0.878247C97.8058 1.02249 96.6764 1.21366 95.5453 1.42348C95.2605 1.47616 94.9756 1.52692 94.6902 1.57524C94.6385 1.58401 94.6385 1.58401 94.5857 1.59296C94.4308 1.61911 94.2759 1.64497 94.121 1.6705C93.7918 1.72585 93.4678 1.79519 93.1426 1.87413C92.9431 1.92126 92.7427 1.95768 92.5413 1.9936C91.6413 2.16096 90.7482 2.37314 89.8552 2.58071C89.8218 2.58845 89.7885 2.59619 89.7542 2.60416C88.5799 2.87786 87.4176 3.2099 86.254 3.53357C85.9923 3.60634 85.7306 3.6788 85.4687 3.75047C85.4185 3.76423 85.3682 3.778 85.3165 3.79218C85.2229 3.8178 85.1293 3.84334 85.0357 3.86879C84.6503 3.97435 84.269 4.09339 83.8886 4.21905C83.8356 4.23654 83.7825 4.25402 83.7279 4.27203C83.6979 4.28191 83.6679 4.29179 83.637 4.30196C83.4728 4.35595 83.3086 4.40961 83.1443 4.4633C82.8999 4.54322 82.6555 4.62328 82.4111 4.70334C82.3398 4.72669 82.3398 4.72669 82.2671 4.75052C81.5176 4.99611 80.7708 5.24949 80.0263 5.51304C79.7164 5.62276 79.4063 5.73227 79.0958 5.84026C79.0439 5.85841 78.9919 5.87655 78.9384 5.89524C78.8397 5.92968 78.741 5.96397 78.6422 5.99809C78.4349 6.07061 78.2308 6.14587 78.0296 6.23705C77.8172 6.33298 77.602 6.41714 77.385 6.49955C77.3487 6.51332 77.3125 6.52709 77.2752 6.54128C77.1984 6.57044 77.1215 6.59959 77.0447 6.62873C76.1485 6.9693 75.2627 7.33569 74.3799 7.71614C74.1851 7.79989 73.9899 7.88174 73.7939 7.96175C73.3629 8.1377 72.9387 8.32974 72.515 8.52601C72.4404 8.56047 72.3658 8.59492 72.2912 8.62935C72.1429 8.6978 71.9948 8.76635 71.8466 8.83499C71.6719 8.91591 71.4971 8.99642 71.3223 9.07683C70.1143 9.63404 68.9197 10.2257 67.7337 10.8374C67.5313 10.9417 67.3285 11.045 67.1251 11.147C67.0758 11.1718 67.0265 11.1966 66.9756 11.2221C66.8853 11.2674 66.7948 11.3126 66.7043 11.3576C66.3507 11.535 66.004 11.7264 65.657 11.919C65.4887 12.0121 65.3199 12.1041 65.1511 12.1963C63.8442 12.9111 63.8442 12.9111 63.2109 13.2991C62.8795 13.5018 62.5435 13.6935 62.2063 13.8842C61.7443 14.1463 61.2907 14.4202 60.8413 14.7076C60.62 14.8491 60.3968 14.9865 60.1731 15.1234C59.5408 15.5106 58.9184 15.9141 58.2975 16.3229C58.1474 16.4213 57.9966 16.5183 57.8456 16.615C57.3024 16.9635 56.7716 17.3342 56.24 17.7037C56.1995 17.7318 56.159 17.7599 56.1173 17.7889C55.932 17.9176 55.747 18.0465 55.562 18.1756C55.4257 18.2708 55.289 18.3653 55.152 18.4591C53.7532 19.4198 52.3847 20.448 51.0426 21.5019C50.9471 21.5766 50.8513 21.6509 50.7553 21.7249C50.3661 22.0257 49.9812 22.3321 49.5993 22.6441C49.3823 22.8212 49.1642 22.9963 48.9447 23.1694C48.5862 23.4523 48.2353 23.7436 47.8885 24.0436C47.6587 24.2423 47.4267 24.4373 47.1924 24.6296C46.6865 25.0458 46.1934 25.4784 45.7044 25.9185C45.501 26.1013 45.2956 26.281 45.0885 26.4587C44.8463 26.6669 44.6103 26.882 44.3768 27.102C44.2299 27.2402 44.0814 27.3752 43.9298 27.5071C43.7092 27.6998 43.4962 27.9013 43.2832 28.104C43.1136 28.265 42.9422 28.4229 42.7681 28.5781C42.563 28.7616 42.3669 28.9539 42.1717 29.1501C42.0544 29.265 41.9339 29.3734 41.8113 29.4814C41.5273 29.7344 41.2638 30.0096 40.9982 30.2856C40.8517 30.4377 40.7022 30.5852 40.5498 30.7302C40.2304 31.0351 39.9207 31.3522 39.6107 31.6687C39.4627 31.8196 39.3137 31.969 39.1632 32.1169C38.6842 32.5906 38.2125 33.0758 37.7643 33.5849C37.6778 33.6777 37.591 33.7627 37.499 33.8485C37.1986 34.1376 36.9207 34.4526 36.6392 34.7635C36.5775 34.8315 36.5159 34.8994 36.4542 34.9673C36.3255 35.1091 36.1969 35.2511 36.0683 35.393C35.9044 35.5741 35.7402 35.7549 35.576 35.9357C35.4487 36.0757 35.3216 36.2159 35.1946 36.3561C35.1341 36.4228 35.0736 36.4894 35.0131 36.556C34.4417 37.185 34.4417 37.185 34.2064 37.4927C34.0911 37.6402 33.9639 37.7746 33.8376 37.9106C33.6426 38.1229 33.4552 38.3378 33.2776 38.5683C33.2023 38.6631 33.1233 38.7513 33.0417 38.8396C32.9344 38.9562 32.8327 39.075 32.7345 39.201C32.5689 39.4128 32.396 39.6164 32.2224 39.8203C32.0268 40.0503 31.8328 40.281 31.6463 40.5201C31.5458 40.647 31.4422 40.7705 31.3387 40.8945C31.1847 41.0804 31.037 41.2693 30.894 41.4655C30.7353 41.6825 30.5691 41.8881 30.3965 42.0913C30.1902 42.3345 29.9955 42.5841 29.8062 42.8438C29.6755 43.0198 29.5404 43.1911 29.4046 43.3623C29.1007 43.7464 28.8067 44.1388 28.5141 44.5333C28.3997 44.6872 28.2849 44.8405 28.17 44.9939C27.8036 45.4833 27.4438 45.9778 27.0888 46.4773C26.9277 46.7036 26.7648 46.9284 26.6013 47.1528C26.3721 47.4679 26.1468 47.786 25.9247 48.1072C25.8441 48.2236 25.7633 48.3398 25.6825 48.456C25.2934 49.0166 24.9098 49.5813 24.5315 50.1508C24.4492 50.2743 24.3666 50.3975 24.2839 50.5206C23.9504 51.0168 23.6231 51.5171 23.3017 52.023C23.2107 52.166 23.1192 52.3086 23.0277 52.4512C22.9335 52.5981 22.8394 52.7452 22.7454 52.8923C22.6954 52.9705 22.6453 53.0487 22.5952 53.1268C22.1786 53.7761 21.775 54.434 21.3765 55.097C21.2543 55.3001 21.1315 55.5027 21.0086 55.7054C20.418 56.6798 19.8333 57.6561 19.2756 58.654C19.1331 58.9089 18.9888 59.1626 18.8444 59.4161C18.5985 59.8478 18.355 60.2803 18.1226 60.7209C17.9826 60.986 17.8398 61.2492 17.6961 61.5118C17.0853 62.6285 16.5001 63.7597 15.9316 64.9031C15.8207 65.1261 15.709 65.3485 15.597 65.5707C15.2247 66.3094 14.8628 67.0528 14.5124 67.8044C14.454 67.9284 14.3951 68.0519 14.3356 68.1752C13.987 68.8984 13.6537 69.6299 13.3215 70.3624C13.2563 70.5061 13.191 70.6498 13.1256 70.7933C12.6051 71.9353 12.0969 73.0828 11.6374 74.2565C11.5403 74.5043 11.4376 74.7488 11.3336 74.9931C11.0169 75.7376 10.711 76.4856 10.4281 77.2466C10.3427 77.476 10.2556 77.7035 10.1608 77.9283C9.96109 78.4085 9.78439 78.8999 9.60355 79.389C9.58322 79.4439 9.5629 79.4988 9.54196 79.5554C8.80474 81.5491 8.09431 83.5562 7.45523 85.591C7.37993 85.8305 7.30338 86.0694 7.22663 86.3083C7.06758 86.8036 6.90989 87.2994 6.75351 87.7957C6.74212 87.8318 6.73071 87.868 6.71896 87.9053C6.37027 89.0141 6.05354 90.1339 5.74002 91.2554C5.70942 91.3648 5.67876 91.4743 5.64811 91.5837C5.40839 92.4403 5.17741 93.2989 4.96167 94.1632C4.91315 94.3567 4.86333 94.5498 4.81331 94.7428C4.61467 95.5127 4.42673 96.2839 4.25417 97.0615C4.19974 97.3032 4.1403 97.5434 4.08142 97.7838C4.02657 98.0114 3.97511 98.2398 3.92388 98.4684C3.88406 98.6454 3.84327 98.8219 3.80015 98.998C3.48541 100.283 3.22629 101.583 2.97985 102.886C2.92639 103.168 2.87103 103.449 2.81514 103.73C2.32607 106.196 1.8826 108.688 1.57376 111.189C1.52967 111.546 1.4796 111.901 1.42571 112.257C1.28792 113.166 1.1832 114.078 1.08262 114.993C1.04899 115.297 1.01179 115.601 0.973038 115.904C0.866707 116.74 0.785934 117.579 0.705231 118.419C0.69902 118.483 0.69281 118.547 0.686417 118.613C0.62516 119.247 0.567505 119.88 0.538391 120.517C0.526588 120.751 0.504799 120.985 0.482666 121.218C0.0286102 126.03 -0.00286865 130.872 0.000175476 135.703C0.000457764 136.183 0.000518799 136.663 0.000419617 137.143C0.000411987 137.195 0.000411987 137.195 0.000404358 137.249C0.000366211 137.428 0.000328064 137.607 0.000289917 137.786C0 139.083 0.000167847 140.379 0.000579834 141.676C0.000991821 142.987 0.00119019 144.299 0.00114441 145.611C0.00114441 145.652 0.00114441 145.694 0.00114441 145.737C0.00113678 146.118 0.00112152 146.499 0.00109863 146.88C0.00106049 147.834 0.00104523 148.789 0.00105286 149.744C0.00105286 149.788 0.00105286 149.832 0.00105286 149.877C0.00107574 152.025 0.00144958 154.174 0.00184631 156.323C0.00198364 157.078 0.00211334 157.833 0.00223541 158.589C0.0022583 158.659 0.00226593 158.659 0.00228119 158.731C0.0026474 160.911 0.0027771 163.092 0.00284576 165.272C0.00285339 165.415 0.00286865 165.558 0.00286865 165.7C0.00289917 166.562 0.00292969 167.423 0.00295258 168.284C0.00300598 170.425 0.0030899 172.565 0.00320435 174.706C0.00320435 174.754 0.00321198 174.803 0.0032196 174.853C0.00337219 178.005 0.00366211 181.157 0.00405121 184.309C0.00405884 184.359 0.00406647 184.409 0.0040741 184.461C0.0042572 185.991 0.00445557 187.521 0.00465393 189.051C0.00487518 190.745 0.00510406 192.438 0.00531769 194.131C0.00532532 194.182 0.00532532 194.233 0.00533295 194.285C0.00593567 199.127 0.00629425 203.969 0.0065918 208.81C0.00659943 209.016 0.00660706 209.221 0.00662231 209.426C0.00673676 211.315 0.0068512 213.203 0.00696564 215.092C0.00697327 215.142 0.00696564 215.192 0.00696564 215.244C0.00697327 215.396 0.00698853 215.548 0.00700378 215.7C0.00723267 219.808 0.00748444 223.915 0.00775909 228.023C0.00776672 228.168 0.00778198 228.312 0.00780487 228.457C0.00811005 233.162 0.00847626 237.866 0.0102539 254.544C0.0102615 254.585 0.0102615 254.625 0.0102615 254.667C0.0104065 255.871 0.0105515 257.075 0.0106888 258.278C0.010704 258.417 0.0107193 258.556 0.0107346 258.694C0.011055 261.463 0.0114059 264.232 0.0117416 267C6.74789 267 13.484 267 20.4243 267C20.4247 265.463 20.4251 263.925 20.4255 262.341C20.4257 261.298 20.426 260.255 20.4262 259.212C20.4263 259.145 20.4263 259.078 20.4263 259.009C20.4266 257.917 20.4268 256.826 20.4271 255.734C20.4271 255.697 20.4271 255.66 20.4272 255.622C20.4282 251.666 20.4292 247.709 20.4337 232.001C20.4337 231.87 20.4338 231.738 20.4338 231.607C20.435 227.888 20.4361 224.168 20.4373 220.449C20.4373 220.311 20.4374 220.173 20.4374 220.035C20.4374 219.99 20.4375 219.944 20.4375 219.898C20.438 218.188 20.4386 216.478 20.4391 214.768C20.4391 214.582 20.4392 214.396 20.4393 214.211C20.4406 209.83 20.4419 205.449 20.443 201.068C20.443 201.022 20.443 200.976 20.443 200.928C20.4434 199.397 20.4438 197.866 20.4441 196.335C20.4445 194.951 20.4448 193.568 20.4451 192.185C20.4451 192.139 20.4452 192.094 20.4452 192.047C20.4459 189.196 20.4467 186.346 20.4476 183.496C20.4476 183.451 20.4476 183.407 20.4476 183.362C20.4483 181.425 20.4489 179.489 20.4496 177.552C20.4499 176.772 20.4501 175.993 20.4504 175.214C20.4504 175.084 20.4505 174.955 20.4505 174.826C20.4512 172.853 20.4518 170.881 20.4522 168.908C20.4522 168.866 20.4522 168.823 20.4522 168.78C20.4523 168.097 20.4525 167.415 20.4526 166.733C20.4529 164.792 20.4533 162.851 20.454 160.91C20.4541 160.87 20.4541 160.831 20.4541 160.79C20.4544 159.926 20.4548 159.063 20.4551 158.199C20.4553 157.854 20.4554 157.51 20.4556 157.165C20.4556 157.128 20.4556 157.09 20.4556 157.051C20.4561 155.867 20.4563 154.683 20.4564 153.499C20.4564 152.296 20.4568 151.094 20.4575 149.891C20.4579 149.269 20.4581 148.646 20.4579 148.024C20.4573 145.817 20.4603 143.612 20.5144 141.406C20.5154 141.366 20.5163 141.326 20.5173 141.285C20.5609 139.506 20.6395 137.729 20.7662 135.954C20.791 135.605 20.8128 135.255 20.8309 134.905C20.8715 134.122 20.9382 133.343 21.0115 132.562C21.0197 132.475 21.0279 132.387 21.0361 132.3C21.04 132.258 21.044 132.215 21.048 132.172C21.0778 131.851 21.1019 131.531 21.1237 131.21C21.1859 130.327 21.292 129.449 21.3902 128.57C21.408 128.411 21.4257 128.252 21.4435 128.093C21.48 127.765 21.5169 127.437 21.5538 127.11C21.5595 127.059 21.5652 127.008 21.5711 126.955C21.6733 126.046 21.7806 125.138 21.9225 124.235C21.9382 124.132 21.9538 124.029 21.9693 123.926C21.977 123.874 21.9848 123.823 21.9927 123.771C22.0629 123.306 22.0629 123.306 22.0865 123.15C22.1016 123.051 22.1166 122.951 22.1317 122.851C22.1715 122.589 22.2111 122.326 22.2505 122.063C22.4238 120.906 22.6018 119.752 22.8129 118.603C22.8647 118.321 22.9154 118.039 22.9633 117.755C23.2806 115.888 23.6487 114.028 24.0791 112.188C24.1637 111.826 24.2447 111.462 24.3256 111.098C24.6248 109.755 24.9356 108.417 25.2758 107.086C25.2915 107.025 25.3072 106.963 25.3234 106.9C25.4765 106.302 25.6326 105.706 25.8031 105.114C25.8719 104.873 25.9368 104.632 26.0017 104.39C27.1965 99.9462 28.6748 95.5928 30.8818 89.8465C30.9502 89.6744 31.0182 89.5022 31.0862 89.3299C31.1445 89.1822 31.2028 89.0345 31.2612 88.8868C31.2888 88.8171 31.3163 88.7473 31.3438 88.6776C31.6329 87.9452 31.9414 87.224 32.2575 86.5053C32.3157 86.3729 32.3739 86.2404 32.432 86.1079C32.4463 86.0753 32.4606 86.0428 32.4753 86.0092C32.5579 85.8208 32.6398 85.6321 32.7209 85.443C33.0008 84.7908 33.2907 84.1443 33.5831 83.4988C33.6026 83.4556 33.6221 83.4123 33.6423 83.3678C33.909 82.7783 34.1823 82.1931 34.4624 81.6112C34.5129 81.5061 34.5634 81.4009 34.6137 81.2958C34.7029 81.1095 34.7925 80.9234 34.8823 80.7374C34.8979 80.7049 34.9136 80.6725 34.9298 80.639C35.1922 80.0958 35.4628 79.5582 35.74 79.0239C35.8578 78.7964 35.9718 78.5668 36.0853 78.3366C36.5406 77.4163 37.0251 76.5145 37.5128 75.6147C37.5391 75.5662 37.5654 75.5176 37.5925 75.4676C38.2077 74.33 38.2077 74.33 38.8479 73.2094C38.9977 72.9543 39.145 72.6975 39.2919 72.4405C39.8022 71.5488 40.3237 70.6664 40.8671 69.7988C41.022 69.5516 41.1755 69.3035 41.3286 69.055C42.6047 66.9854 43.955 64.9648 45.364 63.0028C45.4283 62.9131 45.4923 62.8231 45.5562 62.733C45.8204 62.3605 46.0886 61.9922 46.3614 61.6273C46.4268 61.5392 46.4921 61.451 46.5574 61.3628C46.6115 61.29 46.6655 61.2172 46.7196 61.1445C46.7651 61.0832 46.8106 61.022 46.8561 60.9607C47.1681 60.5406 47.4819 60.1228 47.8038 59.712C47.9434 59.5335 48.0795 59.3527 48.2136 59.1692C48.383 58.9389 48.5622 58.7203 48.7453 58.5034C48.8835 58.3388 49.0141 58.17 49.1412 57.995C49.3315 57.7343 49.5344 57.4896 49.7426 57.2464C49.8727 57.0942 50 56.9403 50.1242 56.7822C50.3386 56.5102 50.5659 56.2518 50.7929 55.9925C50.8252 55.9551 50.8575 55.9177 50.8908 55.8792C50.9201 55.8456 50.9494 55.812 50.9796 55.7774C51.0432 55.6917 51.0432 55.6917 51.0432 55.5884C51.0712 55.575 51.0992 55.5616 51.128 55.5477C51.2381 55.4805 51.2921 55.4182 51.3709 55.311C51.5394 55.0908 51.721 54.8894 51.908 54.6885C52.0312 54.555 52.1478 54.4186 52.2596 54.2734C52.4873 53.9854 52.7335 53.7176 52.9786 53.4479C53.0297 53.3915 53.0809 53.3351 53.132 53.2787C53.2386 53.1611 53.3453 53.0436 53.452 52.9261C53.5879 52.7766 53.7236 52.6269 53.8592 52.477C53.9645 52.3607 54.07 52.2445 54.1755 52.1283C54.2255 52.0732 54.2755 52.018 54.3255 51.9628C54.5725 51.69 54.8202 51.4206 55.0868 51.1708C55.2481 51.017 55.3932 50.8451 55.5421 50.677C55.674 50.5314 55.8143 50.3978 55.9553 50.2632C56.1144 50.1092 56.2676 49.9486 56.4214 49.7883C56.6661 49.5342 56.912 49.2821 57.163 49.0355C57.2371 48.9625 57.3108 48.8891 57.3843 48.8153C57.5808 48.6179 57.7797 48.4268 57.9869 48.2431C58.1845 48.067 58.3721 47.8828 58.5574 47.6915C58.7789 47.4631 59.006 47.2472 59.2425 47.0378C59.3962 46.8998 59.5459 46.7572 59.6957 46.614C59.9412 46.3802 60.1922 46.1562 60.4484 45.9368C60.6247 45.7856 60.7975 45.6306 60.9686 45.4721C61.4708 45.0073 61.9929 44.5694 62.5135 44.1301C62.5427 44.1055 62.5718 44.0809 62.6018 44.0556C62.7649 43.9179 62.9281 43.7803 63.0915 43.6428C63.2448 43.5137 63.3979 43.3842 63.5509 43.2545C64.0244 42.8537 64.5024 42.4632 64.9927 42.0876C65.1221 41.9882 65.2508 41.8877 65.3795 41.7873C65.7082 41.5308 66.0376 41.2754 66.3672 41.0203C66.4041 40.9917 66.441 40.9631 66.479 40.9337C66.7769 40.7034 67.0791 40.4804 67.3826 40.259C67.4119 40.2376 67.4412 40.2162 67.4714 40.1942C68.2777 39.6053 69.0838 39.0172 69.9106 38.4638C70.0399 38.3771 70.1684 38.2889 70.297 38.2009C71.073 37.6757 71.8554 37.1633 72.6478 36.6689C72.7667 36.5944 72.8851 36.5192 73.0035 36.4438C74.2802 35.6313 75.5885 34.8756 76.9099 34.1551C77.021 34.0943 77.1318 34.033 77.2423 33.9708C77.7822 33.6679 78.3326 33.3909 78.8833 33.1128C79.0202 33.0432 79.1569 32.973 79.2934 32.9025C79.6988 32.6931 80.1061 32.4887 80.515 32.2879C80.5505 32.2704 80.5861 32.253 80.6227 32.235C81.7425 31.6861 82.8762 31.168 84.0245 30.6959C84.2111 30.6189 84.3955 30.5366 84.5799 30.4533C85.0488 30.2418 85.5237 30.0608 86.0051 29.8874C86.2969 29.7822 86.5866 29.6707 86.8764 29.5588C87.8851 29.1711 88.9026 28.8059 89.9281 28.4762C90.0546 28.4355 90.181 28.3944 90.3074 28.3533C90.5467 28.2757 90.7861 28.1992 91.0257 28.123C91.1557 28.0814 91.2855 28.0391 91.4153 27.9966C92.4489 27.6636 93.5006 27.4027 94.5485 27.1309C94.6612 27.1017 94.7738 27.0722 94.8863 27.0425C96.5912 26.5949 98.3196 26.2445 100.053 25.9592C100.29 25.9199 100.526 25.8766 100.762 25.8323C101.175 25.7554 101.589 25.6912 102.004 25.6329C102.042 25.6275 102.08 25.6222 102.12 25.6166C103.796 25.3817 105.48 25.2128 107.166 25.0921C107.265 25.0849 107.364 25.0774 107.463 25.0698C108.974 24.9545 110.486 24.9286 112 24.878C112 16.6683 112 8.45853 112 0Z" fill="#A3B38C"/>
<path d="M108.423 24.8871C108.38 24.8903 108.336 24.8934 108.291 24.8967C108.152 24.9067 108.014 24.9173 107.876 24.9279C107.778 24.9352 107.679 24.9424 107.581 24.9497C107.389 24.9639 107.197 24.9783 107.005 24.9928C106.8 25.0083 106.594 25.0226 106.388 25.036C104.321 25.1738 102.248 25.4304 100.206 25.8093C100.029 25.8414 99.852 25.8715 99.6746 25.9014C98.4324 26.1125 97.2021 26.3828 95.9716 26.6639C95.9348 26.6723 95.8981 26.6806 95.8602 26.6893C95.0025 26.8844 94.1512 27.1075 93.3002 27.3351C93.2525 27.3478 93.2049 27.3605 93.1557 27.3735C92.491 27.5508 91.834 27.7493 91.1786 27.9647C90.9684 28.033 90.7576 28.0987 90.5468 28.1644C90.0728 28.3134 89.6002 28.4662 89.1291 28.6258C89.0994 28.6359 89.0696 28.646 89.039 28.6563C88.1625 28.9533 87.2903 29.2611 86.4255 29.5971C86.3909 29.6106 86.3563 29.624 86.3206 29.6379C85.4368 29.982 84.5596 30.3437 83.6867 30.7201C83.6164 30.7504 83.6164 30.7504 83.5446 30.7813C82.6966 31.1474 81.8556 31.5282 81.0211 31.9301C80.988 31.9461 80.9548 31.962 80.9206 31.9785C79.9453 32.4474 78.9783 32.934 78.0174 33.4376C77.8556 33.5223 77.6935 33.6066 77.5312 33.6902C77.199 33.8613 76.868 34.0321 76.5454 34.2244C76.2619 34.3913 75.9771 34.5552 75.6908 34.7161C74.9713 35.1209 74.2594 35.5341 73.5591 35.9784C73.3757 36.0939 73.1909 36.2068 73.0062 36.3198C72.0711 36.8924 71.1407 37.4796 70.2387 38.1137C70.0987 38.212 69.9583 38.3095 69.818 38.4071C69.7414 38.4603 69.6649 38.5135 69.5885 38.5669C69.4158 38.6872 69.2429 38.8072 69.0691 38.9256C68.5455 39.282 68.0337 39.6568 67.5236 40.036C67.4755 40.0717 67.4275 40.1074 67.3781 40.1441C66.7657 40.5999 66.1567 41.0602 65.5552 41.5333C65.5002 41.5763 65.4453 41.6193 65.3904 41.6623C65.2554 41.7681 65.1208 41.8743 64.9862 41.9807C64.9257 42.0285 64.8651 42.0762 64.8045 42.1239C64.1428 42.6441 63.4942 43.1829 62.8534 43.734C62.6984 43.867 62.5418 43.9974 62.3839 44.1262C62.0573 44.3926 61.7387 44.6678 61.4246 44.9517C61.2238 45.1331 61.0209 45.3108 60.8158 45.4862C60.562 45.7038 60.3167 45.9306 60.0736 46.1624C59.9109 46.3174 59.7467 46.4695 59.5797 46.6188C59.1766 46.9798 58.7818 47.3513 58.3992 47.7385C58.2384 47.9012 58.0747 48.0562 57.9042 48.2064C57.6203 48.4586 57.3574 48.7333 57.0922 49.0087C56.9782 49.1269 56.8631 49.2428 56.7442 49.3552C56.532 49.5564 56.329 49.7686 56.1248 49.9796C55.9362 50.1743 55.7463 50.3672 55.555 50.5588C55.3569 50.758 55.1653 50.9621 54.9787 51.1743C54.8911 51.2682 54.8025 51.3548 54.7095 51.442C54.4435 51.6978 54.196 51.9742 53.9467 52.2494C53.8944 52.307 53.8422 52.3645 53.7899 52.422C53.6809 52.542 53.572 52.6621 53.4632 52.7822C53.3246 52.9352 53.1857 53.088 53.0469 53.2406C52.9391 53.3592 52.8314 53.4779 52.7237 53.5967C52.6726 53.653 52.6215 53.7093 52.5703 53.7655C52.3199 54.0409 52.0722 54.3166 51.8431 54.6139C51.7338 54.7529 51.6146 54.8803 51.4952 55.0086C51.3082 55.2117 51.13 55.4185 50.9597 55.6389C50.8837 55.7342 50.804 55.8232 50.7219 55.9121C50.6144 56.0287 50.5126 56.1476 50.4143 56.2735C50.2509 56.4828 50.0794 56.6827 49.9076 56.8834C49.6813 57.1483 49.4675 57.4188 49.2615 57.7032C49.1291 57.8783 48.989 58.0438 48.8472 58.2096C48.6318 58.4619 48.4278 58.7196 48.2312 58.9899C48.101 59.1656 47.9662 59.3362 47.8308 59.5068C47.5262 59.8915 47.2316 60.2845 46.9383 60.6795C46.8282 60.8277 46.7175 60.9754 46.6068 61.1232C45.6727 62.3703 45.6727 62.3703 45.2462 62.9864C45.124 63.1627 45.0002 63.3376 44.8764 63.5124C44.5947 63.9101 44.3168 64.3103 44.0434 64.715C44.0009 64.7773 43.9583 64.8396 43.9158 64.9019C43.3871 65.6758 42.8628 66.4532 42.3562 67.2448C42.3318 67.2829 42.3074 67.321 42.2823 67.3603C41.9061 67.9489 41.5348 68.5409 41.1668 69.1357C41.0893 69.2608 41.0115 69.3858 40.9337 69.5107C40.2245 70.6492 39.5478 71.8075 38.8809 72.9765C38.8325 73.0612 38.7841 73.146 38.7357 73.2307C38.7122 73.2717 38.6888 73.3128 38.6646 73.3551C38.5083 73.6278 38.3478 73.8965 38.181 74.1616C38.1026 74.2983 38.0326 74.4357 37.9632 74.5781C37.8152 74.88 37.6545 75.172 37.4912 75.4641C37.097 76.17 36.721 76.8861 36.3509 77.6075C36.274 77.7569 36.1967 77.906 36.1191 78.0549C35.9511 78.3778 35.7861 78.7022 35.6249 79.0293C35.6015 79.0768 35.5781 79.1242 35.5539 79.1731C35.3397 79.6073 35.1272 80.0424 34.9149 80.4777C34.7831 80.748 34.6507 81.0179 34.5166 81.2869C34.4921 81.3361 34.4676 81.3854 34.4423 81.4361C34.3974 81.5262 34.3524 81.6161 34.3072 81.706C34.1226 82.076 33.9522 82.4532 33.7819 82.8313C33.7017 83.0088 33.6208 83.186 33.5399 83.3632C33.1844 84.1432 32.8314 84.924 32.4933 85.7134C32.4234 85.8762 32.3532 86.0388 32.283 86.2014C31.0051 89.1596 29.8442 92.1757 28.7648 95.2281C28.7425 95.2914 28.7201 95.3546 28.697 95.4198C27.6136 98.4947 26.6555 101.625 25.7928 104.783C25.7677 104.874 25.7424 104.966 25.7172 105.058C25.6155 105.427 25.5164 105.797 25.4193 106.167C25.3991 106.244 25.3789 106.321 25.3587 106.397C24.9803 107.834 24.6315 109.279 24.2977 110.729C24.2691 110.854 24.2404 110.978 24.2117 111.102C23.9643 112.175 23.7322 113.25 23.5158 114.331C23.4913 114.453 23.4667 114.574 23.4422 114.695C23.3714 115.046 23.3013 115.397 23.2316 115.748C23.2195 115.809 23.2074 115.87 23.195 115.932C23.0151 116.839 22.8465 117.747 22.6986 118.661C22.6593 118.902 22.6174 119.141 22.5755 119.381C22.5452 119.556 22.5149 119.732 22.4847 119.907C22.4753 119.961 22.466 120.016 22.4563 120.071C22.347 120.706 22.2409 121.341 22.1576 121.98C22.1252 122.228 22.0867 122.472 22.0424 122.718C21.9603 123.183 21.9054 123.652 21.8494 124.121C21.8174 124.387 21.7853 124.65 21.7352 124.913C21.6705 125.254 21.6319 125.599 21.5913 125.945C21.5866 125.984 21.5819 126.024 21.5771 126.064C21.4686 126.983 21.3665 127.903 21.265 128.823C21.2466 128.99 21.2281 129.157 21.2094 129.324C21.097 130.329 21.0008 131.334 20.9295 132.344C20.927 132.379 20.9245 132.415 20.9219 132.451C20.9195 132.486 20.917 132.52 20.9145 132.556C20.8882 132.921 20.8533 133.284 20.818 133.647C20.7496 134.377 20.7089 135.107 20.6733 135.839C20.6578 136.157 20.6406 136.475 20.6228 136.793C20.6111 137.003 20.5995 137.213 20.588 137.423C20.5724 137.709 20.5563 137.994 20.5399 138.28C20.4815 139.313 20.4416 140.345 20.4174 141.379C20.4164 141.42 20.4155 141.46 20.4145 141.502C20.3615 143.723 20.3626 145.945 20.3641 148.166C20.3645 148.795 20.3644 149.423 20.3642 150.052C20.364 151.226 20.3641 152.399 20.3645 153.573C20.3649 154.759 20.3652 155.946 20.3651 157.132C20.3651 157.17 20.3651 157.208 20.3651 157.246C20.3651 157.592 20.3651 157.937 20.3651 158.282C20.365 159.147 20.365 160.013 20.365 160.878C20.365 160.917 20.365 160.957 20.365 160.998C20.365 162.942 20.3654 164.886 20.3658 166.83C20.3659 167.513 20.3661 168.196 20.3662 168.879C20.3662 168.921 20.3662 168.964 20.3662 169.007C20.3666 170.981 20.3667 172.954 20.3668 174.928C20.3668 175.057 20.3668 175.186 20.3668 175.316C20.3669 176.096 20.3669 176.875 20.3669 177.655C20.367 179.594 20.3671 181.532 20.3672 183.47C20.3672 183.515 20.3672 183.559 20.3672 183.604C20.3673 186.457 20.3676 189.309 20.368 192.162C20.368 192.208 20.368 192.253 20.368 192.3C20.3682 193.684 20.3684 195.068 20.3686 196.453C20.3688 197.984 20.3691 199.516 20.3693 201.048C20.3693 201.094 20.3693 201.14 20.3693 201.188C20.3699 205.57 20.3703 209.952 20.3705 214.334C20.3706 214.52 20.3706 214.706 20.3706 214.892C20.3707 216.601 20.3708 218.311 20.3709 220.021C20.3709 220.09 20.3709 220.09 20.3709 220.159C20.3709 220.297 20.3709 220.434 20.371 220.572C20.3712 224.291 20.3715 228.009 20.3717 231.728C20.3717 231.859 20.3717 231.99 20.3718 232.121C20.3721 236.382 20.3724 240.642 20.3733 248.162C20.3733 248.277 20.3733 248.393 20.3733 248.509C20.3733 248.547 20.3733 248.585 20.3733 248.624C20.3734 248.726 20.3734 248.828 20.3734 248.931C20.3741 254.954 20.3749 260.977 20.3757 267C27.3973 267 34.4188 267 41.6532 267C41.6549 261.889 41.6549 261.889 41.6567 256.675C41.6578 253.472 41.6578 253.472 41.659 250.268C41.659 250.199 41.659 250.13 41.659 250.061C41.659 250.027 41.6591 249.992 41.6591 249.956C41.6591 249.849 41.6591 249.741 41.6592 249.634C41.6605 245.768 41.6619 241.902 41.6645 234.938C41.6646 234.818 41.6646 234.698 41.6647 234.578C41.6659 231.173 41.6672 227.769 41.6685 224.364C41.6686 224.238 41.6686 224.112 41.6687 223.986C41.6687 223.944 41.6687 223.903 41.6687 223.86C41.6693 222.295 41.6699 220.73 41.6705 219.165C41.6706 218.995 41.6706 218.825 41.6707 218.655C41.6722 214.643 41.6737 210.631 41.6751 206.619C41.6751 206.555 41.6751 206.555 41.6751 206.491C41.6756 205.087 41.6761 203.684 41.6766 202.281C41.677 201.013 41.6774 199.745 41.6778 198.476C41.6779 198.435 41.6779 198.393 41.6779 198.35C41.6788 195.74 41.6797 193.129 41.6807 190.519C41.6808 190.479 41.6808 190.438 41.6808 190.397C41.6815 188.625 41.6822 186.853 41.6829 185.081C41.6832 184.368 41.6834 183.655 41.6837 182.942C41.6838 182.824 41.6838 182.706 41.6839 182.588C41.6846 180.781 41.6852 178.975 41.6858 177.168C41.6858 177.129 41.6858 177.09 41.6859 177.05C41.6861 176.424 41.6862 175.798 41.6864 175.172C41.687 173.393 41.6875 171.614 41.6883 169.836C41.6883 169.799 41.6883 169.763 41.6883 169.726C41.6886 168.937 41.689 168.148 41.6893 167.359C41.6895 167.044 41.6896 166.729 41.6897 166.414C41.6898 166.38 41.6898 166.346 41.6898 166.31C41.6903 165.191 41.6906 164.072 41.6909 162.953C41.6911 161.886 41.6915 160.818 41.6921 159.751C41.6924 159.126 41.6927 158.501 41.6927 157.876C41.6927 157.459 41.6929 157.043 41.6932 156.627C41.6934 156.391 41.6936 156.156 41.6935 155.921C41.6928 154.189 41.731 152.459 41.7998 150.728C41.8012 150.693 41.8026 150.657 41.804 150.62C41.8055 150.584 41.8069 150.548 41.8084 150.511C41.8099 150.473 41.8114 150.436 41.8129 150.397C41.8752 148.819 41.965 147.245 42.075 145.67C42.0815 145.575 42.0815 145.575 42.0882 145.478C42.2804 142.702 42.5207 139.934 42.8565 137.174C42.8796 136.983 42.902 136.792 42.9244 136.601C42.94 136.469 42.9556 136.338 42.9713 136.206C42.9776 136.153 42.9839 136.099 42.9903 136.044C43.0593 135.474 43.1412 134.905 43.2213 134.337C43.2459 134.162 43.2702 133.988 43.2945 133.813C43.5182 132.205 43.7614 130.603 44.0427 129.006C44.0909 128.732 44.1382 128.458 44.1854 128.184C44.4326 126.753 44.6999 125.33 45.0027 123.912C45.0757 123.569 45.1442 123.226 45.2121 122.882C45.3319 122.28 45.4632 121.681 45.5958 121.082C45.6058 121.037 45.6157 120.992 45.626 120.945C45.7358 120.449 45.8487 119.954 45.9695 119.461C46.0196 119.256 46.068 119.05 46.1163 118.845C46.2478 118.285 46.3843 117.727 46.5273 117.171C46.5444 117.104 46.5615 117.037 46.5786 116.97C46.8643 115.847 46.8643 115.847 47.1768 114.732C47.2589 114.451 47.3329 114.169 47.4049 113.886C47.5564 113.297 47.7225 112.713 47.8923 112.13C47.9075 112.078 47.9227 112.026 47.9383 111.972C48.1915 111.1 48.4545 110.233 48.7279 109.369C48.7994 109.143 48.8698 108.916 48.9396 108.69C49.8613 105.705 50.9096 102.755 52.0652 99.8698C52.1208 99.7304 52.1761 99.5909 52.2314 99.4513C52.7714 98.0889 53.3395 96.7431 53.9275 95.405C54.0232 95.1869 54.1182 94.9685 54.2123 94.7495C54.4105 94.2888 54.6098 93.8305 54.8307 93.3824C54.9336 93.1737 55.0318 92.9628 55.1273 92.7499C55.6035 91.6935 56.0965 90.6492 56.6303 89.6265C56.7318 89.4308 56.8302 89.2333 56.9288 89.0358C57.1345 88.6255 57.3482 88.2207 57.5634 87.8164C57.7087 87.5433 57.8532 87.2697 57.9957 86.9948C58.3647 86.2832 58.7469 85.5833 59.1453 84.8912C59.2257 84.7516 59.3058 84.6117 59.3858 84.4718C59.4985 84.2747 59.6113 84.0778 59.7246 83.8811C59.769 83.8039 59.8132 83.7265 59.8573 83.649C60.1467 83.143 60.4499 82.647 60.7513 82.1497C60.7806 82.1013 60.81 82.0529 60.8402 82.003C61.437 81.0179 62.0342 80.0348 62.6683 79.0781C62.7448 78.9622 62.8209 78.846 62.8968 78.7296C63.2076 78.2529 63.5234 77.7808 63.8445 77.3123C63.9172 77.2059 63.9896 77.0992 64.0618 76.9924C64.2857 76.6616 64.5107 76.333 64.7465 76.0124C64.8922 75.8119 65.0345 75.6086 65.1773 75.4056C65.4236 75.0559 65.6737 74.7105 65.9301 74.3697C65.9813 74.3011 66.0324 74.2325 66.0835 74.1638C66.4194 73.7128 66.7579 73.2645 67.1018 72.8208C67.1253 72.7904 67.1489 72.76 67.1732 72.7286C67.4153 72.4163 67.6578 72.1044 67.9043 71.7963C67.9743 71.7077 68.0435 71.6182 68.1123 71.5285C68.4546 71.0826 68.8121 70.6554 69.1764 70.2312C69.2906 70.0975 69.403 69.962 69.5154 69.8263C69.6013 69.723 69.6872 69.6198 69.7732 69.5165C69.795 69.4902 69.8169 69.4638 69.8395 69.4366C70.3987 68.7651 70.9844 68.1225 71.5698 67.4789C71.7114 67.3232 71.8528 67.1673 71.9941 67.0113C72.1045 66.8895 72.215 66.7679 72.3255 66.6463C72.3777 66.5888 72.4298 66.5313 72.4819 66.4738C72.7333 66.1964 72.9846 65.9215 73.2565 65.6681C73.3413 65.5866 73.4202 65.5005 73.4991 65.412C73.636 65.2588 73.7793 65.1177 73.9271 64.9774C74.0679 64.8409 74.2052 64.7006 74.3427 64.5601C74.5363 64.3623 74.7312 64.1669 74.931 63.9766C75.038 63.8737 75.1428 63.7684 75.2478 63.663C75.449 63.4629 75.6564 63.2734 75.8671 63.0856C76.0222 62.9453 76.174 62.801 76.3257 62.6562C76.595 62.4001 76.8712 62.1557 77.1521 61.9153C77.294 61.7938 77.4344 61.6702 77.5743 61.546C78.2267 60.9671 78.8965 60.4129 79.5683 59.8618C79.6037 59.8327 79.6391 59.8036 79.6756 59.7736C80.1501 59.3842 80.6289 59.0044 81.1186 58.6386C81.2074 58.572 81.2958 58.5046 81.384 58.4369C82.9748 57.2185 84.6364 56.1202 86.3171 55.0602C86.3551 55.0362 86.393 55.0121 86.4322 54.9873C86.794 54.7583 87.1587 54.5409 87.5332 54.338C87.7234 54.2348 87.9113 54.1279 88.098 54.0172C88.5722 53.736 89.0559 53.4792 89.5432 53.2268C89.6431 53.175 89.7431 53.123 89.8429 53.0709C91.8063 52.0458 93.8221 51.1854 95.8779 50.4136C95.911 50.4011 95.9441 50.3886 95.9781 50.3758C97.1491 49.9356 98.3365 49.5699 99.5335 49.2261C99.5714 49.2151 99.6093 49.2042 99.6484 49.1929C102.355 48.4133 105.174 47.8637 107.969 47.6772C107.969 47.6261 107.969 47.575 107.969 47.5223C108.02 47.5227 108.02 47.5227 108.073 47.5231C108.228 47.5242 108.383 47.5249 108.538 47.5255C108.591 47.526 108.645 47.5264 108.7 47.5268C108.752 47.527 108.804 47.5272 108.857 47.5273C108.929 47.5278 108.929 47.5278 109.002 47.5282C109.141 47.5223 109.141 47.5223 109.265 47.4971C109.499 47.4578 109.731 47.4594 109.966 47.4562C110.044 47.4547 110.044 47.4547 110.124 47.4533C110.347 47.4492 110.57 47.4457 110.793 47.4422C110.956 47.4395 111.118 47.4365 111.281 47.4336C111.332 47.4329 111.382 47.4322 111.434 47.4314C111.481 47.4306 111.528 47.4297 111.576 47.4288C111.617 47.4282 111.659 47.4275 111.701 47.4269C111.813 47.419 111.813 47.419 112 47.3674C112 39.956 112 32.5445 112 24.9085C109.079 24.8354 109.079 24.8354 108.423 24.8871Z" fill="#F3E4C6"/>
</svg>
