<svg width="166" height="345" viewBox="0 0 166 345" fill="none" xmlns="http://www.w3.org/2000/svg">
<path d="M165.872 283.485C162.373 283.507 158.925 283.344 155.458 282.883C155.404 282.876 155.35 282.869 155.295 282.862C154.479 282.753 153.665 282.631 152.853 282.499C152.8 282.491 152.747 282.482 152.692 282.474C147.749 281.675 142.827 280.321 138.17 278.524C138.098 278.496 138.026 278.469 137.951 278.44C135.656 277.565 133.356 276.642 131.177 275.516C130.897 275.371 130.613 275.236 130.328 275.102C129.905 274.902 129.494 274.685 129.084 274.461C128.821 274.317 128.556 274.182 128.284 274.056C127.79 273.824 127.321 273.551 126.848 273.28C126.707 273.199 126.565 273.12 126.422 273.04C125.631 272.6 124.855 272.135 124.081 271.667C123.894 271.554 123.707 271.442 123.521 271.329C120.51 269.516 117.638 267.48 114.869 265.334C114.829 265.303 114.789 265.273 114.748 265.241C114.206 264.822 113.67 264.398 113.144 263.961C112.906 263.764 112.666 263.572 112.421 263.383C112.052 263.095 111.705 262.786 111.357 262.474C111.198 262.332 111.036 262.192 110.872 262.055C110.606 261.833 110.347 261.605 110.088 261.375C109.877 261.189 109.665 261.005 109.451 260.822C108.354 259.871 107.307 258.87 106.263 257.865C106.052 257.661 105.84 257.458 105.628 257.254C105.463 257.096 105.297 256.937 105.132 256.778C105.054 256.703 104.976 256.628 104.898 256.553C104.524 256.194 104.153 255.835 103.811 255.447C103.702 255.327 103.588 255.216 103.47 255.104C103.312 254.955 103.162 254.802 103.017 254.64C102.777 254.372 102.525 254.115 102.272 253.857C101.936 253.515 101.618 253.164 101.312 252.796C101.142 252.598 100.962 252.409 100.78 252.221C100.49 251.921 100.217 251.611 99.9492 251.291C99.7467 251.054 99.5376 250.823 99.3277 250.592C99.0386 250.273 98.7561 249.952 98.4839 249.619C98.3616 249.472 98.2378 249.327 98.1125 249.182C97.6708 248.672 97.2415 248.157 96.831 247.623C96.628 247.359 96.4178 247.106 96.1965 246.857C95.87 246.487 95.5761 246.097 95.2825 245.702C95.0577 245.399 94.829 245.101 94.5913 244.809C94.3022 244.451 94.0264 244.086 93.754 243.716C93.5884 243.491 93.4201 243.268 93.2516 243.046C92.9131 242.598 92.58 242.148 92.2557 241.69C92.2174 241.637 92.1792 241.583 92.1398 241.527C92.0172 241.355 91.8947 241.182 91.7722 241.009C91.7314 240.951 91.6906 240.894 91.6485 240.834C91.3951 240.477 91.1424 240.118 90.89 239.76C90.8043 239.638 90.7184 239.517 90.6324 239.395C90.1278 238.681 89.6364 237.963 89.1738 237.223C89.0052 236.953 88.8279 236.69 88.6487 236.428C87.5326 234.782 86.4852 233.086 85.4889 231.369C85.3478 231.126 85.2034 230.885 85.0588 230.643C84.0943 229.032 83.1838 227.4 82.304 225.744C82.1037 225.367 81.8989 224.993 81.6915 224.62C81.4604 224.203 81.2452 223.781 81.0379 223.352C80.8912 223.049 80.7393 222.75 80.5821 222.452C79.0249 219.49 77.6369 216.441 76.3261 213.369C76.306 213.322 76.2859 213.275 76.2651 213.226C75.0803 210.447 73.9597 207.636 72.9434 204.794C72.8722 204.595 72.8005 204.396 72.7285 204.198C72.1743 202.669 71.6368 201.136 71.1289 199.592C71.0944 199.487 71.0944 199.487 71.0592 199.38C70.7918 198.567 70.5353 197.752 70.2917 196.932C70.2012 196.627 70.1076 196.324 70.0127 196.021C69.984 195.929 69.9553 195.838 69.9266 195.746C69.9125 195.701 69.8984 195.656 69.8839 195.609C69.662 194.899 69.4456 194.19 69.2633 193.469C69.1635 193.076 69.0491 192.688 68.9302 192.3C68.7878 191.835 68.6596 191.369 68.5464 190.896C68.4685 190.573 68.3782 190.256 68.282 189.938C68.0446 189.146 67.8568 188.341 67.6627 187.538C67.5884 187.232 67.5136 186.925 67.4387 186.618C67.3867 186.406 67.3351 186.193 67.2834 185.98C67.2139 185.694 67.1435 185.408 67.0726 185.122C66.8833 184.358 66.7047 183.592 66.5447 182.821C66.4596 182.412 66.3711 182.004 66.279 181.596C66.2625 181.523 66.2625 181.523 66.2457 181.449C66.1915 181.209 66.1371 180.97 66.0823 180.731C65.9811 180.286 65.8883 179.842 65.8116 179.393C65.759 179.101 65.6996 178.811 65.6399 178.521C65.223 176.484 64.8641 174.441 64.5296 172.39C64.4954 172.18 64.4612 171.971 64.4269 171.762C64.3673 171.398 64.3081 171.033 64.2492 170.669C64.2407 170.616 64.2322 170.564 64.2234 170.509C64.1209 169.875 64.0278 169.239 63.9441 168.602C63.9199 168.42 63.8952 168.237 63.8704 168.055C63.0713 162.18 62.5094 156.283 62.222 150.363C62.2191 150.303 62.2162 150.243 62.2132 150.182C62.1135 148.091 62.0602 146.001 62.0491 143.908C62.0474 143.598 62.0453 143.287 62.0432 142.977C62.0396 142.433 62.0363 141.89 62.0331 141.346C62.0284 140.533 62.0233 139.719 62.0181 138.905C62.0093 137.518 62.0007 136.131 61.9924 134.744C61.9839 133.34 61.9753 131.935 61.9666 130.531C61.9663 130.486 61.966 130.442 61.9657 130.396C61.9632 129.989 61.9606 129.582 61.9581 129.175C61.9517 128.154 61.9453 127.134 61.939 126.113C61.9387 126.066 61.9384 126.019 61.9381 125.971C61.9238 123.671 61.9097 121.371 61.8957 119.071C61.8907 118.262 61.8858 117.453 61.8808 116.644C61.8804 116.569 61.8804 116.569 61.8799 116.492C61.8657 114.159 61.8512 111.826 61.8367 109.493C61.8358 109.34 61.8348 109.187 61.8339 109.035C61.8282 108.114 61.8224 107.193 61.8167 106.272C61.8025 103.982 61.7883 101.693 61.7741 99.4037C61.7738 99.3516 61.7735 99.2995 61.7731 99.2458C61.7522 95.8732 61.7314 92.5007 61.7107 89.1281C61.7104 89.0743 61.7101 89.0205 61.7097 88.965C61.6996 87.3271 61.6896 85.6892 61.6795 84.0513C61.6684 82.2388 61.6573 80.4262 61.6461 78.6137C61.6458 78.5592 61.6455 78.5047 61.6451 78.4485C61.6136 73.3233 61.5819 68.1981 61.5502 63.0729C61.5482 62.741 61.5461 62.4092 61.5441 62.0773C61.5226 58.6189 61.5012 55.1605 61.4798 51.702C61.4795 51.6524 61.4792 51.6028 61.4789 51.5517C61.4775 51.3222 61.4761 51.0927 61.4746 50.8632C61.371 34.1226 61.268 17.382 61.165 0.641406C95.1356 0.429742 129.106 0.218078 164.106 0C164.689 93.5501 165.272 187.1 165.872 283.485Z" fill="#F8F7F3"/>
<path d="M166.253 344.658C163.954 344.673 161.679 344.67 159.385 344.577C159.128 344.567 158.871 344.558 158.615 344.549C157.197 344.499 155.785 344.418 154.371 344.301C153.949 344.266 153.526 344.238 153.103 344.211C151.455 344.103 149.804 343.96 148.165 343.76C147.816 343.718 147.466 343.68 147.116 343.644C145.445 343.468 143.788 343.231 142.129 342.971C141.712 342.906 141.294 342.843 140.875 342.783C140.799 342.772 140.799 342.772 140.722 342.761C140.495 342.729 140.267 342.697 140.04 342.665C139.557 342.597 139.082 342.51 138.605 342.411C138.312 342.352 138.018 342.307 137.723 342.262C136.403 342.055 135.092 341.789 133.782 341.529C133.733 341.519 133.684 341.51 133.634 341.5C131.911 341.157 130.205 340.739 128.497 340.332C128.113 340.24 127.729 340.149 127.345 340.059C127.271 340.042 127.197 340.025 127.121 340.007C126.984 339.974 126.846 339.942 126.709 339.91C126.144 339.778 125.584 339.627 125.025 339.469C124.948 339.447 124.87 339.425 124.789 339.402C124.745 339.389 124.701 339.377 124.656 339.364C124.415 339.296 124.174 339.228 123.933 339.16C123.574 339.059 123.215 338.958 122.856 338.857C122.752 338.828 122.752 338.828 122.645 338.797C121.545 338.487 120.448 338.167 119.355 337.834C118.9 337.695 118.445 337.556 117.989 337.42C117.913 337.397 117.836 337.374 117.758 337.35C117.613 337.307 117.468 337.263 117.323 337.22C117.019 337.128 116.719 337.033 116.423 336.917C116.111 336.795 115.795 336.689 115.477 336.584C115.423 336.567 115.37 336.549 115.315 336.531C115.203 336.495 115.09 336.458 114.977 336.421C113.661 335.989 112.36 335.524 111.063 335.041C110.777 334.935 110.49 334.831 110.203 334.73C109.57 334.506 108.946 334.262 108.324 334.013C108.214 333.969 108.105 333.925 107.995 333.882C107.777 333.795 107.56 333.707 107.342 333.62C107.085 333.517 106.829 333.415 106.572 333.313C104.797 332.604 103.042 331.852 101.299 331.073C101.002 330.94 100.704 330.809 100.405 330.679C100.332 330.647 100.26 330.616 100.185 330.583C100.052 330.526 99.9194 330.468 99.7864 330.411C99.2667 330.185 98.7572 329.941 98.2472 329.696C97.9998 329.577 97.7516 329.46 97.5035 329.342C95.5826 328.431 95.5826 328.431 94.6515 327.937C94.1643 327.678 93.6703 327.434 93.1747 327.19C92.4956 326.856 91.8287 326.507 91.1678 326.14C90.8424 325.959 90.5142 325.784 90.1854 325.609C89.2557 325.115 88.3404 324.6 87.4271 324.078C87.2064 323.952 86.9847 323.829 86.7626 323.705C85.9638 323.26 85.183 322.787 84.401 322.314C84.3415 322.279 84.2819 322.243 84.2206 322.206C83.9481 322.041 83.6758 321.876 83.4038 321.711C83.2033 321.59 83.0022 321.469 82.8007 321.349C80.7431 320.122 78.7295 318.807 76.7543 317.459C76.6138 317.363 76.4728 317.268 76.3316 317.174C75.7588 316.789 75.1923 316.397 74.6301 315.998C74.3108 315.771 73.9898 315.547 73.6667 315.326C73.1391 314.964 72.6225 314.591 72.1119 314.207C71.7735 313.952 71.432 313.703 71.0872 313.457C70.3424 312.924 69.6164 312.37 68.8964 311.806C68.5968 311.572 68.2944 311.342 67.9895 311.115C67.6328 310.848 67.2853 310.573 66.9414 310.291C66.725 310.114 66.5062 309.941 66.2831 309.772C65.9583 309.525 65.6445 309.267 65.3307 309.008C65.0809 308.801 64.8284 308.599 64.5722 308.4C64.27 308.165 63.9812 307.919 63.6936 307.667C63.5208 307.52 63.3433 307.381 63.1628 307.243C62.7446 306.919 62.3562 306.566 61.9648 306.212C61.7488 306.017 61.5286 305.828 61.3041 305.642C60.8336 305.252 60.3772 304.845 59.9204 304.439C59.7024 304.246 59.4828 304.055 59.261 303.865C58.5554 303.258 57.8602 302.636 57.1993 301.983C57.0719 301.864 56.9439 301.755 56.8085 301.645C56.366 301.275 55.9563 300.87 55.5412 300.472C55.4503 300.384 55.3594 300.297 55.2685 300.21C55.0787 300.028 54.8891 299.846 54.6996 299.664C54.4578 299.432 54.2158 299.2 53.9737 298.968C53.7861 298.789 53.5988 298.609 53.4114 298.429C53.3223 298.344 53.2331 298.258 53.1439 298.173C52.3016 297.366 52.3016 297.366 51.9542 296.971C51.784 296.782 51.5966 296.609 51.4105 296.435C51.123 296.163 50.8466 295.887 50.5846 295.591C50.4735 295.469 50.3569 295.356 50.2367 295.243C50.0784 295.093 49.9285 294.941 49.7836 294.779C49.5393 294.507 49.2842 294.246 49.0282 293.984C48.7397 293.689 48.4536 293.393 48.1784 293.086C48.0301 292.923 47.8772 292.765 47.7246 292.606C47.4975 292.367 47.2794 292.125 47.0683 291.873C46.834 291.594 46.5889 291.33 46.3343 291.069C46.03 290.757 45.7426 290.437 45.4632 290.104C45.2703 289.878 45.0709 289.658 44.8705 289.438C44.4221 288.945 43.9882 288.441 43.5562 287.934C43.3874 287.737 43.2178 287.54 43.0482 287.343C42.5074 286.715 41.9762 286.08 41.4519 285.438C41.214 285.147 40.9735 284.859 40.7322 284.571C40.3938 284.166 40.061 283.757 39.733 283.345C39.614 283.195 39.4947 283.046 39.3753 282.897C38.8006 282.177 38.234 281.451 37.675 280.719C37.5534 280.561 37.4314 280.403 37.3091 280.244C36.8165 279.607 36.3328 278.964 35.8578 278.314C35.7233 278.13 35.5881 277.947 35.4529 277.764C35.3136 277.575 35.1746 277.386 35.0356 277.197C34.9617 277.096 34.8877 276.996 34.8136 276.896C34.1979 276.061 33.6012 275.216 33.0119 274.363C32.8312 274.102 32.6496 273.842 32.4679 273.581C31.5946 272.329 30.7299 271.074 29.9047 269.791C29.6938 269.463 29.4804 269.137 29.2666 268.811C28.9029 268.256 28.5426 267.7 28.1984 267.134C27.9912 266.793 27.7799 266.454 27.5671 266.116C26.6631 264.681 25.7964 263.226 24.9542 261.755C24.7899 261.468 24.6245 261.182 24.4584 260.896C23.907 259.946 23.3707 258.99 22.8511 258.023C22.7646 257.863 22.6773 257.704 22.5892 257.546C22.0724 256.615 21.5781 255.674 21.0854 254.732C20.9888 254.547 20.8919 254.362 20.7949 254.177C20.0231 252.708 19.2691 251.231 18.5863 249.72C18.442 249.401 18.2896 249.087 18.1352 248.772C17.6652 247.814 17.2108 246.851 16.7902 245.871C16.6632 245.576 16.5337 245.283 16.393 244.994C16.0965 244.376 15.8336 243.743 15.5646 243.113C15.5344 243.043 15.5042 242.972 15.4731 242.899C14.3767 240.332 13.3195 237.748 12.3666 235.127C12.2544 234.819 12.1403 234.511 12.0259 234.203C11.7889 233.565 11.5538 232.927 11.3206 232.288C11.3036 232.241 11.2866 232.195 11.2691 232.147C10.7492 230.718 10.2761 229.276 9.80765 227.831C9.76192 227.69 9.71612 227.549 9.67032 227.408C9.31215 226.304 8.96678 225.198 8.64369 224.085C8.57103 223.835 8.49646 223.586 8.42163 223.338C8.12433 222.346 7.84273 221.352 7.58361 220.35C7.50189 220.038 7.41288 219.729 7.32465 219.419C7.24245 219.126 7.1652 218.831 7.08831 218.537C7.02851 218.309 6.96732 218.081 6.90272 217.854C6.43118 216.198 6.04098 214.522 5.6694 212.843C5.58878 212.479 5.5054 212.117 5.42125 211.755C4.68473 208.576 4.01483 205.364 3.54216 202.138C3.47466 201.677 3.39844 201.219 3.31662 200.761C3.10738 199.588 2.94659 198.412 2.79184 197.231C2.74013 196.839 2.68317 196.448 2.62394 196.057C2.46139 194.978 2.33628 193.896 2.21128 192.813C2.20165 192.73 2.19204 192.647 2.18214 192.562C2.08728 191.744 1.99771 190.928 1.94992 190.106C1.93073 189.804 1.89693 189.503 1.86261 189.201C1.15855 182.994 1.07347 176.745 1.03907 170.507C1.03564 169.888 1.03186 169.269 1.02786 168.649C1.02743 168.582 1.02743 168.582 1.02698 168.512C1.02548 168.281 1.02399 168.05 1.02249 167.819C1.01165 166.145 1.00145 164.472 0.99162 162.798C0.98168 161.105 0.971435 159.412 0.960809 157.719C0.960475 157.665 0.960141 157.611 0.959796 157.556C0.956717 157.064 0.953637 156.572 0.950542 156.081C0.942801 154.848 0.935106 153.615 0.927427 152.383C0.927075 152.326 0.926723 152.27 0.926361 152.212C0.909109 149.438 0.892375 146.664 0.875672 143.891C0.869796 142.916 0.86392 141.941 0.858044 140.966C0.857492 140.875 0.857508 140.875 0.856945 140.782C0.839958 137.968 0.822604 135.153 0.805174 132.339C0.804026 132.154 0.802908 131.97 0.801759 131.786C0.794878 130.674 0.787981 129.562 0.7811 128.45C0.76396 125.687 0.746866 122.924 0.729818 120.161C0.729426 120.098 0.729049 120.035 0.728646 119.971C0.703524 115.902 0.678601 111.833 0.653815 107.765C0.653426 107.7 0.653037 107.635 0.65262 107.568C0.640588 105.593 0.628571 103.618 0.616555 101.643C0.603257 99.4572 0.589974 97.2715 0.576675 95.0858C0.576281 95.0201 0.575856 94.9543 0.57545 94.8866C0.537408 88.6367 0.498985 82.3868 0.46047 76.1369C0.458835 75.872 0.457199 75.6071 0.455564 75.3422C0.440541 72.9042 0.425534 70.4662 0.410496 68.0282C0.410092 67.9634 0.409688 67.8985 0.409272 67.8317C0.408064 67.6355 0.406856 67.4392 0.405648 67.2429C0.372963 61.9408 0.340293 56.6387 0.307669 51.3366C0.306518 51.1496 0.305369 50.9626 0.304218 50.7755C0.266838 44.7028 0.229535 38.6301 0.0980021 17.1013C0.0976901 17.0488 0.0973628 16.9963 0.0970257 16.9422C0.0875579 15.3884 0.0780746 13.8346 0.0686068 12.2808C0.0675066 12.1017 0.066422 11.9228 0.065322 11.7438C0.0435277 8.17002 0.0217638 4.59627 0 1.02251C9.87104 0.961005 19.7421 0.899501 29.9123 0.836132C29.9252 2.82065 29.9381 4.80516 29.9514 6.84983C29.9602 8.19639 29.969 9.54292 29.9777 10.8895C29.9783 10.9757 29.9788 11.062 29.9794 11.1509C29.9886 12.5604 29.9978 13.9699 30.007 15.3793C30.0073 15.4268 30.0076 15.4742 30.0079 15.5231C30.0412 20.6303 30.0745 25.7374 30.2075 46.0149C30.2086 46.1843 30.2097 46.3537 30.2108 46.5231C30.2424 51.3245 30.274 56.1259 30.3057 60.9273C30.3069 61.105 30.308 61.2827 30.3092 61.4605C30.3096 61.5192 30.31 61.5779 30.3104 61.6384C30.3249 63.8456 30.3395 66.0528 30.354 68.26C30.3556 68.4998 30.3572 68.7396 30.3587 68.9794C30.396 74.6346 30.4331 80.2897 30.4699 85.9448C30.4703 86.0043 30.4707 86.0637 30.4711 86.1249C30.484 88.1014 30.4968 90.0778 30.5097 92.0543C30.5213 93.8401 30.5329 95.626 30.5445 97.4119C30.5449 97.4705 30.5453 97.5292 30.5457 97.5897C30.5696 101.269 30.5937 104.949 30.618 108.628C30.6184 108.685 30.6187 108.742 30.6191 108.8C30.6356 111.3 30.6522 113.8 30.6687 116.3C30.6754 117.307 30.6821 118.313 30.6887 119.319C30.6898 119.486 30.6909 119.652 30.692 119.819C30.7089 122.365 30.7256 124.912 30.7421 127.458C30.7424 127.513 30.7428 127.568 30.7431 127.624C30.7488 128.505 30.7545 129.385 30.7601 130.266C30.7763 132.772 30.7924 135.277 30.8091 137.783C30.8094 137.834 30.8098 137.885 30.8101 137.938C30.8176 139.052 30.825 140.167 30.8325 141.282C30.8355 141.727 30.8385 142.172 30.8414 142.617C30.8418 142.665 30.8421 142.714 30.8424 142.764C30.8527 144.292 30.8625 145.821 30.8721 147.349C30.8818 148.902 30.892 150.454 30.9028 152.007C30.9084 152.81 30.9137 153.613 30.9185 154.417C30.9353 157.265 30.9574 160.112 31.0544 162.959C31.0561 163.011 31.0579 163.062 31.0597 163.115C31.1378 165.411 31.2674 167.704 31.4672 169.994C31.5065 170.445 31.5411 170.896 31.5704 171.348C31.6363 172.359 31.7403 173.364 31.8539 174.37C31.8666 174.483 31.8794 174.596 31.8921 174.709C31.8982 174.763 31.9044 174.818 31.9107 174.874C31.9568 175.287 31.9948 175.701 32.0292 176.115C32.1275 177.254 32.29 178.387 32.4411 179.52C32.4684 179.725 32.4957 179.93 32.523 180.135C32.5792 180.558 32.6358 180.981 32.6925 181.404C32.7013 181.47 32.7101 181.535 32.7191 181.603C32.8762 182.776 33.0408 183.947 33.2559 185.111C33.2797 185.244 33.3034 185.377 33.327 185.51C33.3387 185.576 33.3505 185.642 33.3626 185.71C33.4692 186.309 33.4692 186.309 33.505 186.51C33.5279 186.639 33.5508 186.767 33.5737 186.895C33.6341 187.234 33.6942 187.573 33.754 187.912C34.0173 189.403 34.2875 190.892 34.6061 192.373C34.6842 192.737 34.7607 193.101 34.8332 193.466C35.3133 195.874 35.8675 198.271 36.5131 200.642C36.6399 201.11 36.7615 201.579 36.883 202.048C37.3324 203.778 37.7985 205.502 38.3078 207.217C38.3313 207.296 38.3548 207.376 38.379 207.457C38.6081 208.228 38.8416 208.996 39.0962 209.759C39.199 210.068 39.296 210.38 39.3931 210.691C41.1797 216.416 43.381 222.023 46.6614 229.42C46.7629 229.642 46.864 229.863 46.965 230.085C47.0516 230.275 47.1383 230.465 47.2251 230.655C47.266 230.745 47.3069 230.835 47.3478 230.925C47.7773 231.868 48.2352 232.796 48.7042 233.721C48.7905 233.891 48.8768 234.061 48.963 234.232C48.9843 234.274 49.0055 234.316 49.0273 234.359C49.1499 234.601 49.2714 234.844 49.3918 235.088C49.8072 235.927 50.2372 236.759 50.6708 237.589C50.6998 237.645 50.7287 237.701 50.7586 237.758C51.1542 238.516 51.5594 239.269 51.9745 240.018C52.0494 240.153 52.1242 240.288 52.1988 240.424C52.3311 240.663 52.4638 240.903 52.5968 241.142C52.62 241.184 52.6433 241.226 52.6672 241.269C53.0562 241.967 53.457 242.659 53.8675 243.346C54.042 243.639 54.2109 243.934 54.379 244.23C55.0536 245.414 55.7709 246.574 56.4928 247.731C56.5317 247.793 56.5706 247.856 56.6107 247.92C57.5214 249.383 57.5214 249.383 58.4685 250.823C58.6902 251.151 58.908 251.481 59.1254 251.812C59.8802 252.958 60.6516 254.093 61.4549 255.208C61.6838 255.525 61.9108 255.844 62.1372 256.164C64.0237 258.823 66.0188 261.419 68.0993 263.939C68.1942 264.054 68.2886 264.17 68.383 264.286C68.7732 264.764 69.1692 265.237 69.5719 265.706C69.6684 265.819 69.7648 265.932 69.8613 266.045C69.9411 266.139 70.0209 266.232 70.1007 266.326C70.1679 266.404 70.2351 266.483 70.3022 266.562C70.7627 267.101 71.226 267.637 71.701 268.165C71.9069 268.394 72.1079 268.626 72.3059 268.862C72.5559 269.158 72.8202 269.438 73.0903 269.716C73.2941 269.928 73.4869 270.144 73.6746 270.369C73.9555 270.704 74.2549 271.018 74.5618 271.33C74.7537 271.525 74.9416 271.723 75.1248 271.926C75.4412 272.275 75.7764 272.606 76.111 272.939C76.1587 272.987 76.2064 273.035 76.2555 273.084C76.2987 273.127 76.3419 273.17 76.3864 273.215C76.4802 273.325 76.4802 273.325 76.481 273.458C76.5222 273.475 76.5633 273.492 76.6057 273.51C76.7676 273.596 76.8472 273.676 76.9635 273.813C77.2122 274.096 77.48 274.354 77.7556 274.612C77.9372 274.783 78.1091 274.958 78.2742 275.145C78.6102 275.514 78.973 275.858 79.3344 276.204C79.4098 276.276 79.4852 276.348 79.5605 276.421C79.7177 276.572 79.8749 276.722 80.0323 276.873C80.2326 277.065 80.4327 277.257 80.6326 277.449C80.7879 277.598 80.9434 277.747 81.0989 277.896C81.1727 277.967 81.2464 278.038 81.3201 278.108C81.6842 278.458 82.0494 278.804 82.442 279.124C82.6796 279.321 82.8936 279.541 83.1132 279.757C83.3076 279.944 83.5143 280.115 83.7221 280.288C83.9564 280.485 84.1823 280.691 84.4088 280.896C84.7695 281.222 85.1319 281.545 85.5016 281.861C85.6108 281.955 85.7194 282.049 85.8276 282.143C86.1172 282.396 86.4102 282.641 86.7153 282.877C87.0063 283.102 87.2827 283.338 87.5558 283.583C87.8822 283.876 88.2167 284.153 88.565 284.421C88.7913 284.598 89.0118 284.78 89.2325 284.964C89.5941 285.263 89.9637 285.55 90.3409 285.831C90.6006 286.025 90.855 286.223 91.1069 286.426C91.8467 287.022 92.6152 287.582 93.3817 288.145C93.4246 288.176 93.4674 288.207 93.5116 288.24C93.7517 288.416 93.992 288.592 94.2325 288.768C94.4583 288.934 94.6836 289.099 94.9088 289.265C95.6059 289.778 96.3096 290.278 97.031 290.758C97.2214 290.886 97.4108 291.014 97.6003 291.143C98.084 291.471 98.5688 291.797 99.0538 292.124C99.1081 292.16 99.1623 292.197 99.2182 292.234C99.6568 292.529 100.101 292.814 100.548 293.097C100.591 293.124 100.634 293.152 100.679 293.18C101.865 293.933 103.051 294.685 104.267 295.391C104.457 295.502 104.646 295.615 104.835 295.727C105.976 296.398 107.127 297.052 108.292 297.683C108.467 297.778 108.641 297.874 108.815 297.971C110.693 299.008 112.616 299.971 114.558 300.889C114.721 300.967 114.884 301.045 115.047 301.124C115.84 301.51 116.649 301.863 117.458 302.217C117.659 302.305 117.86 302.395 118.061 302.485C118.657 302.751 119.255 303.011 119.856 303.267C119.908 303.289 119.96 303.311 120.014 303.334C121.66 304.032 123.325 304.691 125.012 305.29C125.286 305.387 125.557 305.492 125.827 305.598C126.516 305.866 127.214 306.096 127.92 306.315C128.349 306.448 128.774 306.59 129.2 306.732C130.681 307.223 132.175 307.685 133.68 308.101C133.866 308.152 134.052 308.204 134.237 308.256C134.588 308.354 134.94 308.451 135.292 308.547C135.483 308.6 135.673 308.653 135.864 308.707C137.381 309.127 138.924 309.454 140.462 309.795C140.627 309.832 140.792 309.869 140.958 309.906C143.46 310.469 145.995 310.905 148.537 311.258C148.885 311.306 149.231 311.36 149.577 311.415C150.183 311.511 150.79 311.59 151.4 311.661C151.455 311.668 151.511 311.674 151.569 311.681C154.027 311.969 156.496 312.172 158.968 312.312C159.113 312.32 159.258 312.329 159.403 312.338C161.618 312.473 163.834 312.493 166.053 312.544C166.119 323.142 166.185 333.739 166.253 344.658Z" fill="#A3B38C"/>
<path d="M160.812 312.565C160.748 312.561 160.684 312.558 160.618 312.554C160.415 312.542 160.212 312.53 160.009 312.518C159.865 312.509 159.721 312.501 159.577 312.492C159.296 312.476 159.015 312.459 158.733 312.442C158.432 312.424 158.13 312.407 157.829 312.392C154.799 312.233 151.759 311.92 148.764 311.45C148.504 311.41 148.244 311.373 147.984 311.336C146.162 311.075 144.357 310.737 142.551 310.385C142.497 310.375 142.443 310.364 142.388 310.354C141.129 310.109 139.88 309.829 138.631 309.543C138.561 309.527 138.491 309.511 138.419 309.495C137.444 309.272 136.479 309.022 135.517 308.75C135.209 308.664 134.899 308.581 134.59 308.498C133.894 308.31 133.2 308.117 132.509 307.915C132.465 307.902 132.421 307.89 132.376 307.877C131.09 307.501 129.809 307.112 128.539 306.686C128.488 306.669 128.437 306.652 128.385 306.634C127.087 306.198 125.799 305.739 124.516 305.262C124.413 305.223 124.413 305.223 124.308 305.184C123.062 304.719 121.827 304.235 120.601 303.724C120.552 303.704 120.503 303.683 120.453 303.662C119.02 303.066 117.599 302.447 116.187 301.805C115.949 301.697 115.711 301.59 115.472 301.484C114.984 301.266 114.498 301.048 114.024 300.803C113.607 300.59 113.188 300.381 112.767 300.176C111.71 299.66 110.663 299.133 109.633 298.566C109.364 298.419 109.092 298.275 108.82 298.131C107.446 297.4 106.078 296.651 104.751 295.84C104.545 295.715 104.338 295.59 104.132 295.465C104.019 295.397 103.907 295.329 103.794 295.261C103.54 295.107 103.286 294.954 103.03 294.803C102.26 294.348 101.507 293.868 100.756 293.384C100.686 293.338 100.615 293.292 100.542 293.245C99.6413 292.663 98.7451 292.074 97.8599 291.469C97.779 291.414 97.6982 291.359 97.6174 291.304C97.4188 291.168 97.2206 291.033 97.0226 290.896C96.9335 290.835 96.8443 290.774 96.7551 290.713C95.7812 290.048 94.8265 289.358 93.883 288.653C93.6548 288.482 93.4243 288.316 93.1918 288.151C92.7112 287.81 92.2421 287.457 91.7795 287.094C91.4839 286.861 91.185 286.634 90.883 286.41C90.5095 286.131 90.1481 285.84 89.79 285.543C89.5505 285.345 89.3086 285.15 89.0626 284.959C88.4691 284.496 87.8874 284.02 87.3237 283.524C87.0868 283.316 86.8457 283.117 86.5946 282.925C86.1765 282.602 85.7891 282.25 85.3983 281.896C85.2303 281.745 85.0606 281.596 84.8856 281.452C84.5729 281.194 84.2738 280.922 83.9728 280.652C83.6949 280.402 83.415 280.155 83.1332 279.91C82.8413 279.654 82.5589 279.393 82.2837 279.12C82.1546 279 82.0241 278.889 81.8872 278.777C81.4952 278.449 81.1303 278.095 80.7628 277.742C80.6858 277.668 80.6087 277.594 80.5317 277.52C80.371 277.367 80.2104 277.213 80.05 277.058C79.8456 276.862 79.641 276.666 79.4363 276.471C79.2773 276.318 79.1186 276.166 78.9599 276.014C78.8845 275.942 78.8091 275.869 78.7337 275.797C78.3646 275.444 77.9993 275.09 77.6612 274.709C77.5 274.53 77.3243 274.367 77.1482 274.203C76.8727 273.942 76.6098 273.677 76.3584 273.394C76.2463 273.271 76.1289 273.157 76.0078 273.043C75.8493 272.894 75.6993 272.741 75.5541 272.58C75.3131 272.311 75.0601 272.054 74.8067 271.797C74.473 271.457 74.1575 271.11 73.8533 270.745C73.6579 270.52 73.4512 270.307 73.2422 270.095C72.9246 269.771 72.6236 269.44 72.3332 269.093C72.1411 268.867 71.9421 268.648 71.7423 268.429C71.2929 267.936 70.858 267.431 70.4251 266.924C70.2624 266.733 70.0991 266.544 69.9357 266.354C68.5569 264.753 68.5569 264.753 67.9268 263.961C67.7465 263.735 67.5637 263.51 67.3808 263.286C66.9648 262.775 66.5544 262.261 66.1504 261.741C66.0876 261.661 66.0248 261.581 65.9619 261.501C65.181 260.507 64.4064 259.508 63.6576 258.491C63.6216 258.442 63.5856 258.393 63.5484 258.342C62.9925 257.586 62.4436 256.825 61.8995 256.061C61.7849 255.9 61.67 255.739 61.555 255.579C60.5066 254.116 59.5056 252.627 58.5189 251.124C58.4474 251.015 58.3758 250.906 58.3042 250.797C58.2694 250.744 58.2347 250.691 58.1989 250.637C57.9677 250.286 57.7303 249.941 57.4838 249.6C57.3678 249.425 57.2641 249.248 57.1612 249.065C56.942 248.676 56.7042 248.301 56.4625 247.925C55.8792 247.018 55.3224 246.097 54.7742 245.169C54.6604 244.977 54.5459 244.785 54.4311 244.593C54.1823 244.178 53.9378 243.761 53.699 243.34C53.6643 243.279 53.6296 243.218 53.5938 243.155C53.2764 242.597 52.9615 242.037 52.647 241.477C52.4515 241.129 52.2554 240.782 52.0568 240.436C52.0204 240.373 51.9841 240.309 51.9466 240.244C51.8801 240.128 51.8134 240.013 51.7465 239.897C51.4731 239.421 51.2204 238.936 50.9677 238.449C50.8488 238.221 50.7288 237.993 50.6088 237.765C50.0816 236.761 49.558 235.756 49.0562 234.741C48.9525 234.531 48.8484 234.322 48.7441 234.113C46.8477 230.306 45.1223 226.423 43.5161 222.493C43.4828 222.411 43.4494 222.33 43.4151 222.246C41.8028 218.286 40.3737 214.255 39.084 210.186C39.0465 210.068 39.0088 209.95 38.971 209.832C38.8191 209.356 38.6709 208.88 38.5255 208.402C38.4954 208.304 38.4652 208.205 38.4349 208.106C37.8688 206.254 37.3461 204.393 36.8453 202.524C36.8024 202.363 36.7593 202.203 36.7163 202.043C36.3452 200.66 35.9964 199.275 35.6705 197.881C35.6336 197.725 35.5967 197.568 35.5597 197.412C35.4532 196.96 35.3477 196.508 35.2428 196.055C35.2245 195.977 35.2063 195.898 35.1875 195.817C34.9167 194.648 34.6622 193.478 34.4382 192.299C34.3787 191.989 34.3154 191.68 34.2521 191.371C34.2062 191.145 34.1605 190.919 34.1148 190.693C34.1006 190.623 34.0865 190.553 34.0719 190.481C33.9065 189.662 33.7459 188.845 33.6188 188.02C33.5693 187.7 33.5109 187.385 33.444 187.069C33.32 186.469 33.2358 185.864 33.15 185.259C33.1009 184.916 33.0518 184.576 32.9762 184.238C32.8787 183.798 32.8193 183.353 32.757 182.908C32.7499 182.857 32.7427 182.806 32.7353 182.753C32.5689 181.568 32.4119 180.381 32.2558 179.195C32.2274 178.979 32.1989 178.764 32.1702 178.549C31.9974 177.252 31.8484 175.956 31.7358 174.653C31.7318 174.607 31.7279 174.562 31.7238 174.515C31.72 174.47 31.7161 174.425 31.7121 174.379C31.6707 173.909 31.6166 173.441 31.5619 172.972C31.4559 172.03 31.3903 171.089 31.3322 170.144C31.3069 169.733 31.2791 169.323 31.2506 168.913C31.2317 168.642 31.2131 168.37 31.1945 168.099C31.1693 167.731 31.1435 167.362 31.1171 166.994C31.0232 165.661 30.9565 164.33 30.9127 162.995C30.911 162.942 30.9092 162.89 30.9074 162.836C30.812 159.969 30.7956 157.102 30.78 154.234C30.7756 153.422 30.7703 152.611 30.765 151.8C30.7552 150.285 30.746 148.77 30.7371 147.254C30.7282 145.723 30.7189 144.192 30.7093 142.66C30.709 142.611 30.7087 142.563 30.7084 142.513C30.7056 142.067 30.7028 141.621 30.7 141.175C30.693 140.059 30.686 138.942 30.6791 137.825C30.6787 137.774 30.6784 137.723 30.6781 137.67C30.6625 135.16 30.6474 132.651 30.6323 130.141C30.6271 129.26 30.6218 128.378 30.6165 127.497C30.6161 127.442 30.6158 127.387 30.6155 127.331C30.6001 124.783 30.5845 122.236 30.5687 119.689C30.5677 119.522 30.5667 119.355 30.5656 119.188C30.5594 118.181 30.5531 117.174 30.5469 116.167C30.5314 113.665 30.5159 111.163 30.5005 108.661C30.5002 108.604 30.4998 108.547 30.4994 108.489C30.4767 104.806 30.4542 101.124 30.4318 97.4416C30.4315 97.3828 30.4311 97.3241 30.4308 97.2636C30.4199 95.4768 30.4091 93.6899 30.3982 91.903C30.3862 89.9257 30.3742 87.9484 30.3622 85.971C30.3619 85.9116 30.3615 85.8521 30.3611 85.7908C30.3268 80.1341 30.292 74.4773 30.2572 68.8206C30.2557 68.5807 30.2543 68.3409 30.2528 68.1011C30.2392 65.8938 30.2256 63.6865 30.212 61.4793C30.2115 61.3912 30.2115 61.3912 30.2109 61.3014C30.2099 61.1237 30.2087 60.9459 30.2077 60.7682C30.1781 55.9681 30.1486 51.168 30.1191 46.3678C30.118 46.1985 30.117 46.0292 30.116 45.8598C30.0821 40.3606 30.0484 34.8613 29.9892 25.1543C29.9882 25.0046 29.9873 24.8551 29.9864 24.7054C29.9861 24.6565 29.9859 24.6075 29.9855 24.557C29.9847 24.4252 29.9839 24.2934 29.9831 24.1615C29.9357 16.3865 29.8885 8.61154 29.8412 0.836533C40.1305 0.772422 50.4198 0.708312 61.0208 0.642258C61.0645 7.23934 61.0645 7.23937 61.1091 13.9697C61.1365 18.1054 61.1365 18.1053 61.1639 22.241C61.1645 22.3299 61.1651 22.4189 61.1657 22.5078C61.166 22.5524 61.1663 22.597 61.1666 22.6429C61.1675 22.7818 61.1684 22.9208 61.1693 23.0597C61.2024 28.05 61.2356 33.0402 61.2954 42.0295C61.2964 42.1846 61.2974 42.3397 61.2985 42.4948C61.3277 46.8895 61.357 51.2843 61.3863 55.6791C61.3874 55.8418 61.3885 56.0044 61.3895 56.1671C61.3899 56.2208 61.3903 56.2745 61.3906 56.3299C61.4041 58.3501 61.4175 60.3702 61.431 62.3904C61.4325 62.6099 61.4339 62.8294 61.4354 63.0489C61.4699 68.2278 61.5043 73.4066 61.5386 78.5855C61.5392 78.6673 61.5392 78.6673 61.5397 78.7506C61.5517 80.5622 61.5637 82.3738 61.5757 84.1854C61.5865 85.8223 61.5973 87.4592 61.6082 89.096C61.6085 89.1498 61.6089 89.2036 61.6092 89.259C61.6315 92.6286 61.6539 95.9982 61.6764 99.3678C61.6767 99.4199 61.6771 99.4719 61.6774 99.5256C61.6927 101.813 61.708 104.1 61.7232 106.387C61.7294 107.307 61.7356 108.228 61.7417 109.148C61.7427 109.301 61.7437 109.453 61.7447 109.606C61.7603 111.938 61.7758 114.27 61.7912 116.602C61.7915 116.652 61.7919 116.703 61.7922 116.754C61.7975 117.562 61.8028 118.371 61.8082 119.179C61.8233 121.475 61.8384 123.771 61.8538 126.067C61.8541 126.114 61.8544 126.16 61.8547 126.208C61.8616 127.227 61.8684 128.246 61.8753 129.264C61.878 129.671 61.8807 130.077 61.8835 130.483C61.8838 130.528 61.884 130.572 61.8844 130.618C61.8941 132.062 61.9036 133.507 61.9129 134.951C61.9219 136.329 61.9311 137.707 61.9405 139.085C61.946 139.892 61.9514 140.699 61.9564 141.506C61.9598 142.043 61.9635 142.58 61.9673 143.118C61.9695 143.422 61.9715 143.725 61.9733 144.029C61.9863 146.265 62.0562 148.498 62.1708 150.731C62.1732 150.777 62.1756 150.823 62.178 150.87C62.1804 150.917 62.1828 150.964 62.1853 151.012C62.1877 151.06 62.1902 151.109 62.1927 151.158C62.2968 153.194 62.4409 155.226 62.6148 157.257C62.6252 157.38 62.6252 157.38 62.6358 157.505C62.9397 161.087 63.3142 164.659 63.8284 168.218C63.8637 168.464 63.8981 168.71 63.9325 168.957C63.9564 169.126 63.9804 169.296 64.0044 169.466C64.014 169.535 64.0237 169.604 64.0336 169.675C64.1392 170.411 64.2639 171.144 64.3858 171.877C64.4232 172.102 64.4603 172.327 64.4973 172.552C64.838 174.626 65.2073 176.691 65.6323 178.75C65.7052 179.103 65.7767 179.457 65.8481 179.81C66.2217 181.655 66.625 183.49 67.0801 185.318C67.1897 185.759 67.293 186.202 67.3952 186.645C67.5756 187.421 67.7729 188.194 67.972 188.966C67.9869 189.024 68.0019 189.082 68.0173 189.142C68.1821 189.781 68.3517 190.419 68.5326 191.055C68.6076 191.319 68.6802 191.584 68.7526 191.848C68.9498 192.57 69.1543 193.289 69.3684 194.006C69.394 194.092 69.4196 194.178 69.4452 194.264C69.8729 195.712 69.8729 195.712 70.3397 197.148C70.4624 197.509 70.573 197.873 70.6809 198.238C70.9075 198.997 71.1557 199.749 71.4092 200.499C71.4319 200.567 71.4545 200.634 71.4779 200.704C71.856 201.827 72.2483 202.944 72.6559 204.057C72.7625 204.348 72.8675 204.639 72.9716 204.931C74.3462 208.776 75.9062 212.575 77.6226 216.288C77.7054 216.467 77.7875 216.647 77.8697 216.827C78.6718 218.581 79.5153 220.312 80.3876 222.034C80.5296 222.315 80.6705 222.596 80.8102 222.878C81.1044 223.471 81.4001 224.061 81.7274 224.637C81.8799 224.906 82.0254 225.177 82.1672 225.451C82.8734 226.81 83.6043 228.154 84.3948 229.469C84.545 229.721 84.6908 229.975 84.8368 230.229C85.1415 230.756 85.458 231.277 85.7766 231.797C85.9918 232.148 86.2057 232.5 86.4167 232.854C86.9632 233.769 87.5289 234.669 88.1182 235.559C88.2372 235.738 88.3557 235.918 88.474 236.098C88.6408 236.351 88.8076 236.604 88.9752 236.857C89.0409 236.956 89.1063 237.056 89.1716 237.156C89.5997 237.806 90.048 238.444 90.4937 239.083C90.5371 239.145 90.5804 239.207 90.6251 239.271C91.5077 240.538 92.3907 241.801 93.3275 243.03C93.4406 243.179 93.553 243.329 93.6651 243.478C94.1245 244.091 94.591 244.697 95.0653 245.299C95.1727 245.436 95.2796 245.573 95.3864 245.71C95.7171 246.135 96.0494 246.557 96.3976 246.969C96.6127 247.226 96.8229 247.487 97.0337 247.748C97.3975 248.197 97.7668 248.641 98.1452 249.078C98.2207 249.166 98.2962 249.255 98.3717 249.343C98.8675 249.922 99.3671 250.497 99.8746 251.067C99.9094 251.106 99.9442 251.145 99.98 251.185C100.337 251.586 100.695 251.987 101.059 252.382C101.162 252.496 101.264 252.611 101.366 252.726C101.871 253.299 102.398 253.847 102.936 254.391C103.104 254.562 103.27 254.736 103.436 254.91C103.562 255.043 103.689 255.176 103.816 255.308C103.848 255.342 103.88 255.376 103.914 255.411C104.739 256.272 105.602 257.096 106.465 257.922C106.674 258.122 106.882 258.322 107.09 258.522C107.253 258.678 107.416 258.834 107.579 258.99C107.656 259.063 107.733 259.137 107.81 259.211C108.18 259.567 108.551 259.919 108.951 260.244C109.076 260.348 109.192 260.459 109.309 260.572C109.511 260.769 109.722 260.95 109.939 261.129C110.147 261.304 110.349 261.484 110.552 261.664C110.837 261.918 111.124 262.168 111.419 262.412C111.576 262.544 111.731 262.679 111.885 262.814C112.182 263.07 112.487 263.313 112.797 263.554C113.026 263.733 113.249 263.918 113.473 264.104C113.87 264.432 114.276 264.745 114.69 265.053C114.899 265.208 115.105 265.366 115.312 265.526C116.272 266.267 117.258 266.976 118.247 267.681C118.299 267.719 118.351 267.756 118.405 267.794C119.103 268.293 119.808 268.778 120.529 269.246C120.659 269.331 120.789 269.418 120.919 269.504C123.26 271.062 125.704 272.465 128.175 273.818C128.231 273.849 128.287 273.879 128.345 273.911C128.877 274.203 129.413 274.481 129.963 274.739C130.243 274.871 130.519 275.007 130.793 275.148C131.491 275.507 132.201 275.834 132.917 276.155C133.064 276.221 133.211 276.287 133.358 276.354C136.243 277.659 139.204 278.751 142.223 279.729C142.271 279.745 142.32 279.76 142.37 279.777C144.09 280.334 145.833 280.795 147.589 281.228C147.645 281.242 147.701 281.256 147.758 281.27C151.731 282.252 155.866 282.935 159.964 283.151C159.964 283.217 159.965 283.283 159.965 283.351C160.04 283.35 160.04 283.35 160.116 283.349C160.343 283.346 160.57 283.344 160.798 283.341C160.876 283.34 160.954 283.339 161.035 283.338C161.111 283.337 161.188 283.337 161.266 283.336C161.371 283.335 161.371 283.335 161.477 283.334C161.682 283.34 161.682 283.34 161.864 283.371C162.206 283.42 162.546 283.416 162.891 283.418C163.006 283.419 163.006 283.419 163.123 283.42C163.45 283.423 163.776 283.426 164.103 283.428C164.341 283.43 164.58 283.433 164.819 283.435C164.893 283.435 164.967 283.436 165.043 283.436C165.111 283.437 165.18 283.438 165.251 283.438C165.311 283.439 165.372 283.439 165.434 283.44C165.597 283.449 165.597 283.449 165.872 283.514C165.932 293.081 165.992 302.648 166.053 312.505C161.774 312.626 161.774 312.626 160.812 312.565Z" fill="#F3E4C6"/>
</svg>
