<svg width="90" height="151" viewBox="0 0 90 151" fill="none" xmlns="http://www.w3.org/2000/svg">
<g opacity="0.5">
<path d="M2.91309 147.869C3.54131 146.615 4.5623 132.485 5.49812 126.857C6.12134 123.127 8.8176 119.796 9.37969 115.865C12.3936 94.7613 25.1314 63.6347 36.8583 46.0423C41.9321 38.4324 48.0932 33.1382 52.3765 26C53.3644 24.3565 55.7521 17.5949 57.8702 17.5949" stroke="#1C3B3A" stroke-width="5.825" stroke-miterlimit="10" stroke-linecap="round" stroke-linejoin="round"/>
<path d="M55.7822 0.657227C56.8723 0.220876 58.1443 0.736158 59.1738 1.78906C59.6766 2.3033 60.0873 2.91602 60.3477 3.5293C60.61 4.1474 60.7055 4.73114 60.6279 5.2002C60.5739 5.52111 60.5812 5.99321 60.6104 6.46191C60.6404 6.94524 60.697 7.47464 60.7588 7.93555C60.8199 8.39127 60.8888 8.8006 60.9463 9.03613C60.9604 9.09401 60.978 9.15779 60.999 9.21387C61.0085 9.23902 61.027 9.28588 61.0576 9.33496C61.0726 9.35899 61.103 9.40447 61.1523 9.44922C61.1983 9.49092 61.3061 9.57255 61.4688 9.58105C61.6513 9.59048 61.7857 9.50289 61.8594 9.42676C61.9242 9.35973 61.9548 9.29075 61.9678 9.25879C61.9948 9.19214 62.0042 9.13064 62.0078 9.10352C62.0165 9.03859 62.0186 8.96432 62.0186 8.89355C62.0186 8.38192 62.2053 7.73879 62.5557 7.05469C62.9026 6.37737 63.3931 5.69415 63.957 5.10742C64.5228 4.51879 65.1465 4.04467 65.752 3.7666C66.2832 3.52266 66.7672 3.44312 67.1836 3.52832L67.3574 3.5752C67.6462 3.67164 67.7681 3.81429 67.8271 3.96875C67.8963 4.14994 67.9074 4.42404 67.8164 4.81055C67.6336 5.58698 67.0967 6.58042 66.4189 7.59375C65.7497 8.59431 64.9762 9.56627 64.3672 10.291C64.0636 10.6524 63.8024 10.9507 63.6172 11.1582C63.5246 11.262 63.4504 11.3437 63.4004 11.3984C63.3756 11.4256 63.3565 11.4462 63.3438 11.46C63.3374 11.4669 63.3322 11.4722 63.3291 11.4756C63.3277 11.4771 63.3269 11.4788 63.3262 11.4795L63.3252 11.4805L63.9014 12.2744L63.9053 12.2725C63.9084 12.271 63.9136 12.2695 63.9199 12.2666C63.9329 12.2607 63.952 12.2509 63.9775 12.2393C64.0289 12.2159 64.1054 12.1823 64.2031 12.1387C64.3988 12.0514 64.6817 11.9268 65.0283 11.7793C65.7224 11.4838 66.6708 11.0956 67.6885 10.7266C68.7079 10.3569 69.7869 10.0094 70.7461 9.79004C71.6081 9.5929 72.3065 9.51606 72.7695 9.5752L72.9531 9.60938C73.2846 9.69233 73.426 9.81207 73.4873 9.90039C73.5456 9.98448 73.5813 10.112 73.5469 10.3242C73.4723 10.7832 73.1014 11.4216 72.5146 12.1084C71.9433 12.7771 71.2256 13.4252 70.5635 13.9033C70.2325 14.1423 69.924 14.3322 69.6631 14.46C69.3871 14.5951 69.2171 14.6338 69.1445 14.6338C68.652 15.0478 69.0528 15.6254 69.1328 15.6338H69.1387C69.1396 15.6338 69.141 15.6347 69.1426 15.6348C69.1461 15.6348 69.1519 15.6346 69.1592 15.6348C69.1739 15.635 69.1964 15.6351 69.2256 15.6357C69.2845 15.637 69.3719 15.6389 69.4824 15.6426C69.7038 15.6499 70.019 15.6637 70.3896 15.6865C71.1339 15.7324 72.0916 15.8173 72.9648 15.9727C73.4015 16.0504 73.808 16.1443 74.1514 16.2559C74.5014 16.3697 74.7528 16.4917 74.9053 16.6104C75.0508 16.7236 75.0464 16.7817 75.0459 16.7891C75.0447 16.8152 75.0264 16.9032 74.8994 17.0557L74.7334 17.2295C73.7656 18.1329 72.1057 19.1373 70.084 20.0508C68.0712 20.9602 65.7354 21.7635 63.4424 22.2793C61.1438 22.7964 58.9187 23.0178 57.1152 22.7891C55.3044 22.5593 54.0238 21.8933 53.4238 20.7393V20.7383C51.5978 17.2262 50.335 12.898 50.4736 9.09473C50.6117 5.30884 52.1245 2.11966 55.7822 0.657227Z" fill="#D4A24C" stroke="#1C3B3A"/>
<path d="M35.7891 25.5454C36.2023 25.4078 36.6586 25.5708 37.1982 26.1685C37.7303 26.7578 38.2241 27.6523 38.6494 28.6196C39.0709 29.5784 39.4092 30.5708 39.6426 31.3267C39.759 31.7037 39.8497 32.0202 39.9102 32.2417C39.9404 32.3524 39.9633 32.4397 39.9785 32.4985C39.9861 32.5277 39.9914 32.5502 39.9951 32.5649C39.997 32.5723 39.9981 32.578 39.999 32.5815C39.9994 32.5832 39.9998 32.5847 40 32.5854L40.001 32.5864L40.3398 33.9575L40.9385 32.6782L40.9395 32.6753L40.9648 32.6245C40.9828 32.5876 41.0096 32.5324 41.0449 32.4624C41.1158 32.3222 41.2205 32.1215 41.3525 31.8843C41.6176 31.4082 41.9904 30.7912 42.4268 30.2124C42.8685 29.6265 43.3506 29.1134 43.8262 28.813C44.2934 28.5179 44.6776 28.4697 45.0225 28.6421V28.6411C45.1019 28.681 45.1331 28.7244 45.1533 28.7749C45.1794 28.8403 45.1976 28.9524 45.1787 29.1353C45.1398 29.5125 44.9678 30.012 44.7256 30.6274C44.4937 31.2167 44.2032 31.8993 43.9912 32.562C43.7796 33.2235 43.6223 33.9318 43.6865 34.5933C43.6936 34.6666 43.7077 34.7578 43.7422 34.8472C43.7754 34.9332 43.8505 35.0756 44.0137 35.1646C44.1904 35.2607 44.3649 35.2381 44.4756 35.2007C44.5776 35.1661 44.6573 35.1101 44.707 35.0708C44.8082 34.9907 44.9078 34.8808 44.9932 34.7817C45.0827 34.6778 45.1849 34.5514 45.2891 34.4243C45.7268 33.8904 46.2815 33.248 46.9502 32.9136C47.7768 32.4999 48.8134 31.9261 49.8955 31.5396C50.9884 31.1491 51.9978 31.0004 52.7812 31.313C52.9653 31.3866 53.0421 31.4827 53.082 31.5864C53.1299 31.711 53.1454 31.9034 53.0928 32.1821C52.9864 32.746 52.6425 33.4623 52.2119 34.1958C51.7865 34.9205 51.314 35.6013 50.9775 36.1108C50.8185 36.3517 50.6716 36.5812 50.5938 36.7466C50.5732 36.7904 50.55 36.8452 50.5332 36.9048C50.5209 36.9486 50.4885 37.0702 50.5234 37.2124C50.5438 37.2952 50.5894 37.395 50.6807 37.478C50.7716 37.5607 50.8746 37.5962 50.958 37.6089C51.101 37.6306 51.2189 37.5889 51.2646 37.5718C51.7635 37.3855 53.2592 36.7475 54.7236 36.353C55.4583 36.1552 56.1365 36.0325 56.6455 36.0483C57.1839 36.0652 57.3109 36.2178 57.3457 36.3218C57.4669 36.6852 57.3598 37.0645 57.0771 37.4829C56.7905 37.9073 56.3959 38.2668 56.0781 38.5845C53.3894 41.2731 50.4965 42.9773 47.4414 43.7349C44.578 44.4448 41.5442 44.3302 38.3643 43.3813L37.7266 43.1812C37.3589 43.059 37.2022 42.952 37.1289 42.8755C37.0698 42.8137 37.0319 42.7388 37.0039 42.5679C36.9483 42.2276 36.967 41.4746 36.5928 40.521C35.6395 38.0948 34.5103 34.5708 34.123 31.5024C33.9289 29.9643 33.9272 28.5832 34.1992 27.5249C34.468 26.4793 34.9816 25.8143 35.7881 25.5454H35.7891ZM50.915 36.6362H50.9131C50.9142 36.6358 50.9161 36.6349 50.918 36.6343C50.9169 36.6347 50.9161 36.6358 50.915 36.6362Z" fill="#FFE5AA" stroke="#1C3B3A"/>
<path d="M23.6592 51.3867C24.3135 51.4381 25.0394 51.7784 25.7363 52.3232C26.4278 52.8638 27.0517 53.5761 27.5 54.3047C27.9545 55.0435 28.1963 55.7465 28.1963 56.2705C28.1963 56.2992 28.1978 56.3367 28.2031 56.377C28.2069 56.4053 28.2181 56.4914 28.2695 56.582C28.2977 56.6317 28.3535 56.7093 28.4521 56.7686C28.5618 56.8343 28.6866 56.8538 28.8008 56.834C28.9843 56.8021 29.0872 56.6817 29.1045 56.6621C29.1647 56.5938 29.2024 56.5154 29.2178 56.4834C29.2399 56.4374 29.2616 56.3851 29.2822 56.333C29.363 56.1287 29.4694 55.8068 29.5781 55.4746C29.6896 55.1342 29.807 54.7719 29.9141 54.4639C30.0282 54.1353 30.1105 53.9317 30.1484 53.8682C30.3693 53.4998 30.8884 53.0363 31.5771 52.6143C32.2536 52.1998 33.026 51.8667 33.6885 51.7207C34.0199 51.6477 34.3012 51.6261 34.5186 51.6514C34.7356 51.6766 34.8498 51.743 34.9092 51.8066C34.9629 51.8643 35.0292 51.9812 35.0215 52.2393C35.0135 52.5054 34.9258 52.888 34.7002 53.4141L34.6982 53.4189C34.6712 53.4841 34.6573 53.559 34.6533 53.5791C34.6455 53.6192 34.6374 53.6679 34.6289 53.7207C34.6116 53.8277 34.5907 53.9695 34.5674 54.1299C34.5204 54.4535 34.4627 54.8629 34.3984 55.2676C34.3338 55.6746 34.265 56.0633 34.1982 56.3457C34.1725 56.4547 34.1476 56.5358 34.1289 56.5918C34.1191 56.6022 34.1089 56.6129 34.0996 56.624C34.095 56.6295 34.0444 56.6865 34.0107 56.7686C34.0018 56.7902 33.9268 56.964 34.0166 57.165C34.138 57.4368 34.4011 57.4619 34.4756 57.4619C34.7488 57.4619 34.8961 57.2668 34.9297 57.2207C34.9348 57.2137 34.9376 57.2053 34.9424 57.1982C34.9716 57.1724 35.0068 57.1414 35.0479 57.1064C35.2093 56.969 35.4381 56.7821 35.6807 56.5898C35.9234 56.3975 36.1755 56.2026 36.3838 56.0508C36.4883 55.9746 36.5784 55.9121 36.6484 55.8662C36.7316 55.8118 36.7523 55.8046 36.7344 55.8115C37.1177 55.6697 37.9801 55.4552 38.8027 55.4092C39.2157 55.3861 39.5857 55.4078 39.8672 55.4834C40.1513 55.5598 40.2715 55.6691 40.3193 55.7646L40.3203 55.7656C40.5885 56.3015 40.5773 56.8759 40.3926 57.4619C40.2055 58.0552 39.8478 58.6303 39.4756 59.1152C39.1063 59.5963 38.7403 59.966 38.5508 60.1572C38.507 60.2014 38.4621 60.2471 38.4326 60.2793C38.4301 60.282 38.3812 60.3323 38.3457 60.3955C38.3368 60.4114 38.303 60.4723 38.2881 60.5576C38.2731 60.644 38.2621 60.9032 38.5068 61.0635C38.6815 61.1778 38.8555 61.1396 38.876 61.1357C38.9268 61.1261 38.9654 61.1108 38.9805 61.1045C39.0332 61.0823 39.0792 61.0518 39.0898 61.0449C39.1121 61.0305 39.1384 61.0127 39.165 60.9941C39.2188 60.9568 39.2936 60.9038 39.3877 60.8369C39.8185 60.5306 40.5819 60.1961 41.457 59.9209C42.3239 59.6483 43.2461 59.4511 43.9678 59.3945C44.3322 59.366 44.6165 59.3759 44.8076 59.415C44.8492 59.4236 44.8808 59.4335 44.9053 59.4414C44.8889 59.4747 44.8632 59.5206 44.8213 59.5801C44.6685 59.7971 44.3727 60.0997 43.873 60.5L42.0566 61.8643C39.0071 63.7649 35.2479 65.0137 31.7021 65.0137C31.1972 65.0137 30.0575 64.951 29.0166 64.834C28.496 64.7755 28.0153 64.7045 27.6582 64.625C27.4778 64.5848 27.3458 64.5466 27.2617 64.5127C27.2534 64.5093 27.2466 64.5048 27.2402 64.502C27.0743 64.1977 26.8298 63.8543 26.5469 63.4951C26.2292 63.0917 25.8434 62.637 25.4326 62.1523C24.6049 61.1757 23.6625 60.0601 22.8652 58.8828C22.0651 57.7012 21.4379 56.4954 21.2109 55.3467C20.9882 54.2191 21.1502 53.1561 21.9229 52.1904C22.4393 51.5449 23.0365 51.3379 23.6592 51.3867Z" fill="#D4A24C" stroke="#1C3B3A"/>
<path d="M12.665 71.7866C12.7276 71.7882 12.8367 71.7925 12.9805 71.7925C13.1528 71.7925 13.4365 71.92 13.8018 72.2017C14.1434 72.4651 14.464 72.7883 14.7061 73.0317L14.707 73.0337C14.8927 73.2194 15.0569 73.5169 15.2041 73.8931C15.3493 74.2641 15.4591 74.6588 15.5635 75.021C15.6141 75.1965 15.6651 75.3704 15.7178 75.5181C15.7657 75.6526 15.8335 75.8224 15.9355 75.9536C15.9882 76.0213 16.082 76.1206 16.2275 76.1763C16.3958 76.2406 16.5689 76.2217 16.7119 76.1499C16.8355 76.0878 16.9203 75.9953 16.9746 75.9243C17.0323 75.8489 17.0822 75.7629 17.126 75.6753C17.5136 74.8993 17.7433 74.3784 18.0449 73.9937C18.3102 73.6554 18.6223 73.4399 19.1904 73.3452C19.7958 73.2444 20.2534 73.3156 20.5977 73.4722C20.9417 73.6287 21.2087 73.8872 21.4062 74.2212C21.8109 74.9054 21.907 75.8825 21.7344 76.7407L21.7334 76.7427C21.7073 76.8757 21.7091 77.0459 21.7119 77.1421C21.7136 77.1985 21.7166 77.2513 21.7197 77.2915C21.7212 77.3102 21.7229 77.3325 21.7256 77.353C21.7264 77.359 21.7303 77.3843 21.7373 77.4136C21.7394 77.4223 21.7427 77.4385 21.749 77.4575C21.7532 77.4701 21.7683 77.5145 21.7998 77.5649C21.8153 77.5897 21.851 77.6426 21.9131 77.6919C21.9793 77.7444 22.1052 77.8135 22.2725 77.7974C22.4351 77.7816 22.5408 77.6945 22.5918 77.6392C22.6112 77.6181 22.6259 77.5957 22.6387 77.5767L22.6406 77.5776C22.8143 77.3175 23.2739 76.9302 23.9707 76.5093C24.6467 76.1009 25.4834 75.6971 26.3389 75.3833C27.1979 75.0682 28.0519 74.8528 28.7656 74.8032C29.5053 74.7518 29.9669 74.8871 30.1924 75.1128C30.526 75.446 30.5968 76.0303 30.166 76.9897C29.7467 77.9235 28.9207 79.0307 27.8389 80.1646C25.6771 82.43 22.6148 84.6734 20.1436 85.7153C19.2277 86.1001 18.4324 86.3042 17.8145 86.3081C17.7381 86.3086 17.6656 86.3057 17.5967 86.3003C17.5915 86.2964 17.5861 86.2924 17.5811 86.2886C17.5419 86.2594 17.4962 86.2262 17.4473 86.1919C17.2535 86.0561 16.9767 85.8745 16.7578 85.7466C16.7027 85.7144 16.6482 85.684 16.5977 85.6577C16.55 85.6329 16.4933 85.6053 16.4375 85.5845C16.4153 85.5762 16.3811 85.5661 16.3408 85.5571C15.8328 85.1738 15.1285 84.3516 14.3877 83.2173C13.5891 81.9944 12.7884 80.4778 12.1855 78.938C11.5801 77.3915 11.1882 75.856 11.1777 74.5864C11.1673 73.3152 11.5334 72.4209 12.3135 71.9526H12.3145C12.4452 71.874 12.5169 71.831 12.5693 71.8032C12.6159 71.7786 12.6165 71.7824 12.6006 71.7856C12.5915 71.7874 12.5951 71.7849 12.665 71.7866Z" fill="#FFE5AA" stroke="#1C3B3A"/>
<path d="M10.0586 96.1646C10.9358 95.5552 11.8537 95.4037 12.4336 95.7896C12.7129 95.9759 12.9262 96.3527 13.0693 96.9331C13.2096 97.5022 13.2602 98.1742 13.291 98.8394C13.3205 99.4747 13.3327 100.144 13.4082 100.61C13.4444 100.833 13.5072 101.105 13.6572 101.309C13.7407 101.423 13.8659 101.536 14.043 101.591C14.2196 101.646 14.3898 101.625 14.5312 101.576L14.5322 101.577C15.2013 101.345 15.5386 100.758 15.7441 100.241C15.8497 99.9748 15.933 99.6936 16.0068 99.438C16.0832 99.1736 16.1477 98.9398 16.2227 98.7319C16.5232 97.9121 17.5108 97.1075 18.6338 96.6235C19.182 96.3873 19.72 96.2478 20.1582 96.2183C20.563 96.191 20.7958 96.2619 20.9082 96.3403L20.9492 96.3745C21.008 96.4337 21.0613 96.5348 21.0713 96.7261C21.0816 96.9235 21.0423 97.182 20.9482 97.4976C20.7602 98.1285 20.3843 98.8774 19.9512 99.6099C19.5215 100.336 19.052 101.021 18.6953 101.519C18.5174 101.767 18.3679 101.968 18.2666 102.103C18.2171 102.169 18.1756 102.224 18.1504 102.258C18.1395 102.273 18.1254 102.293 18.1143 102.309C18.1112 102.314 18.1046 102.323 18.0977 102.334C18.0943 102.34 18.0881 102.351 18.0811 102.365C18.0778 102.371 18.0576 102.409 18.043 102.461C18.0349 102.495 18.0239 102.592 18.0273 102.655C18.0562 102.773 18.228 102.999 18.375 103.074C18.4857 103.095 18.6556 103.079 18.7109 103.06C18.7404 103.047 18.7861 103.023 18.8027 103.012C18.8319 102.993 18.8523 102.974 18.8584 102.968C18.8674 102.96 18.8748 102.954 18.8789 102.95L18.8799 102.948C19.4276 102.4 20.5397 101.201 21.7471 100.355C22.3518 99.9314 22.9366 99.6294 23.4482 99.5278C23.9352 99.4312 24.3239 99.5179 24.6465 99.8403C24.9683 100.162 25.0441 100.459 24.9971 100.752C24.9442 101.081 24.7234 101.48 24.2939 101.938C23.4367 102.852 21.9251 103.813 20.1484 104.694C18.3842 105.569 16.4065 106.342 14.6621 106.896C12.8986 107.456 11.4329 107.771 10.6689 107.771H10.376C10.376 107.771 10.376 107.772 10.376 107.773C10.0559 107.795 9.63316 107.706 9.11914 107.479C8.60056 107.25 8.0257 106.897 7.42578 106.447C6.22592 105.547 4.96936 104.287 3.9248 102.942C2.8759 101.591 2.0683 100.191 1.73047 99.0171C1.4089 97.8995 1.548 97.161 2.05762 96.7456L2.16406 96.6665C2.78518 96.2528 3.36818 96.2702 3.95312 96.5425C4.57167 96.8305 5.18422 97.4054 5.75391 98.0952C6.31755 98.7778 6.8039 99.5281 7.18555 100.125C7.37229 100.418 7.54144 100.686 7.67676 100.877C7.7435 100.972 7.81439 101.066 7.88477 101.141C7.9195 101.178 7.96734 101.225 8.02637 101.266C8.07525 101.3 8.19401 101.373 8.3584 101.374C8.59359 101.374 8.80398 101.268 8.93945 101.079C9.05344 100.919 9.08877 100.737 9.10156 100.603C9.12752 100.331 9.07988 100.004 9.02441 99.7153C8.9668 99.4156 8.88695 99.0958 8.82324 98.8306C8.7548 98.5456 8.71211 98.3485 8.70312 98.2407C8.67931 97.9509 8.78387 97.5905 9.03223 97.2046C9.27736 96.8237 9.6393 96.4558 10.0586 96.1646Z" fill="#D4A24C" stroke="#1C3B3A"/>
<path d="M17.3262 147.869C17.3723 144.246 20.6607 138.282 22.2478 135.108C27.0241 125.557 31.7894 117.54 39.9182 110.765C43.1064 108.109 46.7105 106.296 49.3416 102.912C56.2571 94.0201 61.7207 84.98 67.4048 75.0335" stroke="#1C3B3A" stroke-width="6.063" stroke-miterlimit="10" stroke-linecap="round" stroke-linejoin="round"/>
<path d="M68.0684 56.0781C68.1781 56.0773 68.3021 56.1092 68.4443 56.1895C68.7427 56.3579 69.061 56.7044 69.3652 57.1768C69.9724 58.1195 70.3796 59.3315 70.4453 59.792C70.5588 60.5872 70.5604 61.8246 70.5303 62.8916C70.5154 63.4189 70.4932 63.8944 70.4746 64.2383C70.4653 64.41 70.4572 64.549 70.4512 64.6445C70.4482 64.692 70.446 64.729 70.4443 64.7539C70.4435 64.7663 70.4428 64.776 70.4424 64.7822C70.4422 64.7852 70.4415 64.7875 70.4414 64.7891V64.791L71.3916 65.042V65.041C71.3919 65.0404 71.3929 65.0395 71.3936 65.0381C71.395 65.0351 71.3974 65.0306 71.4004 65.0244C71.4065 65.0119 71.4155 64.9927 71.4277 64.9678C71.4524 64.9177 71.4892 64.8432 71.5371 64.749C71.6329 64.5607 71.7734 64.2924 71.9492 63.9736C72.302 63.3343 72.7946 62.4995 73.3604 61.707C73.931 60.9076 74.5532 60.1835 75.1582 59.7363C75.7732 59.2819 76.2394 59.2018 76.6055 59.3848C76.769 59.4666 76.9201 59.6818 76.9473 60.208C76.9736 60.7179 76.8708 61.3737 76.6953 62.0771C76.342 63.4933 75.7594 64.8862 75.5703 65.4521H75.5693C75.427 65.879 75.3227 66.2261 75.2529 66.499C75.1866 66.7585 75.1405 66.994 75.1436 67.1787C75.1449 67.26 75.1551 67.4234 75.2568 67.5723C75.3158 67.6585 75.4052 67.7384 75.5254 67.7832C75.6411 67.8262 75.7495 67.8232 75.8301 67.8086C75.9748 67.7823 76.0875 67.7076 76.1494 67.6621C76.2222 67.6087 76.2924 67.5434 76.3584 67.4775C76.6144 67.2218 76.9599 66.7816 77.3438 66.2783C77.7379 65.7615 78.1875 65.1581 78.6758 64.5342C79.6611 63.275 80.7419 62.0136 81.6904 61.3496C82.1707 61.0134 82.5342 60.8911 82.7852 60.9092C82.9792 60.9232 83.2178 61.031 83.4482 61.5098C83.8976 62.4446 83.8057 63.4223 83.3711 64.4033C82.9321 65.3941 82.1571 66.351 81.3145 67.1777C80.8178 67.665 80.3037 68.0947 79.8408 68.4541C79.1133 68.8434 78.5077 69.2267 78.1289 69.5527H78.1279C78.1003 69.5766 78.0457 69.6255 78.001 69.6865C77.9878 69.7045 77.9671 69.734 77.9482 69.7734C77.9319 69.8076 77.8988 69.8849 77.8975 69.9883C77.896 70.1112 77.9417 70.2611 78.0684 70.373C78.1763 70.4683 78.2923 70.4908 78.3467 70.4971C78.4498 70.5089 78.5332 70.4855 78.5518 70.4805C78.5857 70.4713 78.6155 70.4597 78.6367 70.4512C78.6801 70.4337 78.7256 70.4118 78.7686 70.3896C78.9404 70.301 79.2111 70.1367 79.5371 69.916C79.7927 69.743 80.0893 69.5299 80.4092 69.2832C80.8268 69.0629 81.2948 68.8355 81.7949 68.6133C83.1568 68.0082 84.6958 67.4678 85.9922 67.2207C86.6423 67.0968 87.2057 67.052 87.6436 67.0967C88.0905 67.1423 88.3241 67.2719 88.4336 67.4102C88.5314 67.5338 88.6188 67.779 88.4902 68.2891C88.361 68.8019 88.0296 69.5053 87.4072 70.4385C87.2865 70.6195 87.0041 70.9112 86.543 71.2871C86.0921 71.6546 85.5003 72.0779 84.7939 72.5244C83.3813 73.4173 81.5285 74.391 79.458 75.1855C75.2927 76.7839 70.3654 77.6152 66.3672 75.7832C65.3243 75.3053 64.7702 74.7304 64.4795 74.1406C64.1846 73.5424 64.1303 72.8678 64.2012 72.1387C64.2731 71.3996 64.4645 70.667 64.6279 69.9307C64.7822 69.2355 64.9248 68.4869 64.7939 67.8555C64.4149 66.0241 64.3214 63.6315 64.7451 61.4248C65.1709 59.2075 66.1001 57.2675 67.6826 56.2129V56.2119C67.8345 56.1106 67.9617 56.079 68.0684 56.0781Z" fill="#FFE5AA" stroke="#1C3B3A"/>
<path d="M47.582 84.1084C47.7391 84.0238 47.9638 83.9887 48.3193 84.1289C48.6897 84.2751 49.1713 84.6028 49.7734 85.2051C50.1872 85.6184 50.491 86.0727 50.7393 86.5029C50.8642 86.7194 50.972 86.9242 51.0771 87.1201C51.1789 87.3097 51.2822 87.4995 51.3877 87.6592C51.4893 87.8128 51.623 87.9863 51.8018 88.1055C52.0073 88.2422 52.26 88.2981 52.5283 88.2178C52.7617 88.1479 52.9586 87.9886 53.127 87.8135C53.3012 87.6322 53.4854 87.39 53.6855 87.0898C54.1723 86.3597 55.3361 85.5737 56.4609 85.335C57.0148 85.2174 57.4995 85.2455 57.8652 85.4199C58.21 85.5844 58.516 85.9099 58.6738 86.541C58.8004 87.0484 58.7584 87.651 58.627 88.2646C58.4967 88.8724 58.2882 89.4489 58.1182 89.8926C58.0368 90.1049 57.9565 90.3066 57.9072 90.4473C57.8836 90.5149 57.8563 90.5985 57.8418 90.6758C57.8355 90.7094 57.8224 90.7844 57.833 90.8721C57.8423 90.9484 57.8957 91.2021 58.1709 91.3018C58.3879 91.3802 58.5662 91.2863 58.5986 91.2695C58.6585 91.2386 58.7067 91.2015 58.7363 91.1768C58.799 91.1243 58.8671 91.0544 58.9355 90.9805C59.0765 90.8281 59.2759 90.5941 59.543 90.2734L59.542 90.2725C59.7105 90.0722 60.2331 89.599 60.8135 89.1064C61.353 88.6485 61.8847 88.2255 62.1377 88.0498L64.3877 87.2979C64.7904 87.2212 64.9309 87.2843 64.96 87.3037C64.963 87.3058 65.0195 87.3372 65.0215 87.5518C65.0235 87.7667 64.966 88.0618 64.8555 88.4277C64.7469 88.787 64.5998 89.1778 64.4443 89.5762C64.2918 89.967 64.1287 90.3716 64.0049 90.7314C63.8849 91.0801 63.7787 91.4483 63.7695 91.7578C63.7649 91.9139 63.7825 92.1117 63.8848 92.2939C64.0009 92.5009 64.1934 92.6298 64.418 92.6738C64.6181 92.713 64.825 92.6826 65.0137 92.6299C65.2084 92.5754 65.4263 92.4856 65.667 92.3652V92.3643C66.2283 92.0827 67.0126 91.7305 67.6904 91.6631C68.0234 91.63 68.2773 91.6719 68.457 91.7744C68.6206 91.8677 68.7861 92.0464 68.8818 92.4307V92.4316C69.1619 93.5506 68.6138 94.7672 67.334 96.0078C66.0674 97.2356 64.1822 98.3833 62.083 99.3223C59.9888 100.259 57.7136 100.973 55.6904 101.351C53.7054 101.721 52.0461 101.748 51.0342 101.415C51.0132 101.383 50.9832 101.34 50.9492 101.278C50.8535 101.106 50.7331 100.854 50.5918 100.534C50.3101 99.8965 49.965 99.0327 49.5947 98.0928C48.8614 96.2312 48.0259 94.0554 47.4346 92.8711V92.8701L47.3301 92.6377C47.089 92.04 46.8669 91.0765 46.7314 89.9668C46.5782 88.7115 46.5442 87.3358 46.6963 86.2061C46.7724 85.6406 46.8926 85.1576 47.0547 84.7881C47.2189 84.4138 47.4044 84.2041 47.582 84.1084Z" fill="#D4A24C" stroke="#1C3B3A"/>
<path d="M39.2754 105.596C39.5549 105.578 39.6118 105.66 39.6338 105.694C39.6873 105.777 39.7364 105.97 39.6982 106.332C39.6618 106.677 39.5548 107.097 39.3975 107.56C39.0835 108.483 38.597 109.495 38.1973 110.264C37.9986 110.646 37.8237 110.963 37.7061 111.174C37.6508 111.273 37.5993 111.364 37.5752 111.407C37.5656 111.424 37.5476 111.457 37.5361 111.48C37.5339 111.485 37.5299 111.494 37.5254 111.505C37.5235 111.509 37.5092 111.542 37.499 111.586C37.4928 111.617 37.4865 111.719 37.4941 111.789C37.5541 111.951 37.8523 112.181 38.0625 112.193C38.153 112.171 38.2714 112.11 38.3037 112.086C38.3197 112.072 38.3443 112.049 38.3535 112.039C38.3693 112.022 38.3811 112.007 38.3848 112.002C38.3898 111.995 38.3939 111.99 38.3965 111.986C38.4016 111.979 38.406 111.972 38.4092 111.968L38.4102 111.966C40.3436 109.066 42.4847 108.32 43.6943 108.6C44.2816 108.735 44.6774 109.106 44.8242 109.643C44.9764 110.199 44.8815 111.017 44.2812 112.041H44.2803C44.2419 112.107 44.2034 112.182 44.1768 112.263C44.153 112.335 44.1194 112.466 44.1553 112.618C44.2001 112.807 44.3326 112.945 44.4912 113.01C44.6194 113.062 44.7404 113.059 44.8086 113.053C44.95 113.04 45.1009 112.99 45.2285 112.942C45.3668 112.89 45.5253 112.821 45.6943 112.743C46.3964 112.418 47.3168 111.929 48.3457 111.489C49.3697 111.051 50.3724 110.723 51.1396 110.716C51.5153 110.713 51.787 110.787 51.9736 110.918C52.1274 111.026 52.267 111.202 52.3525 111.509L52.3857 111.648C52.7416 113.427 52.3397 114.773 51.501 115.821C50.6452 116.891 49.3015 117.69 47.7158 118.274C44.5432 119.445 40.5986 119.688 38.3477 119.688C37.3453 119.688 34.6732 120.215 31.9473 118.666H31.9463C29.7528 117.418 28.3764 115.202 27.792 112.965C27.2004 110.7 27.4537 108.564 28.3154 107.457C28.8731 106.742 30.0502 106.474 31.1533 106.874C32.2081 107.257 33.1366 108.245 33.1367 109.979C33.1367 110.117 33.1456 110.256 33.1758 110.38C33.201 110.483 33.2695 110.695 33.4814 110.819C33.73 110.965 33.9707 110.88 34.0859 110.818C34.2022 110.756 34.2986 110.666 34.3691 110.591C34.6439 110.3 35.0037 109.724 35.3701 109.142C35.7544 108.531 36.1789 107.854 36.6133 107.276C37.0055 106.755 37.3626 106.373 37.6602 106.179L37.7842 106.107C38.492 105.754 38.9708 105.615 39.2754 105.596Z" fill="#FFE5AA" stroke="#1C3B3A"/>
</g>
</svg>
