<?xml version="1.0" standalone="no"?> <!DOCTYPE svg PUBLIC "-//W3C//DTD SVG 20010904//EN" "http://www.w3.org/TR/2001/REC-SVG-20010904/DTD/svg10.dtd"> <svg version="1.0" xmlns="http://www.w3.org/2000/svg" width="455.000000pt" height="306.000000pt" viewBox="0 0 455.000000 306.000000" preserveAspectRatio="xMidYMid meet"> <g transform="translate(0.000000,306.000000) scale(0.100000,-0.100000)" fill="#dda440" stroke="none"> <path d="M1908 2945 c-2 -3 6 -45 20 -93 36 -129 36 -345 -2 -486 -24 -93 -108 -286 -138 -317 -7 -8 -31 -36 -53 -64 -22 -27 -64 -73 -95 -103 -43 -42 -49 -50 -25 -38 106 53 281 291 325 441 25 88 39 154 45 227 6 68 9 75 22 63 30 -30 73 -11 73 32 0 37 -47 54 -70 25 l-18 -22 -5 38 c-5 43 -1 50 15 34 22 -22 57 -14 64 13 12 48 -41 75 -69 35 -12 -18 -15 -14 -26 46 -19 104 -48 183 -63 169z"/> <path d="M2678 2892 c-60 -60 -81 -109 -72 -168 8 -58 -4 -55 -46 13 -47 75 -98 108 -164 108 -53 -1 -196 -16 -196 -21 0 -8 96 -193 112 -217 29 -40 90 -68 168 -74 l69 -6 -71 -34 c-119 -57 -144 -97 -158 -256 -5 -56 -8 -103 -7 -104 5 -4 156 41 201 60 51 23 89 63 107 115 15 43 25 40 33 -9 10 -65 39 -110 111 -173 36 -32 68 -57 69 -55 8 9 26 140 26 185 0 55 -34 139 -71 172 -28 27 -21 35 18 22 32 -12 69 -2 94 23 30 30 79 87 79 90 0 6 -103 75 -132 88 -21 9 -34 9 -58 -1 -30 -12 -56 -6 -33 8 17 10 33 58 33 95 0 33 -48 187 -59 187 -3 0 -27 -22 -53 -48z m-97 -272 c37 -27 39 -9 2 19 l-28 21 30 -11 c16 -6 37 -16 45 -23 8 -6 27 -18 43 -26 15 -7 27 -17 27 -22 0 -16 26 -36 51 -41 15 -3 12 -4 -8 -3 -32 2 -45 -15 -22 -29 6 -4 8 -13 5 -21 -3 -8 0 -14 6 -14 9 0 9 -3 1 -11 -6 -6 -23 -11 -37 -11 -17 0 -26 -6 -26 -16 0 -13 -3 -12 -15 4 -13 17 -14 17 -15 2 0 -10 -4 -18 -10 -18 -5 0 -7 7 -4 15 4 8 1 15 -5 15 -6 0 -11 -5 -11 -11 0 -5 -4 -7 -10 -4 -10 6 6 42 25 58 6 5 -1 5 -14 2 -16 -5 -21 -4 -17 4 10 16 -5 13 -25 -5 -16 -14 -17 -14 -15 0 1 9 11 23 22 31 19 14 19 14 -1 16 -17 1 -16 2 5 10 19 7 15 8 -20 5 -25 -2 -36 -2 -26 1 15 4 16 7 5 14 -9 5 1 7 28 5 52 -4 48 3 -27 50 -33 20 -60 39 -60 41 0 7 71 -27 101 -47z m89 15 c0 -3 -2 -5 -5 -5 -3 0 -5 2 -5 5 0 3 2 5 5 5 3 0 5 -2 5 -5z m-110 -40 c14 -8 21 -14 15 -14 -5 0 -21 6 -35 14 -14 8 -20 14 -15 14 6 0 21 -6 35 -14z m-40 -10 c0 -3 -2 -5 -5 -5 -3 0 -5 2 -5 5 0 3 2 5 5 5 3 0 5 -2 5 -5z m70 -112 c-1 -13 -61 -75 -67 -70 -3 3 8 22 24 41 26 34 43 45 43 29z m20 -59 c0 -2 -12 -4 -27 -4 -21 0 -24 3 -14 9 13 8 41 5 41 -5z m100 12 c0 -3 -4 -8 -10 -11 -5 -3 -10 -1 -10 4 0 6 5 11 10 11 6 0 10 -2 10 -4z m20 -1 c0 -3 -2 -5 -5 -5 -3 0 -5 2 -5 5 0 3 2 5 5 5 3 0 5 -2 5 -5z m-220 -40 c0 -3 -2 -5 -5 -5 -3 0 -5 2 -5 5 0 3 2 5 5 5 3 0 5 -2 5 -5z"/> <path d="M2610 2515 c0 -3 2 -5 5 -5 3 0 5 2 5 5 0 3 -2 5 -5 5 -3 0 -5 -2 -5 -5z"/> <path d="M2560 2505 c0 -3 2 -5 5 -5 3 0 5 2 5 5 0 3 -2 5 -5 5 -3 0 -5 -2 -5 -5z"/> <path d="M2680 2470 c0 -5 5 -10 10 -10 6 0 10 5 10 10 0 6 -4 10 -10 10 -5 0 -10 -4 -10 -10z"/> <path d="M1962 2919 c2 -6 8 -10 13 -10 5 0 11 4 13 10 2 6 -4 11 -13 11 -9 0 -15 -5 -13 -11z"/> <path d="M1970 2865 c0 -8 9 -15 20 -15 11 0 20 7 20 15 0 8 -9 15 -20 15 -11 0 -20 -7 -20 -15z"/> <path d="M1984 2815 c-10 -25 4 -45 31 -45 30 0 43 24 25 45 -16 19 -49 19 -56 0z"/> <path d="M2157 2533 c-2 -5 -7 -19 -10 -33 -5 -17 -23 -34 -56 -52 -85 -47 -115 -137 -60 -180 13 -10 33 -25 44 -33 71 -55 146 26 155 167 4 80 8 91 30 108 l25 20 -31 0 c-17 0 -37 -7 -44 -15 -16 -19 -30 -19 -30 -1 0 17 -16 30 -23 19z m-9 -185 c-6 -55 -32 -88 -69 -88 -47 0 -28 85 27 120 43 28 47 25 42 -32z"/> <path d="M3540 2345 c-19 -7 -75 -25 -125 -40 -173 -52 -329 -144 -419 -247 -42 -47 -46 -63 -13 -53 85 28 136 15 257 -63 128 -84 219 -114 206 -69 -18 64 -20 82 -5 71 35 -29 140 -74 170 -74 19 0 51 -5 72 -11 50 -14 53 -10 28 47 -12 26 -20 48 -19 49 2 1 30 7 63 13 33 7 82 16 110 22 27 6 64 7 82 4 33 -6 33 -6 23 22 -30 79 -112 143 -184 145 -28 0 -29 1 -12 12 11 7 37 28 59 47 l40 35 -54 7 c-86 10 -201 9 -242 -3 -51 -14 -53 -9 -17 36 47 60 42 73 -20 50z m38 -219 c104 -23 100 -31 -30 -56 -93 -19 -511 -34 -502 -18 9 15 164 72 229 84 78 15 204 11 303 -10z"/> <path d="M1812 2307 c-13 -13 -63 -47 -111 -76 -49 -29 -97 -61 -106 -71 -23 -25 -35 -25 -35 0 0 34 -18 23 -110 -70 -50 -49 -90 -83 -90 -76 0 8 -7 16 -15 20 -16 6 -43 -25 -147 -164 -48 -64 -78 -93 -123 -120 -74 -44 -56 -49 86 -25 188 31 513 184 395 185 -13 0 1 13 37 34 58 35 177 125 177 134 0 3 -19 2 -42 -1 l-43 -6 51 55 c59 63 123 179 108 194 -7 7 -18 2 -32 -13z m-254 -294 c-64 -78 -348 -253 -409 -253 -23 0 234 181 340 240 66 37 93 42 69 13z m-428 -258 c0 -3 -2 -5 -5 -5 -3 0 -5 2 -5 5 0 3 2 5 5 5 3 0 5 -2 5 -5z"/> <path d="M2030 2214 c-9 -11 -32 -44 -52 -74 -43 -66 -132 -157 -205 -207 -57 -39 -69 -59 -27 -43 89 34 219 157 275 259 31 59 37 99 9 65z"/> <path d="M2190 2057 c-260 -192 -488 -279 -855 -325 l-70 -9 91 -2 c279 -4 632 130 868 329 61 51 77 70 59 70 -5 0 -46 -29 -93 -63z"/> <path d="M2845 1939 c187 -28 259 -43 351 -74 240 -80 431 -207 625 -415 52 -55 97 -100 101 -100 28 0 -130 187 -228 272 -235 200 -565 331 -828 327 l-81 -1 60 -9z"/> <path d="M2192 1912 c-8 -6 33 -11 115 -15 352 -16 674 -155 943 -407 87 -82 91 -55 4 30 -196 190 -418 313 -671 371 -97 22 -369 37 -391 21z"/> <path d="M2235 1839 c-250 -12 -412 -60 -571 -170 -56 -38 -55 -42 4 -34 71 9 147 -23 234 -99 217 -190 288 -227 267 -139 -5 21 -9 41 -9 46 0 15 28 6 46 -15 32 -36 131 -95 180 -107 26 -7 56 -19 68 -27 38 -27 45 0 21 81 -6 21 -3 21 122 17 78 -3 141 -10 162 -18 42 -17 45 -15 36 33 -10 64 -65 127 -141 164 l-66 33 34 12 c50 17 98 43 98 53 0 17 -253 76 -328 76 -72 0 -73 0 -50 18 73 58 95 89 61 85 -10 0 -85 -5 -168 -9z m-53 -168 c108 -28 282 -101 269 -114 -20 -20 -293 10 -470 53 -91 22 -183 42 -205 45 -51 8 -42 14 46 31 95 18 259 11 360 -15z"/> <path d="M3093 1769 c-26 -10 -39 -45 -23 -64 17 -20 66 -19 74 1 18 46 -9 79 -51 63z"/> <path d="M3160 1695 c-26 -32 13 -81 48 -59 34 22 22 74 -18 74 -10 0 -23 -7 -30 -15z"/> <path d="M3224 1625 c-10 -25 4 -45 30 -45 30 0 40 13 31 40 -8 24 -53 28 -61 5z"/> <path d="M3287 1574 c-14 -15 -6 -34 14 -34 14 0 19 5 17 17 -3 18 -20 27 -31 17z"/> <path d="M3320 1515 c0 -8 7 -15 15 -15 8 0 15 7 15 15 0 8 -7 15 -15 15 -8 0 -15 -7 -15 -15z"/> <path d="M3936 1326 c-85 -82 -51 -184 79 -231 55 -20 85 -47 85 -77 0 -26 24 -18 28 10 3 23 26 30 37 12 8 -12 95 -13 95 -1 0 5 -11 12 -25 15 -36 9 -56 46 -66 125 -22 176 -130 245 -233 147z m92 -26 c12 -11 24 -33 28 -48 3 -15 10 -40 15 -56 5 -16 7 -31 5 -33 -7 -7 -91 35 -107 53 -57 66 -3 142 59 84z"/> <path d="M2259 1184 c-101 -186 -104 -265 -13 -395 35 -51 25 -59 -25 -20 -130 103 -206 103 -371 2 -97 -60 -97 -61 -81 -68 7 -3 45 -35 83 -71 123 -117 183 -141 283 -113 51 14 55 8 16 -25 -58 -49 -80 -100 -96 -229 -16 -129 -15 -136 18 -115 12 7 51 28 87 46 105 53 162 122 176 210 7 48 21 66 30 37 23 -77 49 -97 139 -108 28 -4 58 -9 68 -12 15 -4 17 5 17 87 0 104 -13 140 -62 170 -35 21 -30 25 40 33 53 6 77 27 148 130 62 90 61 87 32 87 -13 0 -45 7 -72 15 -88 27 -159 9 -205 -52 -20 -27 -20 -27 -21 -5 0 13 6 35 14 50 21 40 37 139 30 184 -8 44 -38 93 -104 165 -25 27 -52 60 -61 73 -16 24 -16 23 -70 -76z m98 -276 c-3 -7 -5 -2 -5 12 0 14 2 19 5 13 2 -7 2 -19 0 -25z m-27 -23 c0 -3 -2 -5 -5 -5 -3 0 -5 2 -5 5 0 3 2 5 5 5 3 0 5 -2 5 -5z m40 -69 c0 -35 3 -73 6 -83 5 -17 5 -17 -6 -1 -16 26 -26 148 -11 148 7 0 11 -23 11 -64z m-32 -44 c-2 -22 0 -38 4 -36 5 3 8 -2 8 -10 0 -9 8 -16 19 -16 16 0 21 10 27 48 6 40 9 43 15 22 3 -14 4 -35 2 -47 -4 -17 -1 -23 11 -23 9 0 16 -4 16 -10 0 -5 -4 -10 -9 -10 -16 0 -20 -29 -7 -43 12 -11 11 -15 -5 -26 -11 -6 -17 -15 -15 -20 3 -5 -3 -11 -14 -14 -11 -3 -20 -14 -20 -25 0 -11 -7 -25 -15 -32 -8 -7 -15 -19 -15 -26 0 -8 -6 -14 -14 -14 -8 0 -17 -7 -20 -16 -4 -9 -9 -15 -12 -12 -2 3 0 17 5 32 15 37 -5 34 -27 -4 -9 -16 -20 -30 -24 -30 -15 0 -7 18 22 51 43 49 37 71 -8 29 -15 -14 -22 -16 -22 -8 0 8 9 22 21 31 26 23 20 31 -15 17 -15 -5 -39 -10 -54 -9 -19 1 -12 5 23 14 83 20 84 24 5 20 l-75 -4 64 9 c90 13 95 18 21 20 -36 1 -76 5 -90 9 -14 4 22 6 80 5 118 -4 111 1 -40 26 -58 10 -89 18 -70 18 19 1 71 -5 115 -13 44 -8 85 -15 90 -14 17 0 -58 31 -110 45 l-50 14 50 -5 c46 -5 49 -4 31 10 -29 23 -14 18 40 -12 27 -15 44 -20 37 -12 -9 11 -9 19 -2 26 6 6 6 19 -1 39 -10 28 -9 28 6 9 15 -19 16 -18 12 17 -2 23 0 34 5 29 5 -5 8 -27 5 -49z m89 1 c-4 -3 -7 0 -7 7 0 7 3 10 7 7 3 -4 3 -10 0 -14z m-217 -28 c0 -3 -2 -5 -5 -5 -3 0 -5 2 -5 5 0 3 2 5 5 5 3 0 5 -2 5 -5z m90 0 c0 -3 -2 -5 -5 -5 -3 0 -5 2 -5 5 0 3 2 5 5 5 3 0 5 -2 5 -5z m170 -75 c-8 -5 -22 -9 -30 -9 -10 0 -8 3 5 9 27 12 43 12 25 0z m-10 -25 c0 -3 -2 -5 -5 -5 -3 0 -5 2 -5 5 0 3 2 5 5 5 3 0 5 -2 5 -5z m-30 -40 c0 -3 -2 -5 -5 -5 -3 0 -5 2 -5 5 0 3 2 5 5 5 3 0 5 -2 5 -5z m-30 -50 c0 -3 -2 -5 -5 -5 -3 0 -5 2 -5 5 0 3 2 5 5 5 3 0 5 -2 5 -5z"/> <path d="M2253 703 c4 -3 10 -3 14 0 3 4 0 7 -7 7 -7 0 -10 -3 -7 -7z"/> <path d="M2316 567 c3 -10 9 -15 12 -12 3 3 0 11 -7 18 -10 9 -11 8 -5 -6z"/> <path d="M2310 535 c0 -3 2 -5 5 -5 3 0 5 2 5 5 0 3 -2 5 -5 5 -3 0 -5 -2 -5 -5z"/> <path d="M925 1010 c190 -67 346 -192 407 -325 10 -22 25 -49 33 -59 28 -36 18 13 -15 76 l-30 57 27 -2 c37 -3 48 47 13 58 -26 8 -53 -12 -45 -34 3 -9 -5 -5 -16 9 l-21 25 21 3 c41 6 50 65 11 77 -24 8 -46 -2 -56 -26 -9 -21 -9 -21 -28 0 -19 21 -19 21 1 21 29 0 46 25 39 54 -12 50 -93 40 -83 -10 4 -23 3 -24 -17 -9 -91 66 -214 116 -285 114 -32 0 -27 -3 44 -29z"/> <path d="M800 1015 c0 -3 2 -5 5 -5 3 0 5 2 5 5 0 3 -2 5 -5 5 -3 0 -5 -2 -5 -5z"/> <path d="M1362 728 c7 -19 38 -22 38 -4 0 10 -9 16 -21 16 -12 0 -19 -5 -17 -12z"/> <path d="M1430 695 c0 -3 2 -5 5 -5 3 0 5 2 5 5 0 3 -2 5 -5 5 -3 0 -5 -2 -5 -5z"/> <path d="M1395 681 c-7 -12 12 -24 25 -16 11 7 4 25 -10 25 -5 0 -11 -4 -15 -9z"/> </g> </svg>