<?xml version="1.0" standalone="no"?> <!DOCTYPE svg PUBLIC "-//W3C//DTD SVG 20010904//EN" "http://www.w3.org/TR/2001/REC-SVG-20010904/DTD/svg10.dtd"> <svg version="1.0" xmlns="http://www.w3.org/2000/svg" width="343.000000pt" height="293.000000pt" viewBox="0 0 343.000000 293.000000" preserveAspectRatio="xMidYMid meet"> <g transform="translate(0.000000,293.000000) scale(0.100000,-0.100000)" fill="#e99c2f" stroke="none"> <path d="M819 2885 c-105 -53 -142 -94 -171 -190 l-21 -69 -14 39 c-25 73 -46 86 -160 100 l-53 7 0 -85 c0 -104 13 -142 54 -164 l31 -17 -48 -7 c-58 -9 -105 -39 -138 -88 -13 -20 -36 -53 -52 -74 -35 -45 -40 -40 57 -67 96 -26 129 -22 185 26 45 39 62 40 38 2 -23 -35 -47 -126 -47 -177 0 -55 24 -103 89 -182 25 -31 55 -69 66 -84 l21 -28 30 59 c16 32 45 88 64 124 57 108 42 235 -39 329 l-19 22 -4 -23 c-3 -22 -4 -21 -9 5 -5 21 -2 27 10 27 16 0 28 -8 89 -56 91 -72 184 -80 278 -23 32 20 78 46 102 58 23 12 42 23 42 25 0 12 -168 165 -203 184 -37 21 -52 23 -120 19 l-78 -5 35 34 c52 51 76 104 86 197 18 149 23 145 -101 82z m-88 -271 c-14 -17 -19 -35 -16 -48 5 -15 4 -17 -3 -7 -8 11 -11 10 -19 -4 -8 -13 -12 -14 -18 -5 -4 7 -3 15 2 19 5 3 22 23 37 44 16 21 31 35 34 33 2 -3 -5 -17 -17 -32z m-58 -21 c-3 -10 -10 -24 -16 -30 -6 -9 -6 -13 2 -13 7 0 9 -5 5 -11 -4 -8 4 -9 27 -4 29 7 32 6 21 -7 -11 -14 -6 -15 35 -12 l48 3 -48 -9 c-69 -12 -70 -20 -1 -22 l59 -1 -55 -7 -55 -7 50 -3 c99 -5 108 -17 10 -13 -125 4 -111 -3 63 -32 75 -13 126 -24 112 -24 -21 -1 -144 17 -245 35 l-30 5 30 -17 c17 -10 44 -21 60 -25 l30 -7 -28 -1 c-16 -1 -26 -5 -22 -11 4 -6 -5 -5 -19 2 -14 6 -26 15 -26 20 0 5 -4 6 -10 3 -10 -6 -5 -88 6 -107 4 -7 3 -8 -4 -4 -7 4 -12 15 -12 24 0 9 -5 24 -11 32 -8 12 -9 10 -4 -9 5 -16 4 -21 -4 -17 -6 4 -11 17 -11 29 0 12 -5 29 -11 37 -11 16 -6 -98 7 -152 4 -16 2 -28 -4 -28 -11 0 -22 57 -22 123 0 57 -19 55 -21 -1 -1 -24 -3 -29 -6 -14 -2 12 -9 20 -14 17 -11 -8 -11 -3 0 28 10 25 -2 57 -16 44 -4 -5 -1 -12 7 -17 8 -6 10 -10 4 -10 -29 0 -34 27 -6 40 25 12 26 13 7 21 -19 7 -19 8 -1 8 20 1 20 1 0 16 -19 14 -18 14 4 15 12 0 22 5 22 11 0 5 -4 8 -9 4 -6 -3 -9 3 -8 14 1 16 5 18 20 9 14 -7 17 -7 13 1 -4 6 -2 11 3 11 6 0 11 9 11 21 0 14 5 19 14 16 13 -5 31 18 28 36 -1 4 5 7 13 7 9 0 12 -6 8 -17z m137 -48 c0 -3 -2 -5 -5 -5 -3 0 -5 2 -5 5 0 3 2 5 5 5 3 0 5 -2 5 -5z m0 -20 c0 -3 -2 -5 -5 -5 -3 0 -5 2 -5 5 0 3 2 5 5 5 3 0 5 -2 5 -5z m-283 -92 c-4 -3 -10 -3 -14 0 -3 4 0 7 7 7 7 0 10 -3 7 -7z m-37 -18 c0 -3 -2 -5 -5 -5 -3 0 -5 2 -5 5 0 3 2 5 5 5 3 0 5 -2 5 -5z m0 -30 c0 -3 -2 -5 -5 -5 -3 0 -5 2 -5 5 0 3 2 5 5 5 3 0 5 -2 5 -5z m307 -2 c-4 -3 -10 -3 -14 0 -3 4 0 7 7 7 7 0 10 -3 7 -7z m-150 -150 c-2 -16 -4 -3 -4 27 0 30 2 43 4 28 2 -16 2 -40 0 -55z m53 62 c0 -3 -2 -5 -5 -5 -3 0 -5 2 -5 5 0 3 2 5 5 5 3 0 5 -2 5 -5z m-120 -10 c0 -3 -2 -5 -5 -5 -3 0 -5 2 -5 5 0 3 2 5 5 5 3 0 5 -2 5 -5z"/> <path d="M884 2113 c37 -96 253 -333 398 -436 378 -269 905 -328 1307 -146 81 37 75 47 -7 14 -407 -165 -948 -97 -1287 162 -16 13 -34 27 -40 31 -91 66 -215 192 -297 300 -70 91 -86 108 -74 75z"/> <path d="M1440 1945 c0 -51 38 -103 98 -134 l35 -18 -65 -5 c-94 -8 -99 -16 -31 -45 70 -30 216 -80 258 -89 l30 -7 -40 -10 c-51 -13 -85 -34 -64 -41 215 -75 469 -96 639 -53 104 27 198 57 257 84 l58 26 -85 13 c-113 17 -152 32 -295 113 -200 114 -204 115 -205 59 0 -33 -17 -27 -66 24 -27 28 -72 61 -100 74 -28 12 -58 30 -67 39 -22 21 -35 12 -43 -30 -3 -19 -10 -35 -14 -35 -30 0 -213 45 -246 61 -54 26 -54 26 -54 -26z m350 -160 c41 -8 120 -28 175 -45 142 -43 263 -68 389 -79 60 -6 111 -13 114 -16 13 -13 -331 -4 -414 10 -163 29 -344 100 -344 136 0 11 -9 12 80 -6z"/> <path d="M2550 1430 c-242 -24 -461 -150 -574 -329 -40 -64 -28 -58 31 15 298 363 805 380 1353 45 65 -40 84 -45 60 -16 -77 93 -474 263 -654 280 -125 12 -143 12 -216 5z"/> <path d="M2762 1259 c-31 -29 -48 -38 -62 -34 -15 5 -18 3 -14 -9 3 -9 15 -16 25 -16 10 0 19 -7 19 -15 0 -9 10 -14 28 -14 15 1 46 -2 70 -6 58 -10 84 12 78 67 -9 82 -73 94 -144 27z m125 -15 c10 -26 -20 -47 -56 -39 -37 8 -38 11 -8 36 27 23 56 24 64 3z"/> <path d="M2930 1244 c0 -5 39 -15 88 -22 130 -17 289 -79 380 -148 24 -19 32 -21 32 -10 0 31 -152 121 -264 155 -74 23 -236 40 -236 25z"/> <path d="M1706 1109 c-22 -117 -15 -163 35 -234 21 -30 34 -57 29 -60 -5 -3 -11 -1 -15 5 -19 30 -76 10 -131 -47 l-55 -57 23 -18 c93 -73 148 -94 176 -66 20 20 23 3 5 -32 -23 -46 -20 -102 9 -187 l25 -72 51 48 c64 59 86 108 77 168 -8 55 -6 54 36 -9 69 -108 100 -122 246 -113 62 4 113 9 113 11 0 2 -9 20 -19 41 -11 21 -31 65 -46 98 -46 106 -117 154 -229 156 l-41 0 65 30 c118 55 146 94 160 235 6 53 13 100 16 105 9 15 -8 12 -179 -32 -48 -13 -99 -57 -122 -109 -23 -51 -31 -50 -39 1 -10 63 -32 98 -105 166 -36 35 -67 63 -67 63 -1 0 -9 -41 -18 -91z m224 -234 c0 -3 -2 -5 -5 -5 -3 0 -5 2 -5 5 0 3 2 5 5 5 3 0 5 -2 5 -5z m41 -35 c-17 -17 -31 -36 -31 -41 0 -11 20 -12 20 -1 1 11 61 74 66 69 3 -3 -15 -27 -40 -53 -25 -27 -46 -53 -46 -58 0 -9 28 10 49 34 11 13 12 12 6 -10 -4 -14 -8 -25 -9 -26 0 -1 -9 -6 -20 -11 -16 -9 -13 -11 20 -18 l39 -7 -33 -14 c-18 -7 -39 -11 -47 -8 -27 11 -16 -3 26 -30 53 -35 44 -46 -10 -12 -47 30 -54 24 -13 -10 33 -29 21 -32 -18 -4 -15 11 -29 17 -32 15 -3 -3 -19 13 -36 34 -21 27 -28 41 -19 44 6 3 -1 6 -18 7 -30 2 -30 2 -5 10 16 5 19 8 8 9 -15 1 -15 5 -6 33 10 28 12 30 24 13 12 -16 13 -15 20 9 8 34 20 33 29 -1 6 -26 25 -17 25 12 0 6 -5 3 -10 -5 -8 -13 -10 -13 -10 2 0 23 19 33 26 13 5 -12 9 -13 21 -4 11 10 11 14 1 20 -7 4 -9 11 -5 16 5 4 12 2 16 -5 6 -10 11 -10 21 3 7 8 15 13 18 11 2 -3 -10 -19 -27 -36z m-115 -23 c-2 -7 -5 -4 -5 6 -1 9 -6 17 -12 17 -5 0 -7 5 -3 11 9 15 28 -16 20 -34z m-86 -82 c0 -3 -2 -5 -5 -5 -3 0 -5 2 -5 5 0 3 2 5 5 5 3 0 5 -2 5 -5z m230 -45 c-12 -8 -12 -10 -1 -10 8 0 12 -2 9 -5 -3 -3 -13 -2 -22 1 -18 7 -4 24 19 24 6 0 3 -5 -5 -10z m-140 -5 c0 -3 -2 -5 -5 -5 -3 0 -5 2 -5 5 0 3 2 5 5 5 3 0 5 -2 5 -5z m7 -42 c-4 -3 -7 0 -7 7 0 7 3 10 7 7 3 -4 3 -10 0 -14z m33 -8 c0 -3 -2 -5 -5 -5 -3 0 -5 2 -5 5 0 3 2 5 5 5 3 0 5 -2 5 -5z m145 -15 c3 -5 -1 -10 -9 -10 -9 0 -16 5 -16 10 0 6 4 10 9 10 6 0 13 -4 16 -10z m-185 -5 c0 -3 -2 -5 -5 -5 -3 0 -5 2 -5 5 0 3 2 5 5 5 3 0 5 -2 5 -5z m100 -10 c0 -3 -2 -5 -5 -5 -3 0 -5 2 -5 5 0 3 2 5 5 5 3 0 5 -2 5 -5z"/> <path d="M1920 775 c0 -3 2 -5 5 -5 3 0 5 2 5 5 0 3 -2 5 -5 5 -3 0 -5 -2 -5 -5z"/> <path d="M1958 713 c7 -3 16 -2 19 1 4 3 -2 6 -13 5 -11 0 -14 -3 -6 -6z"/> <path d="M2632 1188 c-29 -29 -3 -72 40 -66 36 5 34 72 -2 76 -14 2 -31 -3 -38 -10z"/> <path d="M2546 1164 c-18 -17 -19 -24 -10 -48 12 -30 74 -13 74 20 0 14 -27 44 -40 44 -5 0 -16 -7 -24 -16z"/> <path d="M2467 1134 c-13 -14 -7 -52 10 -58 25 -10 51 20 37 42 -12 19 -36 27 -47 16z"/> <path d="M2665 1105 c-122 -23 -317 -86 -304 -99 2 -3 51 9 109 25 224 63 535 78 725 34 165 -38 163 -22 -3 22 -124 32 -397 42 -527 18z"/> <path d="M2415 1081 c-3 -5 -1 -12 5 -16 12 -7 30 2 30 16 0 12 -27 12 -35 0z"/> <path d="M2376 1063 c-11 -11 -6 -23 9 -23 8 0 15 4 15 9 0 13 -16 22 -24 14z"/> <path d="M1940 1035 c0 -3 2 -5 5 -5 3 0 5 2 5 5 0 3 -2 5 -5 5 -3 0 -5 -2 -5 -5z"/> <path d="M2900 1017 c0 -7 11 -24 25 -37 34 -32 32 -36 -15 -32 -32 3 -229 -28 -279 -44 -18 -6 25 -40 62 -49 32 -9 27 -21 -12 -30 -54 -12 -120 -62 -143 -110 -26 -53 -22 -60 29 -46 69 19 237 14 228 -6 -34 -82 -33 -95 7 -70 12 8 46 20 73 27 28 6 64 19 80 29 17 10 47 28 68 40 l38 23 -7 -41 -6 -40 29 8 c46 13 92 40 178 102 45 32 103 69 130 81 l50 23 -43 3 c-24 2 -102 -8 -175 -23 -109 -21 -155 -25 -262 -23 l-130 3 75 28 c177 67 335 80 508 42 38 -9 30 39 -10 58 -112 52 -199 72 -358 82 -58 3 -113 9 -122 11 -11 3 -18 0 -18 -9z"/> </g> </svg>