<svg width="377" height="306" viewBox="0 0 377 306" fill="none" xmlns="http://www.w3.org/2000/svg">
<g opacity="0.45">
<path d="M219.073 172.979C217.862 161.581 212.762 151.646 195.065 146.45C200.466 145.417 205.862 144.27 211.113 138.363C203.475 138.718 181.097 126.757 164.698 131.841C171.985 129.444 175.758 124.336 179.384 119.114C171.28 123.813 127.116 112.679 90.9348 143.747C136.349 126.131 169.059 144.858 181.789 151.442C170.287 151.504 158.183 151.682 147.007 149.584C126.165 145.674 108.326 136.507 90.7646 143.908C118.455 136.378 125.744 167.043 150.79 174.109C151.569 168.189 150.227 165.235 149.208 161.828C155.737 166.641 161.382 171.914 167.557 175.11C173.244 178.054 179.462 176.725 185.062 182.791C185.255 177.376 185.088 172.186 182.622 168.436C194.126 171.828 207.114 166.166 219.076 172.977L219.073 172.979Z" fill="#A3B38C"/>
<path fill-rule="evenodd" clip-rule="evenodd" d="M8.16314 207.806C8.20054 207.505 12.4656 207.439 19.1555 209.272C25.9558 211.135 34.6395 214.857 43.1912 221.763C49.134 226.563 53.7304 231.872 57.1575 236.969C63.4972 246.403 65.2593 253.84 64.9786 253.963C64.5368 254.157 61.7821 247.143 55.34 238.403C51.8196 233.625 47.308 228.639 41.5738 224.009C33.3181 217.345 25.1275 213.503 18.6197 211.185C12.2732 208.925 8.11514 208.193 8.16314 207.806Z" fill="#2F7D7A"/>
<path fill-rule="evenodd" clip-rule="evenodd" d="M-57.7376 156.409C-57.7837 156.303 -49.9491 151.287 -35.2773 146.491C-20.5748 141.685 0.642822 137.408 25.5653 139.97C34.8395 140.924 44.4142 142.812 54.091 145.788C74.2275 151.983 91.2697 161.787 104.827 172.59C133.154 195.166 142.977 218.222 143.263 218.027C142.845 218.31 131.047 195.953 103.445 174.559C89.9588 164.105 73.1477 154.592 53.3479 148.5C43.8323 145.572 34.4252 143.685 25.3103 142.688C0.817848 140.01 -20.1264 143.862 -34.8127 148.16C-49.4008 152.429 -57.6027 156.704 -57.7335 156.407L-57.7376 156.409Z" fill="#2F7D7A"/>
<path d="M77.5928 200.588C80.1411 192.61 78.4324 184.969 62.9339 178.426C68.5198 178.637 74.1389 178.769 81.1725 175.632C73.6337 174.579 55.7972 162.628 38.2011 163.316C46.0656 162.916 51.4014 160.072 56.6321 157.125C47.2209 158.956 10.9478 133.167 -52.9922 166.158C-2.94472 158.032 38.4313 167.478 48.402 179.581C37.205 177.674 25.385 175.743 15.2083 172.418C-3.7663 166.218 -33.5058 164.087 -52.9922 166.158C-23.6209 165.716 -11.163 180.718 10.8657 189.785C13.558 185.88 13.2194 183.637 13.3427 181.14C18.1143 185.531 21.8766 190.083 26.8326 193.31C31.3961 196.281 37.8732 196.43 41.3322 201.515C43.2898 197.855 44.8246 194.287 43.6534 191.312C53.7241 195.575 68.195 193.915 77.5928 200.588Z" fill="#A3B38C"/>
<path d="M115.573 66.5557C116.774 72.3358 108.415 87.9163 97.0838 96.556C101.01 95.1503 104.954 93.7994 109.649 94.7357C104.293 97.244 90.9305 110.702 78.6621 114.055C84.139 112.63 87.6666 113.708 91.113 114.892C84.6578 115.523 56.0545 136.222 25.4301 134.294C60.0438 126.667 79.3538 106.411 86.9944 98.859C79.0154 102.858 70.5986 107.013 63.23 111.913C49.4914 121.05 38.7734 131.606 25.2809 134.279C45.8118 128.119 45.3732 111.158 61.4595 99.0653C63.0586 101.574 62.6573 103.433 62.5609 105.391C66.223 100.842 69.1903 96.3872 72.8965 92.7225C76.3091 89.3479 80.8547 87.7944 83.6487 82.9832C84.7512 85.4602 85.5648 87.9569 84.527 90.5833C91.606 79.5259 109.183 77.2448 115.572 66.557L115.573 66.5557Z" fill="#A3B38C"/>
<path fill-rule="evenodd" clip-rule="evenodd" d="M150.35 113.736C150.332 113.482 158.037 112.018 170.698 112.484C183.583 112.958 200.528 115.483 218.862 122.985C220.917 123.825 222.93 124.704 224.9 125.618C241.421 133.283 254.051 142.942 262.752 151.016C271.331 158.978 275.571 164.818 275.396 164.992C275.143 165.244 270.354 159.943 261.593 152.476C252.665 144.866 240.114 135.671 223.839 128.195C221.9 127.305 219.92 126.444 217.901 125.618C199.866 118.239 183.328 115.465 170.596 114.477C158.155 113.51 150.379 114.125 150.35 113.736Z" fill="#2F7D7A"/>
<path fill-rule="evenodd" clip-rule="evenodd" d="M217.644 109.393C217.645 109.147 225.271 108.354 237.675 109.829C250.27 111.326 266.847 115.145 284.503 124.017C285.479 124.508 286.455 125.012 287.43 125.531C305.612 135.195 319.149 147.322 328.343 157.55C337.385 167.607 341.57 174.954 341.384 175.101C341.089 175.335 336.245 168.497 327.002 158.953C317.55 149.192 304.113 137.556 286.234 128.055C285.275 127.545 284.316 127.048 283.358 126.565C266.011 117.809 249.841 113.761 237.435 111.767C225.279 109.814 217.644 109.772 217.644 109.393Z" fill="#2F7D7A"/>
<path fill-rule="evenodd" clip-rule="evenodd" d="M86.9025 122.473C86.7336 122.203 90.9456 119.187 97.0818 113.06C103.261 106.891 111.136 97.5679 117.437 84.6474C119.996 79.4009 122.234 73.6769 124.002 67.5235C127.141 56.6001 128.311 46.0495 128.225 36.5535C128.03 14.5428 121.708 0.209821 122.184 3.75645e-07C122.19 -0.0025925 129.928 13.4178 130.594 36.5025C130.875 46.2381 129.782 57.1111 126.553 68.3442C124.734 74.6716 122.399 80.5461 119.711 85.9075C113.091 99.1099 104.748 108.432 98.1647 114.341C91.5952 120.237 87.0128 122.649 86.9025 122.473Z" fill="#2F7D7A"/>
<path fill-rule="evenodd" clip-rule="evenodd" d="M52.2228 133.487C52.2246 133.097 59.0447 133.01 69.9007 131.592C81.0562 130.135 95.3484 127.273 111.303 121.106C125.304 115.694 136.788 109.204 145.853 103.184C157.14 95.6889 163.692 89.8476 163.961 90.179C164.148 90.4113 158.166 96.9536 146.975 105.002C138.038 111.429 126.413 118.272 112.218 123.759C96.0488 130.009 81.3745 132.635 70.0905 133.578C59.0394 134.502 52.2213 133.783 52.2228 133.487Z" fill="#2F7D7A"/>
<path fill-rule="evenodd" clip-rule="evenodd" d="M101.418 116.072C101.112 115.363 111.832 109.926 121.935 99.3201C124.714 96.4036 127.096 93.5045 129.153 90.7226C134.59 83.3712 137.407 77.4742 137.892 77.7139C138.288 77.9096 136.412 84.3128 131.093 92.2527C129.101 95.226 126.688 98.3076 123.813 101.326C113.107 112.566 101.702 116.728 101.418 116.072Z" fill="#2F7D7A"/>
<path fill-rule="evenodd" clip-rule="evenodd" d="M238.862 42.3643C230.176 38.5247 224.406 26.3901 212.849 35.7177C224.143 21.0311 213.961 13.2247 211.865 1.2587C205.744 10.16 193.444 10.9816 198.597 31.4341C182.168 0.757701 169.593 15.4184 153.579 13.8142C163.549 27.8898 160.291 49.4246 193.688 45.9378C158.877 56.558 170.489 73.034 165.555 89.6985C178.995 83.1023 195.726 88.6333 201.838 64.8882C202.457 85.5645 214.65 86.5542 222.981 97.0782C222.844 82.5908 233.093 72.1336 215.115 53.5703C229.988 60.844 231.275 47.9714 238.862 42.3643ZM228.629 43.5457C225.93 44.1811 221.869 45.087 216.707 45.7015C213.244 46.1109 210.199 46.2695 207.655 46.3188C207.649 46.569 207.629 46.8122 207.596 47.0467C207.705 47.1624 207.816 47.2873 207.926 47.4069C209.073 47.759 210.362 48.0683 211.801 48.2592C215.882 48.7888 219.287 48.1394 221.366 47.5093C219.279 48.142 215.923 48.9141 211.776 48.5158C210.567 48.4033 209.452 48.201 208.43 47.9551C208.639 48.1902 208.852 48.443 209.065 48.6919C209.833 49.0397 210.658 49.3793 211.547 49.694C213.591 50.445 215.388 50.8556 216.516 51.0314C215.342 50.8483 213.619 50.5799 211.474 49.9399C210.798 49.7289 210.162 49.4986 209.548 49.2617C210.831 50.815 212.15 52.6066 213.414 54.6657C215.056 57.4148 216.076 59.7317 216.762 61.3032C216.1 59.787 214.895 57.4276 213.165 54.8424C211.629 52.4843 210.043 50.5113 208.541 48.8548C208.272 48.7402 208.007 48.6259 207.753 48.5092C209.215 50.6829 210.775 53.2993 212.236 56.36C214.42 60.9704 215.614 64.9284 216.342 67.5476C215.626 64.9722 214.263 60.974 211.971 56.5076C210.36 53.3433 208.674 50.7055 207.126 48.537C207.096 48.5986 207.063 48.6588 207.03 48.7173C208.259 51.1161 209.568 53.9891 210.772 57.2998C212.619 62.3874 213.59 66.7259 214.193 69.9327C213.558 66.7514 212.431 62.3504 210.493 57.4186C209.239 54.2233 207.914 51.4842 206.678 49.1811C206.474 49.4087 206.241 49.5927 205.985 49.7296C207.094 53.6038 208.488 58.2065 210.33 63.5395C213.006 71.2975 215.619 77.6482 217.365 81.59C215.566 77.5303 212.922 71.4823 210.049 63.6516C208.142 58.4429 206.645 53.8086 205.474 49.9222C205.204 49.9931 204.919 50.0186 204.624 49.9982C204.783 51.9103 205.044 54.0437 205.489 56.3729C206.744 62.8275 208.841 67.8556 210.383 70.9262C208.829 67.832 206.621 62.9256 205.197 56.4414C204.671 54.0823 204.339 51.8891 204.127 49.9236C204.068 49.9102 204.008 49.895 203.949 49.8781C203.878 51.7377 203.871 53.8215 204.001 56.1214C204.16 59.4188 204.551 62.1925 204.882 63.8947C204.536 62.1148 204.027 59.5273 203.703 56.1456C203.503 53.8673 203.445 51.7661 203.464 49.8834C202.867 52.6026 201.93 55.6673 200.457 58.8688C198.956 62.0187 197.421 64.2862 196.38 65.7987C197.389 64.3323 198.842 61.8607 200.133 58.707C201.565 55.344 202.409 52.1842 202.925 49.4153C202.789 49.3326 202.653 49.2416 202.519 49.1428C201.438 51.9203 199.957 55.074 197.905 58.3453C195.321 62.4312 192.717 65.3517 190.733 67.3947C192.676 65.3322 195.218 62.2245 197.603 58.1392C199.603 54.7419 200.994 51.5236 202.001 48.7184C201.931 48.6524 201.861 48.5844 201.793 48.5143C200.301 51.1211 198.366 54.0867 195.887 57.1393C191.647 62.3569 187.491 65.8091 184.719 67.9453C187.461 65.8321 191.568 62.1808 195.611 56.8966C198.056 53.7028 199.91 50.6585 201.334 48.0133C201.124 47.7621 200.926 47.4926 200.74 47.2079C197.566 50.4215 193.678 54.5256 189.379 59.5866C183.702 66.261 179.356 72.2094 176.735 76.0501C179.424 72.1081 183.487 66.2502 189.109 59.3358C193.298 54.1909 197.203 49.8877 200.372 46.5908C200.266 46.3996 200.166 46.2038 200.073 46.0042C200.053 45.9581 200.034 45.9118 200.015 45.8654C197.878 47.0741 195.442 48.6479 192.889 50.7464C187.533 55.1753 184.063 59.9485 182.128 63.1389C184.075 59.9288 187.369 55.0885 192.664 50.451C195.125 48.2829 197.524 46.6069 199.647 45.3198C197.404 46.1971 194.824 47.357 192.03 48.9512C188.94 50.6731 186.481 52.4285 185.02 53.612C186.544 52.3778 188.768 50.5718 191.855 48.6201C194.494 46.989 196.99 45.7464 199.186 44.7993C196.34 44.8147 192.98 44.5177 189.316 43.5528C186.095 42.6527 183.681 41.5347 182.068 40.7712C183.632 41.5114 186.216 42.5008 189.398 43.1828C193.183 44.0541 196.593 44.2282 199.443 44.1209C199.418 44.0107 199.395 43.9007 199.374 43.7908C196.444 43.2637 192.984 42.3571 189.27 40.8002C184.96 38.9746 181.722 36.8866 179.422 35.2562C181.732 36.8399 185.13 38.825 189.398 40.4451C193.063 41.8526 196.421 42.6319 199.279 43.0858C199.271 42.9969 199.265 42.9085 199.26 42.8207C196.52 41.8157 193.339 40.4167 189.963 38.4599C184.262 35.1538 180.21 31.5664 177.66 29.1406C180.183 31.5406 184.409 35.0361 190.131 38.1244C193.475 39.9304 196.572 41.1897 199.251 42.1078C199.271 41.6812 199.331 41.2772 199.43 40.9046C195.917 38.388 191.557 35.4084 186.35 32.2285C179.004 27.736 172.606 24.4719 168.513 22.5568C172.714 24.5224 178.97 27.5116 186.525 31.8968C191.664 34.8831 196.105 37.7711 199.662 40.2289C199.833 39.8493 200.052 39.5244 200.314 39.2635C198.918 37.6029 197.251 35.8174 195.245 34.0244C190.041 29.3983 184.91 26.7965 181.561 25.4554C184.931 26.8048 190.087 29.2093 195.472 33.7294C197.554 35.466 199.314 37.2301 200.787 38.8827C200.838 38.85 200.891 38.8193 200.944 38.7907C200.956 38.7857 200.968 38.7808 200.98 38.776C199.822 36.9204 198.428 34.8854 196.726 32.7616C194.492 29.9182 192.359 27.7361 190.962 26.468C192.419 27.7898 194.55 29.7201 196.995 32.5108C198.732 34.5335 200.187 36.5068 201.404 38.3262C201.12 36.7592 200.903 35.0429 200.819 33.1854C200.736 30.5567 200.933 28.4992 201.071 27.1078C200.938 28.4506 200.859 30.6185 201.075 33.1686C201.215 35.1302 201.495 36.9265 201.841 38.5394C202.041 38.5189 202.247 38.5212 202.457 38.5463C202.36 36.7991 202.352 34.8738 202.499 32.8013C202.804 28.7269 203.586 25.5337 204.15 23.4582C203.594 25.5016 202.92 28.7948 202.755 32.8173C202.66 34.9343 202.724 36.8755 202.867 38.6269C203.028 38.6706 203.191 38.7269 203.354 38.7955C203.476 37.0415 203.696 35.1147 204.075 33.0511C204.844 28.8732 205.974 25.5963 206.899 23.2342C206.008 25.597 204.967 28.9843 204.328 33.0988C203.994 35.2382 203.827 37.206 203.753 38.9837C204.099 39.1705 204.44 39.4103 204.769 39.6977C205.535 36.7961 206.369 33.3948 207.169 29.4154C208.461 23.0018 209.171 17.5634 209.513 14.1233C209.162 17.6543 208.599 22.927 207.421 29.4701C206.689 33.5249 205.892 37.064 205.149 40.0554C205.401 40.3109 205.641 40.5929 205.867 40.8973C206.542 39.6631 207.228 38.2544 207.861 36.6467C209.735 31.832 210.261 27.506 210.364 24.765C210.26 27.5208 209.866 31.8258 208.098 36.7477C207.492 38.4545 206.813 39.9632 206.137 41.2802C206.188 41.3574 206.238 41.4357 206.286 41.5151C207.142 40.4115 208.044 39.1355 208.934 37.6505C210.251 35.4988 211.152 33.5447 211.638 32.2947C211.133 33.5934 210.388 35.5027 209.153 37.7916C208.284 39.3654 207.381 40.7368 206.519 41.9158C206.631 42.1153 206.736 42.3199 206.833 42.5287C206.843 42.5528 206.854 42.5769 206.864 42.6011C208.064 41.5869 209.51 40.5818 211.24 39.747C213.093 38.8917 214.654 38.5022 215.696 38.2538C214.683 38.4953 213.093 39.0254 211.345 39.9803C209.616 40.8862 208.196 41.9501 207.032 43.0038C207.1 43.1758 207.162 43.3494 207.22 43.5242C208.632 42.7403 210.312 41.9887 212.243 41.4293C215.342 40.5472 217.951 40.4718 219.635 40.4957C217.969 40.4722 215.324 40.677 212.311 41.6761C210.379 42.3073 208.725 43.1196 207.345 43.9443C207.384 44.082 207.419 44.2201 207.451 44.3581C208.971 43.8653 210.752 43.429 212.746 43.1828C216.105 42.7687 218.885 43.0262 220.913 43.3452C218.888 43.0608 216.055 42.917 212.779 43.4379C210.783 43.7549 209.031 44.2525 207.541 44.7875C207.603 45.1474 207.641 45.5032 207.654 45.8504C210.174 45.8497 213.179 45.7686 216.683 45.4433C221.781 44.9738 225.993 44.1656 228.629 43.5447L228.629 43.5457ZM207.855 48.1113C207.721 47.9703 207.59 47.8348 207.458 47.6992C207.458 47.6989 207.457 47.6992 207.456 47.699C207.44 47.76 207.423 47.8202 207.405 47.8795C207.553 47.9567 207.701 48.0339 207.855 48.1113Z" fill="#D4A24C"/>
<path fill-rule="evenodd" clip-rule="evenodd" d="M215.853 231.077C203.771 230.761 194.902 218.848 179.841 237.576C196.68 200.677 175.134 197.631 166.001 180.357C159.878 199.754 138.279 210.685 163.5 242.199C130.905 213.965 123.701 236.61 105.392 242.626C120.229 251.876 126.289 272.472 151.769 262.971C133.509 277.26 140.672 290.26 136.674 305.649C149.66 295.941 165.867 299.402 170.757 268.974C174.02 288.824 186.499 281.601 196.574 285.577C194.303 274.252 201.437 260.401 185.416 254.855C206.123 256.576 206.436 241.103 215.853 231.077ZM202.68 237.198C199.259 239.175 194.127 242.087 187.44 245.219C183.322 247.145 179.558 248.705 176.378 249.925C176.315 250.346 176.22 250.772 176.095 251.197C177.655 251.065 179.38 250.829 181.249 250.407C186.836 249.123 191.09 246.797 193.633 245.09C191.076 246.806 186.929 249.252 181.317 250.715C179.375 251.229 177.563 251.538 175.927 251.723C175.891 251.826 175.853 251.929 175.814 252.031C177.376 252.168 179.124 252.237 181.052 252.157C183.866 252.069 186.225 251.69 187.675 251.356C186.169 251.703 183.952 252.211 181.069 252.472C179.074 252.632 177.241 252.623 175.607 252.529C175.5 252.774 175.384 253.016 175.259 253.253C175.244 253.279 175.229 253.305 175.214 253.331C176.923 253.876 178.787 254.677 180.684 255.878C182.681 257.189 184.063 258.512 184.976 259.403C184.088 258.536 182.559 257.277 180.542 256.138C178.581 254.986 176.683 254.252 174.962 253.77C174.852 253.951 174.737 254.129 174.617 254.301C176.258 255.213 178.046 256.418 179.828 258.004C182.314 260.237 183.961 262.463 185.074 264.147C183.939 262.492 182.156 260.309 179.649 258.238C177.802 256.698 175.976 255.56 174.32 254.709C174.221 254.838 174.12 254.964 174.017 255.087C175.467 256.301 177.037 257.817 178.577 259.673C181.611 263.331 183.34 266.861 184.35 269.181C183.348 266.88 181.473 263.379 178.368 259.876C176.762 258.064 175.156 256.618 173.688 255.463C173.405 255.764 173.108 256.037 172.803 256.279C174.469 258.831 176.527 261.821 179.137 265.154C182.93 270.007 186.442 273.736 188.745 275.995C186.388 273.683 182.886 270.169 178.92 265.348C176.283 262.138 174.091 259.13 172.371 256.599C172.145 256.754 171.917 256.892 171.687 257.012C171.654 257.199 171.615 257.394 171.579 257.585C172.019 258.979 172.593 260.489 173.371 262.071C175.589 266.553 178.425 269.572 180.368 271.261C178.417 269.565 175.502 266.677 173.121 262.214C172.424 260.916 171.87 259.654 171.417 258.456C171.342 258.824 171.255 259.208 171.17 259.588C171.363 260.595 171.604 261.655 171.907 262.762C172.579 265.328 173.395 267.417 173.982 268.676C173.371 267.365 172.475 265.446 171.636 262.851C171.38 262.027 171.167 261.231 170.975 260.453C170.421 262.779 169.674 265.297 168.65 267.937C167.252 271.415 165.834 273.98 164.868 275.714C165.8 274.041 167.135 271.263 168.326 267.803C169.441 264.688 170.173 261.777 170.677 259.161C170.603 258.814 170.532 258.471 170.469 258.138C169.472 261.054 168.14 264.363 166.341 267.865C163.95 272.486 161.545 275.936 159.71 278.394C161.501 275.927 163.84 272.286 166.034 267.693C167.827 263.971 169.094 260.521 170.03 257.521C169.954 257.53 169.878 257.537 169.804 257.541C168.45 260.371 166.72 263.596 164.525 267.003C161.147 272.243 157.866 276.096 155.367 278.826C157.822 276.081 161.058 272.027 164.236 266.799C166.293 263.418 167.889 260.264 169.152 257.492C168.812 257.435 168.492 257.322 168.2 257.154C165.434 260.837 162.198 265.288 158.599 270.678C153.362 278.514 149.354 285.355 146.948 289.728C149.426 285.224 153.139 278.551 158.313 270.468C161.729 265.135 164.955 260.494 167.677 256.754C167.439 256.529 167.232 256.261 167.058 255.952C165.435 257.376 163.682 259.051 161.873 261.041C156.873 266.576 153.719 272.023 151.965 275.613C153.733 271.995 156.705 266.516 161.618 260.789C163.401 258.698 165.161 256.913 166.796 255.399C166.77 255.33 166.745 255.259 166.721 255.188C164.995 256.345 163.108 257.716 161.117 259.368C158.244 261.707 155.997 263.937 154.679 265.397C156.057 263.87 158.059 261.645 160.898 259.081C162.823 257.373 164.682 255.926 166.395 254.701C163.545 255.893 160.159 256.97 156.295 257.595C152.458 258.156 149.396 258.1 147.343 258.045C149.334 258.098 152.524 257.936 156.225 257.16C160.208 256.388 163.62 255.152 166.461 253.846C166.446 253.654 166.439 253.457 166.44 253.257C163.217 253.998 159.391 254.58 155.081 254.664C148.914 254.759 144 253.82 140.819 253.101C143.958 253.81 148.998 254.551 155.067 254.224C159.456 254.004 163.282 253.285 166.48 252.451C166.494 252.336 166.509 252.221 166.527 252.105C163.187 252.317 159.231 252.318 154.836 251.824C147.323 250.979 141.46 249.052 137.699 247.657C141.419 249.037 147.43 250.784 154.873 251.386C159.373 251.75 163.348 251.616 166.678 251.31C166.766 250.931 166.878 250.552 167.012 250.176C162.012 249.086 155.737 247.862 148.326 246.853C138.548 245.515 130.306 245.045 125.106 244.93C130.442 245.048 138.418 245.291 148.376 246.415C155.79 247.257 162.255 248.367 167.326 249.397C167.428 249.164 167.54 248.933 167.658 248.707C167.687 248.656 167.716 248.606 167.745 248.556C165.241 247.191 162.211 245.764 158.629 244.566C151.091 242.069 144.487 241.71 140.328 241.858C144.513 241.708 151.061 241.845 158.747 244.143C162.327 245.201 165.422 246.52 167.986 247.817C165.713 246.128 162.964 244.284 159.683 242.511C156.085 240.519 152.875 239.188 150.841 238.491C152.962 239.218 156.063 240.279 159.865 242.114C163.081 243.708 165.853 245.414 168.16 247.012C166.265 244.14 164.313 240.543 162.764 236.195C161.447 232.338 160.863 229.155 160.486 227.016C160.851 229.089 161.665 232.36 163.151 236.033C164.865 240.441 166.962 244.01 168.943 246.824C169.025 246.726 169.109 246.63 169.194 246.537C167.733 243.222 166.267 239.118 165.218 234.328C163.847 227.961 163.693 222.676 163.694 219.231C163.693 222.629 164.058 228.005 165.623 234.223C166.774 238.864 168.29 242.78 169.768 245.972C169.844 245.906 169.92 245.842 169.996 245.78C169.092 242.34 168.254 238.196 167.791 233.484C167.009 225.526 167.569 219.053 168.075 214.868C167.575 219.007 167.213 225.596 168.205 233.431C168.784 238.012 169.692 241.98 170.633 245.299C171.031 245.036 171.436 244.83 171.838 244.684C171.789 239.464 171.598 233.081 171.029 225.707C170.231 215.301 168.952 206.666 167.976 201.256C168.977 206.808 170.411 215.118 171.444 225.667C172.142 232.843 172.47 239.247 172.6 244.473C173.056 244.395 173.495 244.402 173.903 244.494C174.48 241.983 174.991 239.116 175.285 235.901C176.023 227.574 174.982 220.661 173.98 216.383C174.988 220.687 176.224 227.497 175.701 235.937C175.508 239.192 175.078 242.139 174.56 244.723C174.622 244.754 174.684 244.786 174.745 244.821C174.758 244.83 174.77 244.839 174.783 244.848C175.694 242.449 176.609 239.693 177.402 236.565C178.493 232.425 179.055 228.823 179.277 226.571C179.046 228.92 178.712 232.353 177.807 236.672C177.128 239.767 176.307 242.546 175.468 244.98C176.695 243.657 178.103 242.303 179.725 240.991C182.044 239.17 184.03 238.01 185.378 237.23C184.078 237.983 182.068 239.336 179.909 241.239C178.229 242.677 176.792 244.147 175.565 245.564C175.715 245.752 175.849 245.962 175.966 246.191C177.48 244.939 179.213 243.659 181.181 242.438C184.592 240.343 187.581 239.099 189.792 238.278C187.607 239.127 184.594 240.538 181.335 242.708C179.361 244.011 177.65 245.358 176.163 246.661C176.231 246.853 176.287 247.055 176.333 247.266C177.998 246.23 179.883 245.179 181.996 244.199C186.278 242.217 189.985 241.194 192.73 240.57C190.007 241.229 186.259 242.414 182.12 244.487C179.968 245.562 178.081 246.693 176.427 247.793C176.486 248.267 176.496 248.771 176.453 249.295C179.58 248.153 183.201 246.748 187.323 244.929C193.969 242 199.348 239.125 202.681 237.199L202.68 237.198ZM171.005 257.301C170.939 257.326 170.873 257.349 170.806 257.37C170.834 257.57 170.863 257.771 170.895 257.977C170.934 257.749 170.97 257.526 171.006 257.304C171.006 257.303 171.005 257.302 171.005 257.301Z" fill="#D4A24C"/>
<path d="M256.837 132.565C256.899 133.809 256.493 135.028 255.707 135.955C254.92 136.881 253.819 137.439 252.644 137.506C251.47 137.572 250.318 137.142 249.443 136.309C248.568 135.477 248.041 134.31 247.979 133.066C247.916 131.822 248.322 130.603 249.108 129.677C249.895 128.75 250.996 128.192 252.171 128.126C253.346 128.059 254.497 128.49 255.372 129.322C256.247 130.155 256.774 131.321 256.837 132.565Z" fill="#2F7D7A"/>
<path d="M265.238 139.013C265.295 140.144 264.926 141.252 264.211 142.095C263.496 142.937 262.495 143.444 261.427 143.504C260.359 143.565 259.312 143.174 258.517 142.417C257.721 141.66 257.243 140.599 257.186 139.469C257.129 138.338 257.498 137.229 258.213 136.387C258.927 135.545 259.929 135.038 260.997 134.977C262.065 134.917 263.111 135.308 263.907 136.065C264.702 136.822 265.181 137.882 265.238 139.013Z" fill="#2F7D7A"/>
<path d="M271.55 145.669C271.596 146.574 271.3 147.461 270.728 148.134C270.156 148.808 269.355 149.214 268.501 149.262C267.647 149.311 266.809 148.998 266.173 148.392C265.537 147.787 265.153 146.938 265.108 146.034C265.062 145.129 265.358 144.242 265.93 143.569C266.501 142.895 267.303 142.489 268.157 142.441C269.011 142.392 269.849 142.705 270.485 143.311C271.121 143.916 271.504 144.765 271.55 145.669Z" fill="#2F7D7A"/>
<path d="M274.748 151.484C274.76 151.708 274.729 151.932 274.659 152.143C274.588 152.355 274.479 152.55 274.337 152.716C274.196 152.883 274.025 153.019 273.834 153.116C273.642 153.212 273.435 153.268 273.224 153.28C273.012 153.292 272.801 153.26 272.601 153.185C272.401 153.111 272.217 152.995 272.06 152.845C271.902 152.695 271.774 152.514 271.683 152.312C271.591 152.109 271.538 151.89 271.527 151.666C271.504 151.214 271.652 150.77 271.938 150.433C272.224 150.097 272.625 149.894 273.052 149.869C273.479 149.845 273.898 150.002 274.216 150.305C274.534 150.607 274.725 151.032 274.748 151.484Z" fill="#2F7D7A"/>
<path d="M278.207 155.994C278.215 156.162 278.192 156.33 278.139 156.488C278.086 156.647 278.005 156.793 277.898 156.918C277.792 157.043 277.664 157.145 277.521 157.218C277.377 157.29 277.222 157.332 277.063 157.341C276.905 157.35 276.746 157.326 276.596 157.27C276.446 157.214 276.308 157.127 276.19 157.015C276.072 156.902 275.976 156.766 275.907 156.615C275.839 156.463 275.799 156.298 275.791 156.13C275.774 155.791 275.885 155.459 276.099 155.206C276.313 154.953 276.614 154.801 276.934 154.783C277.255 154.765 277.569 154.882 277.807 155.109C278.046 155.336 278.189 155.655 278.207 155.994Z" fill="#2F7D7A"/>
<path d="M346.305 104.838C343.671 94.6633 338 86.625 322.487 85.5099C326.849 83.4551 331.191 81.2977 334.734 74.8178C328.408 76.7117 308.025 70.3696 295.058 78.3883C300.8 74.6993 303.223 69.253 305.507 63.7327C299.41 69.6945 260.957 68.5841 235.175 104.428C270.58 78.9901 300.551 89.397 312.115 92.8029C302.522 95.2224 292.443 97.871 282.814 98.249C264.859 98.954 248.661 94.235 235.054 104.611C257.099 92.0365 267.547 118.583 289.461 119.899C289.269 114.326 287.728 111.899 286.392 108.993C292.528 112.054 297.991 115.716 303.601 117.371C308.767 118.895 313.769 116.402 319.306 120.799C318.697 115.807 317.82 111.095 315.227 108.172C325.313 108.911 335.349 101.066 346.305 104.838Z" fill="#A3B38C"/>
<path d="M52.4873 219.851C52.3275 221.085 51.7114 222.202 50.7744 222.955C49.8373 223.708 48.6562 224.036 47.4907 223.867C46.3253 223.698 45.2711 223.045 44.5599 222.053C43.8488 221.061 43.539 219.81 43.6987 218.576C43.8585 217.342 44.4746 216.225 45.4116 215.472C46.3487 214.719 47.5298 214.391 48.6953 214.56C49.8607 214.729 50.9149 215.382 51.6261 216.374C52.3372 217.366 52.647 218.617 52.4873 219.851Z" fill="#2F7D7A"/>
<path d="M59.5912 227.86C59.5193 228.416 59.3448 228.951 59.0776 229.435C58.8104 229.919 58.4558 230.342 58.034 230.681C57.6122 231.02 57.1315 231.268 56.6193 231.41C56.1071 231.553 55.5735 231.587 55.0489 231.511C54.5243 231.434 54.019 231.25 53.5618 230.967C53.1047 230.684 52.7046 230.308 52.3845 229.862C52.0644 229.415 51.8305 228.906 51.6962 228.364C51.5619 227.821 51.5297 227.256 51.6016 226.701C51.7468 225.579 52.307 224.564 53.1588 223.879C54.0107 223.195 55.0844 222.896 56.1439 223.05C57.2034 223.204 58.1618 223.797 58.8083 224.699C59.4548 225.601 59.7364 226.738 59.5912 227.86Z" fill="#2F7D7A"/>
<path d="M64.6046 235.657C64.4885 236.554 64.0404 237.366 63.3589 237.914C62.6774 238.462 61.8184 238.7 60.9709 238.577C60.1233 238.454 59.3566 237.98 58.8394 237.258C58.3222 236.536 58.0969 235.627 58.2131 234.729C58.3293 233.832 58.7774 233.02 59.4588 232.472C60.1403 231.924 60.9993 231.686 61.8468 231.809C62.6944 231.932 63.4611 232.406 63.9783 233.128C64.4955 233.85 64.7208 234.759 64.6046 235.657Z" fill="#2F7D7A"/>
<path d="M66.7114 242.006C66.6533 242.454 66.4292 242.86 66.0885 243.134C65.7478 243.408 65.3183 243.527 64.8945 243.466C64.4707 243.404 64.0873 243.167 63.8287 242.806C63.5701 242.445 63.4575 241.991 63.5156 241.542C63.5443 241.32 63.6141 241.106 63.721 240.912C63.8279 240.718 63.9697 240.549 64.1385 240.413C64.3072 240.278 64.4994 240.179 64.7043 240.122C64.9092 240.065 65.1226 240.051 65.3325 240.082C65.5423 240.112 65.7444 240.186 65.9273 240.299C66.1102 240.412 66.2702 240.563 66.3982 240.741C66.5263 240.92 66.6198 241.124 66.6735 241.341C66.7273 241.557 66.7401 241.783 66.7114 242.006Z" fill="#2F7D7A"/>
<path d="M69.305 247.125C69.2835 247.292 69.2311 247.452 69.151 247.597C69.0708 247.743 68.9644 247.87 68.8379 247.971C68.7114 248.073 68.5672 248.147 68.4135 248.19C68.2598 248.233 68.0998 248.243 67.9424 248.22C67.785 248.197 67.6334 248.142 67.4963 248.057C67.3591 247.972 67.2391 247.86 67.1431 247.726C67.0471 247.592 66.9769 247.439 66.9366 247.276C66.8963 247.113 66.8867 246.944 66.9082 246.777C66.9518 246.441 67.1198 246.136 67.3754 245.931C67.6309 245.725 67.953 245.636 68.2709 245.682C68.5887 245.728 68.8762 245.906 69.0702 246.177C69.2641 246.447 69.3486 246.789 69.305 247.125Z" fill="#2F7D7A"/>
<path d="M138.908 34.2852C137.918 33.614 136.715 33.3872 135.566 33.6546C134.418 33.922 133.416 34.6617 132.782 35.711C132.468 36.2306 132.254 36.8106 132.152 37.4178C132.05 38.025 132.061 38.6476 132.187 39.25C132.312 39.8524 132.547 40.4228 132.881 40.9287C133.214 41.4346 133.638 41.866 134.129 42.1984C134.619 42.5307 135.167 42.7575 135.74 42.8657C136.314 42.9739 136.902 42.9614 137.471 42.829C138.039 42.6966 138.578 42.4469 139.056 42.0941C139.534 41.7412 139.941 41.2922 140.255 40.7726C140.889 39.7232 141.103 38.4502 140.85 37.2336C140.598 36.017 139.899 34.9565 138.908 34.2852Z" fill="#2F7D7A"/>
<path d="M137.752 23.364C136.851 22.7538 135.758 22.5476 134.713 22.7907C133.669 23.0338 132.758 23.7062 132.182 24.6602C131.897 25.1325 131.702 25.6597 131.609 26.2118C131.516 26.7638 131.527 27.3298 131.641 27.8774C131.754 28.425 131.969 28.9436 132.272 29.4035C132.575 29.8634 132.96 30.2556 133.406 30.5577C134.307 31.1679 135.4 31.3742 136.444 31.1311C137.489 30.888 138.399 30.2155 138.976 29.2616C139.552 28.3076 139.747 27.1504 139.517 26.0443C139.288 24.9383 138.652 23.9742 137.752 23.364Z" fill="#2F7D7A"/>
<path d="M135.399 14.2617C134.679 13.7735 133.804 13.6085 132.969 13.803C132.133 13.9975 131.405 14.5354 130.944 15.2986C130.483 16.0617 130.327 16.9875 130.511 17.8723C130.694 18.7571 131.202 19.5284 131.923 20.0166C132.644 20.5047 133.518 20.6697 134.354 20.4752C135.189 20.2808 135.917 19.7428 136.378 18.9796C136.839 18.2165 136.995 17.2907 136.812 16.4059C136.628 15.5211 136.12 14.7498 135.399 14.2617Z" fill="#2F7D7A"/>
<path d="M132.209 8.45332C131.849 8.20925 131.412 8.12675 130.994 8.22398C130.576 8.32121 130.212 8.5902 129.982 8.97178C129.867 9.16071 129.79 9.3716 129.752 9.5924C129.715 9.81321 129.719 10.0396 129.765 10.2587C129.81 10.4777 129.896 10.6851 130.017 10.8691C130.139 11.0531 130.293 11.2099 130.471 11.3308C130.65 11.4516 130.849 11.5341 131.057 11.5734C131.266 11.6128 131.48 11.6083 131.686 11.5601C131.893 11.512 132.089 11.4211 132.263 11.2928C132.437 11.1645 132.585 11.0012 132.699 10.8123C132.929 10.4307 133.007 9.96783 132.915 9.52544C132.824 9.08304 132.57 8.69739 132.209 8.45332Z" fill="#2F7D7A"/>
<path d="M130.208 3.04871C130.074 2.95807 129.925 2.89622 129.769 2.86671C129.612 2.8372 129.452 2.8406 129.297 2.87671C129.142 2.91282 128.995 2.98093 128.864 3.07717C128.734 3.1734 128.623 3.29585 128.537 3.43756C128.364 3.72374 128.306 4.07091 128.375 4.40271C128.444 4.7345 128.634 5.02375 128.905 5.2068C129.175 5.38985 129.503 5.45171 129.816 5.37879C130.129 5.30587 130.402 5.10413 130.575 4.81795C130.661 4.67625 130.719 4.51809 130.747 4.35249C130.775 4.18689 130.772 4.0171 130.738 3.85281C130.704 3.68852 130.639 3.53293 130.548 3.39497C130.458 3.257 130.342 3.13935 130.208 3.04871Z" fill="#2F7D7A"/>
<path d="M138.908 34.2852C137.918 33.614 136.715 33.3872 135.566 33.6546C134.418 33.922 133.416 34.6617 132.782 35.711C132.468 36.2306 132.254 36.8106 132.152 37.4178C132.05 38.025 132.061 38.6476 132.187 39.25C132.312 39.8524 132.547 40.4228 132.881 40.9287C133.214 41.4346 133.638 41.866 134.129 42.1984C134.619 42.5307 135.167 42.7575 135.74 42.8657C136.314 42.9739 136.902 42.9614 137.471 42.829C138.039 42.6966 138.578 42.4469 139.056 42.0941C139.534 41.7412 139.941 41.2922 140.255 40.7726C140.889 39.7232 141.103 38.4502 140.85 37.2336C140.598 36.017 139.899 34.9565 138.908 34.2852Z" fill="#2F7D7A"/>
<path d="M137.752 23.364C136.851 22.7538 135.758 22.5476 134.713 22.7907C133.669 23.0338 132.758 23.7062 132.182 24.6602C131.897 25.1325 131.702 25.6597 131.609 26.2118C131.516 26.7638 131.527 27.3298 131.641 27.8774C131.754 28.425 131.969 28.9436 132.272 29.4035C132.575 29.8634 132.96 30.2556 133.406 30.5577C134.307 31.1679 135.4 31.3742 136.444 31.1311C137.489 30.888 138.399 30.2155 138.976 29.2616C139.552 28.3076 139.747 27.1504 139.517 26.0443C139.288 24.9383 138.652 23.9742 137.752 23.364Z" fill="#2F7D7A"/>
<path d="M135.399 14.2617C134.679 13.7735 133.804 13.6085 132.969 13.803C132.133 13.9975 131.405 14.5354 130.944 15.2986C130.483 16.0617 130.327 16.9875 130.511 17.8723C130.694 18.7571 131.202 19.5284 131.923 20.0166C132.644 20.5047 133.518 20.6697 134.354 20.4752C135.189 20.2808 135.917 19.7428 136.378 18.9796C136.839 18.2165 136.995 17.2907 136.812 16.4059C136.628 15.5211 136.12 14.7498 135.399 14.2617Z" fill="#2F7D7A"/>
<path d="M132.209 8.45332C131.849 8.20925 131.412 8.12675 130.994 8.22398C130.576 8.32121 130.212 8.5902 129.982 8.97178C129.867 9.16071 129.79 9.3716 129.752 9.5924C129.715 9.81321 129.719 10.0396 129.765 10.2587C129.81 10.4777 129.896 10.6851 130.017 10.8691C130.139 11.0531 130.293 11.2099 130.471 11.3308C130.65 11.4516 130.849 11.5341 131.057 11.5734C131.266 11.6128 131.48 11.6083 131.686 11.5601C131.893 11.512 132.089 11.4211 132.263 11.2928C132.437 11.1645 132.585 11.0012 132.699 10.8123C132.929 10.4307 133.007 9.96783 132.915 9.52544C132.824 9.08304 132.57 8.69739 132.209 8.45332Z" fill="#2F7D7A"/>
<path d="M130.208 3.04871C130.074 2.95807 129.925 2.89622 129.769 2.86671C129.612 2.8372 129.452 2.8406 129.297 2.87671C129.142 2.91282 128.995 2.98093 128.864 3.07717C128.734 3.1734 128.623 3.29585 128.537 3.43756C128.364 3.72374 128.306 4.07091 128.375 4.40271C128.444 4.7345 128.634 5.02375 128.905 5.2068C129.175 5.38985 129.503 5.45171 129.816 5.37879C130.129 5.30587 130.402 5.10413 130.575 4.81795C130.661 4.67625 130.719 4.51809 130.747 4.35249C130.775 4.18689 130.772 4.0171 130.738 3.85281C130.704 3.68852 130.639 3.53293 130.548 3.39497C130.458 3.257 130.342 3.13935 130.208 3.04871Z" fill="#2F7D7A"/>
<path fill-rule="evenodd" clip-rule="evenodd" d="M376.585 207.706C376.78 207.53 376.866 207.406 376.866 207.406C376.866 207.406 374.441 207.192 371.899 205.014C370.736 204.021 369.667 202.669 369.031 201.204C368.429 199.915 368.15 198.474 367.874 196.858C367.63 195.347 367.546 193.655 367.327 191.719C367.215 190.587 367.064 189.338 366.794 187.961C366.657 187.258 366.488 186.518 366.279 185.744C365.688 183.439 364.584 180.909 362.912 178.467C359.289 173.394 354.381 171.376 350.654 171.536C347.036 171.737 345.059 173.86 344.183 175.376C343.841 175.968 343.622 176.498 343.482 176.931C343.135 176.994 342.719 177.102 342.247 177.286C340.834 177.837 338.688 179.297 337.72 182.583C336.761 185.975 337.288 190.814 340.555 194.983C342.144 196.924 343.929 198.358 345.649 199.284C346.224 199.604 346.781 199.883 347.315 200.126C348.361 200.603 349.33 200.95 350.215 201.241C351.721 201.765 353.062 202.123 354.221 202.599C355.457 203.121 356.552 203.618 357.454 204.384C358.488 205.212 359.336 206.418 359.875 207.651C361.057 210.345 360.688 212.606 360.688 212.606C360.688 212.606 362.579 211.659 363.121 207.806C363.267 206.764 363.269 205.518 363.023 204.156C363.528 204.713 364.056 205.238 364.603 205.722C367.008 207.8 369.451 208.687 371.363 208.907C374.449 209.258 376.001 208.238 376.585 207.706ZM358.108 195.593C357.936 195.433 357.763 195.277 357.585 195.126C352.693 191.07 345.123 193.068 342.953 184.032C342.443 182.104 342.849 180.126 343.422 178.819C343.626 178.352 343.84 177.975 344.032 177.677C344.406 177.513 344.899 177.336 345.52 177.209C347 176.906 349.14 176.996 351.031 178.155C352.908 179.261 354.551 181.385 355.042 183.086C355.373 183.942 355.566 185.103 355.878 186.454C355.976 186.921 356.069 187.419 356.17 187.947C356.364 188.973 356.591 190.157 356.903 191.457C357.202 192.771 357.596 194.164 358.108 195.593Z" fill="#D4A24C"/>
<path fill-rule="evenodd" clip-rule="evenodd" d="M162.801 46.544C162.981 46.664 163.066 46.7551 163.066 46.7551C163.066 46.7551 161.097 47.2392 159.255 49.3514C158.411 50.3157 157.687 51.5625 157.329 52.8472C156.981 53.9832 156.915 55.2029 156.872 56.5654C156.842 57.8381 156.965 59.2394 157.005 60.8585C157.041 61.8028 157.058 62.8487 156.992 64.0142C156.959 64.6093 156.904 65.2393 156.82 65.9014C156.596 67.8711 155.975 70.0898 154.878 72.3093C152.475 76.9385 148.671 79.2208 145.59 79.5629C142.594 79.8577 140.728 78.3643 139.837 77.2298C139.489 76.7868 139.249 76.3788 139.085 76.0411C138.792 76.0328 138.439 75.9971 138.03 75.9059C136.807 75.6328 134.877 74.7056 133.71 72.1282C132.537 69.4625 132.421 65.4193 134.633 61.5782C135.719 59.7812 137.024 58.3757 138.332 57.396C138.768 57.06 139.195 56.7603 139.606 56.4926C140.411 55.9681 141.169 55.5596 141.862 55.2078C143.041 54.5862 144.102 54.121 145.001 53.5826C145.958 52.9965 146.801 52.4493 147.455 51.7049C148.212 50.8928 148.772 49.7946 149.075 48.7129C149.741 46.3483 149.181 44.5377 149.181 44.5377C149.181 44.5377 150.843 45.0752 151.725 48.1724C151.962 49.0104 152.105 50.034 152.058 51.1845C152.41 50.6624 152.784 50.1643 153.179 49.6969C154.919 47.6835 156.827 46.6445 158.373 46.2207C160.869 45.5404 162.261 46.1811 162.801 46.544ZM148.99 58.8465C148.867 58.9994 148.742 59.1501 148.613 59.2968C145.052 63.2516 138.605 62.5714 137.845 70.2725C137.645 71.9219 138.203 73.4962 138.822 74.4972C139.043 74.8551 139.261 75.1378 139.453 75.3579C139.778 75.4452 140.204 75.5279 140.729 75.5534C141.979 75.6141 143.728 75.2688 145.15 74.0755C146.567 72.928 147.676 70.974 147.887 69.5141C148.063 68.7684 148.089 67.7898 148.192 66.6397C148.22 66.2439 148.241 65.8225 148.263 65.3756C148.307 64.508 148.359 63.5058 148.468 62.3985C148.565 61.28 148.731 60.0855 148.99 58.8465Z" fill="#D4A24C"/>
</g>
</svg>
