<svg width="353" height="283" viewBox="0 0 353 283" fill="none" xmlns="http://www.w3.org/2000/svg">
<g opacity="0.45">
<path d="M249.555 247.751C251.954 238.93 257.451 231.366 272.983 227.873C268.56 226.903 264.154 225.846 260.446 221.094C266.836 221.605 287.129 212.998 300.322 217.456C294.476 215.368 291.916 211.282 289.494 207.112C295.751 211.013 334.291 203.721 361.005 228.982C324.888 213.892 295.076 227.44 283.56 232.162C293.239 232.565 303.411 233.076 313.077 231.791C331.102 229.394 347.236 222.818 361.131 229.112C338.721 222.406 328.875 246.014 306.927 250.735C306.987 246.11 308.475 243.855 309.745 241.238C303.664 244.779 298.272 248.702 292.685 250.996C287.54 253.109 282.464 251.884 277.014 256.426C277.507 252.211 278.274 248.183 280.805 245.344C270.707 247.626 260.453 242.826 249.555 247.751Z" fill="#A3B38C"/>
<path fill-rule="evenodd" clip-rule="evenodd" d="M337.829 206.608C337.723 206.97 331.933 205.233 322.43 203.431C312.658 201.579 299.936 199.966 284.953 200.472C270.667 200.955 258.572 203.221 249.062 205.652C238.907 208.248 232.708 210.61 232.574 210.24C232.47 209.953 238.397 206.832 248.575 203.71C258.044 200.806 270.393 198.216 284.87 197.727C300.053 197.214 313.058 199.162 322.796 201.529C332.334 203.847 337.914 206.319 337.829 206.608Z" fill="#2F7D7A"/>
<path fill-rule="evenodd" clip-rule="evenodd" d="M351.794 206.87C351.531 207.194 348.704 204.842 343.825 201.618C338.801 198.297 332.139 194.443 323.723 191.303C312.223 187.014 302.701 186.009 296.844 185.475C294.183 185.232 292.644 185.097 292.636 184.837C292.628 184.603 294.155 184.271 296.863 184.113C302.68 183.774 312.85 184.334 324.586 188.712C333.22 191.932 340.037 196.222 344.859 200.014C349.587 203.733 351.996 206.622 351.794 206.87Z" fill="#2F7D7A"/>
<path fill-rule="evenodd" clip-rule="evenodd" d="M373.116 217.829C372.777 218.212 355.989 200.002 325.287 183.927C311.722 176.832 295.083 170.162 276.978 167.676C271.303 166.897 265.715 166.561 260.222 166.671C231.764 167.247 210.993 179.738 199.019 192.377C188.549 203.413 185.074 212.528 184.799 212.388C184.943 212.462 187.291 203.003 197.86 191.181C209.744 177.909 230.989 164.614 260.171 163.958C265.795 163.831 271.513 164.167 277.31 164.962C295.823 167.499 312.672 174.378 326.316 181.76C357.583 198.658 373.054 217.9 373.116 217.829Z" fill="#2F7D7A"/>
<path fill-rule="evenodd" clip-rule="evenodd" d="M264.662 149.174C264.705 149.278 256.993 153.993 242.637 158.351C228.25 162.718 207.538 166.436 183.35 163.425C174.35 162.305 165.074 160.269 155.719 157.174C136.253 150.73 119.862 140.842 106.88 130.055C79.7525 107.511 70.6284 84.886 70.3466 85.0693C70.7584 84.8031 81.8156 106.789 108.259 128.168C121.18 138.614 137.351 148.216 156.492 154.552C165.691 157.598 174.804 159.629 183.649 160.787C207.416 163.902 227.855 160.592 242.216 156.719C256.481 152.871 264.536 148.884 264.658 149.176L264.662 149.174Z" fill="#2F7D7A"/>
<path d="M133.883 103.395C131.256 111.101 132.776 118.566 147.726 125.251C142.298 124.93 136.836 124.684 129.938 127.589C137.25 128.77 154.373 140.763 171.496 140.46C163.841 140.685 158.6 143.34 153.458 146.096C162.644 144.512 197.439 170.345 260.229 139.596C211.41 146.455 171.35 136.408 161.879 124.431C172.732 126.519 184.19 128.642 194.024 132.088C212.361 138.512 241.241 141.203 260.229 139.596C231.659 139.413 219.823 124.566 198.57 115.29C195.879 119.032 196.167 121.22 196.001 123.645C191.442 119.276 187.868 114.771 183.108 111.53C178.726 108.545 172.43 108.266 169.161 103.249C167.189 106.767 165.631 110.205 166.714 113.122C157 108.767 142.897 110.08 133.883 103.395Z" fill="#A3B38C"/>
<path fill-rule="evenodd" clip-rule="evenodd" d="M146.995 241.727C155.376 245.628 160.778 257.541 172.179 248.691C160.941 262.757 170.709 270.545 172.542 282.222C178.647 273.684 190.623 273.122 185.963 253.133C201.412 283.283 213.893 269.267 229.438 271.136C219.985 257.255 223.523 236.377 190.983 239.125C225.022 229.469 214.012 213.223 219.098 197.111C205.915 203.266 189.739 197.565 183.387 220.536C183.14 200.42 171.3 199.222 163.379 188.827C163.264 202.919 153.118 212.891 170.281 231.289C155.943 223.929 154.47 236.42 146.995 241.727ZM156.967 240.776C159.602 240.21 163.568 239.407 168.598 238.909C171.973 238.577 174.936 238.483 177.411 238.484C177.421 238.241 177.445 238.005 177.481 237.778C177.377 237.663 177.27 237.539 177.165 237.42C176.056 237.056 174.807 236.73 173.412 236.517C169.453 235.923 166.13 236.489 164.098 237.061C166.139 236.486 169.415 235.801 173.442 236.268C174.615 236.401 175.696 236.619 176.686 236.877C176.487 236.645 176.284 236.394 176.082 236.148C175.341 235.795 174.544 235.45 173.684 235.127C171.71 234.357 169.969 233.923 168.876 233.73C170.014 233.931 171.685 234.224 173.759 234.888C174.413 235.106 175.028 235.342 175.621 235.585C174.4 234.049 173.149 232.281 171.955 230.254C170.406 227.549 169.453 225.277 168.813 223.735C169.43 225.223 170.562 227.541 172.2 230.088C173.653 232.411 175.162 234.361 176.594 236.001C176.853 236.118 177.109 236.234 177.353 236.352C175.969 234.21 174.497 231.635 173.129 228.631C171.085 224.105 169.992 220.233 169.329 217.672C169.981 220.19 171.238 224.105 173.39 228.493C174.902 231.601 176.495 234.199 177.963 236.338C177.994 236.278 178.027 236.22 178.061 236.164C176.907 233.808 175.683 230.988 174.57 227.745C172.865 222.775 171.996 218.546 171.464 215.418C172.028 218.522 173.047 222.814 174.842 227.636C176.006 230.767 177.249 233.456 178.41 235.72C178.613 235.502 178.843 235.328 179.094 235.2C178.082 231.411 176.806 226.907 175.106 221.685C172.637 214.089 170.207 207.865 168.576 203.997C170.255 207.98 172.722 213.912 175.38 221.582C177.146 226.685 178.522 231.22 179.595 235.022C179.858 234.958 180.135 234.939 180.421 234.965C180.3 233.102 180.083 231.022 179.69 228.749C178.581 222.448 176.628 217.516 175.182 214.501C176.639 217.54 178.702 222.356 179.976 228.689C180.446 230.993 180.732 233.131 180.905 235.047C180.962 235.061 181.019 235.078 181.076 235.096C181.177 233.289 181.221 231.261 181.134 229.022C181.036 225.812 180.703 223.107 180.411 221.445C180.717 223.183 181.167 225.71 181.425 229.005C181.58 231.224 181.6 233.268 181.549 235.098C182.177 232.466 183.14 229.503 184.627 226.418C186.141 223.384 187.673 221.209 188.711 219.758C187.705 221.165 186.25 223.54 184.939 226.582C183.489 229.825 182.614 232.882 182.064 235.564C182.195 235.647 182.325 235.738 182.454 235.837C183.553 233.157 185.048 230.119 187.1 226.978C189.678 223.061 192.255 220.274 194.219 218.326C192.295 220.294 189.775 223.263 187.39 227.183C185.387 230.448 183.978 233.551 182.951 236.259C183.018 236.325 183.085 236.393 183.151 236.463C184.646 233.956 186.578 231.109 189.041 228.188C193.254 223.196 197.354 219.919 200.086 217.895C197.384 219.898 193.328 223.369 189.305 228.429C186.873 231.488 185.019 234.414 183.588 236.959C183.787 237.207 183.976 237.473 184.151 237.753C187.293 234.689 191.143 230.773 195.411 225.934C201.047 219.553 205.376 213.852 207.99 210.168C205.307 213.949 201.255 219.568 195.669 226.184C191.507 231.106 187.636 235.216 184.498 238.361C184.598 238.549 184.691 238.741 184.778 238.936C184.797 238.982 184.815 239.027 184.832 239.072C186.931 237.938 189.327 236.455 191.846 234.464C197.13 230.26 200.587 225.686 202.524 222.62C200.575 225.705 197.289 230.348 192.059 234.755C189.63 236.815 187.271 238.398 185.186 239.608C187.38 238.799 189.908 237.72 192.649 236.225C195.685 234.61 198.107 232.951 199.549 231.829C198.045 232.999 195.849 234.712 192.814 236.551C190.22 238.086 187.772 239.246 185.62 240.124C188.388 240.164 191.65 240.519 195.197 241.528C198.314 242.465 200.643 243.6 202.198 244.373C200.69 243.623 198.193 242.61 195.111 241.886C191.445 240.965 188.132 240.73 185.359 240.78C185.382 240.887 185.402 240.994 185.421 241.102C188.261 241.671 191.609 242.619 195.195 244.206C199.346 246.061 202.456 248.15 204.664 249.779C202.445 248.196 199.18 246.204 195.065 244.549C191.525 243.109 188.272 242.287 185.501 241.791C185.507 241.878 185.511 241.964 185.514 242.05C188.162 243.08 191.231 244.501 194.48 246.47C199.968 249.795 203.847 253.361 206.285 255.769C203.873 253.387 199.823 249.906 194.312 246.792C191.091 244.971 188.1 243.687 185.511 242.742C185.485 243.156 185.42 243.548 185.317 243.908C188.69 246.423 192.879 249.405 197.888 252.597C204.955 257.108 211.12 260.406 215.067 262.348C211.016 260.355 204.984 257.326 197.711 252.916C192.766 249.913 188.496 247.019 185.08 244.56C184.907 244.926 184.688 245.238 184.429 245.487C185.758 247.128 187.349 248.896 189.268 250.679C194.25 255.278 199.194 257.907 202.428 259.275C199.174 257.898 194.201 255.46 189.042 250.96C187.047 249.231 185.367 247.482 183.962 245.846C183.912 245.877 183.861 245.906 183.809 245.933C183.797 245.938 183.785 245.943 183.773 245.947C184.867 247.774 186.188 249.78 187.807 251.878C189.93 254.686 191.966 256.849 193.303 258.109C191.909 256.795 189.87 254.877 187.541 252.116C185.887 250.115 184.505 248.168 183.353 246.375C183.603 247.904 183.784 249.579 183.833 251.387C183.869 253.945 183.642 255.942 183.484 257.292C183.636 255.989 183.75 253.882 183.584 251.398C183.482 249.488 183.241 247.735 182.932 246.16C182.738 246.176 182.537 246.17 182.333 246.142C182.397 247.842 182.372 249.715 182.194 251.728C181.827 255.684 181.012 258.774 180.427 260.782C181.002 258.805 181.716 255.615 181.945 251.706C182.073 249.649 182.044 247.76 181.935 246.054C181.779 246.009 181.621 245.951 181.464 245.882C181.315 247.585 181.069 249.455 180.666 251.454C179.85 255.479 178.703 258.63 177.766 260.907C178.67 258.628 179.732 255.369 180.421 251.402C180.782 249.328 180.978 247.418 181.081 245.691C180.748 245.502 180.42 245.262 180.105 244.976C179.31 247.783 178.441 251.074 177.594 254.929C176.227 261.141 175.444 266.416 175.052 269.755C175.454 266.327 176.093 261.212 177.351 254.872C178.132 250.943 178.968 247.517 179.742 244.622C179.501 244.369 179.272 244.091 179.058 243.791C178.38 244.977 177.689 246.333 177.046 247.884C175.141 252.529 174.554 256.728 174.406 259.391C174.555 256.713 175.013 252.534 176.816 247.782C177.435 246.134 178.121 244.679 178.802 243.412C178.754 243.336 178.706 243.259 178.66 243.18C177.809 244.237 176.91 245.46 176.02 246.887C174.702 248.954 173.792 250.837 173.298 252.043C173.811 250.79 174.568 248.947 175.809 246.745C176.682 245.232 177.583 243.917 178.441 242.787C178.336 242.591 178.238 242.39 178.146 242.185C178.137 242.161 178.127 242.137 178.117 242.113C176.933 243.076 175.509 244.026 173.813 244.804C171.996 245.6 170.472 245.948 169.454 246.17C170.444 245.954 171.999 245.47 173.715 244.575C175.412 243.727 176.811 242.721 177.961 241.719C177.898 241.551 177.84 241.381 177.787 241.21C176.4 241.945 174.753 242.643 172.866 243.15C169.837 243.948 167.299 243.97 165.662 243.914C167.282 243.969 169.858 243.82 172.805 242.907C174.695 242.33 176.317 241.574 177.673 240.799C177.637 240.664 177.605 240.529 177.577 240.394C176.09 240.844 174.351 241.233 172.408 241.434C169.126 241.773 166.421 241.466 164.453 241.115C166.418 241.433 169.178 241.629 172.381 241.185C174.327 240.915 176.039 240.466 177.497 239.975C177.442 239.624 177.411 239.277 177.404 238.939C174.953 238.891 172.031 238.911 168.618 239.16C163.652 239.518 159.542 240.223 156.967 240.776ZM177.248 236.736C177.375 236.875 177.5 237.011 177.625 237.146L177.626 237.145C177.643 237.086 177.661 237.027 177.68 236.969C177.538 236.891 177.395 236.814 177.248 236.736Z" fill="#D4A24C"/>
<path fill-rule="evenodd" clip-rule="evenodd" d="M0 70.8682C11.7424 71.4265 20.1458 83.1966 35.1398 65.2979C18.0797 100.83 38.9752 104.24 47.5355 121.228C53.8496 102.494 75.056 92.3132 51.116 61.1425C82.2882 89.2769 89.7139 67.4065 107.63 61.9374C93.374 52.6338 87.8628 32.4788 62.909 41.1874C80.9311 27.6726 74.2073 14.8824 78.3805 0C65.5721 9.17023 49.8764 5.46705 44.556 34.9549C41.7516 15.584 29.4826 22.3484 19.7595 18.2718C21.7576 29.3319 14.5628 42.6524 30.039 48.3789C9.93487 46.2749 9.34336 61.3147 0 70.8682ZM12.9232 65.1905C16.2864 63.3389 21.331 60.6135 27.892 57.7078C31.9322 55.9206 35.6218 54.4817 38.7359 53.3611C38.8059 52.9537 38.9061 52.5415 39.035 52.1301C37.5154 52.2263 35.8342 52.4203 34.0083 52.7915C28.5522 53.9233 24.3714 56.0974 21.8669 57.7035C24.3855 56.0884 28.4634 53.7966 33.9485 52.4906C35.846 52.031 37.6139 51.7685 39.2085 51.6224C39.2454 51.5231 39.284 51.4241 39.3241 51.3254C37.808 51.1597 36.1092 51.0558 34.2323 51.094C31.495 51.1212 29.1932 51.44 27.7772 51.7348C29.2482 51.4286 31.4132 50.9813 34.2217 50.7873C36.1647 50.6734 37.9475 50.7198 39.5348 50.845C39.6433 50.609 39.7605 50.3765 39.886 50.1487C39.9011 50.1236 39.9164 50.0985 39.9318 50.0735C38.2799 49.5079 36.4823 48.69 34.6595 47.4832C32.7421 46.1666 31.4228 44.8517 30.5514 43.9658C31.3985 44.827 32.8626 46.084 34.803 47.2332C36.6878 48.394 38.5201 49.1472 40.1846 49.6523C40.2952 49.4782 40.4105 49.3081 40.53 49.1426C38.9511 48.2216 37.2345 47.0128 35.5315 45.4331C33.1555 43.2099 31.5954 41.0113 30.5443 39.3507C31.6169 40.9831 33.3107 43.1433 35.7101 45.2096C37.4776 46.7454 39.232 47.8901 40.8267 48.7528C40.9248 48.6288 41.0253 48.5081 41.1279 48.3908C39.7405 47.18 38.2421 45.6738 36.779 43.8362C33.897 40.2158 32.2807 36.7477 31.342 34.4703C32.2731 36.7293 34.0318 40.1724 36.9863 43.6437C38.5136 45.4387 40.0489 46.8785 41.4546 48.0325C41.7362 47.7459 42.0295 47.4862 42.3305 47.2569C40.7579 44.7413 38.812 41.7903 36.3364 38.4946C32.7381 33.697 29.3915 29.9978 27.1942 27.7531C29.443 30.0506 32.7834 33.5401 36.5504 38.3106C39.0553 41.4875 41.1315 44.4583 42.7567 46.9554C42.9793 46.8085 43.2042 46.6791 43.4298 46.568C43.465 46.3869 43.5073 46.1973 43.5452 46.0125C43.1434 44.6483 42.6135 43.1676 41.8863 41.6127C39.8123 37.2081 37.1103 34.2131 35.2529 32.531C37.1184 34.2206 39.899 37.0894 42.1316 41.4788C42.7851 42.7555 43.3008 43.9947 43.7195 45.1687C43.7984 44.8124 43.8909 44.4414 43.9802 44.0733C43.8108 43.0902 43.5968 42.0548 43.3223 40.9712C42.7164 38.4625 41.9619 36.4137 41.4149 35.1778C41.9844 36.4646 42.8196 38.35 43.5873 40.8903C43.8213 41.6969 44.0138 42.476 44.1858 43.2363C44.7682 40.9864 45.5412 38.553 46.5857 36.0073C48.0095 32.6537 49.4361 30.1891 50.4075 28.5234C49.4706 30.1302 48.1209 32.8047 46.8984 36.1443C45.7565 39.1496 44.9903 41.9658 44.4519 44.4992C44.5173 44.8377 44.5803 45.1728 44.6347 45.498C45.6582 42.6829 47.0158 39.4932 48.8294 36.1254C51.2407 31.6814 53.6437 28.3768 55.4737 26.0241C53.6861 28.386 51.3439 31.8782 49.1251 36.2991C47.3129 39.8811 46.0162 43.2097 45.0506 46.1071C45.1246 46.0998 45.1981 46.0948 45.2709 46.0923C46.6398 43.3684 48.3823 40.2682 50.5795 37.0014C53.9623 31.9759 57.2237 28.2974 59.7044 25.6952C57.2664 28.3132 54.0443 32.1881 50.8571 37.2058C48.7943 40.4507 47.1836 43.4839 45.9035 46.1533C46.2337 46.2159 46.5423 46.3331 46.8234 46.5026C49.5814 42.9787 52.811 38.7172 56.4102 33.5506C61.6483 26.0398 65.6729 19.471 68.0938 15.2688C65.6011 19.5967 61.8661 26.0082 56.6852 33.761C53.2637 38.8757 50.041 43.3219 47.3239 46.9022C47.5511 47.1254 47.7482 47.3911 47.9117 47.6947C49.5156 46.3437 51.2521 44.7519 53.0482 42.8542C58.0126 37.5755 61.1813 32.3441 62.9532 28.8904C61.1672 32.3715 58.1756 37.6379 53.2908 43.1043C51.5181 45.1007 49.7735 46.8001 48.1558 48.2382C48.1801 48.3059 48.203 48.3748 48.2245 48.445C49.9247 47.3556 51.7848 46.0619 53.7523 44.4971C56.5894 42.282 58.8156 40.1605 60.1246 38.768C58.7559 40.224 56.7684 42.3465 53.96 44.7804C52.0556 46.4012 50.2215 47.7692 48.5331 48.9254C51.3266 47.8251 54.6387 46.8482 58.4085 46.3213C62.1496 45.8556 65.1259 45.9741 67.1221 46.0696C65.187 45.9768 62.082 46.0681 58.4679 46.7456C54.5805 47.4136 51.2402 48.5441 48.4529 49.7555C48.464 49.9425 48.4673 50.1338 48.4627 50.3284C51.61 49.6752 55.3413 49.1882 59.534 49.1971C65.5328 49.2327 70.2937 50.2486 73.374 51.0131C70.335 50.2589 65.4473 49.4333 59.5394 49.6252C55.2673 49.7477 51.5338 50.367 48.408 51.111C48.3931 51.2225 48.3759 51.3346 48.3564 51.4472C51.6078 51.3101 55.4553 51.392 59.7198 51.9634C67.0098 52.9417 72.676 54.9379 76.3067 56.372C72.715 54.953 66.9019 53.1293 59.6754 52.3891C55.3066 51.9406 51.4389 51.9887 48.1949 52.2169C48.1022 52.583 47.9865 52.9495 47.8489 53.3124C52.6903 54.4771 58.7701 55.7974 65.958 56.9329C75.4419 58.4379 83.448 59.0662 88.5025 59.2865C83.315 59.0605 75.5643 58.6581 65.9009 57.3577C58.7073 56.385 52.441 55.1705 47.5293 54.0631C47.425 54.2883 47.3127 54.5101 47.1929 54.7277C47.1643 54.7762 47.1354 54.8244 47.1061 54.8724C49.5152 56.2521 52.4356 57.7028 55.8966 58.9428C63.1808 61.5272 69.5955 62.0144 73.6432 61.957C69.5703 62.0151 63.2058 61.7456 55.774 59.3517C52.3127 58.2484 49.3269 56.9013 46.8581 55.5858C49.0367 57.2758 51.6756 59.1267 54.8336 60.9191C58.2948 62.931 61.392 64.2919 63.3573 65.0125C61.3078 64.2608 58.3121 63.1647 54.649 61.3008C51.5511 59.6837 48.8871 57.9675 46.6736 56.3653C48.4629 59.1975 50.2942 62.7364 51.7205 66.9965C52.9288 70.7746 53.4384 73.8825 53.7651 75.9697C53.4483 73.9461 52.718 70.7486 51.3407 67.1464C49.7557 62.824 47.7828 59.3101 45.9093 56.5315C45.8274 56.6253 45.7442 56.7169 45.6598 56.8061C47.0182 60.06 48.3683 64.0807 49.299 68.7607C50.5139 74.9814 50.5661 80.1236 50.5005 83.4734C50.5652 80.1688 50.3094 74.9341 48.903 68.8548C47.8698 64.3174 46.4689 60.4785 45.0904 57.3428C45.016 57.4055 44.941 57.4664 44.8655 57.5254C45.6803 60.8888 46.4181 64.9361 46.7818 69.5284C47.3944 77.2827 46.729 83.5662 46.1591 87.6255C46.7227 83.6102 47.1972 77.2105 46.3782 69.5708C45.9001 65.1048 45.0902 61.2273 44.2369 57.9799C43.8449 58.2267 43.4478 58.419 43.0541 58.5525C43.0049 63.6301 43.0716 69.8407 43.4884 77.0231C44.0708 87.1593 45.1549 95.5826 46.003 100.864C45.1329 95.4441 43.8929 87.3333 43.084 77.054C42.5379 70.0609 42.3388 63.8267 42.3086 58.7421C41.864 58.8085 41.4377 58.7925 41.042 58.6944C40.4345 61.1239 39.8847 63.9014 39.5391 67.0215C38.6668 75.1038 39.5505 81.8484 40.4457 86.029C39.545 81.8225 38.4693 75.1741 39.1349 66.9786C39.383 63.8168 39.8555 60.9601 40.4081 58.4578C40.3475 58.4271 40.288 58.394 40.2297 58.3588C40.2174 58.3498 40.2052 58.3406 40.193 58.3314C39.2631 60.6453 38.3218 63.3072 37.4929 66.332C36.3544 70.3355 35.7409 73.8264 35.4837 76.0116C35.7518 73.7325 36.1408 70.401 37.1007 66.2191C37.8184 63.2236 38.6684 60.5386 39.5295 58.1889C38.3117 59.4503 36.9174 60.7372 35.3158 61.9793C33.0273 63.7022 31.0736 64.7889 29.7486 65.519C31.0273 64.8144 33.0063 63.5407 35.1418 61.7345C36.8015 60.3711 38.226 58.9721 39.446 57.6197C39.3032 57.4333 39.1768 57.2265 39.0679 57.0011C37.5723 58.1871 35.8633 59.3959 33.9264 60.5418C30.5711 62.508 27.6416 63.6561 25.4754 64.4078C27.6165 63.628 30.5729 62.3184 33.7819 60.2762C35.7263 59.0503 37.4143 57.7761 38.8847 56.5405C38.8226 56.3518 38.7712 56.154 38.7306 55.9482C37.0927 56.9207 35.2403 57.904 33.1667 58.8132C28.9658 60.651 25.3424 61.5684 22.6619 62.1183C25.3217 61.5344 28.9878 60.4599 33.0512 58.5306C35.164 57.5295 37.0201 56.4687 38.6496 55.4342C38.6001 54.9721 38.6006 54.4813 38.6513 53.9731C35.5897 55.0179 32.0427 56.3085 28.0001 57.9919C21.4833 60.702 16.1989 63.3853 12.922 65.1895L12.9232 65.1905ZM44.0981 46.3004C44.163 46.2779 44.2279 46.257 44.2926 46.2377C44.2694 46.0426 44.2447 45.8464 44.218 45.6454C44.1756 45.8665 44.1361 46.0823 44.0973 46.2982L44.0981 46.3004Z" fill="#D4A24C"/>
<path d="M261.422 191.584C260.94 192.683 260.89 193.939 261.282 195.077C261.675 196.215 262.479 197.141 263.516 197.652C264.554 198.162 265.74 198.216 266.815 197.8C267.89 197.384 268.764 196.533 269.246 195.434C269.485 194.89 269.62 194.302 269.644 193.702C269.668 193.103 269.581 192.504 269.386 191.941C269.192 191.378 268.894 190.86 268.511 190.418C268.128 189.977 267.666 189.619 267.152 189.366C266.638 189.114 266.083 188.97 265.517 188.945C264.951 188.92 264.385 189.013 263.853 189.219C263.321 189.424 262.833 189.739 262.416 190.145C261.998 190.551 261.661 191.04 261.422 191.584Z" fill="#2F7D7A"/>
<path d="M251.633 194.181C251.416 194.676 251.293 195.211 251.271 195.756C251.249 196.301 251.329 196.845 251.506 197.357C251.682 197.869 251.953 198.34 252.301 198.741C252.65 199.143 253.069 199.468 253.536 199.698C254.004 199.927 254.509 200.058 255.023 200.081C255.538 200.104 256.052 200.019 256.535 199.832C257.019 199.645 257.463 199.359 257.843 198.99C258.222 198.621 258.529 198.176 258.746 197.682C259.184 196.683 259.23 195.54 258.873 194.506C258.516 193.472 257.785 192.63 256.842 192.165C255.899 191.701 254.82 191.653 253.843 192.031C252.866 192.409 252.071 193.183 251.633 194.181Z" fill="#2F7D7A"/>
<path d="M243.658 197.769C243.308 198.568 243.271 199.482 243.557 200.309C243.842 201.137 244.427 201.81 245.181 202.182C245.936 202.553 246.799 202.592 247.58 202.289C248.362 201.987 248.998 201.368 249.349 200.569C249.699 199.77 249.736 198.856 249.45 198.028C249.165 197.201 248.58 196.527 247.826 196.156C247.071 195.785 246.208 195.746 245.427 196.049C244.645 196.351 244.009 196.97 243.658 197.769Z" fill="#2F7D7A"/>
<path d="M238.782 201.79C238.695 201.988 238.646 202.202 238.637 202.42C238.628 202.638 238.66 202.856 238.731 203.061C238.802 203.265 238.91 203.454 239.049 203.614C239.189 203.775 239.356 203.905 239.543 203.997C239.73 204.089 239.932 204.141 240.138 204.15C240.344 204.159 240.549 204.125 240.743 204.051C240.936 203.976 241.114 203.861 241.266 203.714C241.417 203.566 241.54 203.388 241.627 203.19C241.802 202.791 241.821 202.334 241.678 201.92C241.535 201.506 241.243 201.17 240.865 200.984C240.488 200.798 240.057 200.779 239.666 200.93C239.275 201.081 238.957 201.391 238.782 201.79Z" fill="#2F7D7A"/>
<path d="M234.117 204.535C234.052 204.683 234.015 204.844 234.009 205.007C234.002 205.171 234.026 205.334 234.079 205.488C234.132 205.641 234.213 205.783 234.318 205.903C234.422 206.024 234.548 206.121 234.688 206.19C234.829 206.259 234.98 206.298 235.135 206.305C235.289 206.312 235.443 206.286 235.588 206.23C235.733 206.174 235.867 206.088 235.98 205.978C236.094 205.867 236.186 205.734 236.251 205.585C236.383 205.285 236.396 204.943 236.289 204.633C236.182 204.322 235.963 204.07 235.68 203.93C235.397 203.791 235.074 203.777 234.78 203.89C234.487 204.003 234.249 204.235 234.117 204.535Z" fill="#2F7D7A"/>
<path fill-rule="evenodd" clip-rule="evenodd" d="M267.235 186.216C267.207 186.072 267.208 185.988 267.208 185.988C267.208 185.988 268.318 186.749 270.093 186.708C270.905 186.69 271.788 186.485 272.521 186.08C273.184 185.737 273.756 185.217 274.381 184.619C274.96 184.056 275.527 183.358 276.229 182.603C276.632 182.156 277.089 181.673 277.637 181.176C277.916 180.922 278.221 180.664 278.553 180.405C279.531 179.622 280.799 178.923 282.283 178.462C285.432 177.557 288.174 178.416 289.725 179.796C291.217 181.155 291.4 182.763 291.301 183.723C291.263 184.097 291.19 184.402 291.115 184.637C291.244 184.787 291.388 184.979 291.533 185.224C291.968 185.958 292.432 187.341 291.817 189.093C291.165 190.888 289.421 192.782 286.709 193.424C285.417 193.699 284.2 193.688 283.17 193.48C282.823 193.416 282.496 193.339 282.19 193.256C281.591 193.093 281.066 192.901 280.594 192.715C279.783 192.41 279.094 192.093 278.447 191.889C277.752 191.679 277.126 191.507 276.498 191.519C275.793 191.511 275.051 191.731 274.432 192.071C273.079 192.813 272.528 193.914 272.528 193.914C272.528 193.914 272.013 192.842 272.988 190.996C273.253 190.497 273.643 189.961 274.176 189.462C273.784 189.524 273.393 189.563 273.006 189.579C271.32 189.626 269.992 189.147 269.102 188.57C267.666 187.635 267.319 186.65 267.235 186.216ZM278.975 187.511C279.099 187.503 279.223 187.497 279.346 187.494C282.721 187.472 285.347 190.994 289.114 187.875C289.938 187.226 290.385 186.233 290.548 185.47C290.607 185.197 290.633 184.959 290.644 184.764C290.535 184.562 290.379 184.313 290.152 184.04C289.611 183.389 288.663 182.674 287.487 182.507C286.333 182.322 284.961 182.657 284.216 183.215C283.805 183.466 283.358 183.898 282.801 184.369C282.612 184.535 282.415 184.716 282.207 184.907C281.801 185.28 281.332 185.709 280.791 186.157C280.25 186.617 279.643 187.077 278.975 187.511Z" fill="#D4A24C"/>
</g>
</svg>
