<?xml version="1.0" encoding="UTF-8"?>
<svg version="1.1" xmlns="http://www.w3.org/2000/svg" width="167" height="90">
<path d="M0 0 C55.11 0 110.22 0 167 0 C167 29.7 167 59.4 167 90 C111.89 90 56.78 90 0 90 C0 60.3 0 30.6 0 0 Z " fill="#F7F6F2" transform="translate(0,0)"/>
<path d="M0 0 C3 1 3 1 4.17578125 2.7734375 C5.08006243 5.21628238 5.23525161 7.02904892 5.1875 9.625 C5.18105469 10.40101562 5.17460938 11.17703125 5.16796875 11.9765625 C5 14 5 14 4 16 C4.66 15.67 5.32 15.34 6 15 C10.33344576 14.19377753 13.72095569 14.26416427 17.59375 16.4921875 C19.875994 18.23275966 22.01500768 19.92584727 24 22 C24 22.66 24 23.32 24 24 C19.84733974 27.22520495 15.28419279 30.41942869 9.875 30.375 C8.92625 30.25125 7.9775 30.1275 7 30 C7.99 30.99 8.98 31.98 10 33 C10.71349609 32.566875 10.71349609 32.566875 11.44140625 32.125 C20.70751399 27.21037932 30.93158836 28.40820741 41 30 C40.34 31.32 39.68 32.64 39 34 C39.86625 34.48210938 40.7325 34.96421875 41.625 35.4609375 C42.73875 36.09257813 43.8525 36.72421875 45 37.375 C46.670625 38.31472656 46.670625 38.31472656 48.375 39.2734375 C49.24125 39.84320313 50.1075 40.41296875 51 41 C51 41.66 51 42.32 51 43 C49.02 43.99 49.02 43.99 47 45 C47.639375 45.78375 48.27875 46.5675 48.9375 47.375 C52.32872321 51.69110227 52 51.83363714 52 58 C48.04 57.01 44.08 56.02 40 55 C39.67 56.65 39.34 58.3 39 60 C37.72390677 59.09066991 36.45434447 58.17217147 35.1875 57.25 C34.47980469 56.73953125 33.77210937 56.2290625 33.04296875 55.703125 C30.97022309 53.97517642 29.52624146 52.21473524 28 50 C27.34 51.32 26.68 52.64 26 54 C21.94808209 49.45694053 18.84511604 44.62961881 15.74609375 39.390625 C13.96090353 36.94647195 12.79309402 36.05123014 10 35 C10.33 35.99 10.66 36.98 11 38 C11.47261873 44.67226439 10.69403826 51.36945592 10 58 C7.0762431 56.62642293 4.52866443 55.05214734 1.9375 53.125 C1.26589844 52.63257813 0.59429687 52.14015625 -0.09765625 51.6328125 C-4.07026763 48.22305571 -5.38843837 45.41316748 -6.1875 40.25 C-6.42533203 38.77273437 -6.42533203 38.77273437 -6.66796875 37.265625 C-6.77753906 36.51796875 -6.88710937 35.7703125 -7 35 C-7.30292969 35.54269531 -7.60585937 36.08539063 -7.91796875 36.64453125 C-8.54638672 37.71767578 -8.54638672 37.71767578 -9.1875 38.8125 C-9.59355469 39.52019531 -9.99960938 40.22789063 -10.41796875 40.95703125 C-12.39026192 43.50396787 -14.07149321 44.65356009 -17 46 C-20.11328125 46.29296875 -20.11328125 46.29296875 -23.3125 46.1875 C-24.91544922 46.14689453 -24.91544922 46.14689453 -26.55078125 46.10546875 C-27.35902344 46.07066406 -28.16726562 46.03585938 -29 46 C-28.69075786 43.89535207 -28.3774944 41.7912947 -28.0625 39.6875 C-27.88847656 38.51574219 -27.71445312 37.34398437 -27.53515625 36.13671875 C-27 33 -27 33 -26 30 C-30.62 30 -35.24 30 -40 30 C-39.34 29.01 -38.68 28.02 -38 27 C-38.59167969 26.87882812 -39.18335937 26.75765625 -39.79296875 26.6328125 C-44.03803585 25.73255357 -48.02439661 24.79543379 -52 23 C-52 22.34 -52 21.68 -52 21 C-51.34 20.67 -50.68 20.34 -50 20 C-50 19.34 -50 18.68 -50 18 C-51.69089213 16.36738126 -51.69089213 16.36738126 -53.8125 14.6875 C-56.90321529 12.05710401 -59.36901703 9.80562692 -61 6 C-60.67 5.34 -60.34 4.68 -60 4 C-58.515 4.433125 -58.515 4.433125 -57 4.875 C-53.02250133 6.01375218 -49.01769007 7.01319893 -45 8 C-44.34 7.01 -43.68 6.02 -43 5 C-38.90694544 6.65296434 -35.41016497 8.13546142 -32 11 C-32 10.01 -32 9.02 -32 8 C-27.62140745 8.50522222 -25.18348776 11.17827222 -22 14 C-22.495 10.04 -22.495 10.04 -23 6 C-17.50528249 5.67678132 -13.53945945 5.4535473 -9 9 C-8.505 9.495 -8.505 9.495 -8 10 C-7.4225 9.0925 -6.845 8.185 -6.25 7.25 C-4.33214884 4.47977054 -2.45597155 2.28054501 0 0 Z " fill="#D4A450" transform="translate(87,15)"/>
<path d="M0 0 C2.84375 0.7109375 2.84375 0.7109375 5.6875 1.421875 C6.450625 1.61265625 7.21375 1.8034375 8 2 C9.5 2.375 11 2.75 12.5 3.125 C13.655 3.41375 14.81 3.7025 16 4 C16.66 3.01 17.32 2.02 18 1 C22.09305456 2.65296434 25.58983503 4.13546142 29 7 C29 6.01 29 5.02 29 4 C32.30915581 4.61445175 34.39416703 5.78168782 37.0625 7.8125 C37.73410156 8.31394531 38.40570313 8.81539062 39.09765625 9.33203125 C41 11 41 11 42.546875 13.15234375 C43.95602581 15.33925128 43.95602581 15.33925128 47.1875 15.75 C48.115625 15.8325 49.04375 15.915 50 16 C50.33 15.34 50.66 14.68 51 14 C51.66 14.33 52.32 14.66 53 15 C53.66 14.01 54.32 13.02 55 12 C55.99 12 56.98 12 58 12 C58.66 12.66 59.32 13.32 60 14 C62.65537372 14.56520003 65.29144713 14.73788198 68 15 C68 15.66 68 16.32 68 17 C68.99 17.66 69.98 18.32 71 19 C70.34 19 69.68 19 69 19 C69 19.66 69 20.32 69 21 C67.35 21.33 65.7 21.66 64 22 C64 22.66 64 23.32 64 24 C64 27.18344154 63.82751593 29.05772114 63 32 C62.7215625 33.11375 62.7215625 33.11375 62.4375 34.25 C62.293125 34.8275 62.14875 35.405 62 36 C61.34 36 60.68 36 60 36 C60 34.68 60 33.36 60 32 C59.01 32.495 59.01 32.495 58 33 C57.34 32.34 56.68 31.68 56 31 C56 30.01 56 29.02 56 28 C55.34 28 54.68 28 54 28 C53.9175 28.70125 53.835 29.4025 53.75 30.125 C52.57838453 34.61619264 50.49408671 37.89047822 46.75390625 40.66796875 C43.48851334 42.24739993 41.29290771 42.30635959 37.6875 42.1875 C36.08455078 42.14689453 36.08455078 42.14689453 34.44921875 42.10546875 C33.64097656 42.07066406 32.83273438 42.03585938 32 42 C32.30924214 39.89535207 32.6225056 37.7912947 32.9375 35.6875 C33.11152344 34.51574219 33.28554688 33.34398437 33.46484375 32.13671875 C34 29 34 29 35 26 C30.38 26 25.76 26 21 26 C21.66 25.01 22.32 24.02 23 23 C22.40832031 22.87882812 21.81664063 22.75765625 21.20703125 22.6328125 C16.96196415 21.73255357 12.97560339 20.79543379 9 19 C9 18.34 9 17.68 9 17 C9.66 16.67 10.32 16.34 11 16 C11 15.34 11 14.68 11 14 C9.30910787 12.36738126 9.30910787 12.36738126 7.1875 10.6875 C4.07840109 8.04614163 1.72480307 5.77300672 0 2 C0 1.34 0 0.68 0 0 Z " fill="#D8AD62" transform="translate(26,19)"/>
<path d="M0 0 C1.88525391 0.00966797 1.88525391 0.00966797 3.80859375 0.01953125 C7.4804779 0.18382992 10.93958414 0.60315873 14.5625 1.1875 C13.9025 2.5075 13.2425 3.8275 12.5625 5.1875 C13.861875 5.91066406 13.861875 5.91066406 15.1875 6.6484375 C16.30125 7.28007813 17.415 7.91171875 18.5625 8.5625 C19.67625 9.18898438 20.79 9.81546875 21.9375 10.4609375 C22.80375 11.03070313 23.67 11.60046875 24.5625 12.1875 C24.5625 12.8475 24.5625 13.5075 24.5625 14.1875 C22.5825 15.1775 22.5825 15.1775 20.5625 16.1875 C21.5215625 17.363125 21.5215625 17.363125 22.5 18.5625 C25.89122321 22.87860227 25.5625 23.02113714 25.5625 29.1875 C21.6025 28.1975 17.6425 27.2075 13.5625 26.1875 C13.2325 27.8375 12.9025 29.4875 12.5625 31.1875 C11.28640677 30.27816991 10.01684447 29.35967147 8.75 28.4375 C8.04230469 27.92703125 7.33460937 27.4165625 6.60546875 26.890625 C4.53272309 25.16267642 3.08874146 23.40223524 1.5625 21.1875 C0.9025 22.5075 0.2425 23.8275 -0.4375 25.1875 C-4.4846916 20.64973972 -7.49639549 15.86915903 -10.49609375 10.578125 C-12.87782278 7.64529167 -14.81998783 7.06262249 -18.4375 6.1875 C-12.62490735 1.05874178 -7.67493669 -0.08641177 0 0 Z " fill="#A5B58F" transform="translate(113.4375,43.8125)"/>
<path d="M0 0 C2.84375 0.7109375 2.84375 0.7109375 5.6875 1.421875 C6.450625 1.61265625 7.21375 1.8034375 8 2 C9.5 2.375 11 2.75 12.5 3.125 C13.655 3.41375 14.81 3.7025 16 4 C16.66 3.01 17.32 2.02 18 1 C22.09305456 2.65296434 25.58983503 4.13546142 29 7 C29 6.01 29 5.02 29 4 C36.36361817 5.39400344 41.63205694 11.26707473 46 17 C41.68577634 16.62825284 37.65826516 16.19983049 33.5 14.9375 C29.23867097 13.79607258 25.37928565 13.82125365 21 14 C29.32920223 18.38997953 36.8126024 18.40090462 46 18 C46.99 18 47.98 18 49 18 C45.88628118 21.38060901 43.45912603 23.70920036 39 25 C38.01 25 37.02 25 36 25 C35.67 25.66 35.34 26.32 35 27 C28.07 26.505 28.07 26.505 21 26 C21.66 25.01 22.32 24.02 23 23 C22.40832031 22.87882812 21.81664063 22.75765625 21.20703125 22.6328125 C16.96196415 21.73255357 12.97560339 20.79543379 9 19 C9 18.34 9 17.68 9 17 C9.66 16.67 10.32 16.34 11 16 C11 15.34 11 14.68 11 14 C9.30910787 12.36738126 9.30910787 12.36738126 7.1875 10.6875 C4.07840109 8.04614163 1.72480307 5.77300672 0 2 C0 1.34 0 0.68 0 0 Z " fill="#A6B590" transform="translate(26,19)"/>
<path d="M0 0 C0 3 0 3 -2 6 C-1.01 6 -0.02 6 1 6 C1.99 6 2.98 6 4 6 C4.75 8.125 4.75 8.125 5 11 C2.69937898 15.42427119 0.4617509 17.83576521 -4 20 C-7.11328125 20.29296875 -7.11328125 20.29296875 -10.3125 20.1875 C-11.38113281 20.16042969 -12.44976562 20.13335937 -13.55078125 20.10546875 C-14.35902344 20.07066406 -15.16726562 20.03585938 -16 20 C-15.7168444 17.91549283 -15.42314331 15.83241633 -15.125 13.75 C-14.96257813 12.58984375 -14.80015625 11.4296875 -14.6328125 10.234375 C-14.06765904 7.34581285 -13.67597543 5.3919261 -12 3 C-9.94140625 1.69921875 -9.94140625 1.69921875 -7.5625 0.6875 C-6.78003906 0.34074219 -5.99757813 -0.00601563 -5.19140625 -0.36328125 C-3 -1 -3 -1 0 0 Z " fill="#D4A34F" transform="translate(74,41)"/>
<path d="M0 0 C9.37378558 -0.71799209 16.86539178 1.0859061 24.125 7.25 C25.07375 8.1575 26.0225 9.065 27 10 C18.87441257 12.60018798 9.84225314 6.07044051 2.74609375 2.42578125 C1.83988281 1.95527344 0.93367188 1.48476563 0 1 C0 0.67 0 0.34 0 0 Z " fill="#F1F1EA" transform="translate(99,49)"/>
<path d="M0 0 C6.73021044 -0.34546708 12.30380199 0.10108789 18.6953125 2.265625 C21.7903931 3.25185407 24.77690799 3.64966391 28 4 C27.67 4.66 27.34 5.32 27 6 C17.9018375 6.4367118 10.13610016 6.69324514 2 2 C1.34 1.34 0.68 0.68 0 0 Z " fill="#F1F1EA" transform="translate(45,32)"/>
<path d="M0 0 C0.33 0 0.66 0 1 0 C1 1.98 1 3.96 1 6 C3.475 6.99 3.475 6.99 6 8 C5.67 8.99 5.34 9.98 5 11 C2.70401807 12.08301035 0.36522558 13.07796291 -2 14 C-3.34013497 14.65288627 -4.67741528 15.31225595 -6 16 C-4.84826645 13.53199953 -3.95216435 11.95216435 -2 10 C-2.29369827 8.65737935 -2.6278958 7.32303717 -3 6 C-2.67 5.34 -2.34 4.68 -2 4 C-2.66 3.34 -3.32 2.68 -4 2 C-2.68 2 -1.36 2 0 2 C0 1.34 0 0.68 0 0 Z " fill="#DCB572" transform="translate(76,33)"/>
<path d="M0 0 C2.64 0.33 5.28 0.66 8 1 C8.66 3.31 9.32 5.62 10 8 C9.01 8.33 8.02 8.66 7 9 C6.67 8.67 6.34 8.34 6 8 C5.34 8.66 4.68 9.32 4 10 C4 9.01 4 8.02 4 7 C1.525 6.01 1.525 6.01 -1 5 C-0.67 3.35 -0.34 1.7 0 0 Z " fill="#E3C591" transform="translate(78,34)"/>
<path d="M0 0 C0 2.6705913 -0.30854921 4.46468045 -1 7 C-1.185625 7.7425 -1.37125 8.485 -1.5625 9.25 C-1.706875 9.8275 -1.85125 10.405 -2 11 C-2.66 11 -3.32 11 -4 11 C-4 9.68 -4 8.36 -4 7 C-4.99 7.495 -4.99 7.495 -6 8 C-6.66 6.68 -7.32 5.36 -8 4 C-7.34 4 -6.68 4 -6 4 C-5.67 3.01 -5.34 2.02 -5 1 C-3 0 -3 0 0 0 Z " fill="#D7A95B" transform="translate(90,44)"/>
<path d="M0 0 C0.66 0.33 1.32 0.66 2 1 C-0.2780204 4.41703059 -1.38372165 4.79651189 -5.125 6.1875 C-6.03507812 6.53167969 -6.94515625 6.87585937 -7.8828125 7.23046875 C-8.93082031 7.61138672 -8.93082031 7.61138672 -10 8 C-10.99 6.35 -11.98 4.7 -13 3 C-11.783125 3.061875 -10.56625 3.12375 -9.3125 3.1875 C-5.37770224 3.21535698 -3.28107483 2.21955062 0 0 Z " fill="#F1ECDF" transform="translate(106,41)"/>
<path d="M0 0 C3.10551666 0 4.35261084 0.5393715 7 2 C7 2.66 7 3.32 7 4 C8.98 4.66 10.96 5.32 13 6 C9.25 9 9.25 9 7 9 C6.67 7.35 6.34 5.7 6 4 C4.02 4 2.04 4 0 4 C0 2.68 0 1.36 0 0 Z " fill="#DFBD82" transform="translate(80,31)"/>
<path d="M0 0 C1.98 0 3.96 0 6 0 C5.67 1.65 5.34 3.3 5 5 C3.35 4.67 1.7 4.34 0 4 C0 2.68 0 1.36 0 0 Z " fill="#F5F1E7" transform="translate(80,35)"/>
<path d="M0 0 C0.33 0 0.66 0 1 0 C0.67 2.31 0.34 4.62 0 7 C0.66 7.33 1.32 7.66 2 8 C1.01 8.66 0.02 9.32 -1 10 C-1.99 9.34 -2.98 8.68 -4 8 C-3.67 6.35 -3.34 4.7 -3 3 C-2.01 3 -1.02 3 0 3 C0 2.01 0 1.02 0 0 Z " fill="#D7AA5D" transform="translate(86,24)"/>
<path d="M0 0 C0.33 0 0.66 0 1 0 C1 1.98 1 3.96 1 6 C1.66 6.33 2.32 6.66 3 7 C2.01 7.66 1.02 8.32 0 9 C-0.99 8.67 -1.98 8.34 -3 8 C-2.79375 7.38125 -2.5875 6.7625 -2.375 6.125 C-2.25125 5.42375 -2.1275 4.7225 -2 4 C-2.66 3.34 -3.32 2.68 -4 2 C-2.68 2 -1.36 2 0 2 C0 1.34 0 0.68 0 0 Z " fill="#CFAE69" transform="translate(76,33)"/>
<path d="M0 0 C1.65 0 3.3 0 5 0 C5 1.65 5 3.3 5 5 C4.01 5 3.02 5 2 5 C2 4.34 2 3.68 2 3 C1.01 2.67 0.02 2.34 -1 2 C-0.67 1.34 -0.34 0.68 0 0 Z " fill="#D7AA5D" transform="translate(75,30)"/>
</svg>
