<svg width="176" height="151" viewBox="0 0 176 151" fill="none" xmlns="http://www.w3.org/2000/svg">
<path fill-rule="evenodd" clip-rule="evenodd" d="M102.169 0C90.3239 11.7359 67.6542 13.3678 74.1891 38.2675C59.1983 10.3529 40.2085 21.9837 20.3007 17.7168C29.8798 33.4506 22.7721 54.0953 57.8683 58.8203C-0.695971 65.9605 13.3828 95.9528 0 121.11C28.5276 113.858 59.5672 133.034 76.925 76.1751C69.6206 139.935 102.974 131.54 125.35 150.326C124.316 124.104 144.251 100.3 111.742 75.034C144.095 87.3189 153.927 68.0148 175.854 61.1572C153.386 52.0652 144.215 28.5796 103.304 46.0424C124.665 26.3967 105.662 16.0138 102.169 0ZM97.0243 17.4958C96.1683 22.3169 94.8014 29.5416 92.2353 38.3785C90.5095 44.305 88.6806 49.3874 87.0244 53.5793C87.4066 53.75 87.7688 53.9386 88.1084 54.1438C88.361 54.0403 88.6301 53.9382 88.8896 53.8352C90.2144 52.1861 91.5699 50.2766 92.8447 48.0462C96.4415 41.7129 97.7576 35.7263 98.2001 31.9214C97.7557 35.7423 96.663 41.7264 93.2236 48.2532C92.227 50.1566 91.1548 51.851 90.0791 53.3644C90.5848 53.1733 91.1203 52.9874 91.6494 52.8C92.7094 51.7677 93.796 50.6362 94.8877 49.384C97.4392 46.525 99.2971 43.85 100.337 42.1185C99.2543 43.9213 97.6665 46.5661 95.2178 49.6614C94.4313 50.6321 93.6424 51.5246 92.8584 52.3762C96.1312 51.2763 99.7963 50.2716 103.837 49.5285C109.201 48.612 113.474 48.4332 116.368 48.3215C113.576 48.4293 109.111 48.8833 103.94 50.05C99.2525 51.0453 95.1253 52.3703 91.5444 53.7608C91.1845 54.1265 90.8272 54.4869 90.4741 54.8272C94.8266 53.8345 99.9298 52.9655 105.652 52.544C114.259 51.9385 121.185 52.5309 125.726 53.0245C121.261 52.5392 114.158 52.1969 105.699 53.0733C99.7149 53.6734 94.4931 54.734 90.0901 55.8702C90.1644 55.9601 90.2354 56.0513 90.303 56.1436C94.845 55.6755 100.173 55.3829 106.106 55.544C115.221 55.7948 122.583 56.9967 127.946 58.0733C122.6 57.0652 115.036 56.0785 106.1 56.0753C100.311 56.0712 95.178 56.4779 90.78 57.0167C90.9919 57.4983 91.1177 57.997 91.155 58.503C97.8935 59.181 105.951 59.862 115.442 60.2784C129.246 60.891 140.832 60.7029 148.109 60.3819C140.615 60.7125 129.474 61.1479 115.424 60.8096C106.08 60.5799 97.9039 60.0473 91.104 59.4639C91.0301 59.9501 90.8755 60.4321 90.6431 60.9014C93.704 61.8721 97.1764 62.8176 101.077 63.587C111.9 65.6861 121.094 65.489 126.886 64.9425C121.049 65.4933 111.968 65.9493 100.984 64.1085C96.9826 63.4509 93.3692 62.5838 90.1891 61.6671C90.1281 61.7552 90.0642 61.8424 89.9977 61.9288C92.8213 63.2405 96.0349 64.592 99.6753 65.8585C104.876 67.7198 109.426 68.864 112.28 69.4171C109.295 68.8388 104.953 68.006 99.5093 66.3624C95.8547 65.2238 92.5705 63.9667 89.6754 62.7257C93.4684 65.4505 97.5636 68.9536 101.505 73.4206C105.347 77.9018 107.804 81.8708 109.431 84.5455C107.853 81.9522 105.026 77.9874 101.035 73.8466C96.8159 69.3421 92.5102 65.9311 88.5857 63.3057C88.365 63.4754 88.1323 63.6384 87.8885 63.794C91.4419 67.348 95.304 71.7979 98.9583 77.2588C103.509 84.1121 106.247 90.2477 108.05 94.8076C106.188 90.3027 103.12 84.1468 98.4349 77.6188C94.55 72.1636 90.5265 67.8202 86.88 64.369C86.7304 64.4412 86.578 64.5109 86.423 64.578C89.4335 68.6934 92.6958 73.7649 95.7217 79.7828C100.893 90.0716 103.394 99.0895 104.806 104.995C103.409 99.1529 100.567 90.0877 95.1592 80.0778C91.8915 74.026 88.4525 69.0359 85.337 65.006C84.8062 65.1873 84.2547 65.3389 83.6887 65.4591C86.4901 72.7171 90.1812 81.7139 95.0695 91.9998C101.511 105.577 107.738 116.509 111.885 123.265C107.629 116.332 101.348 105.921 94.4985 92.2797C89.4052 82.1209 85.4187 72.967 82.4847 65.6651C82.1173 65.7154 81.7469 65.7525 81.3753 65.7764C81.2906 65.7791 81.206 65.781 81.1214 65.7823C81.5328 70.0544 82.3046 75.0503 83.8069 80.5751C86.9996 92.1819 92.0082 100.927 95.6177 106.143C91.9862 100.894 86.754 92.3939 83.1979 80.7521C81.5253 75.3331 80.5701 70.3332 80.028 66.0333C79.856 70.2647 79.8899 75.231 80.4499 80.8241C81.0044 86.9863 82.0412 92.136 82.8736 95.2869C82.0055 92.001 80.7314 87.201 79.819 80.8981C79.0971 75.5338 78.8778 70.6522 78.9108 66.4513C76.9962 71.1162 74.2498 76.4193 70.2644 81.7911C66.6804 86.4812 63.3099 89.7096 61.0321 91.857C63.2406 89.7746 66.5285 86.1845 69.7488 81.4191C73.6716 75.7903 76.2627 70.3252 78.0378 65.5953C77.8506 65.5656 77.665 65.5324 77.4812 65.4957C74.672 69.948 70.9154 75.024 65.9813 80.0975C60.2275 85.9708 54.7975 89.9241 50.7135 92.6363C54.732 89.8783 60.1122 85.5966 65.5203 79.6595C70.1901 74.5704 73.6805 69.5796 76.3272 65.1987C76.1847 65.1541 76.0441 65.1072 75.9053 65.058C72.4869 68.8938 68.1606 73.1952 62.8395 77.4579C53.851 84.6557 45.5517 88.9748 40.0688 91.5847C45.493 89.0033 53.7696 84.339 62.4355 76.9679C67.5021 72.6601 71.556 68.405 74.7983 64.614C74.1528 64.3078 73.5699 63.9498 73.0621 63.5477C66.783 67.6749 59.2122 72.8889 50.7553 79.3595C38.8145 88.4843 29.4166 96.8483 23.6717 102.31C29.5679 96.7046 38.4445 88.3964 50.3623 78.8595C58.4733 72.3772 65.9582 66.9706 72.1761 62.7347C71.7063 62.2109 71.3539 61.6429 71.1292 61.0472C67.6138 62.2627 63.7212 63.8406 59.5863 65.9671C48.8975 71.504 41.3856 78.2209 37.0336 82.8358C41.4127 78.192 48.6375 71.306 59.2854 65.4061C63.3847 63.1191 67.3075 61.3758 70.8632 60.0291C70.8476 59.924 70.8359 59.8185 70.8281 59.7127C70.8285 59.6899 70.8292 59.6671 70.83 59.6444C67.1756 60.345 63.0835 61.3156 58.6442 62.7341C52.732 64.5581 47.9093 66.6433 44.9993 68.1129C48.0329 66.5804 52.4655 64.3358 58.4402 62.1325C62.7468 60.5931 66.7855 59.4818 70.424 58.6618C67.8101 58.1192 65.012 57.3701 62.0862 56.3123C57.9697 54.7582 54.9264 53.1126 52.8715 51.992C54.8546 53.0734 58.1493 54.596 62.2347 55.8826C65.3594 56.9156 68.324 57.6135 71.051 58.0838C71.1552 57.7443 71.2988 57.4093 71.4807 57.0818C68.7168 56.1157 65.7376 54.8913 62.637 53.3181C56.552 50.1995 52.1531 46.867 49.3321 44.6092C52.1094 46.8322 56.7357 50.0538 62.836 52.9099C66.0408 54.4266 69.0823 55.5703 71.8847 56.4626C72.062 56.2268 72.2596 55.9972 72.4764 55.7751C69.8506 54.4477 67.0248 52.8484 64.0957 50.9022C58.1676 46.9566 53.8758 43.0024 50.8578 39.9703C53.9 42.9472 58.4224 46.828 64.3417 50.5192C67.4184 52.4408 70.344 53.9787 73.0388 55.2437C73.5629 54.7982 74.1657 54.3941 74.8337 54.0406C70.8744 50.9214 66.1887 47.3716 60.5879 43.5037C51.563 37.2654 43.6471 32.6079 38.5672 29.8359C43.7812 32.6815 51.541 36.9926 60.8439 43.1268C66.608 46.9309 71.5308 50.511 75.6447 53.6496C76.2109 53.4018 76.8102 53.1898 77.4338 53.0168C75.9873 51.1195 74.279 49.0913 72.2268 47.0228C66.0676 40.8611 59.745 37.2183 55.5821 35.287C59.7672 37.2294 66.1469 40.6436 72.5449 46.6988C74.7681 48.7874 76.6356 50.8684 78.2089 52.8217C78.3629 52.7881 78.5179 52.7568 78.6737 52.728C77.5519 50.6192 76.1955 48.3233 74.5078 45.9137C72.0817 42.376 69.6778 39.6447 68.0782 38.0466C69.7401 39.7069 72.1815 42.1532 74.875 45.6461C76.7138 48.0795 78.2173 50.4367 79.4511 52.605C79.8352 52.5508 80.2225 52.5111 80.6113 52.4858C80.6556 52.4843 80.6998 52.4831 80.7441 52.4819C79.9952 49.8671 79.4275 46.8559 79.3164 43.4898C79.2575 39.9092 79.7185 37.1065 80.045 35.2419C79.7276 37.0547 79.4635 39.9961 79.7481 43.4684C79.97 46.8779 80.646 49.8847 81.4805 52.4663C81.7922 52.466 82.1031 52.4752 82.4121 52.4937C82.1632 49.68 82.1462 46.45 82.5976 42.9313C83.3455 37.2963 85.0056 32.9814 86.1894 30.2424C85.0184 32.9523 83.5338 37.4091 83.0253 42.9783C82.684 46.5446 82.8121 49.7723 83.1464 52.5583C83.3855 52.5838 83.6226 52.6151 83.8573 52.652C84.1317 49.8484 84.6707 46.6552 85.6483 43.2361C87.2962 37.4763 89.5869 33.0963 91.4607 29.9843C89.6426 33.1131 87.4908 37.6546 86.0643 43.3471C85.1946 46.8155 84.7704 49.9995 84.5819 52.7806C85.1802 52.91 85.7557 53.0767 86.3007 53.2786C88.0156 49.1571 89.9367 44.1908 91.8201 38.2519C94.567 29.6122 96.1867 22.2051 97.0232 17.4941L97.0243 17.4958ZM89.9287 54.4053C89.6203 54.5326 89.3213 54.6605 89.0224 54.7881C89.0216 54.7892 89.0213 54.7909 89.0205 54.792C89.1039 54.8573 89.1853 54.9237 89.2646 54.9912C89.4844 54.7998 89.7048 54.6063 89.9287 54.4053Z" fill="#D4A24C"/>
</svg>
