<svg width="72" height="46" viewBox="0 0 72 46" fill="none" xmlns="http://www.w3.org/2000/svg">
<g clip-path="url(#clip0_209_1005)">
<path d="M40.4823 -0.0640671C40.6612 -0.0669942 40.8401 -0.0699212 41.0245 -0.072937C43.7735 -0.0714744 46.0371 1.12853 47.9838 3.09935C49.9996 5.32854 50.698 8.06699 50.6666 11.0525C50.6291 12.2062 50.4219 13.4612 49.9218 14.5032C50.1306 14.4307 50.1306 14.4307 50.3436 14.3567C50.6887 14.3278 51.0347 14.311 51.3807 14.3018C51.5646 14.2946 51.7484 14.2874 51.9378 14.28C52.453 14.3567 52.453 14.3567 52.8666 14.6846C53.2395 15.2058 53.2506 15.4749 53.2166 16.1015C53.1284 16.5482 52.9497 16.7393 52.5936 16.9937C52.1237 17.1568 51.6978 17.1967 51.205 17.25C49.1808 17.5189 47.601 18.5158 45.8585 19.5619C45.0412 20.0502 44.2112 20.5085 43.3739 20.9582C41.7929 21.8089 40.2307 22.6924 38.6718 23.586C38.3988 23.7423 38.1258 23.8985 37.8527 24.0547C37.188 24.4352 36.5235 24.8161 35.8593 25.1975C35.9952 25.2596 36.1312 25.3217 36.2713 25.3857C37.3895 25.9066 38.4046 26.4583 39.3749 27.2484C39.5035 27.3464 39.5035 27.3464 39.6347 27.4464C41.4568 28.9252 42.7328 31.4746 43.0311 33.8408C43.1469 35.5306 43.0858 37.1636 42.7499 38.8217C42.8603 38.7565 42.9707 38.6914 43.0844 38.6243C44.443 37.8619 44.443 37.8619 44.9999 37.9152C45.5298 38.1338 45.7159 38.2961 45.9843 38.8217C46.0693 39.2352 46.1032 39.5872 45.9843 39.9937C45.5287 40.52 45.0906 40.8736 44.4896 41.2011C44.3343 41.2867 44.1791 41.3722 44.0192 41.4604C43.851 41.5514 43.6828 41.6424 43.5145 41.7333C43.2499 41.8779 42.9855 42.0229 42.7211 42.1678C42.5385 42.2679 42.3559 42.3677 42.1731 42.4674C41.5387 42.8141 40.9096 43.1696 40.2824 43.5302C40.0245 43.6775 39.7666 43.8246 39.5087 43.9718C39.2692 44.109 39.0306 44.2478 38.792 44.3868C36.1089 45.9092 33.0833 46.541 30.0673 45.7711C27.3108 44.8557 25.2124 42.9523 23.7957 40.3553C23.6249 39.9937 23.6249 39.9937 23.6249 39.7007C23.1335 39.9746 22.6422 40.2486 22.1509 40.5227C21.9733 40.6218 21.7957 40.7208 21.618 40.8199C20.4781 41.4555 19.3395 42.0935 18.2023 42.7345C17.4796 43.1413 16.7557 43.5457 16.0311 43.9491C15.9257 44.008 15.8202 44.067 15.7115 44.1278C12.9116 45.6839 9.96926 46.2255 6.89051 45.2675C4.24329 44.374 2.31486 42.4966 0.984261 39.9937C-0.210566 37.477 -0.460671 34.3992 0.368477 31.7086C1.92764 27.6502 4.95156 25.8546 8.54155 23.923C9.27666 23.5273 10.0034 23.1227 10.7196 22.6908C10.9686 22.5605 10.9686 22.5605 11.2499 22.5605C11.2434 22.3885 11.2368 22.2165 11.2301 22.0392C11.1478 18.9355 11.8246 16.2476 13.8326 13.8759C15.1308 12.4805 16.6999 11.5856 18.3427 10.7126C18.5565 10.5971 18.7703 10.4815 18.9839 10.3656C19.3023 10.1929 19.6208 10.0203 19.9396 9.84842C20.7585 9.40692 21.5695 8.95177 22.3768 8.48768C23.6302 7.76997 24.8923 7.07007 26.1561 6.37264C27.4373 5.66558 28.7167 4.95598 29.9882 4.23012C31.0937 3.59903 32.202 2.97348 33.3128 2.35267C33.4839 2.25706 33.6549 2.16137 33.8259 2.0656C34.3619 1.76547 34.8994 1.46827 35.4374 1.172C35.5609 1.1021 35.6845 1.03221 35.8117 0.960195C37.3492 0.114884 38.7538 -0.0740406 40.4823 -0.0640671ZM36.0175 4.01953C35.8498 4.11223 35.6822 4.20478 35.5144 4.29718C35.0185 4.57117 34.5247 4.84886 34.0311 5.12741C33.898 5.20253 33.7648 5.27764 33.6276 5.35503C33.1387 5.6315 32.6503 5.90895 32.1629 6.18823C31.0919 6.8013 30.0131 7.39822 28.9329 7.99359C26.9791 9.06888 26.9791 9.06888 25.0399 10.1724C24.9067 10.2486 24.9067 10.2486 24.7708 10.3264C24.33 10.5728 24.33 10.5728 24.0468 10.9873C24.1709 11.0283 24.2951 11.0692 24.423 11.1115C27.1251 12.0518 29.0485 13.7402 30.4013 16.3619C31.5764 18.9546 31.6406 21.6875 31.078 24.465C31.6688 24.2752 32.1937 24.0414 32.7369 23.7348C32.893 23.6472 33.0491 23.5595 33.21 23.4692C33.3782 23.3739 33.5465 23.2785 33.7147 23.1831C33.8908 23.084 34.0669 22.9849 34.2431 22.8859C34.6054 22.6822 34.9674 22.478 35.3293 22.2736C35.971 21.9113 36.6138 21.5511 37.2567 21.1911C37.7063 20.9392 38.1555 20.6866 38.6047 20.434C39.2312 20.0822 39.8591 19.7331 40.4878 19.3857C45.1059 16.9149 45.1059 16.9149 47.7772 12.4523C48.3132 10.2252 47.901 8.07105 46.8027 6.0991C45.6039 4.29274 43.8732 3.21257 41.8479 2.69705C41.4155 2.62561 40.9992 2.60657 40.5614 2.60034C40.3262 2.59468 40.3262 2.59468 40.0863 2.5889C38.5886 2.66299 37.3148 3.28843 36.0175 4.01953ZM15.7499 15.9682C15.6438 16.0766 15.5378 16.185 15.4285 16.2967C15.089 16.8655 15.1335 17.3025 15.1874 17.955C15.1958 18.0722 15.2042 18.1894 15.2129 18.3102C15.3824 20.2829 16.1049 22.0019 17.5077 23.3663C18.702 24.3816 19.703 24.468 21.2343 24.3185C22.1878 24.0825 22.8039 23.5476 23.3436 22.707C23.7702 21.9802 23.7089 21.1874 23.6249 20.3631C23.4199 19.692 23.2065 19.2912 22.6405 18.8981C22.2094 18.8182 21.8062 18.8193 21.3749 18.8981C20.9134 19.2687 20.715 19.4954 20.5311 20.0701C20.5032 20.3351 20.4802 20.6008 20.4608 20.8667C20.3853 21.8988 20.3853 21.8988 20.2499 22.2675C19.871 22.3991 19.5979 22.451 19.204 22.469C19.0969 22.4762 18.9897 22.4833 18.8793 22.4907C18.5624 22.414 18.5624 22.414 18.2454 22.105C17.7411 21.2352 17.8838 20.1281 18.1076 19.1694C18.5178 17.9314 18.965 17.1632 20.0922 16.5513C21.0885 16.0715 22.6499 16.0611 23.6952 16.4168C24.9441 17.0401 25.5596 18.0064 26.0155 19.3376C26.4284 20.856 26.3241 22.7881 25.5936 24.172C24.8504 25.4743 23.7364 26.3162 22.3593 26.7906C20.3148 27.3298 18.4518 27.0936 16.6046 26.0581C15.8991 25.6104 15.3467 25.0722 14.7655 24.465C15.1433 25.8976 16.4068 27.1294 17.6159 27.8882C19.4869 28.9257 21.5634 29.2252 23.6161 28.6218C25.9077 27.7754 27.2891 26.26 28.3644 24.0438C29.0782 22.252 29.0793 20.1247 28.4512 18.3058C27.5827 16.2795 26.1709 14.7468 24.2011 13.8852C21.0508 12.6517 18.0749 13.4856 15.7499 15.9682ZM4.19062 30.2184C3.65086 31.0698 3.87075 32.3089 3.99891 33.2828C4.34263 34.9636 5.1484 36.5881 6.46864 37.6497C7.5664 38.3506 8.562 38.4953 9.84364 38.3822C10.307 38.2464 10.6978 38.0541 11.1093 37.7962C11.2398 37.7146 11.3703 37.633 11.5048 37.549C12.093 36.9012 12.4017 36.1243 12.4452 35.2325C12.4124 34.512 12.1815 33.863 11.8124 33.2548C11.2187 32.8425 10.6818 32.8617 9.98426 32.9618C9.62196 33.238 9.47848 33.4296 9.28114 33.8408C9.24767 34.2779 9.22738 34.7149 9.20753 35.153C9.13363 35.6445 8.99847 35.9313 8.71864 36.3312C8.22075 36.5906 7.66028 36.5061 7.11903 36.432C7.00591 36.3821 7.00591 36.3821 6.89051 36.3312C6.49808 35.1048 6.5931 33.3996 7.13606 32.2408C7.61536 31.4132 8.1241 30.7827 9.00648 30.4216C10.2291 30.1368 11.8426 30.0539 12.9627 30.7083C14.0493 31.5682 14.6463 32.7474 14.9061 34.1338C15.032 35.9218 14.8666 37.5833 13.7268 39.0065C13.6519 39.0906 13.577 39.1746 13.4999 39.2612C13.4294 39.3407 13.3589 39.4202 13.2862 39.5021C11.9019 40.888 10.0605 41.0907 8.23963 41.0598C6.30864 40.9768 4.67303 39.8097 3.37489 38.3822C4.03149 40.2709 5.42315 41.4693 7.11903 42.3193C9.09935 43.1835 11.085 43.1384 13.0725 42.3107C15.0591 41.3717 16.4361 39.7915 17.2089 37.6772C17.8641 35.606 17.6575 33.595 16.787 31.625C15.8203 29.7206 14.2955 28.4302 12.3749 27.6879C9.25241 26.7396 6.41172 27.8265 4.19062 30.2184ZM27.1405 30.4714C27.058 30.5554 26.9756 30.6394 26.8906 30.726C26.6251 31.2377 26.6873 31.7401 26.7274 32.3026C26.7351 32.4203 26.7428 32.5381 26.7507 32.6594C26.9102 34.6668 27.672 36.4528 29.0911 37.8414C30.0561 38.6401 31.1721 38.8952 32.3881 38.7948C33.3339 38.6286 34.1805 38.168 34.798 37.3933C35.2675 36.5666 35.2774 35.653 35.1561 34.7198C34.9478 34.0486 34.7392 33.6489 34.1718 33.2548C33.7406 33.1749 33.3374 33.176 32.9061 33.2548C32.4446 33.6254 32.2463 33.8521 32.0624 34.4268C32.0354 34.8706 32.0178 35.314 32.0025 35.7584C31.9048 36.2742 31.7493 36.4473 31.3593 36.7707C30.9128 36.9421 30.676 36.9217 30.2079 36.8165C29.7492 36.5935 29.6994 36.5198 29.5311 36.0382C29.3633 34.4425 29.5736 33.0089 30.5331 31.7257C31.3729 30.825 32.2954 30.5869 33.4774 30.5538C34.6369 30.5944 35.6032 30.8032 36.4729 31.6416C37.6943 33.2056 37.8392 34.9865 37.6874 36.9172C37.3999 38.3838 36.6267 39.5366 35.455 40.3874C33.7993 41.4527 31.9079 41.7009 30.0211 41.2675C28.4858 40.8199 27.2591 39.845 26.1561 38.6752C26.6195 40.2198 27.9899 41.4757 29.2499 42.3376C31.083 43.2839 33.2443 43.6294 35.2352 42.9785C37.3295 42.1095 38.878 40.7027 39.8369 38.5653C40.5722 36.7202 40.6102 34.6766 39.9638 32.7941C39.1406 30.732 37.7039 29.106 35.7099 28.2281C32.5435 27.031 29.4653 27.942 27.1405 30.4714ZM19.6874 31.4968C19.757 31.8322 19.8266 32.1676 19.8983 32.5132C20.2866 34.5809 20.1659 36.4901 19.6874 38.5287C21.382 37.9944 21.382 37.9944 22.7811 36.9172C23.0624 36.1544 22.9491 35.3113 22.9176 34.5106C22.9289 33.4917 23.2511 32.4764 23.4843 31.4968C22.2313 31.4968 20.9783 31.4968 19.6874 31.4968Z" fill="#A3B38C"/>
<path d="M59.1717 14.8889C61.0061 16.0644 62.0163 18.5689 62.578 20.6561C62.7288 21.3377 62.867 22.0215 62.9999 22.707C63.1202 22.704 63.2404 22.7009 63.3644 22.6977C69.0946 22.5708 69.0946 22.5708 70.8749 24.0255C71.6771 24.8343 72.0197 25.3991 72.0614 26.58C72.038 28.4058 71.1249 29.6343 69.9416 30.8834C68.9074 31.9292 67.7783 32.8259 66.5155 33.5478C66.6239 34.4234 66.9007 35.213 67.1821 36.0405C67.8258 37.9842 68.2399 40.482 67.5614 42.4749C67.1921 43.2376 66.6391 43.7435 65.9085 44.1145C64.4592 44.6045 63.0547 44.1669 61.7343 43.5096C61.6043 43.4459 61.4743 43.3823 61.3404 43.3167C60.0411 42.6292 58.8045 41.6775 57.7968 40.5796C57.2775 40.811 56.9154 41.1511 56.496 41.541C54.7878 43.0685 52.6059 44.3805 50.3008 44.2896C49.4784 44.1865 48.8226 43.8295 48.2343 43.2166C47.1385 41.3525 47.3771 39.032 47.8428 36.9838C48.0604 36.0962 48.3446 35.2396 48.6627 34.3861C48.82 33.9886 48.82 33.9886 48.7968 33.5478C48.5125 33.3208 48.5125 33.3208 48.1376 33.1083C46.0477 31.7785 44.152 29.9914 43.3124 27.5414C43.1595 26.6247 43.1592 25.7995 43.6112 24.9777C44.5778 23.6472 45.9833 23.0656 47.5284 22.7616C48.4216 22.6468 49.3223 22.6773 50.2206 22.6887C50.4242 22.6902 50.6278 22.6915 50.8314 22.6927C51.3251 22.6959 51.8187 22.701 52.3124 22.707C52.3432 22.5527 52.374 22.3985 52.4058 22.2395C52.9382 19.6759 53.753 16.7606 55.828 15.0892C56.9596 14.3612 57.9773 14.27 59.1717 14.8889ZM57.1343 17.6495C55.6567 19.6368 55.0004 22.1127 54.7997 24.5852C54.6884 25.1212 54.5526 25.3057 54.1405 25.637C53.6045 25.8188 53.3026 25.785 52.7524 25.641C51.8885 25.4332 51.0331 25.4421 50.1503 25.4447C49.9879 25.4423 49.8254 25.44 49.6581 25.4375C48.3709 25.4368 47.0588 25.5588 45.9843 26.3695C46.0457 27.6487 47.0322 28.5558 47.8679 29.403C48.9768 30.4197 50.2068 31.1739 51.5274 31.8476C51.9229 32.1038 52.0568 32.2021 52.1718 32.6688C52.134 33.435 51.9293 33.9637 51.5741 34.6282C50.738 36.2629 50.1861 38.1563 50.1766 40.012C50.1737 40.2799 50.1737 40.2799 50.1706 40.5533C50.1677 41.0422 50.1677 41.0422 50.4843 41.4586C52.4679 41.4173 54.3957 39.8767 55.751 38.4619C56.0368 38.146 56.3095 37.8208 56.5773 37.4883C56.9329 37.0677 57.0762 37.0655 57.6298 37.0088C58.0936 37.0175 58.1911 37.0408 58.5702 37.3567C58.6862 37.5017 58.8022 37.6468 58.9218 37.7962C60.2578 39.3419 62.0528 40.8377 63.9843 41.4586C64.5117 41.487 64.5117 41.487 64.9686 41.4586C65.6144 40.1131 64.9714 37.969 64.5468 36.6242C64.215 35.6388 63.8428 34.675 63.3602 33.7584C63.1132 33.1921 63.0783 32.9569 63.2811 32.3758C63.6782 31.8936 64.0642 31.6539 64.6171 31.3961C65.9644 30.7131 67.0771 29.7735 68.1415 28.6859C68.2471 28.579 68.2471 28.579 68.3549 28.4698C68.8858 27.9094 69.3303 27.3699 69.3258 26.5549C69.2131 26.1993 69.2131 26.1993 68.8908 26.0284C68.7682 25.9838 68.6457 25.9393 68.5194 25.8933C68.3983 25.8473 68.2772 25.8012 68.1525 25.7537C67.2062 25.4562 66.302 25.4626 65.3202 25.463C65.1558 25.4627 64.9915 25.4624 64.8221 25.4621C63.8306 25.4674 62.9023 25.5174 61.9337 25.748C61.5003 25.7932 61.268 25.7135 60.8905 25.4905C60.5762 25.0377 60.5567 24.5717 60.5038 24.0255C60.211 21.7448 59.5661 19.0852 57.9374 17.4331C57.3929 17.3693 57.3929 17.3693 57.1343 17.6495Z" fill="#A3B38C"/>
<path d="M60.228 26.5903C61.1894 27.3968 61.7818 28.4772 62.0155 29.7389C62.1376 31.0792 61.9175 32.2632 61.1542 33.3647C60.3109 34.4118 59.2961 35.0694 57.9775 35.1959C56.6648 35.2522 55.5392 34.9748 54.5097 34.0972C53.6592 33.2494 53.089 32.2485 52.9683 31.0139C52.9508 29.4054 53.2159 28.2517 54.2921 27.0659C55.9598 25.4804 58.3343 25.2909 60.228 26.5903ZM56.1093 29.1529C55.7037 29.6599 55.6109 30.1034 55.6385 30.7655C55.7224 31.2665 55.9308 31.5601 56.2499 31.9363C56.8196 32.3234 57.2601 32.4787 57.9374 32.3758C58.4725 32.0698 58.9088 31.7684 59.203 31.2038C59.35 30.6131 59.3824 30.2868 59.1766 29.7114C58.8254 29.1435 58.5602 28.7832 57.9374 28.5669C57.1358 28.4881 56.727 28.6118 56.1093 29.1529Z" fill="#A3B38C"/>
</g>
<defs>
<clipPath id="clip0_209_1005">
<rect width="72" height="46" fill="white"/>
</clipPath>
</defs>
</svg>
