<svg width="179" height="46" viewBox="0 0 179 46" fill="none" xmlns="http://www.w3.org/2000/svg">
<g opacity="0.5">
<path fill-rule="evenodd" clip-rule="evenodd" d="M34.4029 44.1592C33.5673 45.3401 31.4591 41.2317 31.392 40.5686C31.1355 37.9996 29.2889 35.6369 28.0545 33.4776C23.7942 26.0279 8.27095 13.8069 13.0342 4.28301C20.5519 -10.7494 33.6083 18.1166 34.5211 24.5116C35.4219 30.8184 36.8166 40.7439 34.4029 44.1592Z" fill="#A3B38C"/>
<path fill-rule="evenodd" clip-rule="evenodd" d="M43.9101 39.1081C43.3119 39.5729 38.9103 43.3487 36.2532 44.6838C34.5318 45.5492 34.0529 44.2832 34.0909 44.174C35.168 41.2174 37.6048 35.6347 38.4845 32.644C41.1577 23.5609 48.3758 8.75578 59.1388 7.41068C60.9723 7.18233 63.0554 6.47623 64.7707 7.62001C76.7852 15.6255 48.9429 35.194 43.9101 39.1081Z" fill="#A3B38C"/>
<path fill-rule="evenodd" clip-rule="evenodd" d="M28.2196 43.5243C30.2465 44.1413 33.9728 45.1208 34.0018 44.9696C34.6942 41.2738 31.1002 37.7613 29.0642 36.4893C22.2309 32.2207 14.0279 25.9649 5.2067 26.8473C-3.47823 27.7156 0.0897241 35.5529 5.85095 38.4334C14.3455 42.679 19.7731 40.9543 28.2196 43.5243Z" fill="#A3B38C"/>
<path fill-rule="evenodd" clip-rule="evenodd" d="M78.7292 36.6594C78.101 38.5404 75.6993 45.0786 75.2895 44.7911C71.6424 42.2251 69.387 35.8011 68.9231 31.8629C68.1846 25.5861 64.4163 1.50959 76.0149 3.29337C87.5373 5.06514 80.8633 30.2544 78.7292 36.6594Z" fill="#A3B38C"/>
<path fill-rule="evenodd" clip-rule="evenodd" d="M75.2896 44.7501C75.0481 43.2558 76.0331 42.0128 79.2904 33.2191C82.9896 23.2365 90.5694 8.03382 102.51 5.79633C103.715 5.56998 105.029 5.23345 106.057 6.00465C113.88 11.8688 92.0873 32.3608 88.8711 35.1892C86.3291 37.4257 83.687 40.0097 81.0218 42.0809C80.3755 42.5847 75.5331 46.2444 75.2896 44.7501Z" fill="#A3B38C"/>
<path fill-rule="evenodd" clip-rule="evenodd" d="M117.353 45.1064C111.057 42.3561 107.991 16.0981 107.555 9.56693C107.256 5.07292 110.939 -1.70265 116.525 0.391619C124.815 3.49947 121.727 24.9089 120.906 32.0891C120.729 33.6395 118.346 45.1064 117.353 45.1064Z" fill="#A3B38C"/>
<path fill-rule="evenodd" clip-rule="evenodd" d="M116.46 43.5111C114.38 41.4138 117.603 35.8742 118.351 33.7218C119.711 29.8177 120.926 25.8656 123.358 22.4603C126.215 18.462 138.835 7.90155 143.596 12.66C146.341 15.4043 143.214 21.1903 141.719 23.5029C137.794 29.5653 132.215 36.1897 126.003 39.9165C124.638 40.7348 113.906 47.5975 116.46 43.5111Z" fill="#A3B38C"/>
<path fill-rule="evenodd" clip-rule="evenodd" d="M116.769 44.5647C117.603 43.3828 112.18 35.5887 111.388 34.3678C106.661 27.0974 91.0672 14.5328 83.2239 23.9415C80.6719 27.0023 84.6246 31.307 86.5614 33.5335C91.7034 39.4427 99.2751 39.682 106.381 41.4578C109.061 42.1279 115.933 45.7465 116.769 44.5647Z" fill="#A3B38C"/>
<path fill-rule="evenodd" clip-rule="evenodd" d="M147.23 45.0978C142.943 43.7977 144.921 27.7397 146.996 20.4794C148.082 16.6854 150.301 10.623 155.433 12.5961C166.914 17.0109 158.401 31.6087 153.414 37.5279C151.671 39.5982 149.88 41.5793 148.279 43.7607C147.728 44.5128 147.535 45.1909 147.23 45.0978Z" fill="#A3B38C"/>
<path fill-rule="evenodd" clip-rule="evenodd" d="M147.302 42.9146C147.999 39.4672 160.568 26.2035 166.124 23.1407C167.917 22.1512 176.517 17.1574 178.411 20.9403C182.388 28.8957 163.544 38.6699 158.788 40.9225C155.918 42.2816 152.771 43.0568 149.985 44.5892C149.046 45.104 147.077 44.0263 147.302 42.9146Z" fill="#A3B38C"/>
</g>
</svg>
