<svg width="124" height="96" viewBox="0 0 124 96" fill="none" xmlns="http://www.w3.org/2000/svg">
<g opacity="0.5">
<path fill-rule="evenodd" clip-rule="evenodd" d="M110.227 91.7177C109.467 90.0296 113.878 69.8051 115.145 68.093C122.838 57.7074 134.562 42.8228 146.782 40.0728C149.293 39.5077 163.899 37.6818 166.024 40.0728C168.264 42.5924 155.605 49.5001 154.308 50.5935C147.04 56.7269 137.942 59.8006 130.945 66.5464C126.02 71.2971 123.191 78.0078 118.055 82.4994C117.262 83.1959 110.227 92.6575 110.227 91.7177Z" fill="#789056"/>
<path d="M115.699 79.9053C115.573 79.8717 115.539 79.9193 115.539 79.6974C115.539 77.3522 123.347 67.4207 124.845 65.1995C129.008 59.0215 139.548 51.7175 146.024 48.3908C148.911 46.9088 151.825 45.8424 154.85 44.6018C155.071 44.5105 155.491 44.4797 155.491 44.2718" stroke="#2F7D7A" stroke-width="5.063" stroke-miterlimit="10" stroke-linecap="round" stroke-linejoin="round"/>
<path fill-rule="evenodd" clip-rule="evenodd" d="M99.7372 90.0666C101.4 93.5863 106.468 82.0582 104.139 66.2848C103.19 59.8507 104.845 35.7178 101.674 30.4688C96.7681 22.3473 98.0467 16.5714 89.5235 9.85291C89.0319 9.46548 86.9886 7.9349 86.5293 9.01971C81.4211 21.1012 93.5483 76.9706 99.7372 90.0666Z" fill="#789056"/>
<path d="M89.7154 15.1172C88.8496 25.8281 94.3215 37.2774 97.0828 47.5094C99.9931 58.2921 100.422 68.6318 100.422 79.9053" stroke="#2F7D7A" stroke-width="5.063" stroke-miterlimit="10" stroke-linecap="round" stroke-linejoin="round"/>
<path fill-rule="evenodd" clip-rule="evenodd" d="M103.785 92.7557C98.2333 94.4529 104.659 75.3621 103.816 71.0622C100.504 54.1469 107.953 37.8265 118.898 23.8574C123.488 17.9988 124.17 12.6813 131.495 9.56297C132.321 9.21315 133.155 8.47434 134.119 8.6702C136.795 9.21862 132.412 23.2953 131.67 26C127.634 40.7207 111.533 90.3862 103.785 92.7557Z" fill="#A3B38C"/>
<path d="M132.815 11.8773C132.82 12.1584 132.785 11.9827 132.66 12.1053C129.243 15.5155 127.223 21.3589 124.993 25.8073C119.936 35.8982 117.522 46.8921 113.974 57.5111C112.416 62.1695 110.995 66.7539 109.342 71.3726C108.684 73.2093 107.752 74.5792 106.627 76.1509C106.514 76.3095 105.407 77.7451 105.988 77.7451" stroke="#2F7D7A" stroke-width="5.063" stroke-miterlimit="10" stroke-linecap="round" stroke-linejoin="round"/>
<path fill-rule="evenodd" clip-rule="evenodd" d="M49.515 88.5269C55.1807 89.4644 48.7509 48.9581 48.0776 45.2605C46.0885 34.3212 34.1781 22.0809 27.1547 14.3577C25.7144 12.7743 25.1867 10.0544 23.6668 8.7186C22.2485 7.46963 22.735 21.0631 22.8468 23.1545C23.2765 31.1956 29.8217 46.0042 34.7443 51.7996C42.2515 60.6411 43.2108 87.4808 49.515 88.5269Z" fill="#A3B38C"/>
<path d="M25.919 16.1965C25.6752 17.7378 36.7003 32.0389 38.1205 35.053C44.5655 48.7257 47.5111 62.7415 47.5111 77.7451" stroke="#2F7D7A" stroke-width="5.063" stroke-miterlimit="10" stroke-linecap="round" stroke-linejoin="round"/>
<path fill-rule="evenodd" clip-rule="evenodd" d="M61.4587 92.8451C57.5629 92.4907 54.8419 74.3555 52.9142 68.7374C49.03 57.4147 47.1677 42.5199 47.5634 38.5553C48.0621 33.5685 49.7589 29.336 51.0034 24.6043C51.9982 20.8191 52.5211 11.148 56.253 8.65914C56.9935 8.16447 59.1316 16.3625 59.6921 19.1675C61.4274 27.8529 64.3033 39.5346 64.9417 48.159C65.2005 51.659 64.8656 55.1618 65.3034 58.67C65.7914 62.5764 65.1217 66.5246 65.8469 70.4474C68.1212 82.7558 66.9715 93.3461 61.4587 92.8451Z" fill="#A3B38C"/>
<path d="M57.2295 18.3568C61.2784 30.22 56.7497 44.0517 57.7726 56.5282C58.1628 61.2897 58.6205 66.2654 59.8061 70.8665C60.2514 72.5953 61.5487 74.9209 61.5487 76.666" stroke="#2F7D7A" stroke-width="5.063" stroke-miterlimit="10" stroke-linecap="round" stroke-linejoin="round"/>
<path fill-rule="evenodd" clip-rule="evenodd" d="M87.1775 92.8629C83.1321 92.8601 78.3499 73.0241 75.7524 66.9884C70.5195 54.8199 66.9746 38.49 66.9479 34.0559C66.9155 28.4756 68.1981 23.6092 68.9599 18.2381C69.5694 13.9409 69.0495 3.16743 72.6156 0.0312177C73.3229 -0.591986 76.4191 8.28706 77.3028 11.3397C80.0369 20.797 84.2725 33.4639 85.8727 42.9634C86.5219 46.8165 86.5607 50.7356 87.3945 54.5794C88.3234 58.8629 88.0667 63.3107 89.2413 67.5878C92.9274 81.0064 92.9034 92.8647 87.1775 92.8629Z" fill="#789056"/>
<path d="M72.4622 6.47876C72.1015 9.56687 73.658 12.8761 73.658 16.0268C73.658 18.3916 72.8426 20.7165 72.6068 23.0786C71.521 34.008 73.9611 45.8628 77.6863 56.0861C78.8158 59.186 79.8778 62.3793 81.1896 65.3795C81.4254 65.9197 81.463 70.187 82.0654 70.187" stroke="#2F7D7A" stroke-width="5.063" stroke-miterlimit="10" stroke-linecap="round" stroke-linejoin="round"/>
<path fill-rule="evenodd" clip-rule="evenodd" d="M41.1309 94.8632C45.6516 97.3413 41.4402 70.2077 40.6665 67.9388C39.8185 65.4508 33.3458 54.665 31.1773 51.9859C28.6297 48.838 17.6978 37.3761 13.5222 35.8275C11.5371 35.091 8.54811 35.3452 6.68054 34.1913C5.03232 33.1736 1.30912 30.7154 0.0601039 34.1913C-0.702522 36.3115 6.02804 47.1577 6.9008 48.5081C11.5977 55.7639 18.2117 60.217 24.5568 66.0971C31.8032 72.8147 38.8026 93.5841 41.1309 94.8632Z" fill="#789056"/>
<path d="M6.47949 39.9521C7.92217 41.4774 11.6397 41.3808 13.5606 42.6359C16.7142 44.6971 20.6909 47.7773 23.078 50.7018C26.5994 55.0165 36.9472 76.4783 42.1129 77.7451" stroke="#2F7D7A" stroke-width="5.063" stroke-miterlimit="10" stroke-linecap="round" stroke-linejoin="round"/>
</g>
</svg>
