<svg width="30" height="30" viewBox="0 0 30 30" fill="none" xmlns="http://www.w3.org/2000/svg">
<g clip-path="url(#clip0_211_1060)">
<path d="M29.9848 28.3688L28.2748 17.3344V10.7813C28.2709 10.242 28.0829 9.7201 27.7419 9.30221C27.4009 8.88431 26.9274 8.59545 26.3998 8.48349V7.0313C26.3975 7.01521 26.3944 6.99925 26.3904 6.98349C27.0481 6.60252 27.5745 6.0307 27.8998 5.3438L27.9064 5.33255C28.1433 4.83847 28.2679 4.29802 28.271 3.75005C28.2739 2.8989 27.9864 2.07223 27.456 1.40648C26.9257 0.740728 26.1843 0.275692 25.354 0.0881248C24.5238 -0.0994424 23.6544 0.00167045 22.8894 0.374775C22.1244 0.747879 21.5094 1.37067 21.146 2.14037C21.1395 2.1488 21.1367 2.15912 21.1301 2.16849C20.7252 3.0144 20.6573 3.98264 20.94 4.87681C21.2227 5.77098 21.835 6.52413 22.6526 6.98349C22.6486 6.99925 22.6455 7.01521 22.6432 7.0313V8.7263C22.5249 8.79101 22.4128 8.86665 22.3085 8.95224L19.8082 10.9454C19.5628 11.1462 19.2544 11.2541 18.9373 11.2501H16.0873C15.7284 11.2522 15.3776 11.3573 15.0767 11.5529C14.775 11.3559 14.4226 11.2507 14.0623 11.2501H11.2057C10.8864 11.25 10.5766 11.1412 10.3273 10.9416L7.8373 8.9513C7.7315 8.86698 7.61857 8.79201 7.4998 8.72724V7.0313C7.49755 7.01521 7.49442 6.99925 7.49042 6.98349C8.30826 6.52413 8.92064 5.77075 9.20323 4.87631C9.48583 3.98187 9.41745 3.01341 9.01198 2.16755C9.00636 2.15818 9.00355 2.1488 8.99698 2.14037C8.79201 1.68905 8.49931 1.28302 8.13593 0.945893C7.77255 0.608767 7.34575 0.347284 6.88036 0.176662C6.41497 0.0060398 5.9203 -0.070313 5.42512 -0.0479525C4.92995 -0.0255921 4.44416 0.0950348 3.99605 0.306908C3.54793 0.51878 3.14643 0.817667 2.81492 1.18617C2.4834 1.55468 2.2285 1.98544 2.06503 2.45339C1.90156 2.92134 1.8328 3.41713 1.86275 3.9119C1.8927 4.40668 2.02076 4.89055 2.23948 5.33537L2.2498 5.3438C2.57513 6.0307 3.10151 6.60252 3.75917 6.98349C3.75517 6.99925 3.75204 7.01521 3.7498 7.0313V8.48537C3.22056 8.5934 2.74489 8.88091 2.40323 9.29927C2.06157 9.71763 1.8749 10.2412 1.8748 10.7813V17.3082L0.160108 28.3735C0.106939 28.7359 0.195449 29.1048 0.407247 29.4037C0.619044 29.7025 0.937841 29.9082 1.29739 29.9781C1.65694 30.048 2.02959 29.9767 2.3379 29.7789C2.64621 29.5812 2.86648 29.2722 2.95292 28.9163L5.44292 20.9822L6.5398 22.1869L5.7748 28.3351C5.76155 28.4052 5.75558 28.4765 5.75698 28.5479C5.7559 28.9017 5.88429 29.2437 6.11796 29.5094C6.35162 29.7751 6.67441 29.9462 7.02547 29.9903C7.37654 30.0345 7.73164 29.9487 8.02382 29.7491C8.31601 29.5496 8.52509 29.25 8.61167 28.9069L10.1492 22.8394C10.2679 22.3658 10.2387 21.8672 10.0657 21.4107L8.4373 17.2557V14.0626L8.56198 14.1563C9.29312 14.7023 10.1807 14.9982 11.0932 15.0001H14.0623C14.4226 14.9994 14.775 14.8943 15.0767 14.6972C15.3776 14.8928 15.7284 14.9979 16.0873 15.0001H19.0498C19.9631 15.003 20.8522 14.7066 21.581 14.1563L21.7123 14.0626V17.2501L20.0801 21.4182C19.9079 21.8743 19.8791 22.3721 19.9976 22.8451L21.536 28.9135C21.6242 29.2551 21.8338 29.5528 22.1258 29.7509C22.4177 29.949 22.7719 30.0337 23.1219 29.9893C23.4719 29.9449 23.7936 29.7744 24.0269 29.5097C24.2601 29.2451 24.3888 28.9044 24.3889 28.5516C24.3906 28.49 24.3858 28.4285 24.3748 28.3679L23.6042 22.1869L24.701 20.9813L27.1817 28.8751C27.2593 29.2367 27.4745 29.554 27.7817 29.7598C28.089 29.9657 28.4642 30.0441 28.8282 29.9783C29.1922 29.9126 29.5163 29.7079 29.7322 29.4076C29.948 29.1072 30.0386 28.7347 29.9848 28.3688ZM2.8123 3.75005C2.81027 3.15854 2.99536 2.58153 3.34109 2.10156C3.68682 1.6216 4.17547 1.26326 4.73717 1.07779C5.29886 0.892329 5.90482 0.889245 6.46837 1.06898C7.03192 1.24872 7.5242 1.60207 7.8748 2.07849L4.1248 2.82193C4.01892 2.84354 3.92376 2.90107 3.85542 2.98478C3.78709 3.06849 3.74977 3.17324 3.7498 3.2813V4.68755H2.9848C2.87374 4.38732 2.81538 4.07016 2.8123 3.75005ZM3.54355 5.62505H4.21855C4.34287 5.62505 4.46209 5.57567 4.55 5.48776C4.63791 5.39985 4.6873 5.28062 4.6873 5.1563V3.66662L8.30698 2.94849C8.38952 3.20784 8.43343 3.47792 8.4373 3.75005C8.43936 4.31881 8.26831 4.87473 7.94686 5.34394C7.62542 5.81316 7.1688 6.17344 6.63769 6.37694C6.10658 6.58043 5.52612 6.61748 4.97345 6.48318C4.42077 6.34888 3.92205 6.04958 3.54355 5.62505ZM6.5623 7.36693V8.45349C6.49948 8.4488 6.43667 8.43755 6.3748 8.43755H4.6873V7.36693C4.99282 7.4512 5.30789 7.49594 5.6248 7.50005C5.9417 7.49594 6.25677 7.4512 6.5623 7.36693ZM2.0473 28.6772C2.02282 28.7617 1.97676 28.8383 1.91365 28.8996C1.85055 28.9608 1.77258 29.0046 1.68743 29.0265C1.60227 29.0485 1.51287 29.0479 1.42802 29.0248C1.34317 29.0017 1.26581 28.9568 1.20355 28.8947C1.1578 28.8429 1.12381 28.7818 1.10391 28.7156C1.084 28.6495 1.07866 28.5798 1.08823 28.5113L2.74573 17.8126H5.45511L2.0473 28.6772ZM9.1873 21.7501C9.29082 22.0256 9.30783 22.3262 9.23605 22.6116L7.7023 28.6726C7.67375 28.7824 7.61015 28.8799 7.52115 28.9503C7.43215 29.0207 7.32261 29.0601 7.20917 29.0626C7.13676 29.0606 7.06554 29.0437 6.99994 29.013C6.93434 28.9823 6.87578 28.9384 6.82792 28.884C6.78006 28.8296 6.74393 28.766 6.72177 28.697C6.69962 28.628 6.69193 28.5553 6.69917 28.4832L7.4998 22.0894C7.50843 22.0221 7.50235 21.9537 7.48195 21.8889C7.46155 21.8242 7.42734 21.7647 7.38167 21.7144L5.76823 19.9463L6.43761 17.8126H7.64886L9.1873 21.7501ZM11.0904 14.0626C10.3807 14.0609 9.69043 13.8308 9.12167 13.4063L6.3748 11.3438C6.32555 11.3069 6.26951 11.28 6.20988 11.2647C6.15025 11.2494 6.08819 11.2461 6.02725 11.2548C5.90418 11.2723 5.79314 11.3381 5.71855 11.4376C5.64395 11.537 5.61193 11.662 5.62951 11.7851C5.64709 11.9082 5.71284 12.0192 5.8123 12.0938L7.4998 13.3594V16.8751H2.8123V10.7813C2.8123 10.4083 2.96045 10.0507 3.22418 9.78693C3.4879 9.52321 3.84559 9.37505 4.21855 9.37505H6.3748C6.69414 9.37514 7.00394 9.48392 7.25323 9.68349L9.74323 11.6747C10.1588 12.006 10.6743 12.1867 11.2057 12.1876H12.1939L12.2201 14.0626H11.0904ZM14.0623 14.0626H13.1576L13.1314 12.1876H14.0623C14.3109 12.1876 14.5494 12.2863 14.7252 12.4621C14.901 12.638 14.9998 12.8764 14.9998 13.1251C14.9998 13.3737 14.901 13.6122 14.7252 13.788C14.5494 13.9638 14.3109 14.0626 14.0623 14.0626ZM16.0873 14.0626C15.9605 14.0621 15.8352 14.0359 15.7189 13.9857C15.8625 13.7217 15.9377 13.426 15.9377 13.1255C15.9377 12.825 15.8625 12.5293 15.7189 12.2654C15.8351 12.2148 15.9605 12.1883 16.0873 12.1876H16.8814L16.9076 14.0626H16.0873ZM24.5248 0.937553C25.2707 0.937553 25.9861 1.23387 26.5135 1.76132C27.041 2.28876 27.3373 3.00413 27.3373 3.75005C27.3342 4.07016 27.2758 4.38732 27.1648 4.68755H26.3998V3.2813C26.3998 3.17324 26.3625 3.06849 26.2942 2.98478C26.2258 2.90107 26.1307 2.84354 26.0248 2.82193L22.2748 2.07849C22.5342 1.72617 22.8724 1.43947 23.2625 1.24134C23.6525 1.04322 24.0836 0.939181 24.521 0.937553H24.5248ZM21.7123 3.75005C21.7162 3.47792 21.7601 3.20784 21.8426 2.94849L25.4623 3.66662V5.1563C25.4623 5.28062 25.5117 5.39985 25.5996 5.48776C25.6875 5.57567 25.8067 5.62505 25.931 5.62505H26.606C26.2275 6.04958 25.7288 6.34888 25.1761 6.48318C24.6235 6.61748 24.043 6.58043 23.5119 6.37694C22.9808 6.17344 22.5242 5.81316 22.2027 5.34394C21.8813 4.87473 21.7102 4.31881 21.7123 3.75005ZM25.4623 7.36693V8.43755H23.7748C23.7101 8.43755 23.6473 8.4488 23.5873 8.45349V7.36693C24.1997 7.54449 24.8499 7.54449 25.4623 7.36693ZM21.0176 13.4063C20.4509 13.8346 19.7592 14.0652 19.0489 14.0626H17.8451L17.8189 12.1876H18.9373C19.4703 12.1908 19.9879 12.0089 20.4017 11.6729L22.902 9.67974C23.1479 9.47848 23.457 9.37057 23.7748 9.37505H25.931C26.3029 9.37872 26.6584 9.52805 26.9214 9.79099C27.1843 10.0539 27.3336 10.4095 27.3373 10.7813V16.8751H22.6498V13.3566L24.3373 12.0938C24.3865 12.0569 24.428 12.0106 24.4594 11.9576C24.4908 11.9047 24.5114 11.846 24.5201 11.7851C24.5288 11.7242 24.5254 11.6621 24.5101 11.6025C24.4949 11.5428 24.468 11.4868 24.431 11.4376C24.3941 11.3883 24.3478 11.3468 24.2949 11.3155C24.2419 11.2841 24.1833 11.2635 24.1223 11.2548C24.0614 11.2461 23.9993 11.2494 23.9397 11.2647C23.8801 11.28 23.824 11.3069 23.7748 11.3438L21.0176 13.4063ZM22.7679 21.7144C22.7223 21.7647 22.688 21.8242 22.6676 21.8889C22.6472 21.9537 22.6412 22.0221 22.6498 22.0894L23.4523 28.5479C23.4527 28.6727 23.4075 28.7934 23.3251 28.8872C23.2428 28.9811 23.129 29.0416 23.0051 29.0573C22.8813 29.0731 22.7559 29.0431 22.6527 28.9729C22.5494 28.9028 22.4754 28.7973 22.4445 28.6763L20.906 22.6116C20.8342 22.3269 20.8506 22.0271 20.9529 21.7519L22.4998 17.8126H23.711L24.3748 19.9463L22.7679 21.7144ZM28.9423 28.8938C28.878 28.96 28.7967 29.0072 28.7073 29.0303C28.618 29.0534 28.524 29.0515 28.4356 29.0248C28.3473 28.9981 28.268 28.9476 28.2064 28.8789C28.1448 28.8101 28.1033 28.7258 28.0864 28.6351L24.6907 17.8126H27.4001L29.0576 28.5057C29.0679 28.5749 29.063 28.6456 29.0432 28.7128C29.0235 28.78 28.9894 28.8421 28.9432 28.8947L28.9423 28.8938Z" fill="black"/>
</g>
<defs>
<clipPath id="clip0_211_1060">
<rect width="30" height="30" fill="white"/>
</clipPath>
</defs>
</svg>
