<svg width="25" height="21" viewBox="0 0 25 21" fill="none" xmlns="http://www.w3.org/2000/svg">
<path d="M12.1052 7.47355C12.151 7.49102 12.2009 7.50006 12.2513 7.50006C12.3017 7.50006 12.3516 7.49102 12.3974 7.47355C13.0202 7.23792 13.5737 6.8918 14.0193 6.45937C14.6644 5.82679 15.0054 5.06827 15.0054 4.26581V2.96619C15.0054 2.89149 14.9711 2.81961 14.9096 2.76525C14.8482 2.7109 14.7641 2.67817 14.6746 2.67377C14.0857 2.64758 13.5122 2.50799 12.999 2.26595C12.8153 2.17713 12.6418 2.07431 12.4809 1.9588C12.4171 1.91292 12.3356 1.88768 12.2513 1.88768C12.167 1.88768 12.0855 1.91292 12.0217 1.9588C11.8608 2.07432 11.6874 2.17713 11.5037 2.26592C10.9904 2.50795 10.4169 2.64754 9.82806 2.67373C9.73857 2.67813 9.65448 2.71086 9.59299 2.76523C9.5315 2.81959 9.49725 2.89148 9.49725 2.96619V4.26581C9.49725 5.06831 9.83833 5.8269 10.4835 6.45945C10.9291 6.89185 11.4825 7.23794 12.1052 7.47355ZM10.2003 3.23275C10.7835 3.17223 11.3465 3.01585 11.8566 2.77267C11.993 2.7067 12.1248 2.63432 12.2513 2.55588C12.3779 2.63432 12.5097 2.7067 12.6461 2.77267C13.1562 3.01585 13.7192 3.17224 14.3024 3.23275V4.26581C14.3024 4.92737 14.0193 5.55468 13.4834 6.07999C13.1406 6.41278 12.7218 6.68542 12.2513 6.88206C11.7809 6.68546 11.3621 6.41285 11.0193 6.08011C10.4835 5.55475 10.2003 4.92741 10.2003 4.26581V3.23275ZM24.1471 9.42297C24.1144 9.39576 24.0757 9.37417 24.033 9.35944C23.9904 9.34472 23.9447 9.33714 23.8985 9.33714C23.8523 9.33714 23.8066 9.34472 23.7639 9.35944C23.7213 9.37417 23.6825 9.39576 23.6499 9.42297L21.6176 11.1167L16.7972 7.0146C17.1739 6.50445 17.4221 5.93574 17.5266 5.34311L18.8966 4.19319C18.9292 4.16589 18.9549 4.13351 18.9724 4.09792C18.9899 4.06232 18.9989 4.02419 18.9987 3.98572C18.9986 3.94724 18.9893 3.90917 18.9715 3.87368C18.9537 3.83818 18.9276 3.80596 18.8949 3.77885C18.8621 3.75174 18.8233 3.73027 18.7806 3.71567C18.7379 3.70107 18.6921 3.69363 18.646 3.69376C18.5998 3.6939 18.5541 3.70161 18.5115 3.71645C18.4689 3.7313 18.4303 3.753 18.3977 3.7803L17.5771 4.46917C17.5074 3.32416 16.9095 2.24588 15.9083 1.45966C14.9072 0.673427 13.5801 0.240081 12.2046 0.250172C10.829 0.260263 9.51135 0.71301 8.52692 1.5138C7.5425 2.3146 6.96749 3.40148 6.92204 4.54733L5.96852 3.77647C5.90143 3.72314 5.81177 3.69405 5.71908 3.69555C5.62638 3.69705 5.53815 3.72901 5.47359 3.78448C5.40903 3.83994 5.37338 3.91441 5.3744 3.99168C5.37541 4.06894 5.41301 4.14275 5.47901 4.19702L6.9907 5.41921C7.10488 5.99642 7.3555 6.54897 7.72801 7.0448L2.91439 11.1412L0.852722 9.42297C0.820209 9.39529 0.781433 9.37326 0.738636 9.35815C0.69584 9.34304 0.649873 9.33516 0.603396 9.33495C0.556919 9.33474 0.510854 9.34222 0.467867 9.35695C0.42488 9.37168 0.385824 9.39336 0.352959 9.42075C0.320094 9.44814 0.294073 9.48069 0.276401 9.51652C0.258729 9.55235 0.249757 9.59074 0.250005 9.62948C0.250253 9.66821 0.259714 9.70652 0.277843 9.74219C0.295972 9.77786 0.322408 9.81017 0.355621 9.83727L2.6064 11.7132C2.63629 11.7561 2.67912 11.7918 2.73066 11.8167L3.04023 12.0747C3.203 12.2112 3.39666 12.3195 3.60998 12.3931C3.82331 12.4668 4.05206 12.5045 4.28298 12.504C4.44653 12.504 4.60929 12.485 4.76659 12.4477C4.77549 12.6466 4.80144 12.8448 4.84425 13.0406C4.68046 13.1033 4.53139 13.1898 4.40405 13.2961L3.63234 13.9392C3.41931 14.1168 3.27424 14.343 3.21547 14.5893C3.15669 14.8355 3.18686 15.0908 3.30215 15.3228C3.41744 15.5548 3.61268 15.753 3.86318 15.8925C4.11367 16.032 4.40818 16.1065 4.70945 16.1065C4.75689 16.1065 4.80394 16.1045 4.85053 16.101C4.83084 16.2768 4.85539 16.4541 4.92263 16.6215C4.98987 16.789 5.0983 16.9429 5.241 17.0734C5.38369 17.2039 5.55751 17.3082 5.75132 17.3795C5.94513 17.4508 6.15467 17.4876 6.36654 17.4876C6.41373 17.4876 6.46056 17.4856 6.50696 17.4821C6.50274 17.5208 6.5004 17.5598 6.5004 17.5991C6.50032 17.7658 6.53968 17.9308 6.61621 18.0849C6.69275 18.2389 6.80496 18.3788 6.94643 18.4967C7.0879 18.6145 7.25586 18.708 7.4407 18.7717C7.62554 18.8354 7.82364 18.8681 8.02367 18.868C8.07054 18.868 8.11736 18.8662 8.16414 18.8625C8.15987 18.9014 8.15748 18.9407 8.15748 18.9802C8.15694 19.1469 8.1961 19.3122 8.27269 19.4662C8.34928 19.6203 8.46178 19.7602 8.60368 19.8778C8.88958 20.1155 9.27694 20.249 9.68077 20.249C10.0846 20.249 10.472 20.1156 10.7579 19.8779L11.2655 19.4548L11.7731 19.8779C11.9945 20.0627 12.279 20.186 12.5876 20.231C12.8963 20.276 13.214 20.2406 13.4976 20.1295C13.7812 20.0185 14.0168 19.8372 14.1722 19.6104C14.3276 19.3837 14.3953 19.1225 14.366 18.8625C14.413 18.8661 14.4601 18.8679 14.5073 18.868C14.7073 18.8681 14.9054 18.8354 15.0902 18.7717C15.275 18.7079 15.443 18.6145 15.5844 18.4967C15.7259 18.3788 15.8381 18.2389 15.9147 18.0849C15.9912 17.9309 16.0306 17.7658 16.0305 17.5991C16.0305 17.5598 16.0282 17.5208 16.024 17.4821C16.0704 17.4856 16.1171 17.4876 16.1643 17.4876C16.5683 17.4876 16.9557 17.3538 17.2414 17.1157C17.5271 16.8776 17.6876 16.5547 17.6876 16.218C17.6876 16.1787 17.6853 16.1397 17.6811 16.101C17.7275 16.1045 17.7742 16.1064 17.8214 16.1064C18.1227 16.1064 18.4172 16.032 18.6677 15.8925C18.9182 15.753 19.1134 15.5547 19.2287 15.3227C19.344 15.0908 19.3742 14.8355 19.3154 14.5893C19.2566 14.343 19.1116 14.1168 18.8985 13.9392L18.4725 13.5842C18.9678 13.2701 19.3907 12.8839 19.7206 12.4441C19.8827 12.4839 20.0507 12.504 20.2197 12.504C20.4506 12.5045 20.6793 12.4668 20.8926 12.3932C21.1059 12.3195 21.2996 12.2113 21.4623 12.0748L24.147 9.83731C24.1797 9.8101 24.2056 9.77781 24.2232 9.74226C24.2409 9.70671 24.25 9.66862 24.25 9.63014C24.25 9.59167 24.2409 9.55357 24.2232 9.51802C24.2056 9.48248 24.1797 9.45018 24.1471 9.42297ZM7.66971 5.24741C7.66924 5.24319 7.6683 5.23901 7.6676 5.23483C7.56137 4.6129 7.63895 3.97876 7.8936 3.38749C8.14825 2.79623 8.57226 2.26572 9.12881 1.84206C9.68536 1.4184 10.3576 1.1144 11.0871 0.95646C11.8167 0.798524 12.5815 0.791431 13.3151 0.935799C14.0486 1.08017 14.7288 1.37163 15.2966 1.78486C15.8643 2.1981 16.3023 2.72061 16.5727 3.30701C16.8431 3.8934 16.9376 4.52595 16.848 5.1497C16.7584 5.77344 16.4874 6.36953 16.0586 6.88617L16.0563 6.88894C15.5274 7.52628 14.7805 8.01609 13.9128 8.29453C13.0451 8.57298 12.097 8.62714 11.1918 8.44998C10.2867 8.27281 9.46654 7.87252 8.8383 7.30128C8.21006 6.73004 7.80284 6.01433 7.66971 5.24741ZM4.28298 11.918C4.14444 11.9183 4.00721 11.8957 3.87923 11.8515C3.75124 11.8073 3.63507 11.7424 3.53743 11.6604L3.41158 11.5556L8.14572 7.52675C8.42417 7.80649 8.7424 8.05696 9.09342 8.27266L5.02817 11.6608C4.93054 11.7426 4.81441 11.8074 4.6865 11.8516C4.55859 11.8958 4.42144 11.9183 4.28298 11.918ZM5.28942 15.3203C5.21326 15.3838 5.12285 15.4342 5.02333 15.4685C4.92382 15.5029 4.81717 15.5206 4.70945 15.5206C4.60174 15.5206 4.49508 15.5029 4.39557 15.4685C4.29606 15.4342 4.20564 15.3838 4.12949 15.3203C3.97568 15.1921 3.88927 15.0182 3.88927 14.8369C3.88927 14.6556 3.97568 14.4818 4.12949 14.3536L4.90115 13.7104C4.97719 13.6465 5.06764 13.5957 5.16729 13.561C5.26695 13.5263 5.37385 13.5083 5.48187 13.5081C5.58988 13.5079 5.69688 13.5255 5.79672 13.5598C5.89656 13.5942 5.98728 13.6447 6.06365 13.7083C6.14003 13.772 6.20058 13.8476 6.24181 13.9308C6.28303 14.014 6.30414 14.1032 6.3039 14.1932C6.30367 14.2832 6.2821 14.3723 6.24044 14.4554C6.19878 14.5384 6.13784 14.6138 6.06113 14.6772L5.28942 15.3203ZM6.36654 16.9016C6.25878 16.9019 6.15204 16.8843 6.0525 16.8499C5.95295 16.8155 5.86256 16.7651 5.78657 16.7014V16.7014C5.63299 16.5731 5.54674 16.3992 5.54674 16.218C5.54674 16.0368 5.63299 15.8629 5.78657 15.7346L6.55823 15.0915C6.71206 14.9633 6.9207 14.8912 7.13825 14.8912C7.3558 14.8912 7.56443 14.9633 7.71826 15.0915C7.87209 15.2197 7.95851 15.3936 7.95851 15.5749C7.95851 15.7562 7.87209 15.9301 7.71826 16.0583L6.94655 16.7014C6.87055 16.7651 6.78016 16.8156 6.6806 16.8499C6.58105 16.8843 6.4743 16.9019 6.36654 16.9016ZM7.44365 18.0825C7.28984 17.9543 7.20343 17.7804 7.20343 17.5991C7.20343 17.4178 7.28984 17.2439 7.44365 17.1157L8.21536 16.4726C8.36919 16.3444 8.57782 16.2723 8.79535 16.2723C9.01289 16.2723 9.22152 16.3444 9.37535 16.4726C9.52917 16.6008 9.61559 16.7746 9.61559 16.9559C9.61559 17.1373 9.52917 17.3111 9.37535 17.4393L8.60363 18.0825C8.4497 18.2105 8.24111 18.2824 8.02364 18.2824C7.80617 18.2824 7.59758 18.2105 7.44365 18.0825ZM11.0325 18.8204L10.2608 19.4635C10.1068 19.5916 9.89823 19.6635 9.68075 19.6635C9.46327 19.6635 9.25467 19.5916 9.10074 19.4635V19.4636C9.02457 19.4001 8.96415 19.3247 8.92293 19.2418C8.88171 19.1588 8.86049 19.0699 8.86049 18.9802C8.86049 18.8904 8.88171 18.8015 8.92293 18.7186C8.96415 18.6356 9.02457 18.5603 9.10074 18.4968L9.87245 17.8536C10.0263 17.7254 10.2349 17.6534 10.4524 17.6534C10.67 17.6534 10.8786 17.7254 11.0324 17.8536C11.1863 17.9818 11.2727 18.1557 11.2727 18.337C11.2727 18.5183 11.1863 18.6921 11.0325 18.8204ZM18.6417 14.8369C18.6417 14.9721 18.5936 15.1043 18.5035 15.2167C18.4133 15.3292 18.2852 15.4168 18.1353 15.4685C17.9855 15.5203 17.8205 15.5338 17.6614 15.5074C17.5023 15.481 17.3562 15.4159 17.2415 15.3203L14.7227 13.2211C14.69 13.1939 14.6513 13.1723 14.6086 13.1576C14.566 13.1428 14.5203 13.1352 14.4741 13.1352C14.4279 13.1352 14.3822 13.1428 14.3396 13.1575C14.2969 13.1723 14.2582 13.1938 14.2255 13.2211C14.1929 13.2483 14.167 13.2806 14.1493 13.3161C14.1316 13.3517 14.1225 13.3898 14.1225 13.4282C14.1225 13.4667 14.1316 13.5048 14.1493 13.5404C14.1669 13.5759 14.1928 13.6082 14.2255 13.6354L16.7443 15.7346C16.8214 15.7979 16.8827 15.8733 16.9247 15.9565C16.9667 16.0396 16.9886 16.1289 16.989 16.2191C16.9894 16.3093 16.9684 16.3987 16.9272 16.4821C16.8859 16.5655 16.8253 16.6413 16.7488 16.7051C16.6722 16.7689 16.5813 16.8194 16.4812 16.8538C16.3811 16.8882 16.2739 16.9057 16.1656 16.9053C16.0574 16.905 15.9503 16.8868 15.8505 16.8518C15.7507 16.8168 15.6603 16.7656 15.5843 16.7014L13.0656 14.6021C12.9997 14.5472 12.9103 14.5163 12.817 14.5163C12.7238 14.5163 12.6344 14.5472 12.5684 14.6021C12.5025 14.6571 12.4655 14.7316 12.4655 14.8093C12.4655 14.887 12.5025 14.9615 12.5684 15.0165L15.0872 17.1157C15.1646 17.1789 15.2262 17.2543 15.2684 17.3375C15.3107 17.4208 15.3327 17.5101 15.3333 17.6005C15.3338 17.6908 15.3128 17.7803 15.2716 17.8639C15.2304 17.9475 15.1697 18.0234 15.093 18.0873C15.0164 18.1511 14.9253 18.2017 14.825 18.2361C14.7248 18.2705 14.6174 18.2879 14.509 18.2875C14.4006 18.287 14.2933 18.2687 14.1935 18.2335C14.0937 18.1983 14.0032 18.1469 13.9273 18.0824L11.4085 15.9832C11.3758 15.956 11.3371 15.9344 11.2944 15.9197C11.2518 15.9049 11.2061 15.8973 11.1599 15.8973C11.1137 15.8973 11.068 15.9049 11.0253 15.9196C10.9827 15.9343 10.9439 15.9559 10.9113 15.9831C10.8786 16.0103 10.8527 16.0426 10.835 16.0782C10.8174 16.1137 10.8083 16.1518 10.8083 16.1903C10.8082 16.2288 10.8173 16.2669 10.835 16.3024C10.8526 16.338 10.8785 16.3703 10.9112 16.3975L13.43 18.4967C13.5071 18.56 13.5685 18.6354 13.6105 18.7185C13.6525 18.8017 13.6743 18.8909 13.6748 18.9811C13.6752 19.0714 13.6542 19.1607 13.613 19.2442C13.5718 19.3276 13.5112 19.4034 13.4346 19.4672C13.3581 19.531 13.2672 19.5815 13.1671 19.6159C13.067 19.6503 12.9598 19.6678 12.8515 19.6675C12.7433 19.6671 12.6362 19.649 12.5364 19.614C12.4366 19.579 12.3462 19.5279 12.2702 19.4636L11.7371 19.0193C11.8838 18.8274 11.9659 18.6061 11.9749 18.3787C11.9838 18.1512 11.9193 17.926 11.7879 17.7265C11.6566 17.527 11.4634 17.3605 11.2284 17.2446C10.9935 17.1286 10.7255 17.0675 10.4524 17.0675C10.4053 17.0675 10.3584 17.0694 10.312 17.0729C10.3163 17.0342 10.3186 16.9953 10.3186 16.956C10.3186 16.6193 10.1581 16.2964 9.87242 16.0583C9.58676 15.8202 9.19932 15.6864 8.79533 15.6864C8.74818 15.6864 8.70136 15.6883 8.65496 15.6919C8.65917 15.6532 8.66152 15.6142 8.66152 15.5749C8.66148 15.2382 8.50098 14.9153 8.21532 14.6772C7.92966 14.4391 7.54223 14.3054 7.13825 14.3053C7.09105 14.3053 7.04423 14.3073 6.99783 14.3108C7.00204 14.2721 7.00439 14.2331 7.00439 14.1938C7.00461 13.8647 6.85124 13.5483 6.5767 13.3117C6.30215 13.0751 5.92796 12.9368 5.53324 12.9259C5.47626 12.6603 5.45525 12.3902 5.47062 12.1206L5.52532 12.0751L5.52579 12.0747L5.52597 12.0745L9.68487 8.6084C9.68998 8.60414 9.69448 8.59961 9.69922 8.59512C10.2504 8.84674 10.851 9.01453 11.4728 9.09063L9.34816 11.0696C9.16214 11.243 9.06282 11.4692 9.07056 11.7018C9.0783 11.9343 9.19252 12.1556 9.38978 12.3201C9.76417 12.6314 10.2714 12.8062 10.8003 12.8062C11.3291 12.8062 11.8364 12.6314 12.2107 12.3201L14.0859 10.7569L18.4014 14.3536C18.4778 14.4169 18.5384 14.4922 18.5796 14.5752C18.6209 14.6582 18.642 14.7471 18.6417 14.8369ZM18.7549 12.5564C18.5234 12.7848 18.2599 12.9892 17.9701 13.1655L14.3913 10.1827C14.37 10.169 14.3509 10.1531 14.3343 10.1355C14.3017 10.1083 14.2629 10.0867 14.2203 10.072C14.1776 10.0572 14.1319 10.0496 14.0858 10.0496C14.0396 10.0496 13.9939 10.0572 13.9512 10.072C13.9086 10.0867 13.8698 10.1083 13.8372 10.1355L11.7135 11.9058C11.4711 12.1074 11.1427 12.2206 10.8002 12.2206C10.4578 12.2206 10.1294 12.1074 9.88693 11.9058C9.81666 11.8471 9.77598 11.7683 9.77324 11.6855C9.77049 11.6026 9.80589 11.522 9.87217 11.4602L12.3665 9.13692C13.2241 9.12237 14.0646 8.93447 14.8158 8.58938C14.8624 8.63977 14.9128 8.6876 14.9668 8.73258L18.9769 12.0747C19.0158 12.1071 19.0563 12.1377 19.0981 12.1667C18.9939 12.3027 18.8793 12.4328 18.7549 12.5564ZM20.9651 11.6606C20.8672 11.7422 20.751 11.8069 20.6231 11.8511C20.4952 11.8953 20.3581 11.918 20.2196 11.918C20.0811 11.918 19.944 11.8952 19.8161 11.851C19.6882 11.8068 19.572 11.7421 19.4742 11.6604L15.4639 8.31824C15.4459 8.30302 15.4286 8.28727 15.4119 8.27102C15.7731 8.04875 16.0994 7.78966 16.3834 7.4998L21.1204 11.5311L20.9651 11.6606Z" fill="#1C3B3A" stroke="#1C3B3A" stroke-width="0.5"/>
</svg>
