<svg width="61" height="61" viewBox="0 0 61 61" fill="none" xmlns="http://www.w3.org/2000/svg">
<path d="M55.0525 26.0521L32.1775 5.71875C31.7137 5.31127 31.1174 5.08655 30.5 5.08655C29.8826 5.08655 29.2863 5.31127 28.8225 5.71875L5.94749 26.0521C5.5587 26.396 5.28454 26.8507 5.16186 27.3551C5.03917 27.8594 5.07385 28.3893 5.26124 28.8733C5.44555 29.351 5.76984 29.7619 6.19161 30.0521C6.61339 30.3424 7.11299 30.4985 7.62499 30.5H10.1667V53.375C10.1667 54.0491 10.4344 54.6956 10.9111 55.1722C11.3877 55.6489 12.0342 55.9167 12.7083 55.9167H48.2916C48.9657 55.9167 49.6122 55.6489 50.0889 55.1722C50.5655 54.6956 50.8333 54.0491 50.8333 53.375V30.5H53.375C53.887 30.4985 54.3866 30.3424 54.8084 30.0521C55.2301 29.7619 55.5544 29.351 55.7387 28.8733C55.9261 28.3893 55.9608 27.8594 55.8381 27.3551C55.7154 26.8507 55.4413 26.396 55.0525 26.0521ZM33.0417 50.8333H27.9583V43.2083C27.9583 42.5342 28.2261 41.8878 28.7028 41.4111C29.1794 40.9344 29.8259 40.6667 30.5 40.6667C31.1741 40.6667 31.8206 40.9344 32.2972 41.4111C32.7739 41.8878 33.0417 42.5342 33.0417 43.2083V50.8333ZM45.75 50.8333H38.125V43.2083C38.125 41.1861 37.3216 39.2466 35.8917 37.8166C34.4617 36.3867 32.5223 35.5833 30.5 35.5833C28.4777 35.5833 26.5383 36.3867 25.1083 37.8166C23.6783 39.2466 22.875 41.1861 22.875 43.2083V50.8333H15.25V30.5H45.75V50.8333ZM14.3096 25.4167L30.5 11.0308L46.6904 25.4167H14.3096Z" fill="#A3B38C"/>
</svg>
