<svg width="61" height="61" viewBox="0 0 61 61" fill="none" xmlns="http://www.w3.org/2000/svg">
<rect width="60.1993" height="60.1993" rx="30.0997" fill="#E4E9DA"/>
<path d="M30.1671 35.4912C25.4982 35.4912 23.1243 32.3932 23.1092 24.623C23.1058 22.6506 23.3158 20.6531 25.1706 18.7949C26.3517 17.6105 28.0317 17.0107 30.1671 17.0107C32.3024 17.0107 33.9824 17.6105 35.1652 18.7966C37.0199 20.6531 37.23 22.6523 37.2266 24.6247C37.2098 32.3932 34.8359 35.4912 30.1671 35.4912ZM30.1671 18.6908C28.4719 18.6908 27.227 19.1142 26.3584 19.9827C25.2966 21.0462 24.7825 21.9988 24.7876 24.6213C24.801 31.3718 26.56 33.8129 30.1654 33.8129C33.7707 33.8129 35.5298 31.3718 35.5432 24.6213C35.5482 21.9988 35.0341 21.0462 33.9723 19.9827C33.1071 19.1142 31.8622 18.6908 30.1671 18.6908Z" fill="#263238"/>
<path d="M47.5486 35.266C46.8592 34.5748 45.9454 34.1529 44.9722 34.0766C43.999 34.0003 43.0306 34.2745 42.2419 34.8498C41.4144 34.2343 40.3845 33.9552 39.3595 34.0687C38.3345 34.1822 37.3906 34.6799 36.7179 35.4615C36.0451 36.243 35.6935 37.2505 35.7338 38.281C35.7741 39.3114 36.2033 40.2883 36.9351 41.015L40.9737 45.0601C41.3119 45.3929 41.7674 45.5794 42.2419 45.5794C42.7164 45.5794 43.1718 45.3929 43.51 45.0601L47.5486 41.015C48.3079 40.251 48.7341 39.2176 48.7341 38.1405C48.7341 37.0633 48.3079 36.0299 47.5486 35.266ZM46.6316 40.1175L42.593 44.1561C42.5471 44.2025 42.4924 44.2393 42.4321 44.2645C42.3718 44.2896 42.3072 44.3026 42.2419 44.3026C42.1765 44.3026 42.1119 44.2896 42.0516 44.2645C41.9913 44.2393 41.9366 44.2025 41.8907 44.1561L37.8521 40.098C37.342 39.5766 37.0564 38.8763 37.0564 38.147C37.0564 37.4176 37.342 36.7173 37.8521 36.196C38.3718 35.6828 39.0727 35.3951 39.8031 35.3951C40.5334 35.3951 41.2344 35.6828 41.7541 36.196C41.8146 36.2569 41.8865 36.3053 41.9657 36.3383C42.045 36.3713 42.13 36.3883 42.2158 36.3883C42.3017 36.3883 42.3867 36.3713 42.466 36.3383C42.5452 36.3053 42.6171 36.2569 42.6776 36.196C43.1973 35.6828 43.8983 35.3951 44.6286 35.3951C45.3589 35.3951 46.0599 35.6828 46.5796 36.196C47.0967 36.7105 47.3916 37.407 47.4014 38.1364C47.4111 38.8657 47.1348 39.5699 46.6316 40.098V40.1175Z" fill="#1C3B3A"/>
<path d="M30.1671 35.4912C25.4982 35.4912 23.1243 32.3932 23.1092 24.623C23.1058 22.6506 23.3158 20.6531 25.1706 18.7949C26.3517 17.6105 28.0317 17.0107 30.1671 17.0107C32.3024 17.0107 33.9824 17.6105 35.1652 18.7966C37.0199 20.6531 37.23 22.6523 37.2266 24.6247C37.2098 32.3932 34.8359 35.4912 30.1671 35.4912ZM30.1671 18.6908C28.4719 18.6908 27.227 19.1142 26.3584 19.9827C25.2966 21.0462 24.7825 21.9988 24.7876 24.6213C24.801 31.3718 26.56 33.8129 30.1654 33.8129C33.7707 33.8129 35.5298 31.3718 35.5432 24.6213C35.5482 21.9988 35.0341 21.0462 33.9723 19.9827C33.1071 19.1142 31.8622 18.6908 30.1671 18.6908Z" stroke="#1C3B3A" stroke-width="1.73424"/>
<path d="M47.5486 35.266C46.8592 34.5748 45.9454 34.1529 44.9722 34.0766C43.999 34.0003 43.0306 34.2745 42.2419 34.8498C41.4144 34.2343 40.3845 33.9552 39.3595 34.0687C38.3345 34.1822 37.3906 34.6799 36.7179 35.4615C36.0451 36.243 35.6935 37.2505 35.7338 38.281C35.7741 39.3114 36.2033 40.2883 36.9351 41.015L40.9737 45.0601C41.3119 45.3929 41.7674 45.5794 42.2419 45.5794C42.7164 45.5794 43.1718 45.3929 43.51 45.0601L47.5486 41.015C48.3079 40.251 48.7341 39.2176 48.7341 38.1405C48.7341 37.0633 48.3079 36.0299 47.5486 35.266ZM46.6316 40.1175L42.593 44.1561C42.5471 44.2025 42.4924 44.2393 42.4321 44.2645C42.3718 44.2896 42.3072 44.3026 42.2419 44.3026C42.1765 44.3026 42.1119 44.2896 42.0516 44.2645C41.9913 44.2393 41.9366 44.2025 41.8907 44.1561L37.8521 40.098C37.342 39.5766 37.0564 38.8763 37.0564 38.147C37.0564 37.4176 37.342 36.7173 37.8521 36.196C38.3718 35.6828 39.0727 35.3951 39.8031 35.3951C40.5334 35.3951 41.2344 35.6828 41.7541 36.196C41.8146 36.2569 41.8865 36.3053 41.9657 36.3383C42.045 36.3713 42.13 36.3883 42.2158 36.3883C42.3017 36.3883 42.3867 36.3713 42.466 36.3383C42.5452 36.3053 42.6171 36.2569 42.6776 36.196C43.1973 35.6828 43.8983 35.3951 44.6286 35.3951C45.3589 35.3951 46.0599 35.6828 46.5796 36.196C47.0967 36.7105 47.3916 37.407 47.4014 38.1364C47.4111 38.8657 47.1348 39.5699 46.6316 40.098V40.1175Z" stroke="#1C3B3A" stroke-width="1.73424"/>
</svg>
