<svg width="30" height="30" viewBox="0 0 30 30" fill="none" xmlns="http://www.w3.org/2000/svg">
<g clip-path="url(#clip0_211_1064)">
<path d="M15 0C6.72231 0 0 6.72231 0 15C0 23.2777 6.72231 30 15 30C23.2777 30 30 23.2777 30 15C30 6.72231 23.2777 0 15 0ZM15 1.15385C22.6535 1.15385 28.8462 7.34654 28.8462 15C28.8462 22.6535 22.6535 28.8462 15 28.8462C7.34654 28.8462 1.15385 22.6535 1.15385 15C1.15385 7.34654 7.34654 1.15385 15 1.15385ZM18.4615 6.93923C16.5577 6.93923 15 8.49577 15 10.4008C15 11.475 15.5065 12.4258 16.2808 13.0615C15.8282 13.206 15.391 13.395 14.9758 13.6258C14.85 11.8315 13.3615 10.4008 11.5385 10.4008C9.63461 10.4008 8.07692 11.9573 8.07692 13.8623C8.07692 14.9423 8.58808 15.8965 9.36923 16.5323C8.0104 16.9686 6.80643 17.788 5.90192 18.8919L5.76923 19.0523V21.9231H17.3077V19.0431L17.175 18.8827C17.0562 18.7396 16.9258 18.6104 16.7988 18.4777H24.2308V15.5815L24.0981 15.4212C23.9084 15.1921 23.7057 14.974 23.4912 14.7681C22.6854 13.9893 21.7121 13.4051 20.6458 13.0604C21.0427 12.7394 21.3633 12.3341 21.5842 11.8739C21.8051 11.4137 21.9209 10.9101 21.9231 10.3996C21.9231 8.49461 20.3654 6.93923 18.4615 6.93923ZM18.4615 8.09308C19.7423 8.09308 20.7692 9.12 20.7692 10.4008C20.7692 11.6815 19.7423 12.7085 18.4615 12.7085C17.1808 12.7085 16.1538 11.6815 16.1538 10.4008C16.1538 9.12 17.1808 8.09308 18.4615 8.09308ZM11.5385 11.5546C12.8192 11.5546 13.8462 12.5815 13.8462 13.8623C13.8462 15.1431 12.8192 16.17 11.5385 16.17C10.2577 16.17 9.23077 15.1431 9.23077 13.8623C9.23077 12.5815 10.2577 11.5546 11.5385 11.5546ZM17.8846 13.9027V16.17H19.0385V13.9038C20.4132 14.0389 21.7012 14.637 22.6915 15.6C22.8265 15.7304 22.9523 15.8735 23.0769 16.0154V17.3227H15.4154C14.8861 16.9842 14.3147 16.7165 13.7158 16.5265C14.1542 16.1665 14.5119 15.7108 14.7346 15.1788C15.6412 14.4612 16.7342 14.0191 17.8846 13.9027ZM10.9615 17.3481V19.6315H12.1154V17.3481C13.4204 17.4773 14.7035 18.0404 15.7685 19.0627C15.9035 19.1931 16.0292 19.3362 16.1538 19.4781V20.7692H6.92308V19.5185C8.03654 18.24 9.47077 17.4992 10.9615 17.3492V17.3481Z" fill="black"/>
</g>
<defs>
<clipPath id="clip0_211_1064">
<rect width="30" height="30" fill="white"/>
</clipPath>
</defs>
</svg>
