<svg width="31" height="31" viewBox="0 0 31 31" fill="none" xmlns="http://www.w3.org/2000/svg">
<g clip-path="url(#clip0_306_300)">
<path d="M13.6472 26.3443L13.4462 26.3202L13.6293 24.7714C13.6838 24.3116 13.6371 23.8455 13.4923 23.4058C13.3476 22.966 13.1084 22.5632 12.7915 22.2257L7.38494 16.4556L8.11635 12.774C8.15659 12.5713 8.15564 12.3626 8.11356 12.1603C8.07147 11.958 7.98912 11.7663 7.87138 11.5964C7.75365 11.4266 7.60296 11.2822 7.42827 11.1719C7.25358 11.0615 7.05847 10.9874 6.85455 10.954C6.77173 10.9405 6.68797 10.9337 6.60407 10.9336C6.27594 10.9327 5.95616 11.037 5.69172 11.2313C5.42727 11.4255 5.23209 11.6995 5.13484 12.0129L3.66125 16.7116C3.39436 17.5659 3.41417 18.4841 3.71768 19.3261L4.79662 22.307C5.05552 23.0219 5.50867 23.6505 6.10516 24.1221L6.77771 24.6537C6.92003 24.7669 7.03838 24.9072 7.12586 25.0666C7.21334 25.226 7.26819 25.4013 7.28722 25.5821C6.94476 25.5506 6.60351 25.6538 6.33588 25.8698C6.06826 26.0858 5.89532 26.3975 5.85377 26.7389L5.75871 27.5313L5.75859 27.5317V27.5321L5.51931 29.5263C5.50558 29.6456 5.53964 29.7654 5.61404 29.8597C5.68844 29.9539 5.79713 30.0148 5.91633 30.0291C6.03553 30.0434 6.15555 30.0099 6.25013 29.936C6.34471 29.862 6.40616 29.7536 6.42103 29.6345L6.60546 28.0972L13.7449 29.0052L13.5665 30.4918C13.5587 30.5514 13.5627 30.6119 13.5784 30.6699C13.5941 30.7279 13.6212 30.7822 13.658 30.8297C13.6948 30.8771 13.7407 30.9168 13.793 30.9464C13.8453 30.976 13.9029 30.9949 13.9626 31.0021C14.0222 31.0093 14.0827 31.0045 14.1405 30.9881C14.1984 30.9718 14.2523 30.9441 14.2994 30.9067C14.3464 30.8693 14.3855 30.8229 14.4145 30.7703C14.4435 30.7176 14.4617 30.6598 14.4682 30.6L14.6997 28.6702L14.7 28.6688L14.7001 28.667L14.8027 27.8127C14.8232 27.6404 14.8097 27.4658 14.7627 27.2987C14.7158 27.1317 14.6364 26.9755 14.5291 26.8392C14.4218 26.7028 14.2887 26.5889 14.1374 26.504C13.9861 26.4191 13.8196 26.3648 13.6473 26.3443H13.6472ZM6.66849 23.4097C6.20449 23.0429 5.85196 22.5539 5.65051 21.9978L4.57157 19.0168C4.33554 18.362 4.32012 17.648 4.52767 16.9837L6.00138 12.2848C6.04126 12.1562 6.12131 12.0438 6.22978 11.9641C6.33826 11.8843 6.46944 11.8415 6.60407 11.8418C6.63895 11.8418 6.67377 11.8447 6.70821 11.8503C6.79186 11.864 6.87189 11.8945 6.94353 11.9398C7.01517 11.9851 7.07696 12.0444 7.12522 12.1141C7.17349 12.1838 7.20724 12.2625 7.22447 12.3455C7.2417 12.4285 7.24206 12.5141 7.22552 12.5973L6.48709 16.3142C6.08295 16.5926 5.7956 17.0102 5.67997 17.4872C5.56434 17.9641 5.62854 18.467 5.86031 18.8995L7.14693 21.3063C7.20372 21.4125 7.30038 21.4918 7.41564 21.5268C7.47271 21.5441 7.53263 21.55 7.59198 21.5441C7.65133 21.5382 7.70895 21.5208 7.76154 21.4926C7.81413 21.4645 7.86067 21.4263 7.8985 21.3802C7.93633 21.3341 7.96471 21.281 7.98201 21.2239C7.99932 21.1669 8.00521 21.1069 7.99936 21.0476C7.99351 20.9882 7.97602 20.9306 7.9479 20.878L6.66116 18.4711C6.57615 18.3137 6.53176 18.1377 6.53202 17.9588C6.53167 17.6758 6.64141 17.4037 6.83802 17.2002L12.1288 22.8467C12.3551 23.0877 12.526 23.3754 12.6294 23.6896C12.7328 24.0037 12.7662 24.3366 12.7273 24.665L12.5445 26.212L8.20232 25.691C8.19704 25.3538 8.11704 25.0219 7.96809 24.7194C7.81914 24.4168 7.60494 24.151 7.34092 23.9412L6.66849 23.4097ZM13.9009 27.7045L13.8531 28.1033L6.71366 27.1954L6.75543 26.8471C6.76892 26.7385 6.82492 26.6396 6.91115 26.5722C6.99739 26.5047 7.10684 26.4742 7.21553 26.4873L7.67823 26.5428H7.67853L13.539 27.246C13.6478 27.2588 13.7471 27.3143 13.8149 27.4003C13.8828 27.4863 13.9137 27.5957 13.9009 27.7045ZM20.146 13.5101C21.4044 11.7259 22.0696 9.68819 22.0696 7.61706V2.84209C22.0696 2.73361 22.0307 2.62872 21.9601 2.5464C21.8895 2.46407 21.7917 2.40974 21.6845 2.39326C20.5274 2.21632 19.396 1.90028 18.3147 1.45199C17.4318 1.08636 16.5908 0.62698 15.806 0.0817581C15.7275 0.0269557 15.6337 -0.00163502 15.538 7.22435e-05C15.4423 0.00177951 15.3496 0.0336974 15.2731 0.0912639C14.6976 0.522943 14.0833 0.900236 13.4381 1.21828C12.1449 1.85016 10.7557 2.26251 9.32722 2.43842C9.21768 2.45248 9.11702 2.50598 9.04407 2.58889C8.97112 2.6718 8.93088 2.77846 8.93088 2.88889V7.61712C8.93088 9.68819 9.59599 11.7259 10.8545 13.5101C11.9448 15.0558 13.4752 16.4012 15.2803 17.4007C15.3476 17.438 15.4233 17.4575 15.5002 17.4575C15.5772 17.4575 15.6529 17.438 15.7202 17.4007C17.5252 16.4012 19.0557 15.0558 20.146 13.5101ZM15.5002 16.4817C13.9101 15.5626 12.5641 14.3583 11.5966 12.9865C10.4468 11.3564 9.83909 9.49964 9.83909 7.61712V3.28317C11.2288 3.0727 12.5782 2.65094 13.8404 2.03252C14.4383 1.73749 15.0118 1.39548 15.5556 1.0097C16.3165 1.5123 17.1236 1.94117 17.9659 2.29051C18.9941 2.71712 20.0655 3.03101 21.1614 3.22668V7.61712C21.1614 9.49964 20.5536 11.3565 19.4039 12.9865C18.4363 14.3583 17.0903 15.5626 15.5002 16.4817ZM20.2531 4.32706C20.2531 4.22578 20.2193 4.1274 20.157 4.04756C20.0946 3.96773 20.0074 3.91103 19.9091 3.88646C19.1273 3.69124 18.3611 3.43804 17.6169 3.12896C16.9947 2.87029 16.39 2.57123 15.8068 2.23371C15.7359 2.19262 15.6552 2.17148 15.5732 2.17253C15.4913 2.17357 15.4111 2.19676 15.3413 2.23965C14.9846 2.45868 14.618 2.66126 14.2427 2.84675C13.2414 3.33916 12.1864 3.71417 11.0989 3.96433C10.999 3.98748 10.9098 4.04381 10.8459 4.12414C10.7821 4.20447 10.7473 4.30406 10.7473 4.40668V7.61712C10.7473 9.31122 11.2976 10.9869 12.3388 12.463C13.0882 13.5255 14.0668 14.4649 15.2476 15.2552C15.3224 15.3052 15.4103 15.3319 15.5002 15.3319C15.5902 15.3319 15.6781 15.3052 15.7528 15.2552C16.9336 14.4649 17.9123 13.5255 18.6617 12.463C19.7028 10.9869 20.2531 9.31122 20.2531 7.61712V4.32706ZM19.3449 7.61712C19.3449 9.1228 18.8521 10.6174 17.9195 11.9396C17.2527 12.8653 16.4349 13.6721 15.5002 14.3263C14.5656 13.6721 13.7477 12.8652 13.0809 11.9394C12.1484 10.6173 11.6555 9.12274 11.6555 7.617V4.76348C12.6876 4.50084 13.6896 4.13132 14.6451 3.66093C14.9646 3.503 15.2783 3.33343 15.5855 3.15257C16.1304 3.45592 16.6922 3.72801 17.268 3.96754C17.9444 4.24852 18.6381 4.48579 19.3449 4.67787V7.61712ZM27.3393 16.7119L25.8656 12.0127C25.7476 11.6365 25.4898 11.3199 25.1454 11.1279C24.801 10.936 24.3961 10.8835 24.0141 10.981C23.6321 11.0786 23.302 11.3189 23.0918 11.6525C22.8816 11.9861 22.8072 12.3875 22.8841 12.7743L23.6155 16.4556L18.2089 22.2257C17.892 22.5632 17.6528 22.966 17.5081 23.4058C17.3634 23.8456 17.3166 24.3118 17.3712 24.7716L17.5542 26.3202L17.3532 26.3443C17.1809 26.3648 17.0144 26.4191 16.8631 26.504C16.7118 26.5889 16.5787 26.7028 16.4714 26.8392C16.3641 26.9755 16.2847 27.1317 16.2378 27.2987C16.1909 27.4657 16.1773 27.6404 16.1978 27.8126L16.3003 28.6671L16.3005 28.6688L16.3007 28.6702L16.5322 30.6C16.5392 30.6594 16.5578 30.7167 16.587 30.7689C16.6161 30.821 16.6553 30.8669 16.7022 30.9038C16.7492 30.9408 16.8029 30.9681 16.8604 30.9843C16.9179 31.0005 16.9781 31.0051 17.0374 30.998C17.0967 30.9909 17.154 30.9721 17.2061 30.9428C17.2581 30.9135 17.3039 30.8742 17.3407 30.8272C17.3775 30.7802 17.4047 30.7263 17.4208 30.6688C17.4368 30.6112 17.4412 30.5511 17.434 30.4918L17.2556 29.0052L24.395 28.0972L24.5794 29.6345C24.5943 29.7536 24.6557 29.862 24.7503 29.936C24.8449 30.0099 24.9649 30.0434 25.0841 30.0291C25.2033 30.0148 25.312 29.9539 25.3864 29.8597C25.4608 29.7654 25.4949 29.6456 25.4811 29.5263L25.2418 27.5321V27.5317L25.2418 27.5313L25.1467 26.7389C25.105 26.3976 24.932 26.0859 24.6644 25.87C24.3968 25.654 24.0557 25.5508 23.7132 25.5821C23.7322 25.4013 23.7871 25.2261 23.8745 25.0667C23.962 24.9073 24.0803 24.7669 24.2226 24.6537L24.8955 24.122C25.4919 23.6504 25.945 23.0218 26.2039 22.3069L27.2827 19.3263C27.5862 18.4843 27.6061 17.5662 27.3393 16.7119ZM23.7849 26.4873C23.8936 26.4742 24.003 26.5048 24.0892 26.5722C24.1755 26.6396 24.2315 26.7385 24.245 26.8471L24.2868 27.1954L17.1474 28.1033L17.0996 27.7045C17.0868 27.5957 17.1177 27.4863 17.1856 27.4003C17.2534 27.3143 17.3526 27.2588 17.4614 27.246L23.3219 26.5428H23.3222L23.7849 26.4873ZM26.4288 19.017L25.3499 21.9976C25.1485 22.5537 24.7961 23.0427 24.3321 23.4096L23.6595 23.9413C23.3955 24.1511 23.1813 24.4169 23.0323 24.7194C22.8834 25.022 22.8034 25.3538 22.7981 25.691L18.4559 26.212L18.2731 24.6652C18.2342 24.3368 18.2676 24.0038 18.371 23.6896C18.4744 23.3755 18.6453 23.0878 18.8717 22.8467L24.1624 17.2001C24.359 17.4037 24.4688 17.6758 24.4684 17.9588C24.4687 18.1377 24.4242 18.3139 24.3392 18.4713L23.0525 20.878C23.0244 20.9306 23.0069 20.9882 23.0011 21.0476C22.9952 21.1069 23.0011 21.1669 23.0184 21.2239C23.0358 21.281 23.0641 21.3341 23.102 21.3802C23.1398 21.4263 23.1863 21.4645 23.2389 21.4926C23.2915 21.5207 23.3491 21.5382 23.4085 21.5441C23.4678 21.5499 23.5278 21.544 23.5848 21.5267C23.6419 21.5094 23.695 21.481 23.7411 21.4432C23.7872 21.4054 23.8254 21.3588 23.8535 21.3062L25.14 18.8997C25.3718 18.4671 25.4361 17.9643 25.3205 17.4873C25.2049 17.0103 24.9175 16.5926 24.5133 16.3142L23.775 12.5975C23.7584 12.5145 23.7587 12.429 23.7759 12.3461C23.793 12.2631 23.8267 12.1845 23.8748 12.1148C23.9229 12.0452 23.9845 11.9859 24.056 11.9405C24.1275 11.8951 24.2073 11.8645 24.2908 11.8506C24.3257 11.8448 24.361 11.8419 24.3964 11.8418C24.531 11.8414 24.6622 11.8843 24.7706 11.964C24.8791 12.0437 24.9592 12.1561 24.9991 12.2847L26.4729 16.984C26.6803 17.6484 26.6649 18.3623 26.4288 19.017Z" fill="#1C3B3A" stroke="#1C3B3A" stroke-width="0.5"/>
</g>
<defs>
<clipPath id="clip0_306_300">
<rect width="31" height="31" fill="white"/>
</clipPath>
</defs>
</svg>
