<svg width="252" height="474" viewBox="0 0 252 474" fill="none" xmlns="http://www.w3.org/2000/svg">
<g opacity="0.5">
<path fill-rule="evenodd" clip-rule="evenodd" d="M200.159 77.9006C199.965 79.8049 200.619 91.4099 199.777 95.6062C199.168 98.6443 196.953 94.9519 196.995 94.5368C197.306 91.4851 195.077 82.8098 193.256 80.1317C190.204 75.6488 185.89 73.7479 182.238 69.6384C174.183 60.5807 171.672 48.6288 170.889 36.8788C170.267 27.5742 173.297 20.2067 174.551 11.4091C174.952 8.59144 173.466 2.12882 175.82 0.239753C177.532 -1.13181 181.625 3.77128 182.685 4.96389C188.269 11.2453 198.156 19.0816 201.903 26.6796C206.969 36.9575 209.928 50.9835 206.212 61.7184C204.287 67.2849 200.778 71.8148 200.159 77.9006Z" fill="#A3B38C"/>
<path fill-rule="evenodd" clip-rule="evenodd" d="M200.06 96.2071C197.033 91.3967 206.366 83.9785 209.072 77.4932C211.235 72.3137 210.865 65.1271 212.795 59.4967C217.798 44.9105 227.356 39.8804 239.921 35.8193C244.381 34.3779 249.44 32.7094 253.288 29.9571C253.9 29.5199 256.731 27.3547 257.523 28.0756C259.869 30.2164 259.6 34.7873 259.552 37.5298C259.413 45.4463 258.528 52.2863 255.187 58.99C250.225 68.9595 239.77 79.4971 229.323 81.5748C224.988 82.4347 220.78 83.632 216.431 84.3713C215.249 84.57 212.824 84.2813 211.894 85.3192C210.533 86.8464 200.974 97.6596 200.06 96.2071Z" fill="#2F7D7A"/>
<path fill-rule="evenodd" clip-rule="evenodd" d="M190.41 151.339C186.312 145.776 183.263 141.459 179.949 141.019C176.508 140.563 172.446 140.6 166.212 138.28C155.073 134.138 152.378 130.548 146.571 119.331C140.439 107.488 140.689 94.0913 137.637 81.4274C136.633 77.2578 135.778 72.9382 134.482 68.9302C133.823 66.8913 133.859 64.7801 132.776 62.9612C132.577 62.6252 132.221 61.932 132.221 61.932C132.221 61.932 133.195 62.7768 133.718 63.1415C136.374 64.9842 139.868 65.3853 142.703 66.9951C149.718 70.9778 157.092 73.6566 163.688 78.5603C166.064 80.3226 167.644 83.1917 169.965 84.9772C184.669 96.3017 187.73 113.284 185.728 130.332C185.034 136.253 192.078 142.454 193.794 147.762C194.364 149.525 193.196 152.92 190.41 151.339Z" fill="#2F7D7A"/>
<path fill-rule="evenodd" clip-rule="evenodd" d="M191.237 150.82C191.471 141.072 201.109 136.335 206.136 130.99C209.358 127.562 210.093 120.515 212.332 116.429C218.399 105.362 227.986 95.1471 240.243 92.3922C247.764 90.7043 255.081 87.9821 262.63 86.5235C263.591 86.3389 268.78 83.613 269.809 84.2035C270.458 84.5763 271.475 88.964 271.566 89.6414C272.164 94.1025 269.925 98.9447 268.959 103.039C262.508 130.398 232.321 138.908 208.232 139.962C202.412 140.217 194.027 154.807 191.237 150.82Z" fill="#A3B38C"/>
<path fill-rule="evenodd" clip-rule="evenodd" d="M188.695 201.182C186.104 193.165 203.896 186.651 207.21 184.365C211.23 181.59 210.397 174.515 212.866 170.251C215.221 166.193 218.496 162.26 221.788 159.227C232.081 149.739 241.225 150.873 253.366 148.497C256.883 147.808 268.672 141.564 270.639 145.014C274.787 152.291 270.302 161.768 267.423 167.595C257.823 187.02 241.068 190.806 222.57 194.174C219.836 194.673 216.484 193.045 213.682 193.106C208.404 193.216 202.252 193.282 197.677 196.443C196.45 197.286 189.27 202.962 188.695 201.182Z" fill="#2F7D7A"/>
<path fill-rule="evenodd" clip-rule="evenodd" d="M186.402 202.465C187.004 200.323 189.222 198.054 186.123 196.297C181.091 193.45 170.649 191.28 168.067 188.633C165.891 186.406 160.339 173.378 159.202 170.849C156.5 164.837 150.248 157.987 145.387 153.42C141.467 149.739 136.373 147.9 131.688 145.48C124.94 142.001 118.035 139.952 110.432 139.492C107.913 139.336 99.2504 137.827 99.2504 137.827C99.2504 137.827 99.6864 144.199 99.9806 146.168C100.722 151.111 102.816 156.89 104.754 161.441C110.596 175.16 123.989 191.665 138.327 196.928C146.51 199.929 151.217 198.433 159.729 198.155C163.34 198.038 167.169 196.238 169.82 196.562C178.449 197.621 186.208 203.161 186.402 202.465Z" fill="#2F7D7A"/>
<path fill-rule="evenodd" clip-rule="evenodd" d="M191.244 243.996C189.707 239.965 203.309 234.096 205.835 231.449C210.494 226.564 211.439 217.306 216.694 212.683C225.58 204.867 239.166 201.968 250.115 198.429C252.606 197.624 265.289 192.881 266.428 194.116C269.767 197.736 263.796 213.74 260.911 216.766C245.607 232.815 232.668 234.622 211.807 237.432C210.009 237.675 203.576 238.653 202.248 240.045C200.703 241.663 193.484 249.874 191.244 243.996Z" fill="#A3B38C"/>
<path fill-rule="evenodd" clip-rule="evenodd" d="M184.61 248.851C183.764 246.911 179.428 244.619 177.686 244.34C174.034 243.761 170.654 243.45 166.857 244.662C163.732 245.663 153.774 249.486 149.862 249.38C145.575 249.256 139.675 248.112 135.499 246.861C121.815 242.766 111.341 235.161 103.403 223.356C100.507 219.047 98.4198 214.012 95.9464 209.432C95.5855 208.762 93.1739 206.063 93.5251 205.117C94.0744 203.622 106.834 205.041 111.188 205.286C119.093 205.74 125.457 207.007 133.114 209.122C136.967 210.186 144.756 212.21 148.392 214.109C154.445 217.269 159.864 222.003 165.049 226.987C167.704 229.538 170.841 236.818 173.932 238.807C175.273 239.667 183.575 243.232 184.716 243.078C187.014 242.772 188.147 250.697 184.61 248.851Z" fill="#2F7D7A"/>
<path fill-rule="evenodd" clip-rule="evenodd" d="M224.266 433.459C220.439 426.064 207.341 382.739 206.337 367.97C203.453 325.539 189.536 287.196 185.528 244.773C183.224 220.379 185.3 175.489 186.542 167.781C186.705 166.768 188.336 135.461 191.762 115.904C194.563 99.9029 196.131 86.8981 203.523 90.6847C207.94 92.9482 201.69 100.412 200.212 104.823C195.206 119.749 193.475 143.08 192.401 158.954C190.245 190.864 190.237 216.777 193.297 249.186C197.623 294.982 215.247 340.472 220.513 385.89C222.645 404.274 238.325 413.077 238.164 431.398C238.066 442.38 228.356 441.363 224.266 433.459Z" fill="#2F7D7A"/>
<path fill-rule="evenodd" clip-rule="evenodd" d="M58.4179 230.606C59.4002 231.727 64.257 239.413 66.6844 241.705C68.4393 243.362 68.139 240.007 67.9248 239.764C66.3466 237.96 63.795 231.429 63.7112 228.896C63.5687 224.659 65.3815 221.492 65.7831 217.224C66.6677 207.797 62.8073 199.053 57.9626 191.219C54.127 185.013 48.9078 181.693 44.1408 176.665C42.614 175.054 40.6048 170.266 38.2888 170.133C36.6052 170.038 36.2897 175.01 36.1742 176.25C35.5586 182.783 32.9845 192.254 34.1072 198.795C35.625 207.632 40.1525 217.902 47.3251 223.05C51.0437 225.721 55.2748 227.016 58.4179 230.606Z" fill="#2F7D7A"/>
<path fill-rule="evenodd" clip-rule="evenodd" d="M67.5375 241.973C67.2643 237.576 57.9698 237.166 53.3014 234.333C49.5711 232.064 46.5327 227.381 42.7437 224.726C32.9304 217.848 24.5784 219.042 14.7622 222.215C11.2773 223.341 7.31097 224.599 3.6172 224.624C3.0302 224.627 0.247004 224.554 0.0748099 225.368C-0.439641 227.777 1.8144 230.529 3.09518 232.229C6.78584 237.134 10.4631 241.024 15.634 243.715C23.3195 247.712 34.7496 249.568 42.3206 246.114C45.4586 244.679 48.6737 243.517 51.7657 241.997C52.6076 241.587 54.0129 240.302 55.0746 240.531C56.6347 240.867 67.6184 243.302 67.5375 241.973Z" fill="#A3B38C"/>
<path fill-rule="evenodd" clip-rule="evenodd" d="M98.7536 271.51C98.7948 266.19 98.7445 262.124 100.601 260.358C102.525 258.525 105.062 256.73 107.883 252.479C112.919 244.882 112.98 241.434 111.539 231.817C110.019 221.659 103.847 213.399 100.049 204.114C98.7993 201.056 97.388 197.973 96.39 194.885C95.8826 193.315 94.9134 192.014 94.7684 190.39C94.7429 190.093 94.6489 189.498 94.6489 189.498C94.6489 189.498 94.4265 190.461 94.2644 190.923C93.4458 193.269 91.4612 195.087 90.429 197.368C87.8718 203.01 84.5076 207.995 82.6206 214.019C81.9424 216.192 82.2505 218.693 81.6153 220.85C77.5919 234.534 83.3236 246.524 92.2209 256.279C95.3084 259.663 93.7296 266.703 95.051 270.792C95.4898 272.15 97.7385 273.747 98.7536 271.51Z" fill="#A3B38C"/>
<path fill-rule="evenodd" clip-rule="evenodd" d="M97.3399 271.769C92.7803 265.78 84.5767 267.181 78.9963 266.113C75.422 265.43 71.7707 261.358 68.5128 259.815C59.6918 255.644 49.0411 253.594 40.0869 257.42C34.5955 259.767 28.7621 261.374 23.3559 263.88C22.6676 264.199 18.1738 264.845 17.7922 265.678C17.5534 266.205 18.8988 269.41 19.148 269.873C20.7922 272.935 24.3918 274.949 26.8525 277.072C43.2875 291.257 66.1172 282.913 81.7411 272.673C85.5146 270.199 97.3896 275.527 97.3399 271.769Z" fill="#2F7D7A"/>
<path fill-rule="evenodd" clip-rule="evenodd" d="M122.077 301.724C120.051 295.458 105.69 299.506 102.523 299.579C98.6791 299.668 95.9627 294.807 92.4295 293.246C89.0609 291.758 85.1601 290.769 81.664 290.361C70.7313 289.082 65.4071 293.998 56.5568 298.065C53.992 299.246 43.5917 300.705 43.9177 303.79C44.6077 310.3 51.8245 314.242 56.3389 316.604C71.3939 324.493 83.8381 319.197 97.2087 312.84C99.1838 311.898 100.581 309.333 102.4 308.083C105.825 305.73 109.785 302.946 114.159 302.844C115.33 302.818 122.526 303.113 122.077 301.724Z" fill="#A3B38C"/>
<path fill-rule="evenodd" clip-rule="evenodd" d="M124.139 301.637C122.795 300.568 120.381 300.149 121.528 297.659C123.393 293.605 128.952 287.543 129.374 284.723C129.732 282.35 127.33 271.714 126.899 269.619C125.877 264.641 126.699 257.546 127.682 252.504C128.474 248.433 130.834 244.984 132.677 241.362C135.33 236.142 138.729 231.75 143.281 228.025C144.788 226.794 149.531 221.944 149.531 221.944C149.531 221.944 152.134 226.118 152.837 227.482C154.604 230.901 155.902 235.456 156.742 239.174C159.274 250.374 158.337 266.723 151.736 276.48C147.969 282.051 144.347 283.24 138.892 286.907C136.578 288.462 133.37 289.064 131.854 290.466C126.931 295.022 124.572 301.978 124.139 301.637Z" fill="#A3B38C"/>
<path fill-rule="evenodd" clip-rule="evenodd" d="M140.44 331.376C139.555 328.074 128.257 330.561 125.441 330.022C120.248 329.024 115.391 323.507 109.943 322.954C100.729 322.015 90.8067 326.404 82.2589 329.167C80.3134 329.795 70.1142 332.584 69.9631 333.902C69.5182 337.766 80.6565 345.305 83.8739 345.924C100.929 349.198 109.941 344.41 124.42 336.616C125.669 335.945 130.184 333.609 131.664 333.898C133.386 334.222 141.727 336.183 140.44 331.376Z" fill="#2F7D7A"/>
<path fill-rule="evenodd" clip-rule="evenodd" d="M146.73 331.493C146.38 329.879 148.08 326.45 149.056 325.482C151.107 323.446 153.106 321.705 156.066 320.739C158.503 319.946 166.559 317.813 168.988 315.957C171.65 313.921 174.863 310.501 176.938 307.806C183.738 298.965 186.902 289.373 186.538 278.287C186.406 274.24 185.429 270.107 184.904 266.082C184.825 265.493 185.12 262.684 184.468 262.248C183.435 261.554 175.999 268.278 173.353 270.425C168.55 274.319 165.098 278.032 161.212 282.863C159.258 285.295 155.246 290.133 153.809 292.994C151.418 297.755 150.146 303.221 149.137 308.741C148.621 311.567 149.958 317.6 148.909 320.268C148.453 321.428 144.819 327.47 144.027 327.895C142.43 328.75 145.333 334.279 146.73 331.493Z" fill="#2F7D7A"/>
<path fill-rule="evenodd" clip-rule="evenodd" d="M205.793 465.268C204.847 458.867 193.393 425.617 187.298 415.859C169.782 387.825 161.118 357.339 144.317 328.8C134.655 312.389 112.876 285.066 108.578 280.782C108.014 280.223 92.7077 261.25 81.6206 250.496C72.5536 241.7 65.6309 234.223 62.6749 239.979C60.9075 243.415 68.2708 245.27 71.2174 247.373C81.1934 254.49 92.925 268.39 100.841 277.895C116.753 297.002 128.573 313.315 141.408 335.12C159.546 365.932 169.116 402.604 186.486 433.605C193.517 446.153 187.597 458.844 196.05 470.307C201.117 477.178 206.805 472.11 205.793 465.268Z" fill="#2F7D7A"/>
</g>
</svg>
