<svg width="133" height="274" viewBox="0 0 133 274" fill="none" xmlns="http://www.w3.org/2000/svg">
<g opacity="0.5">
<path fill-rule="evenodd" clip-rule="evenodd" d="M44.3284 51.407C44.8038 52.51 46.6232 59.6078 47.9165 61.9665C48.8515 63.6721 49.4526 61.025 49.3486 60.7857C48.5856 59.0109 48.2474 53.3707 48.811 51.407C49.7517 48.1227 51.9266 46.1431 53.2921 42.9698C56.3065 35.96 55.5132 28.2984 53.7401 21.0896C52.3369 15.3802 49.1578 11.5408 46.7489 6.50325C45.9772 4.88992 45.6232 0.720335 43.8804 0.0441472C42.6131 -0.446053 41.1392 3.28812 40.7432 4.21085C38.6522 9.06815 34.3315 15.6931 33.5714 20.9872C32.5454 28.1398 33.4717 37.1379 37.6956 42.8631C39.8848 45.8332 42.8082 47.8747 44.3284 51.407Z" fill="#2F7D7A"/>
<path fill-rule="evenodd" clip-rule="evenodd" d="M48.0178 62.3876C48.8978 58.9187 41.8734 56.2789 38.9962 52.921C36.6986 50.2336 35.5295 45.852 33.2825 42.8517C27.4632 35.0792 20.7639 33.9157 12.4519 33.9157C9.50107 33.9157 6.14852 33.8969 3.31042 32.9929C2.85956 32.8488 0.743989 32.0962 0.41018 32.683C-0.581134 34.4174 0.465092 37.1092 1.02578 38.7441C2.63991 43.4601 4.49537 47.3875 7.79301 50.7612C12.6947 55.7743 20.998 60.0664 27.6583 59.2878C30.4198 58.962 33.1726 58.8668 35.9197 58.4646C36.6668 58.3579 38.0627 57.7149 38.82 58.1575C39.9326 58.8077 47.7504 63.4358 48.0178 62.3876Z" fill="#A3B38C"/>
<path fill-rule="evenodd" clip-rule="evenodd" d="M64.5508 93.185C65.9236 89.0731 66.9091 85.9099 68.8022 85.0059C70.7646 84.0673 73.1952 83.3118 76.4668 80.7239C82.3092 76.0987 83.2253 73.4415 84.5259 65.6286C85.9002 57.3759 83.169 49.4289 82.5476 41.2829C82.3438 38.5998 82.0202 35.8576 82.0202 33.2148C82.0202 31.8711 81.5924 30.6196 81.8887 29.3249C81.9436 29.0885 82.0202 28.604 82.0202 28.604C82.0202 28.604 81.604 29.2947 81.3612 29.6118C80.1315 31.2252 78.1257 32.1364 76.7457 33.6459C73.3295 37.3772 69.4496 40.3977 66.4597 44.5932C65.3831 46.1071 64.993 48.1227 63.954 49.6351C57.3674 59.2315 58.8153 69.9582 63.295 79.7463C64.8499 83.1417 61.8442 88.2023 61.8442 91.7015C61.8442 92.8635 63.1953 94.6643 64.5508 93.185Z" fill="#A3B38C"/>
<path fill-rule="evenodd" clip-rule="evenodd" d="M64.0292 93.0338C62.0076 87.261 55.3386 86.2936 51.3054 84.0718C48.7217 82.6502 46.9226 78.5873 44.7969 76.579C39.0398 71.1464 31.3448 66.8975 23.4938 67.6184C18.6788 68.061 13.7844 67.8462 8.99545 68.433C8.38564 68.5079 4.76286 67.8837 4.26143 68.433C3.9464 68.7804 4.18484 71.5962 4.26143 72.0172C4.76576 74.7969 7.03739 77.2551 8.40442 79.5129C17.5343 94.5952 37.2002 93.8484 51.7867 89.8331C55.3097 88.8628 63.1318 95.9534 64.0292 93.0338Z" fill="#2F7D7A"/>
<path fill-rule="evenodd" clip-rule="evenodd" d="M74.8497 122.35C74.8497 117.058 62.9699 116.604 60.5508 115.877C57.6145 114.995 56.746 110.606 54.4498 108.538C52.2605 106.567 49.5452 104.847 46.9947 103.671C39.0194 99.9901 33.7782 102.434 26.0716 103.357C23.8376 103.626 15.5949 102.172 15.0863 104.611C14.014 109.761 18.5197 114.559 21.3636 117.482C30.8447 127.237 41.5772 126.262 53.2721 124.705C55.0003 124.473 56.6882 122.857 58.3731 122.35C61.5465 121.397 65.2314 120.247 68.5724 121.25C69.4669 121.52 74.8497 123.524 74.8497 122.35Z" fill="#A3B38C"/>
<path fill-rule="evenodd" clip-rule="evenodd" d="M76.4784 122.819C75.701 121.657 73.9264 120.73 75.4466 119.091C77.9191 116.422 83.7745 113.123 84.8135 111.049C85.6892 109.303 86.4956 100.478 86.6878 98.7504C87.1444 94.6457 89.5707 89.3646 91.6053 85.7111C93.2469 82.7613 95.9535 80.6837 98.3003 78.3437C101.68 74.97 105.433 72.4238 109.916 70.6807C111.4 70.1055 116.314 67.5406 116.314 67.5406C116.314 67.5406 117.291 71.4189 117.495 72.6487C118.011 75.7341 117.875 79.5807 117.593 82.6661C116.747 91.9597 111.901 104.368 104.305 110.263C99.9679 113.629 96.848 113.644 91.6761 115.116C89.4825 115.74 86.8323 115.404 85.2991 116.109C80.3179 118.402 76.7298 123.191 76.4784 122.819Z" fill="#A3B38C"/>
<path fill-rule="evenodd" clip-rule="evenodd" d="M81.7077 149.025C81.8479 146.294 72.5446 145.407 70.5142 144.304C66.7701 142.267 64.4074 136.873 60.3569 135.113C53.5073 132.131 44.7892 133.031 37.5321 133.031C35.8804 133.031 27.3473 132.645 26.9037 133.611C25.6017 136.442 32.2909 144.92 34.6102 146.183C46.9077 152.87 55.0246 151.442 68.0909 149.072C69.218 148.869 73.2685 148.201 74.335 148.785C75.5777 149.456 81.5025 152.999 81.7077 149.025Z" fill="#2F7D7A"/>
<path fill-rule="evenodd" clip-rule="evenodd" d="M86.8133 150.656C86.9448 149.328 89.0979 147.113 90.0863 146.612C92.1629 145.556 94.1267 144.714 96.6354 144.707C98.7004 144.703 105.405 145.065 107.728 144.241C110.272 143.337 113.583 141.506 115.842 139.949C123.246 134.841 128.048 128.252 130.516 119.638C131.418 116.493 131.693 113.072 132.288 109.847C132.373 109.374 133.295 107.287 132.904 106.79C132.284 106 124.917 109.322 122.356 110.315C117.709 112.116 114.142 114.113 109.966 116.862C107.865 118.246 103.59 120.97 101.78 122.812C98.7668 125.879 96.4374 129.766 94.2958 133.76C93.2005 135.804 92.7308 140.775 91.2655 142.566C90.6282 143.344 86.3451 147.087 85.6327 147.217C84.1963 147.478 85.0518 152.451 86.8133 150.656Z" fill="#2F7D7A"/>
<path fill-rule="evenodd" clip-rule="evenodd" d="M98.6511 268.629C99.5138 263.466 98.9705 235.02 96.7089 225.992C90.209 200.053 91.1238 174.429 85.2987 148.279C81.9491 133.242 71.9955 106.79 69.7556 102.423C69.4608 101.852 62.4089 83.4374 56.5579 72.4007C51.7733 63.3738 48.3095 55.8954 44.6072 59.5906C42.3948 61.7965 47.5941 65.0564 49.3369 67.4079C55.2371 75.3693 60.802 88.9882 64.5259 98.2746C72.0099 116.943 77.0431 132.442 81.4924 152.42C87.7799 180.653 86.0256 211.264 91.6758 239.451C93.9633 250.859 86.2597 259.157 89.9099 270.084C92.0977 276.634 97.7292 274.148 98.6511 268.629Z" fill="#2F7D7A"/>
</g>
</svg>
