<svg width="26" height="26" viewBox="0 0 26 26" fill="none" xmlns="http://www.w3.org/2000/svg">
<g clip-path="url(#clip0_448_993)">
<path d="M13.0432 4.55C10.7906 4.55 8.63026 5.44484 7.03745 7.03765C5.44464 8.63046 4.5498 10.7908 4.5498 13.0434C4.5498 18.7764 12.0346 25.2525 12.3531 25.5286C12.5454 25.6931 12.7901 25.7835 13.0432 25.7835C13.2962 25.7835 13.5409 25.6931 13.7332 25.5286C14.1048 25.2525 21.5365 18.7764 21.5365 13.0434C21.5365 10.7908 20.6417 8.63046 19.0489 7.03765C17.4561 5.44484 15.2957 4.55 13.0432 4.55ZM13.0432 23.2885C10.7818 21.1651 6.67314 16.5893 6.67314 13.0434C6.67314 11.3539 7.34427 9.73368 8.53888 8.53908C9.73349 7.34447 11.3537 6.67334 13.0432 6.67334C14.7326 6.67334 16.3528 7.34447 17.5474 8.53908C18.742 9.73368 19.4132 11.3539 19.4132 13.0434C19.4132 16.5893 15.3045 21.1757 13.0432 23.2885ZM13.0432 8.79668C12.2032 8.79668 11.3822 9.04574 10.6838 9.51237C9.98547 9.979 9.44116 10.6422 9.11974 11.4182C8.79832 12.1942 8.71422 13.0481 8.87808 13.8718C9.04194 14.6956 9.4464 15.4523 10.0403 16.0462C10.6342 16.6401 11.3909 17.0446 12.2147 17.2084C13.0384 17.3723 13.8923 17.2882 14.6683 16.9668C15.4443 16.6454 16.1075 16.101 16.5741 15.4027C17.0408 14.7043 17.2898 13.8833 17.2898 13.0434C17.2898 11.9171 16.8424 10.8369 16.046 10.0405C15.2496 9.2441 14.1694 8.79668 13.0432 8.79668ZM13.0432 15.1667C12.6232 15.1667 12.2127 15.0422 11.8635 14.8088C11.5143 14.5755 11.2422 14.2439 11.0814 13.8559C10.9207 13.4679 10.8787 13.041 10.9606 12.6291C11.0425 12.2172 11.2448 11.8389 11.5417 11.5419C11.8387 11.245 12.217 11.0427 12.6289 10.9608C13.0408 10.8789 13.4677 10.9209 13.8557 11.0816C14.2437 11.2424 14.5753 11.5145 14.8086 11.8637C15.042 12.2129 15.1665 12.6234 15.1665 13.0434C15.1665 13.6065 14.9428 14.1466 14.5446 14.5448C14.1464 14.943 13.6063 15.1667 13.0432 15.1667Z" fill="#1C3B3A"/>
</g>
<defs>
<clipPath id="clip0_448_993">
<rect width="25.4801" height="25.4801" fill="white"/>
</clipPath>
</defs>
</svg>
