<svg width="61" height="61" viewBox="0 0 61 61" fill="none" xmlns="http://www.w3.org/2000/svg">
<g clip-path="url(#clip0_308_475)">
<path d="M31.2264 10.8929C25.8337 10.8929 20.6618 13.0351 16.8486 16.8483C13.0353 20.6616 10.8931 25.8334 10.8931 31.2262C10.8931 44.9512 28.8118 60.4553 29.5743 61.1162C30.0347 61.51 30.6206 61.7263 31.2264 61.7263C31.8322 61.7263 32.4181 61.51 32.8785 61.1162C33.7681 60.4553 51.5597 44.9512 51.5597 31.2262C51.5597 25.8334 49.4175 20.6616 45.6042 16.8483C41.791 13.0351 36.6191 10.8929 31.2264 10.8929ZM31.2264 55.7533C25.8126 50.6699 15.9764 39.7154 15.9764 31.2262C15.9764 27.1816 17.5831 23.3027 20.443 20.4428C23.303 17.5829 27.1818 15.9762 31.2264 15.9762C35.271 15.9762 39.1499 17.5829 42.0098 20.4428C44.8697 23.3027 46.4764 27.1816 46.4764 31.2262C46.4764 39.7154 36.6402 50.6954 31.2264 55.7533ZM31.2264 21.0595C29.2156 21.0595 27.25 21.6558 25.5781 22.7729C23.9062 23.89 22.6031 25.4779 21.8336 27.3356C21.0641 29.1933 20.8628 31.2375 21.2551 33.2096C21.6474 35.1817 22.6156 36.9933 24.0375 38.4151C25.4593 39.8369 27.2708 40.8052 29.243 41.1975C31.2151 41.5898 33.2593 41.3885 35.117 40.619C36.9747 39.8495 38.5625 38.5464 39.6797 36.8745C40.7968 35.2026 41.3931 33.237 41.3931 31.2262C41.3931 28.5298 40.3219 25.9439 38.4153 24.0373C36.5087 22.1306 33.9228 21.0595 31.2264 21.0595ZM31.2264 36.3095C30.221 36.3095 29.2382 36.0114 28.4023 35.4528C27.5663 34.8943 26.9148 34.1003 26.53 33.1715C26.1453 32.2426 26.0446 31.2205 26.2407 30.2345C26.4369 29.2484 26.921 28.3426 27.6319 27.6317C28.3429 26.9208 29.2486 26.4367 30.2347 26.2405C31.2208 26.0444 32.2428 26.1451 33.1717 26.5298C34.1006 26.9145 34.8945 27.5661 35.453 28.402C36.0116 29.238 36.3097 30.2208 36.3097 31.2262C36.3097 32.5744 35.7742 33.8673 34.8209 34.8206C33.8675 35.774 32.5746 36.3095 31.2264 36.3095Z" fill="#D4A24C"/>
</g>
<defs>
<clipPath id="clip0_308_475">
<rect width="61" height="61" fill="white"/>
</clipPath>
</defs>
</svg>
