<svg width="27" height="30" viewBox="0 0 27 30" fill="none" xmlns="http://www.w3.org/2000/svg">
<path d="M6.69727 0.0126519C10.1615 -0.194171 12.0557 2.17384 12.9355 4.24996C13.4176 5.38742 13.5069 6.63866 13.5195 7.87398C13.5349 9.36931 13.5249 11.1977 13.4795 12.3779C13.4116 14.141 12.7169 16.233 12.293 17.0527C14.4406 17.0244 19.1425 16.9849 20.7705 17.0527C22.8052 17.1375 26.1123 18.4819 26.1123 23.2421C26.1123 24.5654 25.6951 25.6449 25.0723 26.5078C23.0447 29.3163 19.0226 29.2617 15.5586 29.2617H5.68066C5.46161 29.2604 4.98337 29.2012 4.74805 29.164C3.98276 29.043 3.26715 28.6304 2.03516 27.7226C1.48896 27.3202 1.07039 26.7144 0.756836 26.0791C0.0366575 24.6196 5.93496e-07 22.9409 0 21.3134V6.5605C1.03824e-05 6.09595 0.031916 5.63006 0.169922 5.18648C0.776665 3.23648 2.65855 0.253895 6.69727 0.0126519ZM6.95117 4.10054C6.31966 4.10068 5.70281 4.29227 5.18262 4.65035C4.6624 5.00856 4.26258 5.51641 4.03711 6.1064C3.81171 6.69652 3.77102 7.34212 3.91992 7.95601C4.06889 8.56953 4.40069 9.12381 4.87109 9.54488L6.90332 11.5771C6.92979 11.6035 6.97254 11.6035 6.99902 11.5771L9.03125 9.54586C9.50215 9.12467 9.83435 8.56995 9.9834 7.95601C10.1324 7.34207 10.0916 6.69658 9.86621 6.1064C9.64072 5.51644 9.24091 5.00853 8.7207 4.65035C8.20037 4.29223 7.58284 4.10054 6.95117 4.10054Z" fill="url(#paint0_linear_372_534)"/>
<path d="M12.2925 17.0531C14.4402 17.0248 19.1432 16.9853 20.771 17.0531C22.8057 17.1379 26.1118 18.4824 26.1118 23.2425C26.1117 24.5658 25.6956 25.6453 25.0728 26.5082C23.0452 29.3168 19.0231 29.2611 15.5591 29.2611H5.68018C5.46099 29.2598 4.98273 29.2016 4.74756 29.1644C3.98222 29.0434 3.26681 28.6309 2.03467 27.723L12.2925 17.0531Z" fill="url(#paint1_linear_372_534)"/>
<path d="M20.7715 17.0532C22.8062 17.1382 26.1122 18.4819 26.1123 23.2417C26.1123 24.6118 25.6656 25.7205 25.0059 26.5981C22.9692 29.3072 19.0611 29.2612 15.6719 29.2612H8.73242L20.3467 17.0532C20.5393 17.0532 20.6766 17.0533 20.7715 17.0532Z" fill="url(#paint2_linear_372_534)"/>
<defs>
<linearGradient id="paint0_linear_372_534" x1="0.751298" y1="29.2617" x2="25.4218" y2="-5.42137e-05" gradientUnits="userSpaceOnUse">
<stop stop-color="#18B5AD"/>
<stop offset="0.956731" stop-color="#6DCC5A"/>
</linearGradient>
<linearGradient id="paint1_linear_372_534" x1="0.751263" y1="29.2613" x2="18.3123" y2="16.9558" gradientUnits="userSpaceOnUse">
<stop stop-color="#FC175B"/>
<stop offset="1" stop-color="#FFA43D"/>
</linearGradient>
<linearGradient id="paint2_linear_372_534" x1="13.904" y1="29.3335" x2="13.904" y2="7.03836" gradientUnits="userSpaceOnUse">
<stop stop-color="#FC175B"/>
<stop offset="1" stop-color="#FFA43D"/>
</linearGradient>
</defs>
</svg>
