<svg width="31" height="31" viewBox="0 0 31 31" fill="none" xmlns="http://www.w3.org/2000/svg">
<g clip-path="url(#clip0_306_286)">
<path d="M15.5 30.0312C7.48747 30.0312 0.96875 23.5125 0.96875 15.5C0.96875 7.48747 7.48747 0.96875 15.5 0.96875C23.5125 0.96875 30.0312 7.48747 30.0312 15.5C30.0312 23.5125 23.5125 30.0312 15.5 30.0312ZM15.5 1.9375C8.02125 1.9375 1.9375 8.02125 1.9375 15.5C1.9375 22.9788 8.02125 29.0625 15.5 29.0625C22.9788 29.0625 29.0625 22.9788 29.0625 15.5C29.0625 8.02125 22.9788 1.9375 15.5 1.9375Z" fill="#263238" stroke="#1C3B3A"/>
<path d="M22.9012 20.0658L18.2881 18.4654L17.9752 15.9622C17.7669 16.2596 17.4685 16.4911 17.08 16.6122L17.3639 18.8839C17.3862 19.067 17.5111 19.222 17.6855 19.2811L22.5825 20.9822C23.4544 21.2864 24.2188 22.3646 24.2188 23.2888V23.282C24.2188 23.5494 24.4357 23.7664 24.7031 23.7664C24.9695 23.7664 25.1865 23.5504 25.1875 23.284C25.1846 21.9481 24.1606 20.5066 22.9012 20.0658ZM6.29688 23.7654C6.0295 23.7654 5.8125 23.5484 5.8125 23.2811V23.2878C5.8125 21.9519 6.83841 20.5066 8.09778 20.0658L12.711 18.4761L12.7226 18.2048C12.7555 17.9394 13.0026 17.7543 13.2641 17.7844C13.5286 17.8173 13.7175 18.0595 13.6846 18.3259L13.6352 18.8965C13.6129 19.0796 13.4869 19.2336 13.3126 19.2937L8.4165 20.9813C7.54559 21.2864 6.78125 22.3646 6.78125 23.2878V23.2811C6.78125 23.5494 6.56425 23.7654 6.29688 23.7654Z" fill="#263238" stroke="#1C3B3A"/>
<path d="M15.4999 17.4753C12.8078 17.4753 11.4389 15.689 11.4302 11.2085C11.4283 10.0712 11.5494 8.91934 12.6189 7.8479C13.2999 7.16494 14.2686 6.81909 15.4999 6.81909C16.7312 6.81909 17.6999 7.16494 18.3819 7.84887C19.4514 8.91934 19.5725 10.0722 19.5706 11.2095C19.5609 15.689 18.1921 17.4753 15.4999 17.4753ZM15.4999 7.78784C14.5224 7.78784 13.8046 8.03197 13.3038 8.53281C12.6915 9.14603 12.3951 9.69531 12.398 11.2075C12.4057 15.1 13.42 16.5076 15.4989 16.5076C17.5779 16.5076 18.5922 15.1 18.5999 11.2075C18.6028 9.69531 18.3064 9.14603 17.6941 8.53281C17.1952 8.03197 16.4774 7.78784 15.4999 7.78784Z" fill="#263238" stroke="#1C3B3A"/>
</g>
<defs>
<clipPath id="clip0_306_286">
<rect width="31" height="31" fill="white"/>
</clipPath>
</defs>
</svg>
