<svg width="75" height="75" viewBox="0 0 75 75" fill="none" xmlns="http://www.w3.org/2000/svg">
<path d="M25.996 16.9573C26.2877 17.199 26.5489 17.4473 26.8068 17.7246C26.8768 17.799 26.9469 17.8734 27.0191 17.9501C27.9786 19.12 28.1905 20.6731 28.1886 22.1374C28.1097 22.6606 27.9164 23.0603 27.5392 23.4375C27.2519 23.4672 27.2519 23.4672 26.8983 23.4741C26.7824 23.4779 26.6664 23.4817 26.547 23.4856C26.2208 23.4375 26.2208 23.4375 25.9645 23.2487C25.6096 22.763 25.6466 22.0845 25.62 21.4977C25.5537 20.4891 25.2279 19.7992 24.5036 19.0882C23.034 17.8841 20.961 17.4937 19.098 17.5415C18.1022 17.6463 17.1046 18.0161 16.4064 18.75C16.0848 19.2166 15.7962 19.6874 15.512 20.1776C14.7698 21.4523 14.7698 21.4523 14.2091 21.8262C14.0248 21.8654 13.8405 21.9047 13.6506 21.9452C12.911 22.123 12.4014 22.471 11.9844 23.1239C11.4132 24.2075 11.1442 25.289 11.2794 26.5137C11.4752 27.012 11.6361 27.3098 12.0118 27.6855C12.3248 27.7253 12.3248 27.7253 12.689 27.7118C12.9006 27.7097 12.9006 27.7097 13.1164 27.7075C13.2701 27.7046 13.4237 27.7017 13.582 27.6987C13.9095 27.6957 14.237 27.6928 14.5644 27.6898C15.0789 27.6835 15.5934 27.6765 16.1079 27.6685C18.6469 27.6317 21.0944 27.6719 23.5109 28.5461C23.6746 28.6034 23.6746 28.6034 23.8416 28.6618C27.0657 29.8148 27.0657 29.8148 27.6857 31.0547C27.7372 31.6111 27.7629 31.9546 27.4659 32.4371C27.0596 32.6911 26.7489 32.7749 26.2683 32.7518C25.6842 32.6046 25.2345 32.2505 24.7411 31.9153C22.4091 30.4067 19.4746 30.1472 16.7726 30.1575C16.5015 30.1579 16.5015 30.1579 16.225 30.1583C15.0181 30.164 13.8196 30.2029 12.6161 30.2902C12.2689 30.3145 11.9205 30.3223 11.5724 30.3223C11.4802 31.7517 11.8227 33.046 12.1583 34.4238C12.2399 34.7599 12.3213 35.096 12.4019 35.4323C12.4513 35.6373 12.5015 35.8421 12.5527 36.0466C12.8902 37.4351 12.9102 38.7944 12.8999 40.2191C12.8992 40.3948 12.8986 40.5705 12.8979 40.7515C12.8962 41.1814 12.8938 41.6112 12.8907 42.041C13.0237 42.0818 13.1566 42.1226 13.2936 42.1646C15.2092 42.8461 15.8734 44.7309 16.6993 46.4355C18.8276 45.868 20.8323 44.2881 22.1874 42.5726C22.4542 42.2894 22.6323 42.1791 22.9982 42.041C23.4741 42.0323 23.4741 42.0323 24.0344 42.0713C24.1345 42.0779 24.2346 42.0845 24.3377 42.0912C24.6573 42.1126 24.9767 42.1363 25.2961 42.16C25.5081 42.1744 25.7201 42.1886 25.9321 42.2027C28.8934 42.403 28.8934 42.403 29.3702 42.7368C29.626 43.1205 29.7254 43.3362 29.7365 43.7988C29.4432 44.4872 29.0406 45.0398 28.5554 45.6024C28.484 45.6854 28.4126 45.7685 28.339 45.854C26.1239 48.3875 22.9261 50.3769 19.5541 50.8856C19.0823 50.9126 18.7898 50.8539 18.3839 50.6103C18.1208 50.1717 18.0887 49.8678 18.0721 49.3652C18.2187 48.8988 18.4922 48.748 18.8966 48.4863C19.2559 48.3601 19.6012 48.2537 19.9678 48.1567C22.1331 47.5281 24.2035 46.46 25.7814 44.8242C25.0791 44.6653 24.4479 44.5891 23.7306 44.6777C23.259 45.0095 22.9087 45.3998 22.5341 45.8319C21.3154 47.2331 18.9819 48.7792 17.1171 48.9555C16.2454 48.9739 15.6759 48.8678 14.9942 48.2786C14.3616 47.6332 14.0079 46.9239 13.6323 46.1151C13.1957 45.1827 12.8392 44.6516 11.8654 44.2383C10.8018 43.5761 10.8018 43.5761 10.547 43.0664C10.5125 42.668 10.5269 42.2959 10.547 41.8945C8.72002 42.7225 8.72002 42.7225 7.38843 44.1742C7.25466 44.9195 7.44092 45.4077 7.83704 46.0327C8.66532 47.2097 9.86498 48.8937 11.2794 49.3652C11.3187 49.2534 11.358 49.1417 11.3984 49.0265C11.6713 48.4091 11.6713 48.4091 12.0118 48.1934C13.0006 48.0835 13.0006 48.0835 13.5499 48.4131C13.8534 48.9189 13.8519 49.3812 13.7697 49.9512C13.5814 50.3297 13.4017 50.6421 13.1654 50.9857C12.1831 52.5116 11.2414 54.3771 11.2336 56.2225C11.2312 56.3594 11.2287 56.4963 11.2262 56.6374C11.2438 56.7512 11.2613 56.8651 11.2794 56.9824C12.5097 57.8026 14.281 57.4618 15.6593 57.2083C19.9657 56.3438 23.992 54.5218 27.9786 52.7344C28.7485 52.3893 29.5189 52.0452 30.2898 51.7025C30.6174 51.5565 30.9444 51.4094 31.2715 51.2622C31.4756 51.1713 31.6798 51.0805 31.8839 50.9897C32.0208 50.9276 32.0208 50.9276 32.1605 50.8642C33.1462 50.429 34.0385 50.1712 35.1198 50.3265C35.2636 50.3466 35.2636 50.3466 35.4104 50.3672C36.6221 50.5446 37.8272 50.7723 39.0306 50.9981C41.4318 51.4427 43.7236 51.6159 46.161 51.6083C46.3164 51.6082 46.4718 51.6082 46.6319 51.6082C50.2477 51.6045 53.8566 51.4381 57.4674 51.2639C58.5263 51.213 59.5854 51.166 60.6447 51.123C60.8694 51.1137 60.8694 51.1137 61.0987 51.1042C61.4751 51.09 61.8513 51.0802 62.2279 51.0727C62.3816 51.0666 62.3816 51.0666 62.5383 51.0603C63.0249 51.0564 63.2459 51.0948 63.6322 51.402C63.8823 51.7286 63.9897 51.8858 64.0138 52.2949C63.867 52.9067 63.8154 53.1108 63.2814 53.4668C62.9239 53.5223 62.9239 53.5223 62.4872 53.5492C62.3196 53.56 62.152 53.5708 61.9794 53.5819C61.6994 53.5974 61.6994 53.5974 61.4137 53.6133C61.2112 53.6251 61.0087 53.6369 60.8062 53.6487C60.2391 53.6811 59.6718 53.711 59.1044 53.7405C58.7379 53.7599 58.3714 53.7804 58.0049 53.8011C54.4004 54.0027 50.7974 54.0862 47.1878 54.0973C46.88 54.0985 46.5722 54.1005 46.2643 54.1027C43.0785 54.1238 40.0326 53.8745 36.9142 53.2196C35.3643 52.8961 34.3018 52.7342 32.8401 53.4027C32.7096 53.4603 32.579 53.518 32.4446 53.5774C31.9804 53.7827 31.5176 53.9909 31.0548 54.1992C15.3848 61.2274 15.3848 61.2274 10.7667 59.6649C10.186 59.4049 9.77654 59.0955 9.37512 58.5937C9.29355 58.5031 9.21198 58.4125 9.12793 58.3191C8.45107 57.2232 8.54295 56.026 8.81586 54.824C9.09196 53.6888 9.47008 52.6249 9.96106 51.5625C9.87816 51.5261 9.79527 51.4896 9.70986 51.4521C9.02144 51.0767 8.47828 50.485 7.91028 49.9512C7.70351 49.7588 7.70351 49.7588 7.49257 49.5626C6.12442 48.2491 4.85813 46.7352 4.77002 44.7693C4.81099 43.5352 5.26096 42.4991 6.10841 41.6027C7.32753 40.5388 8.74058 39.8094 10.254 39.2578C10.4273 37.398 9.83991 35.6436 9.37512 33.8625C8.96298 32.1604 8.91213 30.3399 9.23951 28.6137C9.22812 28.2552 9.15126 28.0537 9.01578 27.725C8.75981 27.0825 8.71561 26.514 8.7251 25.827C8.72631 25.7122 8.72753 25.5974 8.72878 25.4791C8.78104 23.6581 9.4107 22.0222 10.6534 20.6726C11.3458 20.0403 12.1521 19.631 13.0372 19.3359C13.2285 19.0471 13.4067 18.7494 13.5774 18.4479C14.577 16.7697 15.8678 15.6754 17.7808 15.136C20.649 14.7764 23.6156 15.2559 25.996 16.9573Z" fill="#2F7D7A"/>
<path d="M17.2196 21.1829C17.8487 21.2835 18.3379 21.5946 18.8783 21.9177C20.6359 22.8941 22.3663 23.4307 24.3331 23.834C24.4389 23.8558 24.5447 23.8776 24.6536 23.9001C25.1839 24.0087 25.7145 24.1136 26.2466 24.2124C27.9466 24.539 29.6922 25.0561 30.7618 26.5137C31.7657 28.2094 31.9534 30.1383 31.5097 32.0623C31.4086 32.3535 31.3007 32.6426 31.183 32.9275C31.0279 33.2619 31.0279 33.2619 31.0548 33.6914C35.0157 33.4679 35.0157 33.4679 38.5112 31.8346C38.8739 31.5625 39.1179 31.4147 39.524 31.2498C41.4539 30.4363 42.2308 28.8933 43.2245 27.1209C43.7056 26.2636 44.2288 25.4361 44.7603 24.6094C44.8805 24.4195 44.8805 24.4195 45.0032 24.2259C45.4079 23.59 45.8221 22.9611 46.2474 22.3389C46.3698 22.1599 46.3698 22.1599 46.4946 21.9772C46.7286 21.6797 46.7286 21.6797 47.1681 21.3867C47.6573 21.4129 48.0435 21.4432 48.4681 21.698C48.7335 22.1403 48.7613 22.482 48.7794 22.998C48.6078 23.4388 48.3553 23.8147 48.0928 24.2065C48.0194 24.3211 47.946 24.4357 47.8703 24.5538C47.7154 24.7953 47.5594 25.0361 47.4022 25.2761C47.1086 25.7259 46.8227 26.1804 46.5371 26.6353C46.3218 26.9778 46.1047 27.3191 45.8875 27.6604C45.5329 28.2199 45.186 28.7837 44.8415 29.3495C44.7444 29.5079 44.6473 29.6663 44.5473 29.8295C44.3577 30.1391 44.1692 30.4495 43.9822 30.7606C43.1355 32.1379 42.2784 32.7295 40.8418 33.4442C39.6943 34.0313 38.6399 34.6209 37.6466 35.4492C37.5178 35.5561 37.389 35.663 37.2564 35.7731C36.1343 36.7339 36.1343 36.7339 35.3029 37.9394C35.2615 38.4266 35.2615 38.4266 35.4493 38.8184C36.0127 39.1939 36.3832 39.2381 37.0532 39.2155C37.8822 39.0223 38.3865 38.4129 38.955 37.8171C39.5547 37.1893 40.1663 36.5732 40.7774 35.9566C41.0045 35.726 41.2293 35.4934 41.4539 35.2604C41.596 35.1153 41.7382 34.9704 41.8804 34.8255C42.0065 34.6954 42.1326 34.5653 42.2626 34.4312C42.6503 34.1117 42.8637 34.0192 43.3595 33.9844C43.8467 34.1004 44.0448 34.2208 44.3666 34.6069C44.5777 35.1229 44.5259 35.3506 44.3849 35.8887C44.1745 36.2365 43.9666 36.5531 43.7257 36.8774C43.2894 37.4608 43.2894 37.4608 42.9201 38.0859C43.3444 38.0379 43.5851 38.0076 43.8905 37.6986C44.6288 36.5345 45.1063 35.3083 45.5665 34.0153C45.622 33.8616 45.6776 33.7079 45.7348 33.5495C45.8456 33.242 45.9543 32.9336 46.0605 32.6245C46.1129 32.479 46.1654 32.3335 46.2194 32.1836C46.2872 31.9899 46.2872 31.9899 46.3564 31.7921C46.9908 30.5433 48.0269 29.5679 49.0112 28.5919C49.1423 28.4608 49.2735 28.3297 49.4086 28.1947C49.6837 27.9201 49.959 27.6457 50.2348 27.3719C50.5884 27.0208 50.941 26.6688 51.2933 26.3164C51.6308 25.9789 51.9689 25.642 52.3071 25.3052C52.4337 25.1787 52.5604 25.0522 52.6908 24.9219C52.8077 24.8059 52.9247 24.6899 53.0451 24.5705C53.1481 24.4681 53.251 24.3657 53.3571 24.2602C53.7282 23.9174 53.8845 23.879 54.4008 23.8312C54.9318 23.8769 54.9318 23.8769 55.2797 24.1241C55.5524 24.5123 55.6529 24.7203 55.6642 25.1953C55.3537 25.9866 54.8936 26.4328 54.2726 26.9806C53.3459 27.8217 52.4475 28.6864 51.5626 29.5715C51.4472 29.6864 51.3317 29.8012 51.2127 29.9195C50.3448 30.7894 49.5094 31.6757 48.7794 32.666C48.8652 32.6681 48.951 32.6703 49.0394 32.6725C52.0942 32.756 55.1591 32.9607 58.1487 33.625C58.6258 33.6962 58.8768 33.7191 59.3263 33.5449C59.6634 33.2725 59.9551 32.9638 60.251 32.6477C60.4212 32.4714 60.5917 32.2953 60.7625 32.1196C60.8439 32.0355 60.9252 31.9514 61.009 31.8647C61.2637 31.6072 61.5298 31.3696 61.8074 31.1371C62.4783 30.5703 63.0841 29.9371 63.6936 29.3058C65.076 27.8952 65.076 27.8952 65.9456 27.7588C66.4278 27.8445 66.6258 27.895 66.9435 28.2715C67.0975 28.7496 67.1656 28.9662 67.09 29.4434C66.8172 29.9032 66.4486 30.2467 66.0646 30.6152C65.8895 30.7951 65.8895 30.7951 65.711 30.9786C65.1755 31.5265 64.6342 32.0598 64.0504 32.5561C63.4704 33.0513 62.9385 33.5892 62.4025 34.1309C61.7927 34.747 61.1803 35.3418 60.5176 35.9013C59.9834 36.3807 59.4845 36.8966 58.9827 37.4096C58.8281 37.5667 58.6718 37.722 58.5137 37.8756C58.3323 38.0549 58.1614 38.2449 57.9931 38.4367C57.1604 38.8979 56.1331 38.6911 55.2067 38.649C52.7231 38.5803 51.0101 39.9897 49.2223 41.5667C48.8849 41.9399 48.6919 42.3162 48.4865 42.7734C48.7118 42.8692 48.9378 42.9635 49.1639 43.0572C49.3526 43.1363 49.3526 43.1363 49.545 43.2169C51.4062 43.8696 53.5906 43.5775 55.3438 42.7477C56.1202 42.3481 56.7843 41.8482 57.4678 41.3086C58.9522 40.1692 60.4982 39.1813 62.1095 38.2324C62.2634 38.1417 62.4174 38.051 62.576 37.9575C63.54 37.3915 64.5082 36.8332 65.4811 36.2826C65.758 36.1258 66.0345 35.9684 66.3105 35.8101C66.6482 35.6169 66.9876 35.4271 67.328 35.2386C67.4223 35.1842 67.5166 35.1298 67.6137 35.0737C68.3117 34.696 68.8071 34.6498 69.5802 34.7168C69.9464 34.9457 69.9464 34.9457 70.1661 35.3027C70.2485 35.8063 70.2485 35.8063 70.1661 36.3281C69.5328 37.1456 68.6153 37.5289 67.7125 37.9944C67.3692 38.1753 67.0262 38.3566 66.6837 38.5391C66.5962 38.5857 66.5088 38.6323 66.4187 38.6803C65.4849 39.1812 64.5737 39.7185 63.6659 40.2649C63.5209 40.3518 63.376 40.4388 63.2266 40.5283C61.8936 41.3358 60.5746 42.1716 59.3446 43.1305C56.343 45.3905 53.4847 46.4031 49.6658 45.9234C48.1237 45.6004 46.8883 44.9891 45.9962 43.6523C45.745 42.9429 45.8661 42.29 46.1427 41.6016C46.4064 41.1391 46.7022 40.7088 47.0216 40.2832C47.1516 40.1065 47.1516 40.1065 47.2843 39.9261C47.6654 39.4836 48.0905 39.1282 48.5505 38.7726C48.6405 38.7028 48.7304 38.633 48.8231 38.5611C50.9031 36.9727 52.8549 35.9964 55.5086 36.026C55.6227 36.0267 55.7368 36.0273 55.8545 36.028C56.1328 36.0297 56.4112 36.0323 56.6896 36.0352C55.7138 35.7047 54.7266 35.6152 53.705 35.5133C53.5195 35.4944 53.334 35.4754 53.143 35.4559C51.3491 35.2812 49.5554 35.1996 47.754 35.1562C47.7334 35.2667 47.7127 35.3771 47.6915 35.4908C47.3858 36.9404 46.7257 38.3324 45.7033 39.4043C45.6219 39.4898 45.5405 39.5754 45.4566 39.6635C44.7631 40.3218 43.9877 40.697 43.0236 40.7364C42.3014 40.6867 41.7462 40.474 41.1222 40.1133C40.8503 39.9582 40.8503 39.9582 40.4298 39.9902C40.1594 40.1937 39.898 40.4092 39.6425 40.6311C38.6599 41.4837 37.9907 41.6545 36.7219 41.6565C36.6023 41.6601 36.4827 41.6637 36.3594 41.6674C35.2889 41.6725 34.5444 41.3633 33.7282 40.6769C32.9662 39.7668 32.6155 38.9902 32.6661 37.793C32.8261 37.0921 33.1519 36.4878 33.545 35.8887C33.3139 35.9612 33.3139 35.9612 33.0781 36.0352C31.763 36.354 30.5172 36.3578 29.3313 35.6661C29.2233 35.5945 29.1153 35.5229 29.004 35.4492C28.899 35.3822 28.7941 35.3151 28.6859 35.2461C28.1528 34.8569 27.9978 34.6692 27.8688 34.0027C27.9219 33.4059 28.1862 33.022 28.5188 32.5373C29.1452 31.525 29.2986 30.3164 29.1505 29.1504C28.9619 28.3851 28.7335 27.9716 28.1194 27.4641C27.2158 26.9298 26.1561 26.7913 25.1384 26.5939C24.5258 26.4743 23.915 26.3457 23.3043 26.2167C23.1269 26.1793 23.1269 26.1793 22.946 26.1412C20.8109 25.6854 18.9038 24.9244 16.9923 23.8769C16.8977 23.8253 16.8031 23.7737 16.7056 23.7205C15.995 23.325 15.995 23.325 15.7472 23.0255C15.6363 22.5405 15.7069 22.1602 15.8204 21.6797C16.2269 21.1498 16.5859 21.1606 17.2196 21.1829Z" fill="#2F7D7A"/>
</svg>
