<svg width="105" height="117" viewBox="0 0 105 117" fill="none" xmlns="http://www.w3.org/2000/svg">
<g opacity="0.45">
<path d="M25.953 4.72672C26.1609 4.93586 26.3669 5.14756 26.5705 5.36246C26.6945 5.486 26.6945 5.486 26.821 5.61204C29.4628 8.43117 29.9186 13.1031 30.6543 16.9743C30.8562 18.0284 31.0845 19.0714 31.3241 20.1144C31.5756 21.2199 31.7891 22.3337 32.0007 23.4506C32.181 24.3939 32.3784 25.329 32.5928 26.2624C32.875 27.4904 33.1188 28.7254 33.354 29.9669C33.5343 30.9102 33.7317 31.8453 33.9461 32.7787C34.1944 33.8594 34.4157 34.9442 34.6228 36.0368C34.8274 37.1161 35.0454 38.1878 35.291 39.2552C35.5617 40.4349 35.8036 41.6204 36.0353 42.8114C36.0866 43.0749 36.0866 43.0749 36.139 43.3438C36.1733 43.5203 36.2077 43.6968 36.2431 43.8786C36.7515 46.489 37.2969 49.0867 37.8728 51.6776C38.2354 53.3111 38.5731 54.9499 38.8871 56.5974C38.9317 56.8305 38.9317 56.8305 38.9773 57.0683C39.0148 57.2672 39.0148 57.2672 39.053 57.4702C39.2091 58.2238 39.3866 58.9705 39.5625 59.7181C43.7367 60.0153 47.8995 60.0938 52.0808 60.0856C52.3989 60.0852 52.717 60.0849 53.035 60.0846C58.1185 60.0771 63.1807 59.9816 68.2531 59.5591C68.351 59.551 68.4488 59.5429 68.5497 59.5345C73.5001 59.1218 78.4576 58.6812 83.373 57.8619C83.6916 57.8091 84.0103 57.7579 84.3291 57.7069C88.7008 57.0033 93.1529 56.1093 97.3498 54.4732C97.4579 54.4311 97.5661 54.389 97.6775 54.3456C101.423 52.9124 101.423 52.9124 104.13 49.8107C104.252 49.5463 104.252 49.5463 104.522 49.2284C104.631 54.5157 104.245 59.6248 103.304 64.804C103.281 64.9361 103.258 65.0683 103.235 65.2044C102.505 69.312 101.181 73.4208 99.6505 77.2009C99.5877 77.3566 99.5249 77.5123 99.4603 77.6727C97.7758 81.8169 95.7308 85.6904 93.2898 89.2799C93.1902 89.4276 93.0906 89.5753 92.9879 89.7275C92.3381 90.6771 91.6534 91.5801 90.9479 92.4722C90.6133 92.8971 90.2846 93.3272 89.9572 93.7599C89.1498 94.8146 88.3069 95.818 87.3891 96.7405C87.1309 97.0007 86.8757 97.2637 86.6215 97.529C84.5542 99.6764 82.3352 101.493 80.0271 103.266C80.0463 103.495 80.0662 103.723 80.0863 103.952C80.0973 104.079 80.1083 104.206 80.1196 104.337C80.1561 104.722 80.1561 104.722 80.2978 105.173C80.4975 108.614 80.2718 111.665 78.3693 114.451C77.4897 115.549 76.3374 116.388 75.041 116.487C74.5567 116.5 74.0731 116.502 73.5886 116.5C73.4006 116.501 73.2125 116.502 73.0244 116.502C72.5089 116.504 71.9934 116.504 71.4779 116.504C70.9214 116.504 70.365 116.506 69.8085 116.507C68.7188 116.51 67.6291 116.511 66.5394 116.511C65.6536 116.511 64.7678 116.512 63.882 116.513C61.37 116.515 58.8579 116.517 56.3459 116.517C56.1428 116.517 56.1428 116.517 55.9357 116.517C55.8001 116.517 55.6646 116.517 55.525 116.517C53.3279 116.516 51.1309 116.519 48.9339 116.524C46.6774 116.529 44.4209 116.531 42.1644 116.53C40.8978 116.53 39.6312 116.531 38.3646 116.535C37.2863 116.538 36.208 116.538 35.1297 116.536C34.5797 116.535 34.0298 116.535 33.4798 116.538C32.9759 116.54 32.4721 116.54 31.9682 116.537C31.7004 116.536 31.4327 116.539 31.165 116.541C29.5963 116.527 28.5292 115.957 27.3825 114.709C25.7296 112.612 24.9602 109.736 25.04 106.91C25.1076 105.9 25.2154 104.902 25.3525 103.902C25.2859 103.854 25.2194 103.806 25.1508 103.757C23.669 102.688 22.2421 101.573 20.8695 100.319C20.6198 100.091 20.3687 99.8656 20.1173 99.6404C19.2013 98.8144 18.3332 97.9492 17.4915 97.0205C17.1921 96.6944 16.8898 96.3791 16.5806 96.0663C15.9804 95.4522 15.4169 94.8 14.8557 94.1373C14.7588 94.0241 14.6619 93.9109 14.562 93.7943C13.9356 93.0573 13.3408 92.2982 12.7665 91.505C12.6929 91.4037 12.6193 91.3025 12.5435 91.1982C10.1925 87.9402 8.1328 84.456 6.4058 80.6974C6.34352 80.5635 6.28124 80.4295 6.21707 80.2915C3.74974 74.9684 2.01623 69.308 0.992467 63.3736C0.964446 63.2134 0.936424 63.0532 0.907553 62.8881C0.139138 58.4049 -0.0223426 53.9428 0.0451338 49.3873C0.243104 49.6969 0.440851 50.0066 0.63616 50.3186C3.00737 53.8103 8.13195 54.9665 11.6354 55.8249C11.9412 55.9003 12.246 55.9795 12.5508 56.0601C16.875 57.1929 21.2264 57.8561 25.6231 58.4466C25.5817 58.3502 25.5403 58.2538 25.4977 58.1544C24.543 55.9287 23.6097 53.6929 22.699 51.4419C22.3755 50.6436 22.0497 49.8466 21.7238 49.0496C21.6571 48.8863 21.5904 48.7231 21.5217 48.5549C20.9527 47.1634 20.381 45.7735 19.8092 44.3836C19.2201 42.9517 18.6335 41.5183 18.0502 40.083C17.7357 39.309 17.42 38.5357 17.1024 37.7634C16.3617 35.9607 15.6317 34.154 14.9323 32.3286C14.5537 31.3467 14.1519 30.3811 13.7395 29.4184C12.8112 27.2508 11.9141 25.0649 11.0166 22.8795C10.8816 22.5513 10.7462 22.2233 10.6105 21.8955C9.11562 18.2752 8.04453 14.9145 9.11247 10.8923C10.1458 7.52708 12.0307 5.00032 14.7827 3.46204C18.3927 1.55434 22.7788 1.82982 25.953 4.72672Z" fill="#F1F1F1"/>
<path d="M88.1475 0.594528C88.3306 1.03196 88.4712 1.43718 88.6042 1.8958C88.6447 2.03091 88.6851 2.16601 88.7268 2.30521C89.9688 6.54633 90.6258 10.9197 90.9895 15.3754C91.0025 15.5259 91.0156 15.6764 91.029 15.8314C91.1349 17.149 91.1519 18.4635 91.1502 19.7859C91.1501 19.9005 91.15 20.015 91.1499 20.1331C91.1398 25.4185 90.5291 30.6991 89.0948 35.7191C89.0564 35.8561 89.0181 35.9932 88.9785 36.1345C88.1045 39.248 86.9927 42.1867 85.7115 45.0962C85.6454 45.2468 85.5792 45.3974 85.5111 45.5525C84.0844 48.7112 82.3056 51.632 80.2981 54.3144C80.217 54.4254 80.1359 54.5365 80.0523 54.6509C79.8214 54.9658 79.5871 55.2765 79.3508 55.5859C79.292 55.6629 79.2333 55.7399 79.1727 55.8193C78.9679 56.0868 78.762 56.353 78.5557 56.6189C78.4921 56.7019 78.4286 56.7849 78.3631 56.8704C78.1554 57.1363 77.9413 57.3936 77.7268 57.652C77.6036 57.8104 77.6036 57.8104 77.478 57.972C76.6376 58.9661 75.9512 59.137 74.7838 59.2103C74.6178 59.2253 74.4517 59.2403 74.2807 59.2558C73.8333 59.295 73.3862 59.3289 72.9385 59.3603C72.4694 59.3942 72.0008 59.4344 71.532 59.4737C70.6056 59.55 69.6788 59.618 68.7518 59.683C68.306 59.7145 67.8603 59.7475 67.4146 59.7814C63.6353 60.0663 59.8594 60.0738 56.0735 60.036C55.9844 59.4123 55.8955 58.7886 55.8067 58.1648C55.7622 57.8526 55.7176 57.5405 55.673 57.2283C55.5801 56.575 55.488 55.9216 55.3968 55.268C55.3801 55.1487 55.3635 55.0294 55.3463 54.9065C55.0883 53.0512 54.86 51.1943 54.6694 49.3278C54.6554 49.1918 54.6415 49.0558 54.6271 48.9157C54.3436 46.1219 54.1372 43.3207 53.942 40.5169C53.9275 40.3108 53.9131 40.1047 53.8982 39.8924C53.7278 37.4431 53.584 34.9961 53.5021 32.5404C53.4077 40.746 53.8057 48.9102 54.7386 57.0455C54.819 57.7726 54.8637 58.4791 54.8598 59.2129C54.8592 59.3678 54.8586 59.5227 54.8579 59.6823C54.8567 59.8574 54.8567 59.8574 54.8555 60.036C53.6415 60.0914 52.4278 60.1337 51.2131 60.1596C50.6489 60.172 50.0853 60.1888 49.5215 60.2159C48.9765 60.2419 48.4321 60.2561 47.8867 60.2622C47.6795 60.2666 47.4723 60.2752 47.2653 60.2881C46.5987 60.3281 46.017 60.3159 45.3821 60.036C44.8663 59.4573 44.5642 58.7051 44.277 57.9488C44.1148 57.5222 43.9278 57.1115 43.7433 56.6978C43.6229 56.404 43.5038 56.1095 43.386 55.8143C43.323 55.6583 43.26 55.5023 43.1951 55.3416C42.79 54.3236 42.4313 53.3071 42.1341 52.2383C42.0011 51.7569 42.0011 51.7569 41.8032 51.2512C41.0497 49.2183 40.7206 46.9385 40.4002 44.7684C40.3582 44.4853 40.3582 44.4853 40.3154 44.1965C39.9942 41.9228 39.941 39.6765 39.9434 37.3779C39.9435 37.2366 39.9436 37.0952 39.9437 36.9496C39.9469 34.9351 39.966 32.9442 40.2395 30.951C40.2562 30.8236 40.2729 30.6962 40.2902 30.5649C41.3681 22.5856 44.383 14.6896 49.0361 8.70019C50.4441 9.00949 51.729 10.5238 52.8255 11.561C52.8971 11.6283 52.9687 11.6955 53.0424 11.7648C54.1519 12.8162 55.1725 13.9675 56.1834 15.147C56.3014 15.284 56.4193 15.421 56.5408 15.5622C57.692 16.9207 58.6981 18.3965 59.6683 19.9349C59.7402 20.0483 59.8122 20.1617 59.8863 20.2785C60.0592 20.5511 60.2317 20.824 60.4041 21.0971C60.8676 20.5819 61.2525 20.0119 61.6391 19.4183C62.2228 18.5334 62.8321 17.6979 63.4809 16.8772C63.7479 16.5382 64.0058 16.1934 64.2611 15.8423C65.1535 14.639 66.1361 13.5462 67.1708 12.5146C67.3553 12.3244 67.3553 12.3244 67.5435 12.1303C70.1442 9.46725 73.0598 7.25857 76.1028 5.36256C76.2661 5.25938 76.2661 5.25938 76.4327 5.15412C85.5052 -0.543626 85.5052 -0.543626 88.1475 0.594528Z" fill="#329C63"/>
<path d="M25.953 4.72672C26.1609 4.93586 26.3669 5.14756 26.5705 5.36246C26.6945 5.486 26.6945 5.486 26.821 5.61204C29.4628 8.43117 29.9186 13.1031 30.6543 16.9743C30.8562 18.0284 31.0845 19.0714 31.3241 20.1144C31.5756 21.2199 31.7891 22.3337 32.0007 23.4506C32.181 24.3939 32.3784 25.329 32.5928 26.2624C32.875 27.4904 33.1188 28.7254 33.354 29.9669C33.5343 30.9102 33.7317 31.8453 33.9461 32.7787C34.1944 33.8594 34.4157 34.9442 34.6228 36.0368C34.8274 37.1161 35.0454 38.1878 35.291 39.2552C35.5617 40.4349 35.8036 41.6204 36.0353 42.8114C36.0866 43.0749 36.0866 43.0749 36.139 43.3438C36.1733 43.5203 36.2077 43.6968 36.2431 43.8786C36.7515 46.489 37.2969 49.0867 37.8728 51.6776C38.2354 53.3111 38.5731 54.9499 38.8871 56.5974C38.9317 56.8305 38.9317 56.8305 38.9773 57.0683C39.0148 57.2672 39.0148 57.2672 39.053 57.4702C39.2091 58.2238 39.3866 58.9705 39.5625 59.7181C43.7367 60.0153 47.8995 60.0938 52.0808 60.0856C52.3989 60.0852 52.717 60.0849 53.035 60.0846C58.1185 60.0771 63.1807 59.9816 68.2531 59.5591C68.351 59.551 68.4488 59.5429 68.5497 59.5345C73.5001 59.1218 78.4576 58.6812 83.373 57.8619C83.6916 57.8091 84.0103 57.7579 84.3291 57.7069C88.7008 57.0033 93.1529 56.1093 97.3498 54.4732C97.4579 54.4311 97.5661 54.389 97.6775 54.3456C101.423 52.9124 101.423 52.9124 104.13 49.8107C104.252 49.5463 104.252 49.5463 104.522 49.2284C104.595 56.9208 104.595 56.9208 104.116 58.6055C103.812 58.7543 103.527 58.8682 103.211 58.9731C103.12 59.0044 103.028 59.0357 102.934 59.068C100.681 59.8328 98.4332 60.5283 96.1318 61.0591C96.0031 61.089 95.8745 61.119 95.7419 61.1499C82.9635 64.1127 69.844 65.0168 56.8428 65.2212C56.7335 65.2229 56.6242 65.2246 56.5115 65.2264C44.2175 65.4184 31.9055 64.8779 4.10513 59.877C3.9452 59.8271 3.78527 59.7772 3.6205 59.7258C3.14435 59.5763 2.66879 59.4245 2.19355 59.2711C2.05054 59.2249 1.90753 59.1788 1.76019 59.1313C1.56387 59.0662 1.56387 59.0662 1.36357 58.9998C1.19162 58.943 1.19162 58.943 1.01619 58.885C0.721799 58.7645 0.721799 58.7645 0.315799 58.4466C0.236354 57.9641 0.187616 57.5141 0.155091 57.0261C0.138768 56.8034 0.138768 56.8034 0.122116 56.5762C-0.0291625 54.1871 0.0225428 51.7812 0.0451338 49.3873C0.243104 49.6969 0.440851 50.0066 0.63616 50.3186C3.00737 53.8103 8.13195 54.9665 11.6354 55.8249C11.9412 55.9003 12.246 55.9795 12.5508 56.0601C16.875 57.1929 21.2264 57.8561 25.6231 58.4466C25.5817 58.3502 25.5403 58.2538 25.4977 58.1544C24.543 55.9287 23.6097 53.6929 22.699 51.4419C22.3755 50.6436 22.0497 49.8466 21.7238 49.0496C21.6571 48.8863 21.5904 48.7231 21.5217 48.5549C20.9527 47.1634 20.381 45.7735 19.8092 44.3836C19.2201 42.9517 18.6335 41.5183 18.0502 40.083C17.7357 39.309 17.42 38.5357 17.1024 37.7634C16.3617 35.9607 15.6317 34.154 14.9323 32.3286C14.5537 31.3467 14.1519 30.3811 13.7395 29.4184C12.8112 27.2508 11.9141 25.0649 11.0166 22.8795C10.8816 22.5513 10.7462 22.2233 10.6105 21.8955C9.11562 18.2752 8.04453 14.9145 9.11247 10.8923C10.1458 7.52708 12.0307 5.00032 14.7827 3.46204C18.3927 1.55434 22.7788 1.82982 25.953 4.72672Z" fill="#E3E4E4"/>
<path d="M49.0361 8.70019C50.4441 9.00949 51.729 10.5238 52.8255 11.561C52.8971 11.6283 52.9687 11.6955 53.0424 11.7648C54.1519 12.8162 55.1725 13.9675 56.1834 15.147C56.3014 15.284 56.4193 15.421 56.5408 15.5622C57.3442 16.5103 58.0748 17.5044 58.7801 18.5541C58.8524 18.6605 58.9247 18.7669 58.9992 18.8765C60.1823 20.6345 61.1988 22.5032 62.1635 24.4347C62.2202 24.5478 62.2768 24.661 62.3352 24.7776C65.4977 31.1887 66.7942 38.5501 66.7986 45.8908C66.7987 46.0277 66.7988 46.1646 66.7989 46.3056C66.7967 48.431 66.7005 50.4749 66.3588 52.5661C66.3091 52.8949 66.2594 53.2237 66.2097 53.5526C65.9606 55.1487 65.6687 56.7241 65.2677 58.2778C65.2361 58.4038 65.2046 58.5299 65.1721 58.6597C64.9407 59.5041 64.9407 59.5041 64.6305 59.7464C63.0432 60.4336 60.8754 60.0535 59.2115 60.0459C58.9066 60.0451 58.6016 60.0444 58.2967 60.0437C57.5556 60.042 56.8146 60.0394 56.0735 60.036C55.9844 59.4123 55.8955 58.7886 55.8067 58.1648C55.7622 57.8526 55.7176 57.5405 55.673 57.2283C55.5801 56.575 55.488 55.9216 55.3968 55.268C55.3801 55.1487 55.3635 55.0294 55.3463 54.9065C55.0883 53.0512 54.86 51.1943 54.6694 49.3278C54.6554 49.1918 54.6415 49.0558 54.6271 48.9157C54.3436 46.1219 54.1372 43.3207 53.942 40.5169C53.9275 40.3108 53.9131 40.1047 53.8982 39.8924C53.7278 37.4431 53.584 34.9961 53.5021 32.5404C53.4077 40.746 53.8057 48.9102 54.7386 57.0455C54.819 57.7726 54.8637 58.4791 54.8598 59.2129C54.8592 59.3678 54.8586 59.5227 54.8579 59.6823C54.8567 59.8574 54.8567 59.8574 54.8555 60.036C53.6415 60.0914 52.4278 60.1337 51.2131 60.1596C50.6489 60.172 50.0853 60.1888 49.5215 60.2159C48.9765 60.2419 48.4321 60.2561 47.8867 60.2622C47.6795 60.2666 47.4723 60.2752 47.2653 60.2881C46.5987 60.3281 46.017 60.3159 45.3821 60.036C44.8663 59.4573 44.5642 58.7051 44.277 57.9488C44.1148 57.5222 43.9278 57.1115 43.7433 56.6978C43.6229 56.404 43.5038 56.1095 43.386 55.8143C43.323 55.6583 43.26 55.5023 43.1951 55.3416C42.79 54.3236 42.4313 53.3071 42.1341 52.2383C42.0011 51.7569 42.0011 51.7569 41.8032 51.2512C41.0497 49.2183 40.7206 46.9385 40.4002 44.7684C40.3722 44.5797 40.3442 44.391 40.3154 44.1965C39.9942 41.9228 39.941 39.6765 39.9434 37.3779C39.9435 37.2366 39.9436 37.0952 39.9437 36.9496C39.9469 34.9351 39.966 32.9442 40.2395 30.951C40.2562 30.8236 40.2729 30.6962 40.2902 30.5649C41.3681 22.5856 44.383 14.6896 49.0361 8.70019Z" fill="#328056"/>
<path d="M79.7568 103.266C80.6845 105.134 80.5256 108.115 80.2099 110.168C79.662 112.609 78.567 114.567 76.7584 115.91C75.7161 116.532 74.7396 116.503 73.5886 116.5C73.4006 116.501 73.2125 116.502 73.0244 116.502C72.5089 116.504 71.9934 116.504 71.4779 116.504C70.9214 116.504 70.365 116.506 69.8085 116.507C68.7188 116.51 67.6291 116.511 66.5394 116.511C65.6536 116.511 64.7678 116.512 63.882 116.513C61.37 116.515 58.8579 116.517 56.3459 116.517C56.1428 116.517 56.1428 116.517 55.9357 116.517C55.8001 116.517 55.6646 116.517 55.525 116.517C53.3279 116.516 51.1309 116.519 48.9339 116.524C46.6774 116.529 44.4209 116.531 42.1644 116.53C40.8978 116.53 39.6312 116.531 38.3646 116.535C37.2863 116.538 36.208 116.538 35.1297 116.536C34.5797 116.535 34.0298 116.535 33.4798 116.538C32.9759 116.54 32.4721 116.54 31.9682 116.537C31.7004 116.536 31.4327 116.539 31.165 116.541C29.5963 116.527 28.5292 115.957 27.3825 114.709C25.7213 112.602 24.9569 109.716 25.0415 106.876C25.1944 104.658 25.1944 104.658 25.6235 103.902C25.7547 103.991 25.8859 104.079 26.021 104.17C27.2243 104.977 28.4394 105.741 29.6874 106.448C29.8591 106.548 30.0289 106.653 30.1961 106.764C30.8901 107.21 31.5065 107.37 32.2892 107.459C32.4085 107.474 32.5278 107.49 32.6507 107.506C33.0401 107.555 33.4298 107.601 33.8196 107.647C34.0931 107.681 34.3665 107.714 34.6399 107.748C37.0961 108.048 39.5563 108.289 42.0203 108.48C42.4572 108.515 42.8939 108.554 43.3306 108.593C46.1982 108.837 49.0564 108.886 51.9308 108.88C52.307 108.879 52.6833 108.878 53.0595 108.878C56.7108 108.873 60.3363 108.785 63.9742 108.39C64.4858 108.335 64.9978 108.286 65.5098 108.235C66.7844 108.11 68.0577 107.975 69.3304 107.825C69.9659 107.751 70.6012 107.686 71.2382 107.631C73.2224 107.436 74.7732 106.605 76.5088 105.491C76.7682 105.329 77.0276 105.167 77.287 105.005C78.5643 104.214 78.5643 104.214 79.7568 103.266Z" fill="#CBCCCC"/>
<path d="M18.3155 40.3285C18.5103 40.6966 18.666 41.0411 18.8193 41.4323C18.8656 41.5456 18.9118 41.6589 18.9595 41.7756C19.1103 42.1465 19.2585 42.5189 19.4066 42.8913C19.5107 43.1485 19.6149 43.4055 19.7192 43.6625C19.9262 44.1727 20.1321 44.6835 20.3369 45.1949C20.6261 45.9167 20.919 46.6363 21.213 47.3554C21.3873 47.7821 21.5609 48.2093 21.7343 48.6365C22.1301 49.6104 22.5298 50.582 22.9297 51.5535C23.17 52.1375 23.41 52.7217 23.6501 53.3059C23.842 53.7729 24.0342 54.2398 24.2266 54.7065C24.4361 55.2147 24.645 55.7233 24.8538 56.2319C24.9476 56.4587 24.9476 56.4587 25.0433 56.69C25.1003 56.8292 25.1572 56.9683 25.2159 57.1116C25.2655 57.2321 25.3151 57.3526 25.3662 57.4767C25.4837 57.799 25.5543 58.1064 25.6231 58.4466C24.7066 58.4707 23.8275 58.4083 22.92 58.2608C22.7955 58.2413 22.671 58.2219 22.5426 58.2018C22.1428 58.139 21.7432 58.0746 21.3436 58.0099C21.0673 57.9659 20.791 57.9218 20.5147 57.8778C18.6478 57.5781 16.785 57.2622 14.9322 56.8577C14.8127 56.8319 14.6931 56.8061 14.57 56.7796C13.2927 56.5015 12.0428 56.1846 10.7982 55.7426C10.3807 55.6029 9.96302 55.4877 9.53877 55.3802C6.48636 54.5994 2.18347 53.2327 0.316175 50.0235C0.0112222 49.3967 -0.059275 48.8274 0.0455085 48.1163C0.719438 46.1836 2.49824 45.0685 4.05093 44.283C6.99773 42.8711 10.0184 41.9371 13.1221 41.153C13.3057 41.1064 13.3057 41.1064 13.493 41.059C17.758 39.9846 17.758 39.9846 18.3155 40.3285Z" fill="#AFAFAF"/>
<path d="M87.606 40.3285C88.6182 40.5535 89.6298 40.7819 90.641 41.0131C90.945 41.0823 91.2492 41.1508 91.5534 41.2183C93.718 41.6993 95.8015 42.3713 97.8914 43.1893C98.0734 43.26 98.0734 43.26 98.259 43.3322C100.406 44.1779 103.036 45.2361 104.328 47.5699C104.591 48.3086 104.658 48.8173 104.408 49.5777C103.258 52.2787 100.305 53.4739 98.0098 54.4041C97.6551 54.5366 97.3005 54.6661 96.944 54.7915C96.8457 54.8264 96.7473 54.8614 96.6459 54.8974C92.9022 56.2067 89.0717 57.0345 85.2123 57.702C84.9856 57.7413 84.9856 57.7413 84.7543 57.7814C83.0931 58.0672 81.4296 58.3287 79.7625 58.5631C79.6209 58.5836 79.4793 58.6041 79.3334 58.6252C78.4329 58.7479 77.5503 58.7888 76.644 58.7649C76.9781 58.3718 77.3127 57.9795 77.6495 57.5896C78.2401 56.9038 78.8185 56.2148 79.3576 55.4726C79.5605 55.1931 79.7666 54.9168 79.974 54.6419C81.6792 52.3696 83.1797 49.927 84.4934 47.3216C84.5411 47.2277 84.5888 47.1338 84.638 47.037C85.3238 45.681 85.934 44.288 86.525 42.8727C86.7477 42.3411 86.974 41.8117 87.2 41.2821C87.2782 41.0985 87.3564 40.9149 87.4369 40.7258C87.4927 40.5947 87.5485 40.4636 87.606 40.3285Z" fill="#AEAFAF"/>
<path d="M52.5549 77.042C53.3015 77.1942 53.6223 77.772 54.0436 78.4724C54.276 78.9184 54.4919 79.3732 54.7034 79.8333C54.7832 80.0049 54.7832 80.0049 54.8647 80.18C55.1809 80.8925 55.3413 81.4852 55.3969 82.2869C55.7836 82.0892 56.1697 81.8901 56.5557 81.6908C56.664 81.6355 56.7722 81.5802 56.8838 81.5232C57.5412 81.1829 58.163 80.8117 58.7803 80.3796C58.9934 80.63 58.9438 80.8764 58.9494 81.224C58.9446 82.2028 58.7395 83.0997 58.5096 84.0351C58.8706 84.0168 59.2314 83.9967 59.5923 83.9755C59.6929 83.9706 59.7936 83.9657 59.8973 83.9606C60.5958 83.9178 61.2175 83.7703 61.8929 83.5583C62.2989 83.5385 62.2989 83.5385 62.5696 83.5583C62.2717 85.8455 60.806 87.9391 59.2962 89.3296C59.1257 89.4745 58.9544 89.618 58.7803 89.7568C59.472 90.6417 60.2299 91.3196 61.0809 91.9819C61.2149 92.0868 61.3489 92.1916 61.4869 92.2997C61.4423 92.4571 61.3976 92.6144 61.3516 92.7765C60.9726 92.9969 60.9726 92.9969 60.4973 93.2037C60.3415 93.2731 60.1857 93.3426 60.0252 93.4141C59.5923 93.5712 59.5923 93.5712 59.0509 93.5712C59.196 94.0785 59.3432 94.5848 59.4908 95.091C59.5314 95.2333 59.5721 95.3756 59.614 95.5222C59.8049 96.1734 59.9962 96.7797 60.3007 97.3701C60.5396 97.8624 60.5396 97.8624 60.5396 98.4982C58.1726 98.4886 55.9079 97.3338 54.2249 95.376C54.1651 95.3049 54.1053 95.2338 54.0436 95.1605C53.8189 95.7224 53.5951 96.2847 53.3721 96.8475C53.2594 97.1313 53.146 97.4148 53.0326 97.6982C52.6385 98.6939 52.2863 99.6727 52.0136 100.723C51.0186 100.181 50.5605 98.8329 50.1189 97.7035C50.0783 97.6031 50.0376 97.5027 49.9958 97.3993C49.7889 96.8681 49.7129 96.5518 49.7129 95.9552C48.2183 96.5391 46.7639 97.1211 45.3823 98.0214C45.2469 97.8624 45.2469 97.8624 45.2348 97.4843C45.3204 95.3827 45.9734 92.877 47.2769 91.3461C46.736 91.0373 46.1945 90.7297 45.6529 90.4223C45.5006 90.3353 45.3484 90.2484 45.1914 90.1588C43.716 89.3019 43.716 89.3019 42.1343 88.8032C42.1863 88.4143 42.2346 88.2094 42.4721 87.9247C44.237 86.4191 44.237 86.4191 44.9763 86.4191C44.5933 85.8513 44.239 85.3294 43.7075 84.949C43.5903 84.8572 43.4731 84.7654 43.3523 84.6709C43.3523 84.5135 43.3523 84.3562 43.3523 84.1941C44.4287 83.7134 45.4063 83.6583 46.5495 83.6875C46.7112 83.6896 46.873 83.6918 47.0396 83.694C47.4345 83.6995 47.8294 83.7074 48.2243 83.7173C48.3712 81.8076 48.374 79.9117 48.3596 77.9956C49.6479 78.2079 50.6223 79.4651 51.4723 80.5386C51.8523 80.0922 51.9398 79.5595 52.0897 78.9691C52.1197 78.8546 52.1496 78.74 52.1804 78.622C52.3164 78.0981 52.4444 77.574 52.5549 77.042Z" fill="#FEA234"/>
<path d="M53.3668 30.7923C53.4114 30.7923 53.4561 30.7923 53.5021 30.7923C53.5077 30.8919 53.5133 30.9915 53.519 31.0941C54.1233 41.9157 54.1233 41.9157 55.2164 52.6808C55.2794 53.1881 55.3411 53.6957 55.4028 54.2032C55.4791 54.8298 55.5562 55.4563 55.6336 56.0827C55.648 56.2002 55.6625 56.3176 55.6774 56.4386C55.7181 56.7675 55.7592 57.0962 55.8006 57.425C55.824 57.6114 55.8473 57.7979 55.8713 57.99C55.9293 58.4561 55.9294 58.4561 56.0734 58.9237C56.0734 59.2908 56.0735 59.6578 56.0735 60.036C57.19 60.036 58.3064 60.0362 59.4568 60.0362C59.4568 60.0887 59.4568 60.1411 59.4568 60.1951C57.6822 60.2026 55.9076 60.2082 54.133 60.2116C53.3084 60.2132 52.4837 60.2155 51.659 60.2191C47.618 60.2367 43.5965 60.1758 39.5628 59.8773C39.1303 58.3776 39.1303 58.3776 38.968 57.6528C38.9369 57.5138 38.9058 57.3748 38.8737 57.2317C38.8415 57.0852 38.8093 56.9388 38.7761 56.788C38.7413 56.6305 38.7065 56.473 38.6707 56.3108C38.3357 54.7784 38.0343 53.2376 37.7347 51.6953C37.2261 49.0782 36.6774 46.4747 36.101 43.8772C35.7951 42.4966 35.5011 41.1137 35.2321 39.7224C35.204 39.5773 35.1759 39.4322 35.1469 39.2827C34.9614 38.306 34.9614 38.306 34.9614 37.9443C36.5882 37.7949 38.2023 37.7677 39.8334 37.7854C39.8463 37.9419 39.8591 38.0984 39.8724 38.2596C40.3031 43.4462 40.7959 48.7322 42.6754 53.5199C42.7556 53.7376 42.8354 53.9555 42.9149 54.1736C43.5315 55.8537 44.2102 57.4888 44.9761 59.0826C45.0271 59.2176 45.0781 59.3526 45.1307 59.4917C45.357 59.9254 45.357 59.9254 45.7906 59.9789C45.958 59.9799 46.1253 59.981 46.2978 59.9821C46.3903 59.9837 46.4827 59.9854 46.578 59.9871C46.8834 59.9917 47.1886 59.9907 47.494 59.9896C47.7059 59.9917 47.9177 59.9942 48.1295 59.9969C48.6868 60.0033 49.2441 60.0049 49.8014 60.0055C50.3702 60.007 50.939 60.0129 51.5078 60.0185C52.6237 60.0288 53.7396 60.0339 54.8555 60.036C54.8465 59.9489 54.8375 59.8619 54.8282 59.772C54.3977 55.5748 54.0015 51.3786 53.7305 47.1625C53.7195 46.994 53.7086 46.8255 53.6973 46.6519C53.6266 45.5511 53.5616 44.4499 53.5021 43.3481C53.4946 43.2124 53.4872 43.0768 53.4795 42.937C53.3423 40.3565 53.3511 37.7774 53.3583 35.1928C53.3591 34.7639 53.3596 34.335 53.3601 33.9061C53.3616 32.8681 53.3639 31.8302 53.3668 30.7923Z" fill="#AEAFAE"/>
<path d="M62.5696 83.5583C62.2717 85.8455 60.806 87.9391 59.2962 89.3296C59.1257 89.4745 58.9544 89.618 58.7803 89.7568C59.472 90.6417 60.2299 91.3196 61.0809 91.9819C61.2149 92.0868 61.3489 92.1916 61.4869 92.2997C61.4423 92.4571 61.3976 92.6144 61.3516 92.7765C60.9726 92.9969 60.9726 92.9969 60.4973 93.2037C60.3415 93.2731 60.1857 93.3426 60.0252 93.4141C59.5923 93.5712 59.5923 93.5712 59.0509 93.5712C59.196 94.0785 59.3432 94.5848 59.4908 95.091C59.5314 95.2333 59.5721 95.3756 59.614 95.5222C59.8049 96.1734 59.9962 96.7797 60.3007 97.3701C60.5396 97.8624 60.5396 97.8624 60.5396 98.4982C58.255 98.489 56.1461 97.4206 54.4492 95.6375C54.5832 95.5588 54.5832 95.5589 54.7199 95.4786C54.997 95.5892 55.27 95.7143 55.5403 95.8461C56.9048 96.479 58.1265 96.657 59.5919 96.7501C59.5556 96.6745 59.5193 96.5989 59.4819 96.521C59.1146 95.7505 58.7545 94.9754 58.3993 94.1972C58.3535 94.097 58.3078 93.9969 58.2606 93.8937C58.0126 93.3465 57.7724 92.7963 57.5413 92.2391C57.4937 92.1247 57.4461 92.0104 57.3971 91.8927C57.3062 91.6729 57.2163 91.4526 57.1274 91.2317C56.8821 90.6384 56.6325 90.192 56.2086 89.7569C56.3439 89.2801 56.3439 89.2801 56.5807 89.128C56.6812 89.0832 56.7817 89.0383 56.8852 88.9921C58.895 87.9949 60.0229 86.1946 61.0806 84.0353C60.9912 83.9828 60.9019 83.9304 60.8099 83.8764C61.9506 83.5131 61.9509 83.5129 62.5696 83.5583Z" fill="#FEB760"/>
<path d="M53.3668 30.7923C53.4114 30.7923 53.4561 30.7923 53.5021 30.7923C53.5077 30.8919 53.5133 30.9915 53.519 31.0941C54.1233 41.9157 54.1233 41.9157 55.2164 52.6808C55.2794 53.1881 55.3411 53.6957 55.4028 54.2032C55.4791 54.8298 55.5562 55.4563 55.6336 56.0827C55.648 56.2002 55.6625 56.3176 55.6774 56.4386C55.7181 56.7675 55.7592 57.0962 55.8006 57.425C55.824 57.6114 55.8473 57.7979 55.8713 57.99C55.9293 58.4561 55.9294 58.4561 56.0734 58.9237C56.0734 59.2908 56.0735 59.6578 56.0735 60.036C57.19 60.036 58.3064 60.0362 59.4568 60.0362C59.4568 60.0887 59.4568 60.1411 59.4568 60.1951C55.884 60.1951 52.311 60.1951 48.6299 60.1951C48.6299 60.1427 48.6299 60.0902 48.6299 60.0362C50.6842 60.0362 52.7389 60.036 54.8555 60.036C54.8031 59.5238 54.7505 59.0118 54.6966 58.4841C54.3166 54.7151 53.9738 50.9474 53.7305 47.1625C53.7195 46.994 53.7086 46.8255 53.6973 46.6519C53.6266 45.5511 53.5616 44.4499 53.5021 43.3481C53.4946 43.2124 53.4872 43.0768 53.4795 42.937C53.3423 40.3565 53.3511 37.7774 53.3583 35.1928C53.3591 34.7639 53.3596 34.335 53.3601 33.9061C53.3616 32.8681 53.3639 31.8302 53.3668 30.7923Z" fill="#6ECA96"/>
<path d="M44.9763 86.2605C45.3472 86.6744 45.6772 87.0775 45.9733 87.568C46.6235 88.6196 47.1231 89.2728 48.2497 89.4889C48.5562 89.5338 48.8635 89.5733 49.1716 89.5982C48.9958 89.8293 48.9958 89.8293 48.8164 90.065C47.8047 91.4577 46.9036 93.0548 46.8281 94.9299C46.8196 95.1312 46.8196 95.1312 46.8109 95.3366C46.8056 95.4753 46.8003 95.614 46.7948 95.7569C46.7861 95.9686 46.7861 95.9686 46.7771 96.1846C46.7628 96.5321 46.7491 96.8795 46.7356 97.227C46.289 97.4893 45.8424 97.7512 45.3823 98.0214C45.2469 97.8624 45.2469 97.8624 45.2348 97.4843C45.3204 95.3827 45.9734 92.877 47.2769 91.3461C46.736 91.0373 46.1945 90.7297 45.6529 90.4223C45.5006 90.3353 45.3484 90.2484 45.1914 90.1588C43.716 89.3019 43.716 89.3019 42.1343 88.8032C42.2098 88.2521 42.3367 88.0389 42.7179 87.7108C43.4219 87.1205 44.1954 86.6915 44.9763 86.2605Z" fill="#EFBA82"/>
<path d="M54.314 86.2605C54.3586 86.7326 54.4033 87.2046 54.4493 87.6909C54.628 87.6909 54.8066 87.6909 54.9907 87.6909C54.946 88.0581 54.9013 88.4252 54.8553 88.8035C55.1233 88.9608 55.3912 89.1182 55.6673 89.2803C55.6673 89.3852 55.6673 89.4901 55.6673 89.5982C54.8892 90.075 54.8892 90.075 54.5847 90.075C54.674 90.3372 54.7633 90.5994 54.8553 90.8696C54.5427 90.8696 54.2301 90.8696 53.908 90.8696C53.8187 91.3941 53.7293 91.9186 53.6373 92.459C53.0936 92.1311 52.8182 91.8391 52.5547 91.1875C52.5547 91.0302 52.5547 90.8728 52.5547 90.7107C52.4263 90.7894 52.2979 90.868 52.1656 90.9491C51.7427 91.1875 51.7427 91.1875 51.472 91.1875C51.4273 90.9253 51.3827 90.663 51.3367 90.3928C50.7337 90.2355 50.7337 90.2355 50.1187 90.075C50.4257 89.3537 50.6733 89.1298 51.2013 88.6446C51.112 88.5921 51.0227 88.5397 50.9307 88.4856C50.9753 88.3283 51.02 88.1709 51.066 88.0088C51.2 88.0088 51.3339 88.0088 51.472 88.0088C51.3827 87.5368 51.2933 87.0648 51.2013 86.5784C51.6828 86.6753 52.1057 86.8293 52.5547 87.0552C52.5993 86.8454 52.644 86.6356 52.69 86.4195C52.8686 86.5244 53.0473 86.6293 53.2313 86.7373C53.2313 86.8422 53.2313 86.9471 53.2313 87.0552C53.4239 86.8585 53.4239 86.8585 53.6204 86.6579C54.0095 86.2605 54.0095 86.2605 54.314 86.2605Z" fill="#FEE3BC"/>
<path d="M78.1327 25.5476C78.2667 25.705 78.2667 25.705 78.4033 25.8655C78.3129 26.0193 78.2224 26.1732 78.1291 26.3317C77.2257 27.8698 76.3335 29.4162 75.4514 30.9713C75.3547 31.1416 75.3547 31.1416 75.2561 31.3154C74.1626 33.2439 73.0866 35.1837 72.0427 37.1499C71.958 37.3088 71.8734 37.4677 71.7862 37.6314C70.5877 39.8855 69.4303 42.1624 68.3078 44.4695C68.1543 44.7845 68.0008 45.0995 67.8473 45.4144C67.7601 45.594 67.6729 45.7735 67.5831 45.9585C67.4974 46.1334 67.4117 46.3083 67.3235 46.4885C67.2456 46.6481 67.1677 46.8077 67.0874 46.9722C66.9947 47.1452 66.9947 47.1452 66.9 47.3217C66.8553 47.3217 66.8107 47.3217 66.7647 47.3217C66.495 45.8576 66.7268 44.8646 67.3808 43.5992C67.746 42.9349 68.1192 42.2781 68.5006 41.6266C68.7887 41.1334 69.0702 40.6359 69.3498 40.1361C69.8805 39.1889 70.4187 38.2477 70.96 37.3088C71.0393 37.1713 71.1185 37.0337 71.2001 36.8921C72.2297 35.1086 73.2775 33.3409 74.3433 31.5871C74.4124 31.4735 74.4814 31.3599 74.5525 31.2429C75.7213 29.3227 76.9215 27.4312 78.1327 25.5476Z" fill="#6DCE96"/>
<path d="M52.8252 77.042C54.0901 78.0448 54.905 79.9888 55.3965 81.6511C55.3965 81.8609 55.3969 82.0707 55.3969 82.2869C55.7836 82.0892 56.1697 81.8901 56.5557 81.6908C56.664 81.6355 56.7722 81.5802 56.8838 81.5232C57.5412 81.1829 58.163 80.8117 58.7803 80.3796C58.9934 80.63 58.9438 80.8764 58.9494 81.224C58.9446 82.2028 58.7395 83.0997 58.5096 84.0351C58.8669 84.0351 59.2238 84.0351 59.5919 84.0351C59.5919 84.0876 59.5919 84.14 59.5919 84.1941C59.4415 84.2018 59.2911 84.2096 59.1362 84.2177C57.9042 84.2879 56.7109 84.3682 55.5319 84.8298C55.5319 84.4627 55.5319 84.0955 55.5319 83.7173C55.1299 83.8222 54.728 83.9271 54.3139 84.0351C54.3104 83.8393 54.3069 83.6434 54.3033 83.4416C54.2471 81.262 53.9328 79.6098 52.9838 77.7063C52.8252 77.3599 52.8252 77.3599 52.8252 77.042Z" fill="#EFBA82"/>
<path d="M48.3596 77.9956C49.7117 78.2208 50.7145 79.5804 51.6075 80.6975C51.552 80.8645 51.4965 81.0315 51.4393 81.2035C51.0632 82.3495 50.7093 83.4571 50.5248 84.6709C49.7504 84.374 48.9853 84.0585 48.2243 83.7173C48.234 83.5972 48.2437 83.4772 48.2537 83.3535C48.382 81.5671 48.3731 79.787 48.3596 77.9956Z" fill="#EFB981"/>
<path d="M54.0432 95.002C54.1991 95.1497 54.354 95.299 54.5084 95.449C54.5947 95.5319 54.6811 95.6149 54.7701 95.7004C54.9905 95.9556 54.9905 95.9556 55.1258 96.4324C55.0541 96.7568 54.9702 97.0777 54.8805 97.3959C54.5308 98.7533 54.4172 100.11 54.3138 101.518C53.664 101.447 53.3662 101.136 52.9098 100.604C52.7887 100.468 52.6676 100.331 52.5429 100.19C52.2838 99.77 52.2838 99.77 52.3144 99.4031C52.4293 98.9341 52.579 98.512 52.7533 98.0689C52.8194 97.9001 52.8855 97.7313 52.9536 97.5573C53.0575 97.2955 53.0575 97.2955 53.1635 97.0284C53.2328 96.8514 53.302 96.6744 53.3734 96.492C53.8881 95.1841 53.8881 95.1841 54.0432 95.002Z" fill="#FEE4BF"/>
<path d="M43.2166 88.962C43.286 89.0012 43.3554 89.0403 43.4269 89.0807C44.7425 89.8219 46.0553 90.5542 47.4119 91.1871C47.1886 91.6067 46.9654 92.0262 46.7353 92.4585C46.0774 92.3991 45.5283 92.2592 44.9083 91.9917C43.9132 91.5797 42.9074 91.4643 41.8633 91.346C41.8633 90.6282 41.9169 90.5627 42.3116 90.0646C42.4364 89.9045 42.4364 89.9045 42.5637 89.7411C42.7786 89.4779 42.9967 89.2194 43.2166 88.962Z" fill="#FEE4C0"/>
<path d="M47.4119 89.2802C47.9924 89.3851 48.5734 89.4901 49.1716 89.5982C48.9958 89.8293 48.9958 89.8293 48.8164 90.065C47.8047 91.4577 46.9036 93.0548 46.8281 94.9299C46.8225 95.0641 46.8168 95.1983 46.8109 95.3366C46.8056 95.4753 46.8003 95.614 46.7948 95.7569C46.789 95.898 46.7831 96.0392 46.7771 96.1846C46.7628 96.5321 46.7491 96.8795 46.7356 97.227C46.0657 97.6204 46.0657 97.6201 45.3823 98.0214C45.2469 97.8624 45.2469 97.8624 45.2348 97.4843C45.3348 95.0301 46.17 92.5976 47.6741 90.8596C47.7535 90.7759 47.8328 90.6921 47.9146 90.6057C48.1198 90.4037 48.1198 90.4037 48.0885 90.0749C47.8685 89.8036 47.6431 89.5383 47.4119 89.2802Z" fill="#FEB660"/>
<path d="M46.5999 78.4727C46.8144 78.5448 47.0286 78.6179 47.2427 78.6913C47.3621 78.7318 47.4814 78.7724 47.6043 78.8142C47.9209 78.937 48.2015 79.0824 48.4946 79.2674C48.5367 82.9829 48.5371 82.9826 48.2243 83.7173C47.2418 83.7173 46.2589 83.7176 45.2466 83.7176C45.2466 83.6651 45.2466 83.6127 45.2466 83.5586C45.9165 83.5586 46.5864 83.5586 47.2766 83.5586C47.2319 83.4537 47.1873 83.3488 47.1412 83.2408C47.1056 83.0029 47.0756 82.7638 47.0487 82.5243C47.0321 82.3805 47.0154 82.2367 46.9982 82.0885C46.9643 81.7876 46.9305 81.4867 46.8968 81.1858C46.8174 80.5018 46.7293 79.837 46.5782 79.1693C46.5407 78.9919 46.5032 78.8145 46.4646 78.6317C46.5092 78.5792 46.5539 78.5268 46.5999 78.4727Z" fill="#FEE3BD"/>
<path d="M59.7272 88.6443C59.801 88.7058 59.8748 88.7672 59.9508 88.8306C60.8111 89.5283 61.677 90.1187 62.7045 90.3926C62.6616 90.8775 62.5842 91.0135 62.2599 91.3338C62.1359 91.4297 62.0119 91.5255 61.8841 91.6243C61.6975 91.7706 61.6975 91.7706 61.5071 91.9198C61.411 91.9928 61.3149 92.0657 61.2159 92.1409C60.5185 91.7071 59.9664 91.2302 59.3973 90.5913C59.3241 90.5107 59.251 90.4302 59.1756 90.3473C58.9978 90.1514 58.821 89.9543 58.6445 89.7568C58.7478 89.6618 58.8511 89.5667 58.9575 89.4688C59.233 89.2054 59.4833 88.9458 59.7272 88.6443Z" fill="#FEE4BF"/>
<path d="M57.562 78.7904C57.696 78.7904 57.8299 78.7904 57.968 78.7904C58.1418 79.1987 58.1479 79.5479 58.1794 80.0023C58.1964 80.2414 58.1964 80.2414 58.2138 80.4853C58.222 80.6078 58.2302 80.7303 58.2386 80.8566C57.9431 81.0366 57.647 81.2151 57.3505 81.393C57.2681 81.4434 57.1857 81.4938 57.1007 81.5457C56.542 81.879 56.0045 82.105 55.3969 82.2869C55.3076 81.8673 55.218 81.4478 55.126 81.0155C55.2338 80.9348 55.3416 80.854 55.4527 80.7709C56.3991 80.0625 56.3991 80.0625 57.2321 79.1878C57.341 79.0566 57.4498 78.9255 57.562 78.7904Z" fill="#FEE4C0"/>
<path d="M50.5249 95.6373C50.6133 95.8878 50.6133 95.8878 50.7036 96.1433C50.7847 96.3688 50.8661 96.5942 50.9478 96.8194C50.99 96.936 51.0322 97.0525 51.0757 97.1726C51.3214 97.8326 51.583 98.4067 51.9544 98.9849C52.2869 99.5208 52.2869 99.5208 52.2742 99.9435C52.1996 100.256 52.1997 100.256 52.0136 100.723C51.0153 100.243 50.5495 98.7977 50.1189 97.7035C50.0767 97.6049 50.0345 97.5064 49.991 97.4049C49.7465 96.806 49.6675 96.4329 49.8482 95.7963C50.2542 95.6373 50.2542 95.6373 50.5249 95.6373Z" fill="#EBBE92"/>
<path d="M44.9763 86.2605C45.1996 86.5228 45.4229 86.785 45.6529 87.0552C45.4703 87.6986 45.2206 87.7735 44.7225 88.0982C44.301 88.3755 43.8897 88.6476 43.4876 88.9624C43.1519 88.9587 43.1519 88.9587 42.7856 88.9028C42.6636 88.8852 42.5417 88.8676 42.416 88.8494C42.3231 88.8343 42.2301 88.8188 42.1343 88.8032C42.2098 88.2521 42.3367 88.0389 42.7179 87.7108C43.4219 87.1205 44.1954 86.6915 44.9763 86.2605Z" fill="#EBBE92"/>
<path d="M60.9456 91.9823C61.1242 92.0872 61.3029 92.1916 61.4869 92.2997C61.4423 92.4571 61.3976 92.6144 61.3516 92.7765C60.9726 92.9969 60.9726 92.9969 60.4973 93.2037C60.2636 93.3078 60.2636 93.3078 60.0252 93.4141C59.5923 93.5712 59.5923 93.5712 59.0509 93.5712C59.0063 93.6761 58.9616 93.7814 58.9156 93.8895C58.8709 93.5748 58.8263 93.2601 58.7803 92.9359C58.9977 92.8526 58.9977 92.8526 59.2196 92.7676C59.4087 92.6946 59.5977 92.6215 59.7868 92.5485C59.9303 92.4936 59.9303 92.4936 60.0768 92.4377C60.5481 92.2883 60.5481 92.2883 60.9456 91.9823Z" fill="#EBBF93"/>
<path d="M53.096 89.9162C53.4428 90.1148 53.4428 90.1149 53.7727 90.5519C53.7932 91.1992 53.7237 91.8204 53.6373 92.459C53.1054 92.1047 52.801 91.8626 52.5547 91.1875C52.5969 90.7405 52.597 90.7407 52.69 90.393C52.7793 90.393 52.8687 90.393 52.9607 90.393C53.0053 90.2356 53.05 90.0783 53.096 89.9162Z" fill="#FFFCF9"/>
<path d="M51.3536 88.8232C51.6073 88.9622 51.6073 88.9622 52.0133 89.2801C51.924 89.5948 51.8347 89.9095 51.7427 90.2337C51.2067 90.1813 50.6708 90.129 50.1187 90.075C50.384 89.4518 50.6849 88.777 51.3536 88.8232Z" fill="#FFFAF5"/>
<path d="M51.2013 86.5784C51.737 86.6683 52.1033 86.8657 52.5545 87.214C52.5098 87.5286 52.4652 87.8433 52.4192 88.1676C52.1066 88.1151 51.7941 88.0629 51.472 88.0088C51.3827 87.5368 51.2933 87.0648 51.2013 86.5784Z" fill="#FFFCF8"/>
<path d="M54.4494 88.8031C54.9068 88.8597 55.2671 89.0192 55.6673 89.2803C55.6673 89.3852 55.6673 89.4901 55.6673 89.5982C54.9061 90.075 54.9061 90.0746 54.4494 90.0746C54.3601 89.7599 54.2707 89.4452 54.1787 89.121C54.268 89.0161 54.3574 88.9112 54.4494 88.8031Z" fill="#FFFCF8"/>
<path d="M54.314 86.2605C54.314 86.7326 54.314 87.2046 54.314 87.6909C54.0461 87.7958 53.7781 87.9007 53.502 88.0088C53.3921 87.5817 53.3921 87.5817 53.3667 87.0552C53.911 86.2605 53.9109 86.2605 54.314 86.2605Z" fill="#FFFAF3"/>
</g>
</svg>
