<svg width="53" height="63" viewBox="0 0 53 63" fill="none" xmlns="http://www.w3.org/2000/svg">
<path d="M21.7649 62.4998C21.6028 62.4941 21.4492 62.4252 21.3366 62.3078C21.2239 62.1904 21.161 62.0337 21.1611 61.8706V44.3101C21.1611 41.2674 19.8063 35.5003 17.7593 33.7384C17.6899 33.6872 17.6316 33.6222 17.5883 33.5475C17.5449 33.4727 17.5174 33.3897 17.5074 33.3037C17.4974 33.2177 17.5051 33.1306 17.5301 33.0477C17.5551 32.9649 17.5969 32.8881 17.6528 32.8223C17.7086 32.7564 17.7774 32.7028 17.8548 32.6649C17.9322 32.627 18.0166 32.6055 18.1026 32.6019C18.1886 32.5982 18.2745 32.6124 18.3548 32.6437C18.4351 32.6749 18.5081 32.7225 18.5693 32.7834C21.1243 35.0043 22.4055 41.3563 22.4055 44.3101V61.8706C22.4055 61.9544 22.3889 62.0375 22.3565 62.1148C22.3241 62.1922 22.2767 62.2622 22.217 62.3208C22.1573 62.3795 22.0866 62.4255 22.009 62.4562C21.9313 62.487 21.8483 62.5018 21.7649 62.4998Z" fill="#D4A24C"/>
<path d="M1.12587 62.4998C0.959881 62.4998 0.800687 62.4335 0.683313 62.3155C0.565939 62.1975 0.5 62.0374 0.5 61.8706V44.3101C0.5 40.8084 2.03155 34.686 4.53503 32.6205C4.59849 32.5654 4.67229 32.5238 4.75206 32.498C4.83183 32.4722 4.91595 32.4627 4.99942 32.4702C5.08288 32.4777 5.16401 32.5019 5.23798 32.5415C5.31195 32.5811 5.37725 32.6353 5.43002 32.7007C5.48279 32.7662 5.52195 32.8416 5.54518 32.9226C5.5684 33.0035 5.57522 33.0883 5.56523 33.172C5.55524 33.2557 5.52864 33.3364 5.48702 33.4096C5.44539 33.4827 5.38958 33.5467 5.3229 33.5977C3.17284 35.3597 1.75174 41.2156 1.75174 44.3101V61.8706C1.75174 62.0374 1.6858 62.1975 1.56843 62.3155C1.45106 62.4335 1.29186 62.4998 1.12587 62.4998Z" fill="#D4A24C"/>
<path d="M11.4417 45.2355C9.86599 45.2355 5.10936 45.2355 4.81483 40.5123C4.80821 40.4607 4.80821 40.4084 4.81483 40.3568V34.8488C4.81483 30.8807 7.76011 27.6529 11.4417 27.6529C12.5077 27.653 13.5555 27.931 14.4827 28.4599C14.5596 28.4972 14.6281 28.55 14.6839 28.615C14.7397 28.68 14.7818 28.7557 14.8074 28.8376C14.833 28.9195 14.8417 29.0059 14.8329 29.0913C14.8241 29.1767 14.798 29.2594 14.7562 29.3342C14.7145 29.4091 14.6579 29.4746 14.59 29.5267C14.5221 29.5788 14.4443 29.6164 14.3615 29.6371C14.2786 29.6578 14.1924 29.6613 14.1081 29.6473C14.0239 29.6332 13.9434 29.602 13.8716 29.5556C13.1307 29.1329 12.2935 28.911 11.4417 28.9115C8.49643 28.9115 6.06658 31.5766 6.06658 34.834V40.2162C6.06967 40.2506 6.06967 40.2853 6.06658 40.3198C6.16966 42.8369 7.81902 43.9622 11.427 43.9622C15.035 43.9622 16.6843 42.8369 16.7874 40.3198C16.7846 40.2853 16.7846 40.2507 16.7874 40.2162V34.8488C16.7877 34.2428 16.7034 33.6397 16.537 33.0573C16.508 32.9763 16.4959 32.8902 16.5013 32.8043C16.5067 32.7184 16.5295 32.6345 16.5685 32.5578C16.6074 32.4811 16.6616 32.4133 16.7276 32.3586C16.7937 32.3038 16.8702 32.2632 16.9525 32.2394C17.0347 32.2155 17.121 32.2089 17.2059 32.2199C17.2908 32.2309 17.3726 32.2593 17.4461 32.3034C17.5197 32.3474 17.5835 32.4062 17.6336 32.476C17.6836 32.5458 17.7189 32.6252 17.7372 32.7093C17.9369 33.4048 18.0386 34.125 18.0391 34.8488V40.3568C18.0455 40.4085 18.0455 40.4607 18.0391 40.5123C17.7741 45.2355 13.0174 45.2355 11.4417 45.2355Z" fill="#D4A24C"/>
<path d="M11.4417 52.8683C8.10618 52.8683 6.41265 52.3944 6.41265 51.4468C6.41276 51.3052 6.46041 51.1677 6.5479 51.0566C6.6354 50.9455 6.75761 50.8674 6.89475 50.8349C7.03189 50.8023 7.17594 50.8173 7.30359 50.8773C7.43124 50.9373 7.53502 51.0388 7.59812 51.1655C8.84679 51.5226 10.145 51.6727 11.4417 51.6097C12.7384 51.6727 14.0366 51.5226 15.2853 51.1655C15.3484 51.0388 15.4522 50.9373 15.5798 50.8773C15.7075 50.8173 15.8515 50.8023 15.9887 50.8349C16.1258 50.8674 16.248 50.9455 16.3355 51.0566C16.423 51.1677 16.4707 51.3052 16.4708 51.4468C16.4708 52.387 14.7846 52.8683 11.4417 52.8683Z" fill="#D4A24C"/>
<path d="M11.4417 56.8956C7.11951 56.8956 7.11952 55.9258 7.11952 55.6074C7.12038 55.47 7.16597 55.3367 7.2493 55.2277C7.33264 55.1188 7.44914 55.0403 7.58102 55.0043C7.7129 54.9682 7.8529 54.9765 7.97964 55.0279C8.10638 55.0793 8.21289 55.1711 8.2829 55.2891C9.31212 55.5659 10.3773 55.6832 11.4417 55.6371C12.5061 55.6832 13.5713 55.5659 14.6005 55.2891C14.6705 55.1711 14.777 55.0793 14.9038 55.0279C15.0305 54.9765 15.1705 54.9682 15.3024 55.0043C15.4343 55.0403 15.5508 55.1188 15.6341 55.2277C15.7175 55.3367 15.763 55.47 15.7639 55.6074C15.7639 55.948 15.7639 56.8956 11.4417 56.8956Z" fill="#D4A24C"/>
<path d="M25.395 27.2902H25.3066C25.1424 27.2669 24.9941 27.179 24.8943 27.0459L23.1345 24.6916C23.0349 24.5581 22.9921 24.3903 23.0156 24.2251C23.0391 24.0599 23.1269 23.9108 23.2596 23.8107L33.8479 15.8078C33.9807 15.7077 34.1476 15.6647 34.312 15.6883C34.4763 15.7119 34.6246 15.8001 34.7241 15.9337L36.484 18.2879C36.5333 18.354 36.5691 18.4292 36.5896 18.5093C36.6099 18.5893 36.6145 18.6726 36.6028 18.7544C36.5912 18.8362 36.5637 18.9149 36.5218 18.986C36.4799 19.0572 36.4245 19.1193 36.3588 19.1689L25.7705 27.1643C25.6622 27.246 25.5304 27.2902 25.395 27.2902ZM24.5114 24.4325L25.5201 25.7799L35.0923 18.5322L34.0836 17.1848L24.5114 24.4325Z" fill="#D4A24C"/>
<path d="M40.8871 24.7139H40.5853C40.2787 24.6749 39.9831 24.5742 39.7161 24.4178C39.4492 24.2613 39.2164 24.0523 39.0316 23.8033L30.1221 11.8841C29.7556 11.4007 29.5934 10.7916 29.6706 10.1888C29.7477 9.58592 30.0582 9.03797 30.5345 8.6637L40.5926 0.668241C40.6559 0.609101 40.7307 0.563786 40.8123 0.535151C40.8939 0.506517 40.9805 0.495182 41.0667 0.501862C41.1529 0.508542 41.2367 0.533092 41.313 0.573964C41.3893 0.614837 41.4563 0.671147 41.5098 0.739347C41.5634 0.807547 41.6023 0.886159 41.6241 0.970229C41.646 1.0543 41.6503 1.14201 41.6367 1.22783C41.6232 1.31365 41.5921 1.39572 41.5455 1.46887C41.4989 1.54202 41.4377 1.60467 41.3658 1.65287L31.315 9.64093C31.095 9.81221 30.9513 10.0641 30.9154 10.3415C30.8796 10.619 30.9544 10.8994 31.1235 11.1216L40.033 23.0407C40.2045 23.2603 40.4549 23.4035 40.7302 23.4395C41.0056 23.4755 41.284 23.4014 41.5057 23.2332L51.527 15.297C51.6579 15.2093 51.8168 15.1743 51.9722 15.1991C52.1275 15.2238 52.2679 15.3065 52.3654 15.4306C52.4628 15.5548 52.5102 15.7113 52.4981 15.8689C52.4861 16.0266 52.4154 16.174 52.3001 16.2816L42.3156 24.2178C41.909 24.5409 41.4054 24.7158 40.8871 24.7139Z" fill="#D4A24C"/>
<path d="M15.9038 34.4787C15.831 34.4789 15.7588 34.4664 15.6903 34.4417L9.10758 32.0208C8.99278 31.9781 8.89295 31.9025 8.82046 31.8033C8.74797 31.7042 8.70599 31.5858 8.69972 31.4629C8.69345 31.34 8.72317 31.2179 8.78519 31.1118C8.84721 31.0057 8.93882 30.9202 9.04867 30.8659L23.3701 23.744C23.5012 23.6781 23.6511 23.6606 23.7937 23.6944C23.9363 23.7282 24.0626 23.8113 24.1506 23.9291L25.9104 26.2833C26.01 26.4169 26.0528 26.5847 26.0293 26.7499C26.0058 26.9151 25.918 27.0642 25.7852 27.1643L16.2867 34.3454C16.1773 34.4313 16.0426 34.4782 15.9038 34.4787ZM10.9116 31.3397L15.8007 33.1387L24.5261 26.5424L23.4511 25.1062L10.9116 31.3397Z" fill="#D4A24C"/>
<path d="M42.2567 19.2799C42.1595 19.2799 42.0637 19.2572 41.9768 19.2135C41.8899 19.1698 41.8143 19.1063 41.756 19.0282L33.1484 7.51621C33.0729 7.38221 33.0489 7.22503 33.0809 7.07442C33.1129 6.92382 33.1988 6.79025 33.3222 6.69901C33.4456 6.60778 33.598 6.56522 33.7505 6.57938C33.9031 6.59355 34.0451 6.66347 34.1498 6.77589L42.7648 18.2953C42.8345 18.3888 42.877 18.4999 42.8874 18.6163C42.8979 18.7327 42.8758 18.8497 42.8239 18.9543C42.7719 19.0588 42.692 19.1467 42.5931 19.2081C42.4942 19.2696 42.3803 19.3021 42.2641 19.3021L42.2567 19.2799Z" fill="#D4A24C"/>
<path d="M13.0616 33.1165C12.9243 33.1172 12.7906 33.0726 12.681 32.9894C12.5715 32.9062 12.4921 32.789 12.4553 32.6561C12.4185 32.5231 12.4262 32.3816 12.4772 32.2534C12.5282 32.1252 12.6197 32.0175 12.7376 31.9468L23.9444 25.121C24.0853 25.0476 24.2487 25.0308 24.4015 25.0739C24.5543 25.117 24.6851 25.2169 24.7674 25.3533C24.8498 25.4897 24.8775 25.6524 24.845 25.8086C24.8125 25.9648 24.7222 26.1027 24.5924 26.1945L13.4003 32.998C13.3015 33.0703 13.1837 33.1115 13.0616 33.1165Z" fill="#D4A24C"/>
<path d="M11.4417 45.2355C9.87335 45.2355 5.12409 45.2355 4.81483 40.8677C4.80829 40.816 4.80829 40.7638 4.81483 40.7122V30.9177C4.81954 29.4646 5.29661 28.0529 6.17336 26.8976C7.0501 25.7424 8.27843 24.907 9.67119 24.5188C11.0639 24.1305 12.5448 24.2107 13.888 24.7472C15.2312 25.2836 16.3631 26.2468 17.1114 27.4901C17.1973 27.6334 17.2231 27.8052 17.183 27.9676C17.143 28.1301 17.0404 28.2698 16.8978 28.3562C16.8273 28.399 16.749 28.4274 16.6675 28.4398C16.586 28.4521 16.5029 28.4482 16.4229 28.4283C16.2613 28.388 16.1223 28.2849 16.0364 28.1415C15.4322 27.1299 14.515 26.3452 13.4251 25.9076C12.3352 25.47 11.1327 25.4035 10.0016 25.7185C8.87061 26.0334 7.87341 26.7124 7.16271 27.6514C6.45201 28.5904 6.06699 29.7378 6.06658 30.9177V40.5789C6.06905 40.611 6.06905 40.6431 6.06658 40.6752C6.16966 42.9554 7.81902 43.9696 11.427 43.9696C15.035 43.9696 16.6843 42.9554 16.7874 40.6752C16.785 40.6431 16.785 40.611 16.7874 40.5789V33.916L16.2499 34.3232C16.1853 34.384 16.1087 34.4303 16.025 34.4592C15.9414 34.488 15.8526 34.4987 15.7645 34.4905C15.6765 34.4823 15.5911 34.4555 15.5141 34.4117C15.4372 34.3679 15.3703 34.3083 15.3179 34.2366C15.2655 34.165 15.2288 34.083 15.2102 33.9961C15.1916 33.9092 15.1916 33.8193 15.2101 33.7323C15.2286 33.6454 15.2652 33.5633 15.3175 33.4916C15.3698 33.4199 15.4366 33.3602 15.5136 33.3164L17.0525 32.1541C17.1455 32.084 17.256 32.0413 17.3718 32.0308C17.4875 32.0203 17.6039 32.0424 17.7079 32.0947C17.8119 32.1469 17.8993 32.2273 17.9604 32.3267C18.0215 32.4261 18.0539 32.5406 18.0539 32.6575V40.7048C18.0609 40.7588 18.0609 40.8136 18.0539 40.8677C17.7593 45.2355 13.0174 45.2355 11.4417 45.2355Z" fill="#D4A24C"/>
<path d="M31.6831 40.5493C31.3756 40.5452 31.0704 40.4953 30.7775 40.4013C29.9955 40.1712 29.3362 39.6387 28.944 38.9206C28.5599 37.903 28.3555 36.8256 28.3403 35.7372C28.2277 34.1789 27.9814 32.6333 27.6039 31.1176C27.5356 30.9377 27.5397 30.7382 27.6153 30.5613C27.6909 30.3843 27.8321 30.244 28.0089 30.17C29.2607 29.6518 34.1056 35.3819 34.4149 35.9593C34.666 36.4345 34.7908 36.9667 34.7772 37.5046C34.7636 38.0425 34.612 38.5677 34.3372 39.0294C34.0625 39.4911 33.6738 39.8736 33.2088 40.1399C32.7438 40.4062 32.2183 40.5472 31.6831 40.5493ZM29.1281 32.0578C29.3406 33.2312 29.493 34.4148 29.5846 35.604C29.6043 36.5253 29.7607 37.4386 30.0485 38.3135C30.1631 38.5289 30.3187 38.7194 30.5066 38.8743C30.6944 39.0292 30.9107 39.1453 31.1432 39.2161C31.3757 39.2869 31.6197 39.311 31.8615 39.287C32.1032 39.2629 32.3378 39.1913 32.552 39.0761C32.7662 38.9609 32.9557 38.8044 33.1097 38.6155C33.2638 38.4267 33.3793 38.2092 33.4497 37.9755C33.5201 37.7417 33.5441 37.4963 33.5202 37.2533C33.4963 37.0103 33.425 36.7743 33.3104 36.559C32.069 34.9222 30.6679 33.4143 29.1281 32.0578Z" fill="#D4A24C"/>
<path d="M18.1128 20.9974C17.9929 20.9959 17.8748 20.9681 17.7667 20.916C16.8583 20.5206 15.9171 20.2059 14.954 19.9758C14.2381 19.8527 13.5499 19.602 12.9217 19.2355C12.4521 18.8732 12.1448 18.3382 12.0674 17.7482C11.9901 17.1581 12.1491 16.5613 12.5094 16.0891C12.8697 15.6169 13.4018 15.3079 13.9887 15.2302C14.5755 15.1524 15.1691 15.3123 15.6387 15.6745C16.3342 16.3812 16.965 17.1493 17.5237 17.9695C18.9301 19.961 18.908 20.3238 18.6871 20.6791C18.626 20.7767 18.5413 20.8571 18.4408 20.9128C18.3403 20.9685 18.2275 20.9976 18.1128 20.9974ZM14.2839 16.4667H14.1587C13.9722 16.4944 13.7976 16.5761 13.6564 16.7018C13.5152 16.8274 13.4134 16.9917 13.3634 17.1746C13.3135 17.3575 13.3175 17.551 13.3751 17.7316C13.4326 17.9121 13.5412 18.072 13.6875 18.1916C14.19 18.4469 14.7252 18.6313 15.2779 18.7395C15.7565 18.8653 16.3014 19.0134 16.8758 19.1985C16.2907 18.2868 15.6226 17.4318 14.8803 16.6444C14.7065 16.5205 14.4968 16.4581 14.2839 16.4667Z" fill="#D4A24C"/>
<path d="M21.3158 15.9707C21.1593 15.9655 21.0086 15.9103 20.8854 15.8131C20.7623 15.7159 20.6732 15.5818 20.631 15.4302C20.2028 14.2854 19.6756 13.1806 19.0553 12.1284C18.5711 11.3994 18.2196 10.5898 18.0171 9.73717C17.9793 9.3969 18.0087 9.05249 18.1033 8.72361C18.198 8.39473 18.3562 8.08782 18.5688 7.8204C18.7815 7.55298 19.0444 7.3303 19.3426 7.16505C19.6409 6.9998 19.9686 6.89524 20.307 6.85732C20.6454 6.81941 20.988 6.84888 21.3151 6.94407C21.6422 7.03925 21.9474 7.19829 22.2134 7.41208C22.4794 7.62588 22.7009 7.89026 22.8652 8.19012C23.0296 8.48998 23.1336 8.81945 23.1713 9.15972C23.1713 9.43364 22.7221 15.6671 21.5072 15.9485L21.3158 15.9707ZM20.5794 8.12327H20.4248C20.251 8.14257 20.0827 8.19627 19.9296 8.28127C19.7765 8.36627 19.6417 8.48089 19.5329 8.61852C19.424 8.75616 19.3434 8.91409 19.2955 9.08321C19.2477 9.25233 19.2336 9.42929 19.2541 9.60391C19.4584 10.2849 19.7584 10.9331 20.145 11.5287C20.4911 12.1506 20.8813 12.8761 21.2642 13.6831C21.6116 12.2479 21.8236 10.783 21.8975 9.30778C21.8611 8.98061 21.7055 8.67856 21.4608 8.45984C21.2161 8.24113 20.8995 8.12123 20.5721 8.12327H20.5794Z" fill="#D4A24C"/>
<path d="M11.4417 45.2355C9.86599 45.2355 5.10936 45.2355 4.81483 40.5123C4.80821 40.4607 4.80821 40.4084 4.81483 40.3568V34.8488C4.81483 30.8807 7.76011 27.6529 11.4417 27.6529C12.5077 27.653 13.5555 27.931 14.4827 28.4599C14.5596 28.4972 14.6281 28.55 14.6839 28.615C14.7397 28.68 14.7818 28.7557 14.8074 28.8376C14.833 28.9195 14.8417 29.0059 14.8329 29.0913C14.8241 29.1767 14.798 29.2594 14.7562 29.3342C14.7145 29.4091 14.6579 29.4746 14.59 29.5267C14.5221 29.5788 14.4443 29.6164 14.3615 29.6371C14.2786 29.6578 14.1924 29.6613 14.1081 29.6473C14.0239 29.6332 13.9434 29.602 13.8716 29.5556C13.1307 29.1329 12.2935 28.911 11.4417 28.9115C8.49643 28.9115 6.06658 31.5766 6.06658 34.834V40.2162C6.06967 40.2506 6.06967 40.2853 6.06658 40.3198C6.16966 42.8369 7.81902 43.9622 11.427 43.9622C15.035 43.9622 16.6843 42.8369 16.7874 40.3198C16.7846 40.2853 16.7846 40.2507 16.7874 40.2162V34.8488C16.7877 34.2428 16.7034 33.6397 16.537 33.0573C16.508 32.9763 16.4959 32.8902 16.5013 32.8043C16.5067 32.7184 16.5295 32.6345 16.5685 32.5578C16.6074 32.4811 16.6616 32.4133 16.7276 32.3586C16.7937 32.3038 16.8702 32.2632 16.9525 32.2394C17.0347 32.2155 17.121 32.2089 17.2059 32.2199C17.2908 32.2309 17.3726 32.2593 17.4461 32.3034C17.5197 32.3474 17.5835 32.4062 17.6336 32.476C17.6836 32.5458 17.7189 32.6252 17.7372 32.7093C17.9369 33.4048 18.0386 34.125 18.0391 34.8488V40.3568C18.0455 40.4085 18.0455 40.4607 18.0391 40.5123C17.7741 45.2355 13.0174 45.2355 11.4417 45.2355ZM11.4417 45.2355C9.87335 45.2355 5.12409 45.2355 4.81483 40.8677C4.80829 40.816 4.80829 40.7638 4.81483 40.7122V30.9177C4.81954 29.4646 5.29661 28.0529 6.17336 26.8976C7.0501 25.7424 8.27843 24.907 9.67119 24.5188C11.0639 24.1305 12.5448 24.2107 13.888 24.7472C15.2312 25.2836 16.3631 26.2468 17.1114 27.4901C17.1973 27.6334 17.2231 27.8052 17.183 27.9676C17.143 28.1301 17.0404 28.2698 16.8978 28.3562C16.8273 28.399 16.749 28.4274 16.6675 28.4398C16.586 28.4521 16.5029 28.4482 16.4229 28.4283C16.2613 28.388 16.1223 28.2849 16.0363 28.1415C15.4322 27.1299 14.515 26.3452 13.4251 25.9076C12.3352 25.47 11.1327 25.4035 10.0016 25.7185C8.87061 26.0334 7.87341 26.7124 7.16271 27.6514C6.45202 28.5904 6.06699 29.7378 6.06658 30.9177V40.5789C6.06905 40.611 6.06905 40.6431 6.06658 40.6752C6.16966 42.9554 7.81902 43.9696 11.427 43.9696C15.035 43.9696 16.6843 42.9554 16.7874 40.6752C16.785 40.6431 16.785 40.611 16.7874 40.5789V33.916L16.2499 34.3232C16.1853 34.384 16.1087 34.4303 16.025 34.4592C15.9414 34.488 15.8526 34.4987 15.7645 34.4905C15.6765 34.4823 15.5911 34.4555 15.5141 34.4117C15.4372 34.3679 15.3703 34.3083 15.3179 34.2366C15.2655 34.165 15.2288 34.083 15.2102 33.9961C15.1916 33.9092 15.1916 33.8193 15.2101 33.7323C15.2286 33.6454 15.2652 33.5633 15.3175 33.4916C15.3698 33.4199 15.4366 33.3602 15.5136 33.3164L17.0525 32.1541C17.1455 32.084 17.256 32.0413 17.3718 32.0308C17.4875 32.0203 17.6039 32.0424 17.7079 32.0947C17.8119 32.1469 17.8993 32.2273 17.9604 32.3267C18.0215 32.4261 18.0539 32.5406 18.0539 32.6575V40.7048C18.0609 40.7588 18.0609 40.8136 18.0539 40.8677C17.7593 45.2355 13.0174 45.2355 11.4417 45.2355ZM21.7649 62.4998C21.6028 62.4941 21.4492 62.4252 21.3366 62.3078C21.2239 62.1904 21.161 62.0337 21.1611 61.8706V44.3101C21.1611 41.2674 19.8063 35.5003 17.7593 33.7384C17.6899 33.6872 17.6316 33.6222 17.5883 33.5474C17.5449 33.4727 17.5174 33.3897 17.5074 33.3037C17.4974 33.2177 17.5051 33.1306 17.5301 33.0477C17.5551 32.9649 17.5969 32.8881 17.6528 32.8223C17.7086 32.7564 17.7774 32.7028 17.8548 32.6649C17.9322 32.627 18.0166 32.6055 18.1026 32.6019C18.1886 32.5982 18.2745 32.6124 18.3548 32.6437C18.4351 32.6749 18.5081 32.7225 18.5693 32.7834C21.1243 35.0043 22.4055 41.3563 22.4055 44.3101V61.8706C22.4055 61.9544 22.3889 62.0375 22.3565 62.1148C22.3241 62.1922 22.2767 62.2622 22.217 62.3208C22.1573 62.3795 22.0866 62.4255 22.009 62.4562C21.9313 62.487 21.8483 62.5018 21.7649 62.4998ZM1.12587 62.4998C0.959881 62.4998 0.800687 62.4335 0.683313 62.3155C0.565939 62.1975 0.5 62.0374 0.5 61.8706V44.3101C0.5 40.8084 2.03155 34.686 4.53503 32.6205C4.59849 32.5654 4.67229 32.5238 4.75206 32.498C4.83183 32.4722 4.91595 32.4627 4.99942 32.4702C5.08288 32.4777 5.16401 32.5019 5.23798 32.5415C5.31195 32.5811 5.37725 32.6353 5.43002 32.7007C5.48279 32.7662 5.52195 32.8416 5.54518 32.9226C5.5684 33.0035 5.57522 33.0883 5.56523 33.172C5.55524 33.2557 5.52864 33.3364 5.48702 33.4096C5.44539 33.4827 5.38958 33.5467 5.3229 33.5977C3.17284 35.3597 1.75174 41.2156 1.75174 44.3101V61.8706C1.75174 62.0374 1.6858 62.1975 1.56843 62.3155C1.45106 62.4335 1.29186 62.4998 1.12587 62.4998ZM11.4417 52.8683C8.10618 52.8683 6.41265 52.3944 6.41265 51.4468C6.41276 51.3052 6.46041 51.1677 6.5479 51.0566C6.6354 50.9455 6.75761 50.8674 6.89475 50.8349C7.03189 50.8023 7.17594 50.8173 7.30359 50.8773C7.43124 50.9373 7.53502 51.0388 7.59812 51.1655C8.84679 51.5226 10.145 51.6727 11.4417 51.6097C12.7384 51.6727 14.0366 51.5226 15.2853 51.1655C15.3484 51.0388 15.4522 50.9373 15.5798 50.8773C15.7075 50.8173 15.8515 50.8023 15.9887 50.8349C16.1258 50.8674 16.248 50.9455 16.3355 51.0566C16.423 51.1677 16.4707 51.3052 16.4708 51.4468C16.4708 52.387 14.7846 52.8683 11.4417 52.8683ZM11.4417 56.8956C7.11951 56.8956 7.11952 55.9258 7.11952 55.6074C7.12038 55.47 7.16597 55.3367 7.2493 55.2278C7.33264 55.1188 7.44914 55.0403 7.58102 55.0043C7.7129 54.9682 7.8529 54.9765 7.97964 55.0279C8.10638 55.0794 8.21289 55.1711 8.2829 55.2891C9.31212 55.5659 10.3773 55.6832 11.4417 55.6371C12.5061 55.6832 13.5713 55.5659 14.6005 55.2891C14.6705 55.1711 14.777 55.0794 14.9038 55.0279C15.0305 54.9765 15.1705 54.9682 15.3024 55.0043C15.4343 55.0403 15.5508 55.1188 15.6341 55.2278C15.7175 55.3367 15.763 55.47 15.7639 55.6074C15.7639 55.948 15.7639 56.8956 11.4417 56.8956ZM25.395 27.2902H25.3066C25.1424 27.2669 24.9941 27.179 24.8943 27.0459L23.1345 24.6916C23.0349 24.5581 22.9921 24.3903 23.0156 24.2251C23.0391 24.0599 23.1269 23.9108 23.2596 23.8107L33.8479 15.8078C33.9807 15.7077 34.1476 15.6647 34.312 15.6883C34.4763 15.7119 34.6246 15.8001 34.7241 15.9337L36.484 18.2879C36.5333 18.354 36.5692 18.4292 36.5895 18.5093C36.6099 18.5893 36.6145 18.6726 36.6028 18.7544C36.5912 18.8362 36.5637 18.9149 36.5218 18.986C36.4799 19.0572 36.4245 19.1193 36.3588 19.1689L25.7705 27.1643C25.6622 27.246 25.5304 27.2902 25.395 27.2902ZM24.5114 24.4325L25.5201 25.7799L35.0923 18.5322L34.0836 17.1848L24.5114 24.4325ZM40.8871 24.7139H40.5853C40.2787 24.6749 39.9831 24.5742 39.7161 24.4178C39.4492 24.2613 39.2164 24.0523 39.0316 23.8033L30.1221 11.8841C29.7556 11.4007 29.5934 10.7916 29.6706 10.1888C29.7477 9.58592 30.0582 9.03797 30.5345 8.6637L40.5926 0.668241C40.6559 0.609101 40.7307 0.563786 40.8123 0.535151C40.8939 0.506517 40.9805 0.495182 41.0667 0.501862C41.1529 0.508542 41.2367 0.533092 41.313 0.573964C41.3893 0.614837 41.4563 0.671147 41.5098 0.739347C41.5634 0.807547 41.6023 0.886159 41.6241 0.970229C41.646 1.0543 41.6503 1.14201 41.6367 1.22783C41.6232 1.31365 41.5921 1.39572 41.5455 1.46887C41.4989 1.54202 41.4377 1.60467 41.3658 1.65287L31.315 9.64093C31.095 9.81221 30.9513 10.0641 30.9154 10.3415C30.8796 10.619 30.9544 10.8994 31.1235 11.1216L40.033 23.0407C40.2045 23.2603 40.4549 23.4035 40.7302 23.4395C41.0056 23.4755 41.284 23.4014 41.5057 23.2332L51.527 15.297C51.6579 15.2093 51.8168 15.1743 51.9722 15.1991C52.1275 15.2238 52.2679 15.3065 52.3654 15.4306C52.4628 15.5548 52.5102 15.7113 52.4981 15.8689C52.4861 16.0266 52.4154 16.174 52.3001 16.2816L42.3156 24.2178C41.909 24.5409 41.4054 24.7158 40.8871 24.7139ZM15.9038 34.4787C15.831 34.4789 15.7588 34.4664 15.6903 34.4417L9.10758 32.0208C8.99278 31.9781 8.89295 31.9025 8.82046 31.8033C8.74797 31.7042 8.70599 31.5858 8.69972 31.4629C8.69345 31.34 8.72317 31.2179 8.78519 31.1118C8.84721 31.0057 8.93882 30.9202 9.04867 30.8659L23.3701 23.744C23.5012 23.6781 23.6511 23.6606 23.7937 23.6944C23.9363 23.7282 24.0626 23.8113 24.1506 23.9291L25.9104 26.2833C26.01 26.4169 26.0528 26.5847 26.0293 26.7499C26.0058 26.9151 25.918 27.0642 25.7852 27.1643L16.2867 34.3454C16.1773 34.4313 16.0426 34.4782 15.9038 34.4787ZM10.9116 31.3397L15.8007 33.1387L24.5261 26.5424L23.4511 25.1062L10.9116 31.3397ZM42.2567 19.2799C42.1595 19.2799 42.0637 19.2572 41.9768 19.2135C41.8899 19.1698 41.8143 19.1063 41.756 19.0282L33.1484 7.51621C33.0729 7.38221 33.0489 7.22503 33.0809 7.07442C33.1129 6.92382 33.1988 6.79025 33.3222 6.69901C33.4456 6.60778 33.598 6.56522 33.7505 6.57938C33.9031 6.59355 34.0451 6.66347 34.1498 6.77589L42.7648 18.2953C42.8345 18.3888 42.877 18.4999 42.8874 18.6163C42.8979 18.7327 42.8758 18.8497 42.8239 18.9543C42.7719 19.0588 42.692 19.1467 42.5931 19.2081C42.4942 19.2696 42.3803 19.3021 42.2641 19.3021L42.2567 19.2799ZM13.0616 33.1165C12.9243 33.1172 12.7906 33.0726 12.681 32.9894C12.5715 32.9062 12.4921 32.789 12.4553 32.656C12.4185 32.5231 12.4262 32.3816 12.4772 32.2534C12.5282 32.1252 12.6197 32.0175 12.7376 31.9468L23.9444 25.121C24.0853 25.0476 24.2487 25.0308 24.4015 25.0739C24.5543 25.117 24.6851 25.2169 24.7674 25.3533C24.8498 25.4897 24.8775 25.6524 24.845 25.8086C24.8125 25.9648 24.7222 26.1027 24.5924 26.1945L13.4003 32.998C13.3015 33.0703 13.1837 33.1115 13.0616 33.1165ZM31.6831 40.5493C31.3756 40.5452 31.0704 40.4953 30.7775 40.4013C29.9955 40.1712 29.3362 39.6387 28.944 38.9206C28.5599 37.9029 28.3555 36.8256 28.3403 35.7372C28.2277 34.1789 27.9814 32.6333 27.6039 31.1176C27.5356 30.9377 27.5397 30.7382 27.6153 30.5613C27.6909 30.3843 27.8321 30.244 28.0089 30.17C29.2607 29.6518 34.1056 35.3819 34.4149 35.9593C34.666 36.4345 34.7908 36.9667 34.7772 37.5046C34.7636 38.0425 34.612 38.5677 34.3373 39.0294C34.0625 39.4911 33.6738 39.8736 33.2088 40.1399C32.7438 40.4062 32.2183 40.5472 31.6831 40.5493ZM29.1281 32.0578C29.3406 33.2312 29.493 34.4148 29.5846 35.604C29.6043 36.5253 29.7607 37.4386 30.0485 38.3135C30.1631 38.5289 30.3187 38.7194 30.5066 38.8743C30.6944 39.0292 30.9107 39.1453 31.1432 39.2161C31.3757 39.2869 31.6197 39.311 31.8615 39.287C32.1032 39.2629 32.3378 39.1913 32.552 39.0761C32.7662 38.9609 32.9557 38.8044 33.1097 38.6155C33.2638 38.4267 33.3793 38.2092 33.4497 37.9755C33.5201 37.7417 33.5441 37.4963 33.5202 37.2533C33.4963 37.0103 33.425 36.7743 33.3104 36.559C32.069 34.9222 30.6679 33.4143 29.1281 32.0578ZM18.1128 20.9974C17.9929 20.9959 17.8748 20.9681 17.7667 20.916C16.8583 20.5206 15.9171 20.2059 14.954 19.9758C14.2381 19.8527 13.5499 19.602 12.9217 19.2355C12.4521 18.8732 12.1448 18.3382 12.0674 17.7482C11.9901 17.1581 12.1491 16.5613 12.5094 16.0891C12.8697 15.6169 13.4018 15.3079 13.9887 15.2302C14.5755 15.1524 15.1691 15.3123 15.6387 15.6745C16.3341 16.3812 16.965 17.1493 17.5237 17.9695C18.9301 19.961 18.908 20.3238 18.6871 20.6791C18.626 20.7767 18.5413 20.8571 18.4408 20.9128C18.3403 20.9685 18.2275 20.9976 18.1128 20.9974ZM14.2839 16.4667H14.1587C13.9722 16.4944 13.7976 16.5761 13.6564 16.7018C13.5152 16.8274 13.4134 16.9917 13.3634 17.1746C13.3135 17.3575 13.3175 17.551 13.3751 17.7316C13.4326 17.9121 13.5412 18.072 13.6875 18.1916C14.19 18.4469 14.7252 18.6313 15.2779 18.7395C15.7565 18.8653 16.3014 19.0134 16.8758 19.1985C16.2907 18.2869 15.6226 17.4318 14.8803 16.6444C14.7065 16.5205 14.4968 16.4581 14.2839 16.4667ZM21.3158 15.9707C21.1593 15.9655 21.0086 15.9103 20.8854 15.8131C20.7623 15.7159 20.6732 15.5818 20.631 15.4302C20.2028 14.2854 19.6756 13.1806 19.0553 12.1284C18.5711 11.3994 18.2196 10.5898 18.0171 9.73717C17.9793 9.3969 18.0087 9.05249 18.1033 8.72361C18.198 8.39473 18.3562 8.08782 18.5688 7.8204C18.7815 7.55298 19.0444 7.3303 19.3426 7.16505C19.6409 6.9998 19.9686 6.89524 20.307 6.85732C20.6454 6.81941 20.988 6.84888 21.3151 6.94407C21.6422 7.03925 21.9474 7.19829 22.2134 7.41208C22.4794 7.62588 22.7009 7.89026 22.8652 8.19012C23.0296 8.48998 23.1336 8.81945 23.1713 9.15972C23.1713 9.43364 22.7221 15.6671 21.5072 15.9485L21.3158 15.9707ZM20.5794 8.12327H20.4248C20.251 8.14257 20.0827 8.19627 19.9296 8.28127C19.7765 8.36627 19.6417 8.48089 19.5329 8.61852C19.424 8.75616 19.3434 8.91409 19.2955 9.08321C19.2477 9.25233 19.2336 9.42929 19.2541 9.60391C19.4584 10.2849 19.7584 10.9331 20.145 11.5287C20.4911 12.1506 20.8813 12.8761 21.2642 13.6831C21.6116 12.2479 21.8236 10.783 21.8975 9.30778C21.8611 8.98061 21.7055 8.67856 21.4608 8.45984C21.2161 8.24113 20.8995 8.12123 20.5721 8.12327H20.5794Z" stroke="#A3B38C"/>
</svg>
