<svg width="90" height="113" viewBox="0 0 90 113" fill="none" xmlns="http://www.w3.org/2000/svg">
<path d="M43.0379 83.0324C42.8397 83.0254 42.652 82.9413 42.5143 82.798C42.3767 82.6546 42.2998 82.4632 42.2999 82.264V60.8211C42.2999 57.1057 40.6439 50.0635 38.1419 47.912C38.057 47.8496 37.9858 47.7702 37.9328 47.6789C37.8798 47.5876 37.8461 47.4862 37.8339 47.3812C37.8217 47.2762 37.8311 47.1698 37.8617 47.0687C37.8923 46.9675 37.9433 46.8738 38.0116 46.7934C38.0799 46.7129 38.164 46.6475 38.2586 46.6012C38.3532 46.5549 38.4563 46.5287 38.5614 46.5242C38.6666 46.5198 38.7715 46.5372 38.8697 46.5753C38.9678 46.6134 39.0571 46.6715 39.1319 46.7458C42.2549 49.4578 43.8209 57.2142 43.8209 60.8211V82.264C43.8209 82.3665 43.8006 82.4679 43.761 82.5623C43.7214 82.6567 43.6635 82.7422 43.5905 82.8138C43.5176 82.8854 43.4311 82.9417 43.3362 82.9792C43.2413 83.0167 43.1399 83.0348 43.0379 83.0324Z" fill="#D4A24C"/>
<path d="M17.8109 83.0324C17.608 83.0324 17.4134 82.9515 17.27 82.8074C17.1265 82.6632 17.0459 82.4678 17.0459 82.264V60.8211C17.0459 56.5452 18.9179 49.0691 21.9779 46.547C22.0555 46.4798 22.1457 46.4289 22.2432 46.3974C22.3407 46.3658 22.4435 46.3543 22.5455 46.3635C22.6475 46.3726 22.7467 46.4022 22.8371 46.4506C22.9275 46.4989 23.0073 46.565 23.0718 46.645C23.1363 46.7249 23.1842 46.817 23.2126 46.9158C23.241 47.0147 23.2493 47.1183 23.2371 47.2204C23.2249 47.3226 23.1924 47.4212 23.1415 47.5105C23.0906 47.5998 23.0224 47.6779 22.9409 47.7402C20.3129 49.8918 18.5759 57.0424 18.5759 60.8211V82.264C18.5759 82.4678 18.4953 82.6632 18.3518 82.8074C18.2084 82.9515 18.0138 83.0324 17.8109 83.0324Z" fill="#D4A24C"/>
<path d="M30.4199 61.9511C28.4939 61.9511 22.6799 61.9511 22.3199 56.1836C22.3118 56.1206 22.3118 56.0568 22.3199 55.9938V49.268C22.3199 44.4226 25.9199 40.4811 30.4199 40.4811C31.7229 40.4812 33.0036 40.8207 34.1369 41.4665C34.2309 41.5121 34.3146 41.5766 34.3828 41.6559C34.4511 41.7352 34.5024 41.8278 34.5338 41.9278C34.5651 42.0278 34.5757 42.1332 34.5649 42.2375C34.5542 42.3418 34.5223 42.4427 34.4712 42.5342C34.4202 42.6256 34.351 42.7056 34.268 42.7692C34.1851 42.8328 34.09 42.8787 33.9887 42.904C33.8874 42.9293 33.782 42.9335 33.679 42.9164C33.5761 42.8993 33.4777 42.8612 33.3899 42.8044C32.4844 42.2884 31.461 42.0174 30.4199 42.0179C26.8199 42.0179 23.8499 45.2723 23.8499 49.2499V55.822C23.8537 55.8641 23.8537 55.9065 23.8499 55.9486C23.9759 59.0222 25.9919 60.3962 30.4019 60.3962C34.8119 60.3962 36.8279 59.0222 36.9539 55.9486C36.9504 55.9065 36.9504 55.8641 36.9539 55.822V49.268C36.9543 48.528 36.8513 47.7916 36.6479 47.0803C36.6124 46.9814 36.5975 46.8763 36.6042 46.7714C36.6108 46.6665 36.6387 46.5641 36.6863 46.4704C36.7339 46.3768 36.8001 46.294 36.8809 46.2271C36.9616 46.1603 37.0551 46.1107 37.1557 46.0816C37.2562 46.0525 37.3617 46.0444 37.4655 46.0578C37.5692 46.0713 37.6692 46.106 37.7591 46.1597C37.849 46.2135 37.927 46.2853 37.9882 46.3705C38.0494 46.4558 38.0925 46.5528 38.1149 46.6554C38.359 47.5047 38.4832 48.3841 38.4839 49.268V55.9938C38.4916 56.0568 38.4916 56.1206 38.4839 56.1836C38.1599 61.9511 32.3459 61.9511 30.4199 61.9511Z" fill="#D4A24C"/>
<path d="M30.4199 71.2714C26.3429 71.2714 24.2729 70.6928 24.2729 69.5357C24.273 69.3627 24.3313 69.1948 24.4382 69.0592C24.5452 68.9236 24.6945 68.8282 24.8622 68.7884C25.0298 68.7487 25.2059 68.7669 25.3619 68.8402C25.5179 68.9135 25.6448 69.0375 25.7219 69.1922C27.2481 69.6282 28.835 69.8114 30.4199 69.7346C32.0048 69.8114 33.5917 69.6282 35.1179 69.1922C35.195 69.0375 35.3219 68.9135 35.4779 68.8402C35.6339 68.7669 35.81 68.7487 35.9776 68.7884C36.1453 68.8282 36.2946 68.9236 36.4016 69.0592C36.5085 69.1948 36.5668 69.3627 36.5669 69.5357C36.5669 70.6838 34.5059 71.2714 30.4199 71.2714Z" fill="#D4A24C"/>
<path d="M30.4199 76.1891C25.1369 76.1891 25.1369 75.0049 25.1369 74.6162C25.138 74.4484 25.1937 74.2855 25.2955 74.1525C25.3974 74.0195 25.5398 73.9237 25.701 73.8796C25.8622 73.8356 26.0333 73.8457 26.1882 73.9085C26.3431 73.9713 26.4733 74.0833 26.5589 74.2274C27.8169 74.5654 29.1189 74.7087 30.4199 74.6523C31.7209 74.7087 33.0229 74.5654 34.2809 74.2274C34.3665 74.0833 34.4967 73.9713 34.6516 73.9085C34.8065 73.8457 34.9776 73.8356 35.1388 73.8796C35.3 73.9237 35.4424 74.0195 35.5443 74.1525C35.6461 74.2855 35.7018 74.4484 35.7029 74.6162C35.7029 75.032 35.7029 76.1891 30.4199 76.1891Z" fill="#D4A24C"/>
<path d="M47.4749 40.0382H47.3669C47.1662 40.0097 46.9849 39.9024 46.8629 39.7398L44.7119 36.8651C44.5902 36.7021 44.5379 36.4972 44.5666 36.2954C44.5953 36.0937 44.7026 35.9116 44.8649 35.7894L57.8069 26.0171C57.9692 25.8949 58.1732 25.8424 58.3741 25.8712C58.5749 25.9 58.7562 26.0078 58.8779 26.1708L61.0289 29.0455C61.0892 29.1263 61.133 29.2181 61.158 29.3159C61.1829 29.4136 61.1884 29.5153 61.1742 29.6152C61.16 29.7151 61.1264 29.8112 61.0752 29.8981C61.024 29.9849 60.9563 30.0607 60.8759 30.1213L47.9339 39.8845C47.8015 39.9842 47.6404 40.0382 47.4749 40.0382ZM46.3949 36.5487L47.6279 38.194L59.3279 29.3438L58.0949 27.6986L46.3949 36.5487Z" fill="#D4A24C"/>
<path d="M66.4109 36.8923H66.0419C65.6672 36.8447 65.3059 36.7217 64.9796 36.5307C64.6533 36.3396 64.3687 36.0844 64.1429 35.7803L53.2529 21.2259C52.8049 20.6357 52.6066 19.8919 52.7009 19.1558C52.7953 18.4196 53.1747 17.7505 53.7569 17.2935L66.0509 7.53033C66.1283 7.45811 66.2197 7.40278 66.3195 7.36781C66.4192 7.33285 66.5251 7.31901 66.6304 7.32716C66.7357 7.33532 66.8382 7.3653 66.9314 7.41521C67.0246 7.46512 67.1065 7.53388 67.172 7.61716C67.2375 7.70043 67.285 7.79643 67.3117 7.89908C67.3384 8.00174 67.3437 8.10884 67.3271 8.21363C67.3106 8.31843 67.2726 8.41864 67.2156 8.50797C67.1586 8.5973 67.0838 8.67379 66.9959 8.73265L54.7109 18.4868C54.442 18.696 54.2664 19.0035 54.2225 19.3423C54.1787 19.6811 54.2701 20.0235 54.4769 20.2948L65.3669 34.8492C65.5765 35.1173 65.8825 35.2922 66.2191 35.3361C66.5557 35.3801 66.896 35.2896 67.1669 35.0842L79.4159 25.3934C79.5759 25.2862 79.7701 25.2436 79.96 25.2738C80.1499 25.3041 80.3215 25.405 80.4407 25.5566C80.5598 25.7082 80.6177 25.8992 80.603 26.0918C80.5882 26.2843 80.5018 26.4642 80.3609 26.5957L68.1569 36.2866C67.6599 36.6811 67.0444 36.8946 66.4109 36.8923Z" fill="#D4A24C"/>
<path d="M35.8739 48.816C35.7849 48.8163 35.6966 48.801 35.6129 48.7708L27.5669 45.8147C27.4266 45.7626 27.3046 45.6702 27.216 45.5491C27.1273 45.4281 27.076 45.2835 27.0684 45.1334C27.0607 44.9833 27.097 44.8343 27.1728 44.7047C27.2487 44.5752 27.3606 44.4708 27.4949 44.4045L44.9999 35.708C45.1601 35.6275 45.3433 35.6061 45.5177 35.6474C45.692 35.6887 45.8464 35.7901 45.9539 35.934L48.1049 38.8087C48.2266 38.9718 48.2789 39.1767 48.2502 39.3784C48.2215 39.5802 48.1142 39.7622 47.9519 39.8845L36.3419 48.6533C36.2082 48.7582 36.0435 48.8154 35.8739 48.816ZM29.7719 44.983L35.7479 47.1798L46.4129 39.1251L45.0989 37.3714L29.7719 44.983Z" fill="#D4A24C"/>
<path d="M68.0849 30.2569C67.9661 30.2569 67.849 30.2291 67.7428 30.1758C67.6366 30.1224 67.5442 30.045 67.4729 29.9495L56.9519 15.8923C56.8596 15.7287 56.8302 15.5368 56.8694 15.3529C56.9085 15.169 57.0135 15.0059 57.1643 14.8945C57.3151 14.7831 57.5014 14.7311 57.6879 14.7484C57.8743 14.7657 58.0479 14.8511 58.1759 14.9883L68.7059 29.0546C68.7911 29.1687 68.8431 29.3045 68.8558 29.4466C68.8686 29.5887 68.8417 29.7316 68.7781 29.8592C68.7146 29.9869 68.6169 30.0942 68.4961 30.1692C68.3752 30.2443 68.236 30.284 68.0939 30.284L68.0849 30.2569Z" fill="#D4A24C"/>
<path d="M32.3999 47.1526C32.2321 47.1536 32.0686 47.099 31.9347 46.9974C31.8008 46.8958 31.7038 46.7528 31.6588 46.5904C31.6138 46.428 31.6232 46.2552 31.6855 46.0987C31.7479 45.9422 31.8598 45.8107 32.0039 45.7243L45.7019 37.3894C45.8741 37.2998 46.0738 37.2792 46.2606 37.3319C46.4473 37.3845 46.6072 37.5065 46.7078 37.673C46.8085 37.8396 46.8424 38.0383 46.8027 38.229C46.7629 38.4197 46.6526 38.5882 46.4939 38.7002L32.8139 47.008C32.6931 47.0962 32.5491 47.1466 32.3999 47.1526Z" fill="#D4A24C"/>
<path d="M30.4199 61.9511C28.5029 61.9511 22.6979 61.9511 22.3199 56.6175C22.3119 56.5545 22.3119 56.4907 22.3199 56.4277V44.4678C22.3257 42.6934 22.9088 40.9695 23.9804 39.5588C25.052 38.1482 26.5534 37.1281 28.2558 36.654C29.9582 36.1799 31.7681 36.2779 33.4099 36.9329C35.0517 37.5879 36.4353 38.7641 37.3499 40.2822C37.4549 40.4573 37.4864 40.667 37.4375 40.8654C37.3885 41.0637 37.2631 41.2344 37.0889 41.3399C37.0026 41.3922 36.9069 41.4268 36.8073 41.4419C36.7077 41.457 36.6061 41.4522 36.5083 41.4279C36.3109 41.3787 36.1409 41.2528 36.0359 41.0778C35.2975 39.8425 34.1764 38.8843 32.8442 38.3499C31.512 37.8155 30.0422 37.7344 28.6597 38.119C27.2773 38.5036 26.0584 39.3326 25.1897 40.4793C24.321 41.6259 23.8504 43.0269 23.8499 44.4678V56.265C23.8529 56.3041 23.8529 56.3434 23.8499 56.3825C23.9759 59.1668 25.9919 60.4053 30.4019 60.4053C34.8119 60.4053 36.8279 59.1668 36.9539 56.3825C36.951 56.3434 36.951 56.3041 36.9539 56.265V48.129L36.2969 48.6262C36.218 48.7004 36.1243 48.757 36.0221 48.7922C35.9198 48.8274 35.8113 48.8404 35.7037 48.8304C35.596 48.8204 35.4917 48.7876 35.3976 48.7342C35.3035 48.6808 35.2217 48.6079 35.1577 48.5205C35.0937 48.433 35.0488 48.3329 35.0261 48.2267C35.0034 48.1206 35.0033 48.0108 35.0259 47.9046C35.0485 47.7984 35.0933 47.6983 35.1572 47.6107C35.2212 47.5232 35.3029 47.4503 35.3969 47.3967L37.2779 45.9774C37.3916 45.8918 37.5267 45.8397 37.6682 45.8269C37.8097 45.8141 37.9519 45.8411 38.079 45.9049C38.2061 45.9687 38.313 46.0668 38.3876 46.1882C38.4623 46.3096 38.5019 46.4495 38.5019 46.5922V56.4186C38.5105 56.4847 38.5105 56.5515 38.5019 56.6175C38.1419 61.9511 32.3459 61.9511 30.4199 61.9511Z" fill="#D4A24C"/>
<path d="M55.1609 56.2288C54.785 56.2238 54.412 56.1628 54.0539 56.048C53.0981 55.767 52.2922 55.1169 51.8129 54.24C51.3433 52.9974 51.0936 51.6818 51.0749 50.3528C50.9374 48.4499 50.6363 46.5626 50.1749 44.7118C50.0914 44.4922 50.0964 44.2485 50.1888 44.0325C50.2812 43.8164 50.4538 43.6451 50.6699 43.5547C52.1999 42.9219 58.1219 49.9189 58.4999 50.624C58.8068 51.2042 58.9593 51.8542 58.9427 52.5109C58.9261 53.1677 58.7409 53.809 58.405 54.3728C58.0691 54.9366 57.594 55.4037 57.0257 55.7288C56.4573 56.054 55.815 56.2262 55.1609 56.2288ZM52.0379 45.8599C52.2977 47.2928 52.4839 48.7381 52.5959 50.1901C52.62 51.3152 52.8111 52.4303 53.1629 53.4987C53.303 53.7617 53.4932 53.9944 53.7228 54.1835C53.9524 54.3726 54.2168 54.5144 54.5009 54.6009C54.7851 54.6873 55.0834 54.7167 55.3788 54.6874C55.6743 54.658 55.9611 54.5705 56.2229 54.4298C56.4847 54.2892 56.7163 54.0981 56.9046 53.8675C57.0929 53.6369 57.2341 53.3713 57.3201 53.0859C57.4062 52.8005 57.4355 52.5008 57.4063 52.2041C57.3771 51.9073 57.29 51.6192 57.1499 51.3563C55.6325 49.3576 53.92 47.5163 52.0379 45.8599Z" fill="#D4A24C"/>
<path d="M38.5739 32.3542C38.4274 32.3523 38.283 32.3184 38.1509 32.2547C37.0405 31.7718 35.8901 31.3877 34.7129 31.1066C33.8379 30.9563 32.9967 30.6502 32.2289 30.2026C31.6548 29.7603 31.2792 29.107 31.1847 28.3865C31.0902 27.666 31.2845 26.9373 31.7249 26.3606C32.1653 25.784 32.8157 25.4068 33.533 25.3118C34.2503 25.2169 34.9758 25.4121 35.5499 25.8544C36.3999 26.7174 37.171 27.6553 37.8539 28.6568C39.5729 31.0886 39.5459 31.5315 39.2759 31.9654C39.2012 32.0846 39.0976 32.1828 38.9748 32.2508C38.8521 32.3188 38.7141 32.3544 38.5739 32.3542ZM33.8939 26.8217H33.7409C33.5128 26.8555 33.2995 26.9552 33.1269 27.1087C32.9543 27.2622 32.8299 27.4628 32.7688 27.6861C32.7078 27.9094 32.7127 28.1457 32.783 28.3662C32.8534 28.5867 32.986 28.7819 33.1649 28.928C33.7792 29.2398 34.4333 29.4649 35.1089 29.597C35.6939 29.7507 36.3599 29.9314 37.0619 30.1574C36.3467 29.0443 35.5302 28.0002 34.6229 27.0386C34.4104 26.8874 34.1541 26.8112 33.8939 26.8217Z" fill="#D4A24C"/>
<path d="M42.4889 26.216C42.2977 26.2097 42.1134 26.1423 41.9629 26.0236C41.8124 25.9049 41.7035 25.7412 41.6519 25.5561C41.1286 24.1581 40.4841 22.809 39.7259 21.5242C39.1341 20.6341 38.7045 19.6454 38.4569 18.6043C38.4108 18.1888 38.4466 17.7683 38.5624 17.3667C38.6781 16.9651 38.8714 16.5903 39.1313 16.2638C39.3912 15.9372 39.7126 15.6653 40.0772 15.4635C40.4417 15.2618 40.8422 15.1341 41.2559 15.0878C41.6696 15.0415 42.0883 15.0775 42.4881 15.1937C42.8879 15.3099 43.261 15.5041 43.5861 15.7652C43.9112 16.0262 44.1819 16.3491 44.3828 16.7152C44.5837 17.0814 44.7108 17.4837 44.7569 17.8992C44.7569 18.2337 44.2079 25.8454 42.7229 26.1889L42.4889 26.216ZM41.5889 16.6336H41.3999C41.1874 16.6572 40.9817 16.7227 40.7946 16.8265C40.6075 16.9303 40.4427 17.0703 40.3097 17.2384C40.1766 17.4064 40.078 17.5993 40.0196 17.8058C39.9611 18.0123 39.9439 18.2284 39.9689 18.4416C40.2186 19.2732 40.5853 20.0646 41.0579 20.792C41.4809 21.5514 41.9579 22.4373 42.4259 23.4226C42.8504 21.6702 43.1096 19.8814 43.1999 18.08C43.1554 17.6805 42.9653 17.3117 42.6662 17.0446C42.3671 16.7775 41.9801 16.6311 41.5799 16.6336H41.5889Z" fill="#D4A24C"/>
<path d="M30.4199 61.9511C28.4939 61.9511 22.6799 61.9511 22.3199 56.1836C22.3118 56.1206 22.3118 56.0568 22.3199 55.9938V49.268C22.3199 44.4226 25.9199 40.4811 30.4199 40.4811C31.7229 40.4812 33.0036 40.8207 34.1369 41.4665C34.2309 41.5121 34.3146 41.5766 34.3828 41.6559C34.4511 41.7352 34.5024 41.8277 34.5338 41.9278C34.5651 42.0278 34.5757 42.1332 34.5649 42.2375C34.5542 42.3418 34.5223 42.4427 34.4712 42.5342C34.4202 42.6256 34.351 42.7056 34.268 42.7692C34.1851 42.8328 34.09 42.8787 33.9887 42.904C33.8874 42.9293 33.782 42.9335 33.679 42.9164C33.5761 42.8993 33.4777 42.8612 33.3899 42.8044C32.4844 42.2884 31.461 42.0174 30.4199 42.0179C26.8199 42.0179 23.8499 45.2723 23.8499 49.2499V55.822C23.8537 55.8641 23.8537 55.9065 23.8499 55.9486C23.9759 59.0222 25.9919 60.3962 30.4019 60.3962C34.8119 60.3962 36.8279 59.0222 36.9539 55.9486C36.9504 55.9065 36.9504 55.8641 36.9539 55.822V49.268C36.9543 48.528 36.8513 47.7916 36.6479 47.0803C36.6124 46.9814 36.5975 46.8763 36.6042 46.7714C36.6108 46.6665 36.6387 46.5641 36.6863 46.4704C36.7339 46.3768 36.8001 46.294 36.8809 46.2271C36.9616 46.1603 37.0551 46.1107 37.1557 46.0816C37.2562 46.0525 37.3617 46.0444 37.4655 46.0578C37.5692 46.0713 37.6692 46.106 37.7591 46.1597C37.849 46.2135 37.927 46.2853 37.9882 46.3705C38.0494 46.4558 38.0925 46.5528 38.1149 46.6554C38.359 47.5047 38.4832 48.3841 38.4839 49.268V55.9938C38.4916 56.0568 38.4916 56.1206 38.4839 56.1836C38.1599 61.9511 32.3459 61.9511 30.4199 61.9511ZM30.4199 61.9511C28.5029 61.9511 22.6979 61.9511 22.3199 56.6175C22.3119 56.5545 22.3119 56.4907 22.3199 56.4277V44.4678C22.3257 42.6934 22.9088 40.9695 23.9804 39.5588C25.052 38.1482 26.5534 37.1281 28.2558 36.654C29.9582 36.1799 31.7681 36.2779 33.4099 36.9329C35.0517 37.5879 36.4353 38.7641 37.3499 40.2822C37.4549 40.4573 37.4864 40.667 37.4375 40.8654C37.3885 41.0637 37.2631 41.2344 37.0889 41.3399C37.0026 41.3922 36.9069 41.4268 36.8073 41.4419C36.7077 41.457 36.6061 41.4522 36.5083 41.4279C36.3109 41.3787 36.1409 41.2528 36.0359 41.0778C35.2975 39.8425 34.1764 38.8843 32.8442 38.3499C31.512 37.8155 30.0422 37.7344 28.6597 38.119C27.2773 38.5036 26.0584 39.3326 25.1897 40.4793C24.321 41.6259 23.8504 43.0269 23.8499 44.4678V56.265C23.8529 56.3041 23.8529 56.3434 23.8499 56.3825C23.9759 59.1668 25.9919 60.4053 30.4019 60.4053C34.8119 60.4053 36.8279 59.1668 36.9539 56.3825C36.951 56.3434 36.951 56.3041 36.9539 56.265V48.129L36.2969 48.6262C36.218 48.7004 36.1243 48.757 36.0221 48.7922C35.9198 48.8274 35.8113 48.8404 35.7037 48.8304C35.596 48.8204 35.4917 48.7876 35.3976 48.7342C35.3035 48.6808 35.2217 48.6079 35.1577 48.5205C35.0937 48.433 35.0488 48.3329 35.0261 48.2267C35.0034 48.1206 35.0033 48.0108 35.0259 47.9046C35.0485 47.7984 35.0933 47.6983 35.1572 47.6107C35.2212 47.5232 35.3029 47.4503 35.3969 47.3967L37.2779 45.9774C37.3916 45.8918 37.5267 45.8397 37.6682 45.8269C37.8097 45.8141 37.9519 45.8411 38.079 45.9049C38.2061 45.9687 38.313 46.0668 38.3876 46.1882C38.4623 46.3096 38.5019 46.4495 38.5019 46.5922V56.4186C38.5105 56.4847 38.5105 56.5515 38.5019 56.6175C38.1419 61.9511 32.3459 61.9511 30.4199 61.9511ZM43.0379 83.0324C42.8397 83.0254 42.652 82.9413 42.5143 82.798C42.3767 82.6546 42.2998 82.4632 42.2999 82.264V60.8211C42.2999 57.1057 40.6439 50.0635 38.1419 47.912C38.057 47.8496 37.9858 47.7702 37.9328 47.6789C37.8798 47.5876 37.8461 47.4862 37.8339 47.3812C37.8217 47.2762 37.8311 47.1698 37.8617 47.0687C37.8923 46.9675 37.9433 46.8738 38.0116 46.7934C38.0799 46.7129 38.164 46.6475 38.2586 46.6012C38.3532 46.5549 38.4563 46.5287 38.5614 46.5242C38.6666 46.5198 38.7715 46.5372 38.8697 46.5753C38.9678 46.6134 39.0571 46.6715 39.1319 46.7458C42.2549 49.4578 43.8209 57.2142 43.8209 60.8211V82.264C43.8209 82.3665 43.8006 82.4679 43.761 82.5623C43.7214 82.6567 43.6635 82.7422 43.5905 82.8138C43.5176 82.8854 43.4311 82.9417 43.3362 82.9792C43.2413 83.0167 43.1399 83.0348 43.0379 83.0324ZM17.8109 83.0324C17.608 83.0324 17.4134 82.9515 17.27 82.8074C17.1265 82.6632 17.0459 82.4678 17.0459 82.264V60.8211C17.0459 56.5452 18.9179 49.0691 21.9779 46.547C22.0555 46.4798 22.1457 46.4289 22.2432 46.3974C22.3407 46.3658 22.4435 46.3543 22.5455 46.3635C22.6475 46.3726 22.7467 46.4022 22.8371 46.4506C22.9275 46.4989 23.0073 46.565 23.0718 46.645C23.1363 46.7249 23.1842 46.817 23.2126 46.9158C23.241 47.0147 23.2493 47.1183 23.2371 47.2204C23.2249 47.3226 23.1924 47.4212 23.1415 47.5105C23.0906 47.5998 23.0224 47.6779 22.9409 47.7402C20.3129 49.8918 18.5759 57.0424 18.5759 60.8211V82.264C18.5759 82.4678 18.4953 82.6632 18.3518 82.8074C18.2084 82.9515 18.0138 83.0324 17.8109 83.0324ZM30.4199 71.2714C26.3429 71.2714 24.2729 70.6928 24.2729 69.5357C24.273 69.3627 24.3313 69.1948 24.4382 69.0592C24.5452 68.9236 24.6945 68.8282 24.8622 68.7884C25.0298 68.7487 25.2059 68.7669 25.3619 68.8402C25.5179 68.9135 25.6448 69.0375 25.7219 69.1922C27.2481 69.6282 28.835 69.8114 30.4199 69.7346C32.0048 69.8114 33.5917 69.6282 35.1179 69.1922C35.195 69.0375 35.3219 68.9135 35.4779 68.8402C35.6339 68.7669 35.81 68.7487 35.9776 68.7884C36.1453 68.8282 36.2946 68.9236 36.4016 69.0592C36.5085 69.1948 36.5668 69.3627 36.5669 69.5357C36.5669 70.6838 34.5059 71.2714 30.4199 71.2714ZM30.4199 76.1891C25.1369 76.1891 25.1369 75.0049 25.1369 74.6162C25.138 74.4484 25.1937 74.2855 25.2955 74.1525C25.3974 74.0195 25.5398 73.9237 25.701 73.8796C25.8622 73.8356 26.0333 73.8457 26.1882 73.9085C26.3431 73.9713 26.4733 74.0833 26.5589 74.2274C27.8169 74.5654 29.1189 74.7087 30.4199 74.6523C31.7209 74.7087 33.0229 74.5654 34.2809 74.2274C34.3665 74.0833 34.4967 73.9713 34.6516 73.9085C34.8065 73.8457 34.9776 73.8356 35.1388 73.8796C35.3 73.9237 35.4424 74.0195 35.5443 74.1525C35.6461 74.2855 35.7018 74.4484 35.7029 74.6162C35.7029 75.032 35.7029 76.1891 30.4199 76.1891ZM47.4749 40.0382H47.3669C47.1662 40.0097 46.9849 39.9024 46.8629 39.7398L44.7119 36.8651C44.5902 36.7021 44.5379 36.4972 44.5666 36.2954C44.5953 36.0937 44.7026 35.9116 44.8649 35.7894L57.8069 26.0171C57.9692 25.8949 58.1732 25.8424 58.3741 25.8712C58.5749 25.9 58.7562 26.0078 58.8779 26.1708L61.0289 29.0455C61.0892 29.1263 61.133 29.2181 61.158 29.3159C61.1829 29.4136 61.1884 29.5153 61.1742 29.6152C61.16 29.7151 61.1263 29.8112 61.0752 29.8981C61.024 29.9849 60.9563 30.0607 60.8759 30.1213L47.9339 39.8845C47.8015 39.9842 47.6404 40.0382 47.4749 40.0382ZM46.3949 36.5487L47.6279 38.194L59.3279 29.3438L58.0949 27.6986L46.3949 36.5487ZM66.4109 36.8923H66.0419C65.6672 36.8447 65.3059 36.7217 64.9796 36.5307C64.6533 36.3396 64.3687 36.0844 64.1429 35.7803L53.2529 21.2259C52.8049 20.6357 52.6066 19.8919 52.7009 19.1558C52.7953 18.4196 53.1747 17.7505 53.7569 17.2935L66.0509 7.53033C66.1283 7.45811 66.2197 7.40278 66.3195 7.36781C66.4192 7.33285 66.5251 7.31901 66.6304 7.32716C66.7357 7.33532 66.8382 7.3653 66.9314 7.41521C67.0246 7.46512 67.1065 7.53388 67.172 7.61716C67.2375 7.70043 67.285 7.79643 67.3117 7.89908C67.3384 8.00174 67.3437 8.10884 67.3271 8.21363C67.3106 8.31843 67.2726 8.41864 67.2156 8.50797C67.1586 8.5973 67.0838 8.67379 66.9959 8.73265L54.7109 18.4868C54.442 18.696 54.2664 19.0035 54.2225 19.3423C54.1787 19.6811 54.2701 20.0235 54.4769 20.2948L65.3669 34.8492C65.5765 35.1173 65.8825 35.2922 66.2191 35.3361C66.5557 35.3801 66.896 35.2896 67.1669 35.0842L79.4159 25.3934C79.5759 25.2862 79.7702 25.2436 79.96 25.2738C80.1499 25.3041 80.3215 25.405 80.4407 25.5566C80.5598 25.7082 80.6177 25.8992 80.603 26.0918C80.5882 26.2843 80.5018 26.4642 80.3609 26.5957L68.1569 36.2866C67.6599 36.6811 67.0444 36.8946 66.4109 36.8923ZM35.8739 48.816C35.7849 48.8163 35.6966 48.801 35.6129 48.7708L27.5669 45.8147C27.4266 45.7626 27.3046 45.6702 27.216 45.5491C27.1273 45.4281 27.076 45.2835 27.0684 45.1334C27.0607 44.9833 27.097 44.8343 27.1728 44.7047C27.2487 44.5752 27.3606 44.4708 27.4949 44.4045L44.9999 35.708C45.1601 35.6275 45.3433 35.6061 45.5177 35.6474C45.692 35.6887 45.8464 35.7901 45.9539 35.934L48.1049 38.8087C48.2266 38.9718 48.2789 39.1767 48.2502 39.3784C48.2215 39.5802 48.1142 39.7622 47.9519 39.8845L36.3419 48.6533C36.2082 48.7582 36.0435 48.8154 35.8739 48.816ZM29.7719 44.983L35.7479 47.1798L46.4129 39.1251L45.0989 37.3714L29.7719 44.983ZM68.0849 30.2569C67.9661 30.2569 67.849 30.2291 67.7428 30.1758C67.6366 30.1224 67.5442 30.045 67.4729 29.9495L56.9519 15.8923C56.8596 15.7287 56.8302 15.5368 56.8694 15.3529C56.9085 15.169 57.0135 15.0059 57.1643 14.8945C57.3151 14.7831 57.5014 14.7311 57.6879 14.7484C57.8743 14.7657 58.0479 14.8511 58.1759 14.9883L68.7059 29.0546C68.7911 29.1687 68.8431 29.3045 68.8558 29.4466C68.8686 29.5887 68.8417 29.7316 68.7781 29.8592C68.7146 29.9869 68.6169 30.0942 68.4961 30.1692C68.3752 30.2443 68.236 30.284 68.0939 30.284L68.0849 30.2569ZM32.3999 47.1526C32.2321 47.1536 32.0686 47.099 31.9347 46.9974C31.8008 46.8958 31.7038 46.7528 31.6588 46.5904C31.6138 46.428 31.6232 46.2552 31.6855 46.0987C31.7479 45.9422 31.8598 45.8107 32.0039 45.7243L45.7019 37.3894C45.8741 37.2998 46.0738 37.2792 46.2606 37.3319C46.4473 37.3845 46.6072 37.5065 46.7078 37.673C46.8085 37.8396 46.8424 38.0383 46.8027 38.229C46.7629 38.4197 46.6526 38.5882 46.4939 38.7002L32.8139 47.008C32.6931 47.0962 32.5491 47.1466 32.3999 47.1526ZM55.1609 56.2288C54.785 56.2238 54.412 56.1628 54.0539 56.048C53.0981 55.767 52.2922 55.1169 51.8129 54.24C51.3433 52.9974 51.0936 51.6818 51.0749 50.3528C50.9374 48.4499 50.6363 46.5626 50.1749 44.7118C50.0914 44.4922 50.0964 44.2485 50.1888 44.0325C50.2812 43.8164 50.4538 43.6451 50.6699 43.5547C52.1999 42.9219 58.1219 49.9189 58.4999 50.624C58.8068 51.2042 58.9593 51.8542 58.9427 52.5109C58.9261 53.1677 58.7409 53.809 58.405 54.3728C58.0691 54.9366 57.594 55.4037 57.0257 55.7288C56.4573 56.054 55.815 56.2262 55.1609 56.2288ZM52.0379 45.8599C52.2977 47.2928 52.4839 48.7381 52.5959 50.1901C52.62 51.3152 52.8111 52.4303 53.1629 53.4987C53.3029 53.7617 53.4932 53.9944 53.7228 54.1835C53.9524 54.3726 54.2168 54.5144 54.5009 54.6009C54.7851 54.6873 55.0834 54.7167 55.3788 54.6874C55.6743 54.658 55.9611 54.5705 56.2229 54.4298C56.4847 54.2892 56.7163 54.0981 56.9046 53.8675C57.0929 53.6369 57.2341 53.3713 57.3201 53.0859C57.4062 52.8005 57.4355 52.5008 57.4063 52.2041C57.3771 51.9073 57.29 51.6192 57.1499 51.3563C55.6325 49.3576 53.92 47.5163 52.0379 45.8599ZM38.5739 32.3542C38.4274 32.3523 38.283 32.3184 38.1509 32.2547C37.0405 31.7718 35.8901 31.3877 34.7129 31.1066C33.8379 30.9563 32.9967 30.6502 32.2289 30.2026C31.6548 29.7603 31.2792 29.107 31.1847 28.3865C31.0902 27.666 31.2845 26.9373 31.7249 26.3606C32.1653 25.784 32.8157 25.4068 33.533 25.3118C34.2503 25.2169 34.9758 25.4121 35.5499 25.8544C36.3999 26.7174 37.171 27.6553 37.8539 28.6568C39.5729 31.0886 39.5459 31.5315 39.2759 31.9654C39.2012 32.0846 39.0976 32.1828 38.9748 32.2508C38.8521 32.3188 38.7141 32.3544 38.5739 32.3542ZM33.8939 26.8217H33.7409C33.5128 26.8555 33.2995 26.9552 33.1269 27.1087C32.9543 27.2622 32.8299 27.4628 32.7688 27.6861C32.7078 27.9094 32.7127 28.1457 32.783 28.3662C32.8534 28.5867 32.986 28.7819 33.1649 28.928C33.7792 29.2398 34.4333 29.4649 35.1089 29.597C35.6939 29.7506 36.3599 29.9314 37.0619 30.1574C36.3467 29.0443 35.5302 28.0002 34.6229 27.0386C34.4104 26.8874 34.1541 26.8112 33.8939 26.8217ZM42.4889 26.216C42.2977 26.2097 42.1134 26.1423 41.9629 26.0236C41.8124 25.9049 41.7035 25.7412 41.6519 25.5561C41.1286 24.1581 40.4841 22.809 39.7259 21.5242C39.1341 20.6341 38.7045 19.6454 38.4569 18.6043C38.4108 18.1888 38.4466 17.7683 38.5624 17.3667C38.6781 16.9651 38.8714 16.5903 39.1313 16.2638C39.3912 15.9372 39.7126 15.6653 40.0772 15.4635C40.4417 15.2618 40.8422 15.1341 41.2559 15.0878C41.6696 15.0415 42.0883 15.0775 42.4881 15.1937C42.8879 15.3099 43.261 15.5041 43.5861 15.7652C43.9112 16.0262 44.1819 16.3491 44.3828 16.7152C44.5837 17.0814 44.7108 17.4837 44.7569 17.8992C44.7569 18.2337 44.2079 25.8454 42.7229 26.1889L42.4889 26.216ZM41.5889 16.6336H41.3999C41.1874 16.6572 40.9817 16.7227 40.7946 16.8265C40.6075 16.9303 40.4427 17.0703 40.3097 17.2384C40.1766 17.4064 40.078 17.5993 40.0196 17.8058C39.9611 18.0123 39.9439 18.2284 39.9689 18.4416C40.2186 19.2732 40.5853 20.0646 41.0579 20.792C41.4809 21.5514 41.9579 22.4373 42.4259 23.4226C42.8504 21.6702 43.1096 19.8814 43.1999 18.08C43.1554 17.6805 42.9653 17.3117 42.6662 17.0446C42.3671 16.7775 41.9801 16.6311 41.5799 16.6336H41.5889Z" stroke="#D4A24C"/>
</svg>
