<svg width="162" height="144" viewBox="0 0 162 144" fill="none" xmlns="http://www.w3.org/2000/svg">
<g opacity="0.45">
<path d="M111.228 11.4731C112.531 13.0277 113.524 15.0489 113.531 17.2662C113.484 20.1027 112.237 22.2664 110.555 24.1964C109.245 25.6351 107.768 26.8118 106.206 27.8445C106.107 27.9109 106.009 27.9772 105.908 28.0456C103.856 29.4168 101.7 30.4076 99.4928 31.3752C99.1411 31.538 98.8081 31.7151 98.4735 31.9207C98.6709 31.9667 98.6709 31.9667 98.8721 32.0135C105.642 33.6895 115.366 36.8663 119.396 43.9722C120.243 45.7135 120.614 47.3191 120.185 49.3251C118.94 53.1439 115.749 55.1062 112.776 56.7922C112.267 57.0736 112.267 57.0736 111.816 57.4416C111.982 57.4978 112.148 57.554 112.319 57.6119C116.827 59.1547 121.311 60.8569 125.461 63.4673C125.6 63.5543 125.6 63.5543 125.741 63.643C127.463 64.732 129.021 65.9962 130.464 67.5436C130.704 67.2631 130.668 66.9445 130.701 66.5577C130.714 66.4113 130.727 66.2648 130.74 66.114C130.749 66.0009 130.758 65.8878 130.767 65.7713C131.089 65.6224 131.089 65.6224 131.525 65.594C131.878 65.9032 132.147 66.1862 132.445 66.5577C132.53 66.6619 132.616 66.766 132.704 66.8733C136.965 72.1702 140.072 79.7108 140.025 87.0386C140.025 87.2436 140.024 87.4485 140.023 87.6596C140.022 88.1615 140.019 88.6634 140.016 89.1654C140.135 89.1076 140.255 89.0498 140.378 88.9902C140.543 88.9128 140.708 88.8353 140.878 88.7555C141.038 88.6794 141.198 88.6034 141.363 88.525C143.021 87.8303 144.727 87.6233 146.469 87.4706C146.707 87.4483 146.946 87.4259 147.184 87.4034C148.643 87.2689 150.102 87.171 151.564 87.089C153.366 86.9877 155.147 86.8731 156.93 86.5291C157.069 86.5026 157.208 86.4761 157.35 86.4488C158.212 86.2648 159.003 85.9657 159.817 85.5897C160.254 85.4142 160.632 85.3856 161.09 85.4436C160.911 91.4192 156.008 97.4851 152.6 101.394C155.433 103.65 158.469 105.664 161.848 106.534C161.898 106.768 161.948 107.002 162 107.243C160.51 108.926 158.666 110.027 156.845 111.142C157.286 111.543 157.682 111.805 158.21 112.028C158.21 112.32 158.21 112.613 158.21 112.914C155.694 114.433 153.069 115.322 150.326 116.104C151.978 123.129 151.978 123.129 155.075 129.342C155.159 129.477 155.243 129.612 155.329 129.751C155.269 130.131 155.269 130.131 155.177 130.459C149.49 130.714 143.476 128.297 138.955 124.257C138.855 124.14 138.754 124.023 138.651 123.902C137.26 129.344 137.26 129.344 136.226 134.89C136.199 135.048 136.172 135.205 136.144 135.367C136.041 136.232 136.018 137.098 135.989 137.97C135.982 138.151 135.976 138.332 135.969 138.519C135.953 138.963 135.937 139.408 135.922 139.853C135.722 139.97 135.522 140.087 135.316 140.207C133.346 138.638 131.341 136.693 130.009 134.358C129.69 135.41 129.439 136.455 129.251 137.549C129.051 137.607 128.851 137.666 128.645 137.726C125.896 134.445 123.968 130.379 122.732 126.029C122.684 125.867 122.637 125.705 122.588 125.539C122.481 125.171 122.378 124.803 122.277 124.434C122.218 124.225 122.158 124.017 122.097 123.802C122.056 123.66 122.016 123.517 121.974 123.37C120.749 123.471 119.611 123.924 118.449 124.356C118.341 124.396 118.233 124.436 118.122 124.477C115.116 125.588 112.055 126.799 109.516 129.053C109.238 129.219 109.238 129.219 108.899 129.157C108.811 129.119 108.723 129.081 108.632 129.042C108.387 123.226 110.333 117.544 112.725 112.559C112.55 112.512 112.375 112.464 112.195 112.415C110.73 112.007 109.302 111.534 107.874 110.975C105.068 109.887 102.123 109.085 99.1653 108.915C99.0399 108.908 98.9145 108.9 98.7854 108.892C98.4793 108.873 98.1732 108.855 97.8671 108.838C97.8242 108.301 97.8319 108.02 98.0738 107.552C98.4065 107.091 98.7398 106.632 99.08 106.179C99.208 106.006 99.336 105.832 99.4679 105.654C100.416 104.394 101.44 103.319 102.567 102.28C101.534 101.79 100.557 101.469 99.449 101.304C99.08 101.217 99.08 101.217 98.7768 100.862C98.7962 100.345 98.9186 100.165 99.2334 99.7977C100.929 98.2293 102.643 96.7708 104.538 95.5456C102.61 92.6372 100.591 89.8594 98.3693 87.2491C98.2775 87.1409 98.1857 87.0328 98.0911 86.9214C97.4349 86.157 96.7522 85.4376 96.0477 84.7347C95.9509 84.638 95.8541 84.5414 95.7543 84.4418C91.301 80.0322 86.3535 76.551 81.0379 73.7465C80.8779 73.6621 80.8779 73.6621 80.7148 73.5759C73.7328 69.9415 65.8687 68.2156 58.2484 68.2082C58.1352 68.208 58.0221 68.2079 57.9056 68.2078C53.837 68.2145 49.8539 68.7496 45.8634 69.6703C45.6679 69.7145 45.6679 69.7145 45.4686 69.7595C40.1035 70.9893 34.8684 73.3025 30.0955 76.405C30.3921 77.6376 30.7477 78.8219 31.1662 80.0049C31.2258 80.1734 31.2854 80.3419 31.3467 80.5155C33.3554 86.1317 35.9455 91.4824 39.1923 96.2545C39.2651 96.3621 39.3379 96.4697 39.4129 96.5806C40.3885 98.0194 41.3919 99.4132 42.4639 100.755C42.7775 101.15 43.081 101.55 43.3807 101.959C44.2356 103.109 45.1674 104.164 46.1571 105.153C46.3721 105.371 46.5836 105.594 46.792 105.821C47.9796 107.11 49.2644 108.239 50.5634 109.369C50.6778 109.469 50.7922 109.569 50.91 109.672C52.4144 110.98 53.9431 112.173 55.5667 113.268C55.8671 113.478 56.1672 113.688 56.4669 113.9C56.5871 113.984 56.7073 114.068 56.8311 114.155C56.9142 114.213 56.9972 114.272 57.0828 114.332C56.8776 114.875 56.6546 115.22 56.278 115.617C56.178 115.723 56.0781 115.83 55.9751 115.94C55.8684 116.053 55.7618 116.165 55.652 116.281C53.1133 118.967 53.1133 118.967 51.1349 122.18C50.7761 122.587 50.4735 122.571 49.988 122.574C49.7991 122.568 49.7991 122.568 49.6063 122.562C49.4014 122.558 49.4014 122.558 49.1924 122.555C45.2528 122.442 41.3153 121.905 37.4044 121.371C36.7201 121.277 36.0356 121.189 35.3504 121.105C29.4069 120.374 23.4422 119.138 17.6631 117.345C17.4661 117.284 17.4661 117.284 17.2652 117.223C11.7255 115.505 5.90941 113.273 1.74357 108.483C1.60021 108.322 1.60021 108.322 1.45396 108.158C0.483311 106.968 0.0330588 105.469 0 103.842C0.0946215 101.256 1.22214 99.3744 2.79717 97.6155C7.71846 92.4587 14.8265 89.7557 21.1034 87.8223C21.616 87.6641 22.1251 87.4975 22.6326 87.3183C25.2363 86.4025 27.8937 85.7571 30.5503 85.0891C30.1334 84.7642 29.8322 84.6143 29.3617 84.4397C29.2146 84.3843 29.0675 84.3288 28.9159 84.2716C28.7579 84.2124 28.6 84.1532 28.4372 84.0922C26.7353 83.4402 25.0714 82.721 23.4244 81.899C23.288 81.8309 23.1515 81.7629 23.011 81.6927C18.8342 79.5873 13.9704 76.7349 12.1386 71.5423C11.6983 69.9759 11.7651 68.4861 12.2968 66.9641C14.6009 61.6906 20.2359 59.1296 24.7522 57.3959C24.9014 57.3403 25.0505 57.2848 25.2042 57.2276C25.5379 57.1233 25.5379 57.1233 25.6986 56.9099C25.5749 56.8665 25.4512 56.8231 25.3238 56.7783C21.7262 55.4513 18.1008 53.5609 15.0856 50.8841C14.9283 50.7459 14.771 50.6077 14.6089 50.4653C13.5094 49.4517 12.6638 48.3581 11.9017 46.9851C11.8296 46.8606 11.7575 46.7361 11.6832 46.6078C11.0638 45.3188 11.1216 43.6267 11.2953 42.2C12.1095 38.9207 14.9021 36.9026 17.3136 35.3338C20.5595 33.2962 24.1097 32.0606 27.6696 31.0346C28.1058 30.908 28.5419 30.7813 28.9779 30.6543C29.2433 30.5772 29.5088 30.5008 29.7745 30.425C30.4058 30.252 30.4058 30.252 31.0051 29.9712C30.8638 29.8787 30.7225 29.7862 30.577 29.6909C27.8952 27.8965 25.3643 25.6063 24.4289 22.0071C24.0506 19.7872 24.4403 17.9541 25.4238 16.0478C28.2251 11.1775 33.416 8.20293 38.0564 6.42761C38.4877 6.26068 38.8986 6.07736 39.3155 5.86824C40.5517 5.27798 41.8519 4.87836 43.1343 4.45041C43.2494 4.41178 43.3645 4.37314 43.4831 4.33333C49.7021 2.26898 56.1922 1.20584 62.6262 0.606784C62.7983 0.590608 62.7983 0.590608 62.9738 0.574105C77.1418 -0.738708 96.2981 -0.780799 111.228 11.4731Z" fill="#BEBEBE"/>
<path d="M111.228 11.4731C112.531 13.0277 113.524 15.0489 113.531 17.2662C113.484 20.1027 112.237 22.2664 110.555 24.1964C109.245 25.6351 107.768 26.8118 106.206 27.8445C106.107 27.9109 106.009 27.9772 105.908 28.0456C103.856 29.4168 101.7 30.4076 99.4928 31.3752C99.1411 31.538 98.8081 31.7151 98.4735 31.9207C98.6709 31.9667 98.6709 31.9667 98.8721 32.0135C105.642 33.6895 115.366 36.8663 119.396 43.9722C120.243 45.7135 120.614 47.3191 120.185 49.3251C118.89 53.2984 115.403 55.4151 112.27 57.0871C100.036 63.4937 85.1905 64.3608 59.6601 63.999C59.5146 63.9878 59.3692 63.9766 59.2194 63.9651C47.8409 63.0756 35.8258 61.5256 25.092 56.7326C24.8557 56.629 24.8557 56.629 24.6146 56.5232C20.8386 54.8571 17.2978 53.0426 14.1757 49.998C13.9459 49.8006 13.9459 49.8006 13.7114 49.5992C12.9765 48.8748 12.4386 47.9067 11.9017 46.9851C11.8284 46.8595 11.7549 46.7338 11.6794 46.6043C11.0657 45.3126 11.1216 43.6268 11.2953 42.2C12.1095 38.9207 14.9021 36.9026 17.3136 35.3338C20.5595 33.2962 24.1097 32.0606 27.6696 31.0346C28.1058 30.908 28.5419 30.7813 28.9779 30.6543C29.2433 30.5772 29.5088 30.5008 29.7745 30.425C30.4058 30.252 30.4058 30.252 31.0051 29.9712C30.8638 29.8787 30.7225 29.7862 30.577 29.6909C27.8952 27.8965 25.3643 25.6063 24.4289 22.0071C24.0506 19.7872 24.4403 17.9541 25.4238 16.0478C28.2251 11.1775 33.416 8.20293 38.0564 6.42761C38.4877 6.26068 38.8986 6.07736 39.3155 5.86824C40.5517 5.27798 41.8519 4.87836 43.1343 4.45041C43.2494 4.41178 43.3645 4.37314 43.4831 4.33333C49.7021 2.26898 56.1922 1.20584 62.6262 0.606784C62.7983 0.590608 62.7983 0.590608 62.9738 0.574105C77.1418 -0.738708 96.2981 -0.780799 111.228 11.4731Z" fill="#CBCBCB"/>
<path d="M74.7852 70.9571C75.1704 71.1061 75.5573 71.2484 75.9443 71.3909C81.817 73.5796 87.4835 76.8315 92.4086 81.1903C92.5013 81.2722 92.5939 81.3541 92.6893 81.4385C95.9989 84.3867 99.3622 87.6831 101.937 91.5194C102.253 91.9854 102.58 92.4351 102.913 92.8847C103.579 93.7872 104.184 94.6837 104.689 95.723C104.469 95.8587 104.469 95.8587 104.244 95.9972C102.314 97.2113 100.601 98.6818 98.9281 100.331C98.9781 100.565 99.0281 100.799 99.0797 101.04C99.228 101.072 99.3764 101.104 99.5292 101.137C100.624 101.381 101.67 101.652 102.718 102.103C102.306 102.596 101.887 103.072 101.447 103.531C100.468 104.561 99.5389 105.601 98.7196 106.811C98.6502 106.912 98.5808 107.013 98.5093 107.117C98.1415 107.679 97.928 108.129 97.8671 108.838C98.0254 108.829 98.1834 108.821 98.3465 108.813C101.867 108.689 105.265 109.833 108.585 111.099C109.994 111.626 111.434 112.005 112.877 112.382C112.805 112.544 112.733 112.705 112.659 112.872C111.589 115.309 110.581 117.789 109.911 120.419C109.417 122.345 108.822 123.416 107.57 124.788C107.398 125.013 107.229 125.239 107.061 125.467C105.66 127.364 104.106 129.097 102.415 130.637C102.244 130.801 102.074 130.965 101.903 131.131C97.481 135.394 92.3722 138.447 86.9505 140.562C86.682 140.67 86.682 140.67 86.408 140.78C81.8552 142.523 77.0879 143.298 72.3102 143.275C72.1728 143.275 72.0353 143.275 71.8937 143.275C69.5585 143.268 67.2771 143.107 64.9664 142.688C64.8419 142.667 64.7174 142.645 64.5891 142.622C63.8508 142.491 63.1204 142.333 62.389 142.157C62.1941 142.11 61.9993 142.064 61.7985 142.015C57.6021 140.96 53.5679 139.168 49.7747 136.83C49.4927 136.657 49.2088 136.49 48.9243 136.323C47.5583 135.51 46.3293 134.549 45.1049 133.473C46.3106 129.462 48.4833 125.801 50.7147 122.484C50.8331 122.308 50.9516 122.132 51.0736 121.95C51.8 120.892 52.5717 119.891 53.3614 118.898C53.6672 118.51 53.96 118.116 54.2492 117.71C54.8501 116.892 55.5432 116.182 56.2301 115.465C56.4691 115.212 56.7007 114.95 56.9309 114.686C56.9309 114.569 56.9309 114.452 56.9309 114.332C56.7821 114.237 56.6334 114.143 56.4802 114.045C52.6017 111.554 49.1248 108.423 45.863 104.939C45.7112 104.778 45.5594 104.617 45.4076 104.456C44.1221 103.091 42.8989 101.697 41.7694 100.154C41.6303 99.9669 41.4911 99.7803 41.3519 99.5936C40.3335 98.2242 39.355 96.8296 38.4339 95.3686C38.3644 95.2584 38.2949 95.1481 38.2233 95.0346C34.8687 89.6775 32.0336 83.7828 30.2467 77.4685C30.1597 77.1635 30.1597 77.1635 30.0708 76.8524C30.0078 76.631 30.0078 76.631 29.9435 76.4052C33.5559 73.6335 37.9122 71.8406 42.0727 70.5566C42.2131 70.5131 42.3535 70.4696 42.4981 70.4248C52.9379 67.2393 64.467 66.9126 74.7852 70.9571Z" fill="#329C63"/>
<path d="M130.919 65.5947C131.651 65.6415 132.035 66.0799 132.52 66.6691C132.638 66.8105 132.638 66.8105 132.758 66.9546C137.013 72.186 140.072 79.7799 140.025 87.0386C140.025 87.2436 140.024 87.4485 140.023 87.6596C140.022 88.1615 140.019 88.6634 140.016 89.1654C140.135 89.1076 140.255 89.0498 140.378 88.9902C140.543 88.9128 140.708 88.8353 140.878 88.7555C141.038 88.6794 141.198 88.6034 141.363 88.525C143.021 87.8303 144.727 87.6233 146.469 87.4706C146.707 87.4483 146.946 87.4259 147.184 87.4034C148.643 87.2689 150.102 87.171 151.564 87.089C153.366 86.9877 155.147 86.8731 156.93 86.5291C157.069 86.5026 157.208 86.4761 157.35 86.4488C158.212 86.2648 159.003 85.9657 159.817 85.5897C160.254 85.4142 160.632 85.3856 161.09 85.4436C160.911 91.4192 156.008 97.4851 152.6 101.394C155.433 103.65 158.469 105.664 161.848 106.534C161.898 106.768 161.948 107.002 162 107.243C160.51 108.926 158.666 110.027 156.845 111.142C157.286 111.543 157.682 111.805 158.21 112.028C158.21 112.32 158.21 112.613 158.21 112.914C155.694 114.433 153.069 115.322 150.326 116.104C151.978 123.129 151.978 123.129 155.075 129.342C155.159 129.477 155.243 129.612 155.329 129.751C155.269 130.131 155.269 130.131 155.177 130.459C149.49 130.714 143.476 128.297 138.955 124.257C138.855 124.14 138.754 124.023 138.651 123.902C137.26 129.344 137.26 129.344 136.226 134.89C136.199 135.048 136.172 135.205 136.144 135.367C136.041 136.232 136.018 137.098 135.989 137.97C135.979 138.241 135.979 138.241 135.969 138.519C135.953 138.963 135.937 139.408 135.922 139.853C135.722 139.97 135.522 140.087 135.316 140.207C133.346 138.638 131.341 136.693 130.009 134.358C129.69 135.41 129.439 136.455 129.251 137.549C129.051 137.607 128.851 137.666 128.645 137.726C125.896 134.445 123.968 130.379 122.732 126.029C122.684 125.867 122.637 125.705 122.588 125.539C122.481 125.171 122.378 124.803 122.277 124.434C122.218 124.225 122.158 124.017 122.097 123.802C122.056 123.66 122.016 123.517 121.974 123.37C120.749 123.471 119.611 123.924 118.449 124.356C118.287 124.416 118.287 124.416 118.122 124.477C115.116 125.588 112.055 126.799 109.516 129.053C109.238 129.219 109.238 129.219 108.899 129.157C108.767 129.1 108.767 129.1 108.632 129.042C108.338 122.07 111.01 114.35 114.914 109.171C117.007 106.519 117.007 106.519 118.032 105.825C117.481 105.295 116.91 104.825 116.316 104.363C115.481 103.7 114.775 102.974 114.09 102.104C113.907 101.89 113.907 101.89 113.72 101.672C113.592 101.522 113.464 101.372 113.332 101.217C113.232 101.105 113.133 100.993 113.03 100.878C112.286 100.029 111.614 99.1444 110.964 98.1963C110.503 97.5293 110.029 96.8774 109.553 96.2254C109.121 95.6318 108.703 95.0281 108.29 94.4164C106.928 92.4713 105.42 90.7524 103.632 89.3522C103.208 89.0161 102.811 88.6602 102.415 88.2799C102.641 87.6216 102.641 87.6216 102.982 87.3985C103.086 87.3599 103.19 87.3213 103.297 87.2815C103.413 87.2375 103.529 87.1934 103.649 87.1479C103.77 87.1048 103.892 87.0616 104.017 87.0171C104.134 86.9725 104.251 86.928 104.372 86.8821C107.015 85.8995 109.677 85.7249 112.431 85.7322C112.575 85.7324 112.719 85.7325 112.867 85.7327C117.066 85.7476 121.138 86.5656 124.703 89.3432C124.697 89.2333 124.692 89.1234 124.687 89.0102C124.584 85.0843 126.097 81.4432 127.455 77.9514C129.631 72.4133 129.631 72.4133 130.701 66.4808C130.751 65.7907 130.751 65.7907 130.919 65.5947Z" fill="#FEA233"/>
<path d="M97.4926 101.662C97.8357 101.741 98.1791 101.818 98.5228 101.894C99.6335 102.144 100.723 102.44 101.809 102.812C101.571 103.525 101.172 103.894 100.681 104.385C99.967 105.123 99.3396 105.904 98.7479 106.777C98.6767 106.881 98.6056 106.984 98.5323 107.09C98.1554 107.661 97.9262 108.114 97.8671 108.838C98.0254 108.829 98.1834 108.821 98.3465 108.813C101.867 108.689 105.265 109.833 108.585 111.099C109.994 111.626 111.434 112.005 112.877 112.382C112.805 112.544 112.733 112.705 112.659 112.872C111.589 115.309 110.581 117.789 109.911 120.419C109.417 122.345 108.822 123.416 107.57 124.788C107.398 125.013 107.229 125.239 107.061 125.467C105.66 127.364 104.106 129.097 102.415 130.637C102.244 130.801 102.074 130.965 101.903 131.131C97.481 135.394 92.3722 138.447 86.9505 140.562C86.7715 140.634 86.5925 140.706 86.408 140.78C81.8552 142.523 77.0879 143.298 72.3102 143.275C72.1728 143.275 72.0353 143.275 71.8937 143.275C69.5585 143.268 67.2771 143.107 64.9664 142.688C64.8419 142.667 64.7174 142.645 64.5891 142.622C63.8508 142.491 63.1204 142.333 62.389 142.157C62.0967 142.087 62.0967 142.087 61.7985 142.015C57.6021 140.96 53.5679 139.168 49.7747 136.83C49.4927 136.657 49.2088 136.49 48.9243 136.323C47.5583 135.51 46.3293 134.549 45.1049 133.473C46.3106 129.462 48.4833 125.801 50.7147 122.484C50.8331 122.308 50.9516 122.132 51.0736 121.95C51.8 120.892 52.5717 119.891 53.3614 118.898C53.6672 118.51 53.96 118.116 54.2492 117.71C54.7674 117.011 55.34 116.382 55.9168 115.75C56.0114 115.645 56.1059 115.541 56.2033 115.433C56.894 114.686 56.894 114.686 57.234 114.686C57.234 114.569 57.234 114.452 57.234 114.332C57.756 113.755 58.335 113.252 58.9017 112.737C59.0381 112.612 59.0381 112.612 59.1772 112.485C63.5071 108.558 68.281 105.617 73.4567 103.521C73.5961 103.464 73.7355 103.407 73.8791 103.348C81.3924 100.336 89.7299 99.8599 97.4926 101.662Z" fill="#328056"/>
<path d="M99.8377 4.45112C104.433 5.95772 110.158 8.61322 112.668 13.7224C113.509 15.5076 113.771 17.3716 113.312 19.3604C112.13 23.2787 109.201 25.865 106.206 27.8445C106.107 27.9109 106.009 27.9772 105.908 28.0456C98.6146 32.9205 89.7559 35.0217 81.4917 36.2826C81.054 36.3496 80.617 36.4212 80.1799 36.4934C79.2043 36.6487 78.227 36.7717 77.2471 36.8838C77.1429 36.8959 77.0387 36.9079 76.9314 36.9203C73.1362 37.3524 69.3472 37.4676 65.5368 37.4705C65.1996 37.4709 64.8624 37.4718 64.5253 37.4728C61.628 37.479 58.7577 37.3538 55.8695 37.0611C55.6063 37.0358 55.3431 37.0106 55.08 36.9855C54.3917 36.9184 53.7044 36.843 53.0172 36.762C52.8961 36.7477 52.775 36.7335 52.6502 36.7188C44.7698 35.7717 35.0291 33.9553 28.5789 28.1997C28.4368 28.0745 28.2947 27.9493 28.1483 27.8203C26.4569 26.2689 24.8404 24.4088 24.4853 21.8195C24.8138 21.9155 25.1423 22.0114 25.4708 22.1074C25.5791 22.1388 25.6874 22.1701 25.799 22.2024C26.4346 22.3868 27.0686 22.5766 27.7012 22.7748C33.0384 24.4238 38.5463 25.2416 44.0436 25.7185C44.2132 25.7334 44.3828 25.7484 44.5576 25.7638C46.162 25.8941 47.7599 25.9276 49.3678 25.9317C49.5709 25.9324 49.5709 25.9324 49.778 25.9332C50.4981 25.9359 51.2181 25.9375 51.9382 25.9383C52.5178 25.939 53.0975 25.9415 53.6771 25.9455C66.5391 26.0341 80.9312 24.5814 93.015 17.7432C93.1858 17.6459 93.1858 17.6459 93.3601 17.5467C96.2721 15.8688 99.4885 13.6265 100.647 9.87941C100.99 8.28233 100.756 6.80046 100.141 5.33726C100.041 5.22029 99.9408 5.10332 99.8377 4.9828C99.8377 4.80735 99.8377 4.63189 99.8377 4.45112Z" fill="#BEBFBF"/>
<path d="M161.09 85.4436C160.911 91.4192 156.008 97.4851 152.6 101.394C155.433 103.65 158.469 105.664 161.848 106.534C161.898 106.768 161.948 107.002 162 107.243C160.51 108.926 158.666 110.027 156.845 111.142C157.286 111.543 157.682 111.805 158.21 112.028C158.21 112.32 158.21 112.613 158.21 112.914C155.694 114.433 153.069 115.322 150.326 116.104C150.405 116.388 150.404 116.388 150.485 116.678C150.683 117.388 150.88 118.099 151.078 118.809C151.163 119.115 151.248 119.421 151.333 119.727C151.769 121.291 152.204 122.855 152.6 124.434C150.119 122.199 148.745 118.382 147.502 115.119C147.289 114.564 147.075 114.01 146.861 113.456C146.809 113.322 146.757 113.188 146.703 113.049C144.83 108.22 144.83 108.22 142.022 104.109C141.683 103.699 141.683 103.698 141.683 103.344C141.785 103.318 141.887 103.291 141.992 103.264C144.681 102.436 147.194 100.705 149.264 98.5589C149.418 98.4036 149.572 98.2483 149.725 98.093C150.549 97.2416 151.289 96.3541 151.993 95.3688C152.116 95.2077 152.238 95.0467 152.365 94.8807C155.32 91.065 155.32 91.065 156.845 86.5074C156.946 86.49 157.047 86.4727 157.151 86.4548C157.935 86.3062 158.652 86.112 159.394 85.7763C159.984 85.5094 160.448 85.3624 161.09 85.4436Z" fill="#FEB55E"/>
<path d="M107.873 93.7734C108.424 94.401 108.934 95.0552 109.427 95.745C109.5 95.8458 109.573 95.9465 109.647 96.0503C110.098 96.6775 110.541 97.3117 110.981 97.9493C111.953 99.3446 113 100.655 114.089 101.926C114.186 102.049 114.283 102.172 114.382 102.299C115.157 103.268 115.997 103.989 116.949 104.697C117.406 105.038 117.81 105.365 118.183 105.825C118.096 105.9 118.01 105.976 117.921 106.054C116.55 107.29 115.205 108.656 114.219 110.332C114.103 110.528 114.103 110.528 113.984 110.728C113.836 110.984 113.694 111.243 113.557 111.507C113.35 111.867 113.176 112.126 112.877 112.382C111.614 112.666 110.04 111.786 108.83 111.352C108.388 111.195 107.945 111.039 107.502 110.883C107.393 110.845 107.284 110.807 107.172 110.767C105.563 110.204 103.947 109.684 102.292 109.336C102.153 109.307 102.013 109.277 101.87 109.246C100.539 108.978 99.2153 108.877 97.8671 108.838C97.8242 108.301 97.8319 108.02 98.0738 107.552C98.4065 107.091 98.7398 106.632 99.08 106.179C99.208 106.006 99.336 105.832 99.4679 105.654C100.416 104.394 101.44 103.319 102.567 102.28C101.534 101.79 100.557 101.469 99.449 101.304C99.08 101.217 99.08 101.217 98.7768 100.862C98.7962 100.345 98.9186 100.165 99.2334 99.7977C99.6849 99.3801 100.137 98.9647 100.596 98.5585C100.678 98.4847 100.761 98.411 100.846 98.335C102.553 96.8194 104.363 95.676 106.319 94.6595C106.422 94.6058 106.525 94.552 106.632 94.4967C107.072 94.2745 107.389 94.1278 107.873 94.1278C107.873 94.0108 107.873 93.8939 107.873 93.7734Z" fill="#EEBA81"/>
<path d="M135.467 93.7734C135.567 93.7734 135.667 93.7734 135.77 93.7734C136.056 94.3395 136.11 94.7508 136.103 95.4044C136.102 95.578 136.101 95.7517 136.1 95.9306C136.096 96.2006 136.096 96.2006 136.092 96.4761C136.091 96.6589 136.09 96.8416 136.088 97.0299C136.085 97.4804 136.08 97.9308 136.073 98.3813C136.2 98.3429 136.326 98.3045 136.455 98.265C136.62 98.2156 136.785 98.1663 136.955 98.1154C137.2 98.0414 137.2 98.0414 137.45 97.9659C137.893 97.8496 137.893 97.8496 138.348 97.8496C138.254 98.5856 138.04 99.1607 137.751 99.8213C137.671 100.004 137.592 100.188 137.51 100.376C137.286 100.862 137.286 100.862 136.983 101.394C137.114 101.443 137.245 101.492 137.38 101.543C138.03 101.804 138.655 102.12 139.287 102.436C139.633 102.598 139.956 102.722 140.319 102.812C140.267 103.304 140.21 103.481 139.874 103.798C137.646 105.293 137.646 105.293 136.832 105.293C136.872 105.398 136.912 105.503 136.954 105.611C137.007 105.751 137.061 105.891 137.116 106.035C137.169 106.173 137.221 106.311 137.276 106.453C137.439 106.89 137.592 107.331 137.741 107.774C136.633 107.84 135.738 107.742 134.709 107.243C134.42 109.016 134.18 110.754 134.102 112.56C132.656 112.018 131.614 110.306 130.922 108.802C130.721 108.161 130.671 107.568 130.615 106.888C130.447 106.989 130.279 107.089 130.106 107.192C129.884 107.323 129.662 107.455 129.44 107.586C129.33 107.652 129.219 107.718 129.105 107.786C128.998 107.85 128.89 107.913 128.779 107.979C128.681 108.037 128.582 108.096 128.481 108.156C128.185 108.309 127.899 108.402 127.583 108.483C127.554 107.504 127.621 106.754 127.886 105.825C127.752 105.836 127.617 105.847 127.479 105.858C126.746 105.862 126.064 105.626 125.356 105.423C124.687 105.25 124.021 105.168 123.338 105.116C124.069 103.263 125.525 102.222 126.977 101.217C126.806 101.043 126.636 100.87 126.465 100.696C126.37 100.6 126.275 100.503 126.177 100.403C125.922 100.141 125.922 100.141 125.612 99.9763C125.612 99.8594 125.612 99.7424 125.612 99.6219C125.83 99.5323 126.048 99.4439 126.266 99.356C126.387 99.3067 126.509 99.2573 126.634 99.2065C126.977 99.0902 126.977 99.0902 127.431 99.0902C127.338 98.5434 127.243 97.9971 127.147 97.4508C127.121 97.2962 127.094 97.1415 127.067 96.9822C127.041 96.8325 127.014 96.6829 126.987 96.5287C126.963 96.3913 126.94 96.254 126.915 96.1125C126.836 95.7157 126.836 95.7157 126.663 95.3513C126.522 95.014 126.522 95.014 126.522 94.4823C128.181 94.7833 129.664 95.6702 130.919 96.9635C131.092 96.0804 131.256 95.201 131.373 94.305C132.228 94.5401 132.576 95.2738 133.041 96.0773C133.687 95.8273 134.097 95.4626 134.595 94.9253C134.727 94.7846 134.859 94.6439 134.996 94.4989C135.322 94.1598 135.322 94.1598 135.467 93.7734Z" fill="#FFE4BF"/>
<path d="M146.384 70.7338C146.759 70.8215 146.759 70.8215 147.142 70.911C147.657 73.003 147.768 75.1293 147.9 77.2913C148.002 77.1869 148.105 77.0825 148.21 76.9749C148.345 76.8417 148.481 76.7085 148.62 76.5713C148.754 76.4376 148.887 76.304 149.025 76.1663C149.416 75.8734 149.416 75.8734 149.744 75.9437C149.836 75.979 149.928 76.0143 150.022 76.0507C150.114 80.0516 149.605 83.6076 148.506 87.3932C148.322 87.4105 148.322 87.4104 148.134 87.428C145.715 87.6617 143.405 87.9602 141.077 88.8111C140.724 88.9313 140.37 89.0483 140.016 89.1654C140.014 89.046 140.011 88.9268 140.009 88.8038C139.933 85.096 139.514 81.7004 138.5 78.1774C138.615 78.0891 138.73 78.0008 138.849 77.9099C139.286 77.5748 139.721 77.2387 140.157 76.9021C140.344 76.7579 140.531 76.614 140.719 76.4706C142.08 75.4279 143.456 74.3683 144.591 72.9918C144.868 72.6833 144.868 72.6833 145.171 72.6833C145.231 72.5284 145.231 72.5284 145.293 72.3704C145.479 71.9635 145.687 71.6548 145.948 71.3098C146.029 71.2011 146.111 71.0923 146.195 70.9803C146.257 70.8989 146.32 70.8176 146.384 70.7338Z" fill="#EEBA82"/>
<path d="M118.031 68.4299C118.704 68.5122 119.255 68.8459 119.841 69.2164C119.991 69.3107 119.991 69.3107 120.143 69.407C122.812 71.1342 125.239 73.588 127.28 76.228C127.41 76.3877 127.54 76.5473 127.674 76.7119C127.886 77.2913 127.886 77.2913 127.811 77.6722C127.641 78.143 127.446 78.5897 127.242 79.0415C126.636 80.4809 126.118 81.9148 125.688 83.4389C125.639 83.6101 125.589 83.7813 125.539 83.9577C125.127 85.4402 124.863 86.9345 124.759 88.4899C124.748 88.6533 124.737 88.8166 124.725 88.9849C124.718 89.103 124.71 89.2215 124.703 89.3432C124.119 89.0861 123.584 88.7674 123.035 88.4235C122.107 87.8638 121.153 87.4469 120.164 87.061C120.029 87.0082 119.894 86.9554 119.756 86.901C119.028 86.625 118.338 86.445 117.577 86.3299C117.586 86.2109 117.596 86.0918 117.605 85.9691C117.705 84.7125 117.803 83.4558 117.9 82.1989C117.937 81.7319 117.974 81.2649 118.011 80.798C118.297 77.2075 118.514 73.7773 118.031 70.2022C117.97 69.6698 117.919 69.1426 117.88 68.6072C117.93 68.5487 117.98 68.4902 118.031 68.4299Z" fill="#EFB981"/>
<path d="M152.297 101.394C153.1 101.896 153.895 102.407 154.677 102.952C156.936 104.515 159.267 105.869 161.848 106.534C161.923 106.885 161.923 106.885 162 107.243C160.51 108.926 158.666 110.027 156.845 111.142C157.286 111.543 157.682 111.805 158.21 112.028C158.21 112.32 158.21 112.613 158.21 112.914C155.706 114.427 152.999 115.616 150.174 115.927C150.133 115.81 150.093 115.694 150.051 115.574C149.883 115.098 149.713 114.623 149.541 114.148C149.455 113.909 149.37 113.669 149.285 113.429C148.366 110.824 147.253 108.557 145.582 106.508C145.322 106.179 145.322 106.179 145.171 105.825C145.352 105.752 145.534 105.679 145.721 105.603C148.063 104.641 150.504 103.49 152.297 101.394Z" fill="#EEBA82"/>
<path d="M135.315 120.004C135.568 120.299 135.821 120.594 136.074 120.89C136.214 121.047 136.355 121.204 136.5 121.366C136.832 121.776 136.832 121.776 136.832 122.13C136.92 122.178 137.008 122.225 137.099 122.274C137.448 122.491 137.721 122.72 138.016 123.028C138.111 123.121 138.206 123.215 138.303 123.311C138.66 124.066 138.447 124.881 138.265 125.685C138.166 126.057 138.059 126.425 137.95 126.794C137.536 128.259 137.191 129.739 136.87 131.236C136.825 131.44 136.781 131.644 136.735 131.854C136.298 133.911 136.038 135.93 135.979 138.048C135.973 138.223 135.967 138.399 135.961 138.58C135.947 139.004 135.934 139.428 135.922 139.853C135.622 140.028 135.622 140.028 135.316 140.207C133.433 138.708 131.775 136.934 130.312 134.891C130.177 134.724 130.177 134.724 130.039 134.553C129.857 134.182 129.857 134.182 129.873 133.695C130.037 132.998 130.264 132.355 130.521 131.701C130.577 131.554 130.634 131.408 130.692 131.258C131.133 130.139 131.6 129.037 132.073 127.937C132.167 127.718 132.167 127.718 132.263 127.495C132.58 126.758 132.898 126.023 133.219 125.288C133.878 123.77 134.482 122.255 135 120.663C135.164 120.181 135.164 120.181 135.315 120.004Z" fill="#FDE4BF"/>
<path d="M112.422 70.3796C113.444 70.4721 114.321 70.715 115.284 71.1217C115.415 71.1764 115.547 71.2312 115.683 71.2876C116.678 71.7114 117.581 72.2167 118.486 72.8608C118.555 75.7284 118.339 78.5481 118.107 81.4009C118.071 81.8637 118.034 82.3265 117.998 82.7893C117.909 83.9107 117.819 85.0318 117.728 86.1529C117.413 86.1257 117.099 86.0981 116.784 86.0705C116.608 86.0552 116.433 86.0399 116.252 86.0241C115.728 85.9728 115.215 85.8971 114.696 85.7984C114.536 85.1626 114.495 84.5374 114.451 83.878C114.434 83.6338 114.417 83.3896 114.4 83.1454C114.391 83.018 114.382 82.8905 114.373 82.7591C114.001 76.9034 114.001 76.9034 112.367 71.4132C112.245 71.0048 112.322 70.7876 112.422 70.3796Z" fill="#FEE4BF"/>
<path d="M152.297 101.394C153.1 101.896 153.895 102.407 154.677 102.952C156.936 104.515 159.267 105.869 161.848 106.534C161.923 106.885 161.923 106.885 162 107.243C161.039 108.329 159.969 109.119 158.816 109.901C158.727 109.963 158.638 110.024 158.547 110.087C158.284 110.268 158.019 110.445 157.755 110.621C157.598 110.725 157.442 110.83 157.281 110.937C156.773 111.175 156.595 111.185 156.087 110.964C154.196 109.651 152.549 107.907 150.948 106.159C150.346 105.503 149.731 104.865 149.113 104.23C149.548 103.684 149.989 103.298 150.534 102.912C151.169 102.451 151.739 101.975 152.297 101.394Z" fill="#FEE4BF"/>
<path d="M112.119 112.205C112.545 112.33 112.545 112.33 112.877 112.382C112.877 112.441 112.877 112.499 112.877 112.56C112.774 112.593 112.671 112.626 112.565 112.66C110.246 113.391 110.246 113.391 107.959 114.243C106.8 114.71 105.621 115.074 104.436 115.438C103.544 115.712 102.657 115.998 101.771 116.298C99.9184 116.926 98.0545 117.487 96.1803 118.021C96.0209 118.066 95.8614 118.112 95.6971 118.159C88.9854 120.07 82.2133 121.532 75.3847 122.739C74.8183 122.84 74.2523 122.942 73.6863 123.045C70.3041 123.652 70.3041 123.652 68.6055 123.725C68.6055 123.608 68.6055 123.491 68.6055 123.371C69.4867 123.178 70.368 122.986 71.2493 122.794C71.5479 122.729 71.8465 122.664 72.145 122.599C73.5931 122.283 75.0412 121.967 76.4924 121.671C79.9089 120.972 83.2847 120.107 86.6476 119.117C86.7794 119.078 86.9112 119.04 87.047 119C91.7531 117.617 96.4328 116.188 101.065 114.493C101.451 114.352 101.837 114.213 102.224 114.074C102.334 114.034 102.445 113.994 102.559 113.953C102.779 113.873 103 113.794 103.222 113.716C103.904 113.468 104.569 113.189 105.233 112.881C109.576 110.873 109.576 110.873 112.119 112.205Z" fill="#6ECD97"/>
<path d="M146.384 70.7338C146.759 70.8215 146.759 70.8215 147.142 70.911C147.467 72.3925 147.682 73.815 147.748 75.3418C147.767 75.5293 147.785 75.7169 147.804 75.9101C147.897 77.253 147.897 77.253 147.524 77.7946C147.158 78.0967 146.79 78.3123 146.384 78.5319C146.236 78.6209 146.088 78.7101 145.936 78.8018C144.615 79.5665 143.242 80.191 141.873 80.8247C141.777 80.8693 141.682 80.9138 141.583 80.9597C141.308 81.0872 141.033 81.2132 140.757 81.3391C140.596 81.4129 140.435 81.4867 140.269 81.5627C139.864 81.722 139.864 81.722 139.409 81.722C139.356 81.5106 139.303 81.2993 139.249 81.0816C139.179 80.804 139.11 80.5264 139.04 80.2487C139.005 80.1095 138.97 79.9703 138.934 79.8268C138.884 79.6255 138.884 79.6255 138.832 79.4201C138.786 79.2349 138.786 79.2349 138.738 79.046C138.663 78.7549 138.582 78.4659 138.5 78.1774C138.615 78.0891 138.73 78.0008 138.849 77.9099C139.286 77.5748 139.721 77.2387 140.157 76.9021C140.344 76.7579 140.531 76.614 140.719 76.4706C142.08 75.4279 143.456 74.3683 144.591 72.9918C144.868 72.6833 144.868 72.6833 145.171 72.6833C145.231 72.5284 145.231 72.5284 145.293 72.3704C145.479 71.9635 145.687 71.6548 145.948 71.3098C146.029 71.2011 146.111 71.0923 146.195 70.9803C146.257 70.8989 146.32 70.8176 146.384 70.7338Z" fill="#FDE4BF"/>
<path d="M124.4 121.776C124.739 122.172 124.792 122.387 124.922 122.918C124.963 123.078 125.003 123.238 125.045 123.403C125.088 123.575 125.132 123.747 125.177 123.924C125.638 125.679 126.205 127.269 126.977 128.865C127.031 128.976 127.084 129.088 127.139 129.203C127.639 130.233 128.143 131.245 128.776 132.172C129.838 133.737 129.838 133.737 129.896 134.537C129.82 135.035 129.703 135.478 129.554 135.954C129.494 136.259 129.437 136.566 129.384 136.873C129.34 137.096 129.296 137.319 129.251 137.549C128.951 137.636 128.951 137.636 128.645 137.726C125.896 134.445 123.968 130.379 122.732 126.029C122.661 125.786 122.661 125.786 122.588 125.539C122.423 124.97 122.268 124.399 122.116 123.825C121.998 123.349 121.998 123.349 121.671 123.016C121.842 122.941 122.014 122.867 122.191 122.79C122.415 122.692 122.64 122.594 122.865 122.496C122.978 122.446 123.091 122.397 123.207 122.346C123.812 122.086 123.812 122.086 124.4 121.776Z" fill="#C8AB78"/>
<path d="M59.0533 86.8617C59.7195 86.9704 60.2565 87.2717 60.8437 87.6357C60.9448 87.6971 61.0458 87.7585 61.15 87.8218C61.3693 87.9552 61.5884 88.0891 61.8074 88.2234C62.4008 88.5871 62.9961 88.9468 63.5911 89.3069C63.7774 89.4198 63.7774 89.4198 63.9675 89.535C65.2376 90.3037 66.5135 91.0589 67.7921 91.808C68.0328 91.9491 68.2733 92.0904 68.5137 92.2321C69.9941 93.1044 71.4868 93.9282 73.0061 94.7042C73.5557 94.9851 74.0989 95.2794 74.6412 95.5791C77.9471 97.3923 81.2938 99.0779 84.6762 100.685C84.6762 100.744 84.6762 100.802 84.6762 100.863C84.4206 100.923 84.1647 100.982 83.9086 101.04C83.7662 101.073 83.6237 101.106 83.4769 101.14C82.4337 101.312 81.7183 101.175 80.7845 100.618C80.6729 100.553 80.5613 100.489 80.4463 100.423C80.0769 100.21 79.7091 99.9938 79.3412 99.7772C79.0806 99.6258 78.8198 99.4746 78.5589 99.3237C78.0049 99.0024 77.4515 98.6796 76.8987 98.3556C76.1727 97.9303 75.4454 97.5083 74.7175 97.0873C69.0453 93.8066 69.0453 93.8066 66.4444 92.0965C65.9458 91.7706 65.4449 91.4496 64.9438 91.129C63.3111 90.0837 61.6785 89.0373 60.0673 87.9472C59.9613 87.8766 59.8553 87.806 59.7461 87.7332C59.5098 87.5711 59.2805 87.3952 59.0533 87.2161C59.0533 87.0992 59.0533 86.9822 59.0533 86.8617Z" fill="#6DCE97"/>
<path d="M104.841 95.723C105.06 96.0158 105.06 96.0158 105.284 96.4208C105.404 96.6367 105.404 96.6367 105.528 96.857C105.611 97.0091 105.694 97.1613 105.779 97.3181C105.906 97.5463 105.906 97.5463 106.036 97.7791C106.246 98.1561 106.454 98.5341 106.66 98.9131C106.235 99.4445 105.808 99.83 105.277 100.209C104.688 100.632 104.139 101.081 103.59 101.572C103.111 101.964 102.944 102.1 102.349 102.125C102.171 102.06 101.992 101.994 101.809 101.926C101.531 101.836 101.253 101.748 100.975 101.66C100.833 101.613 100.691 101.566 100.544 101.517C100.201 101.413 99.8766 101.342 99.5251 101.295C99.0798 101.217 99.08 101.217 98.7768 100.862C98.7962 100.345 98.9186 100.165 99.2334 99.7977C99.6849 99.3801 100.137 98.9647 100.596 98.5585C100.681 98.4829 100.767 98.4074 100.856 98.3294C103.837 95.723 103.837 95.723 104.841 95.723Z" fill="#AFA366"/>
<path d="M158.21 112.028C158.21 112.32 158.21 112.613 158.21 112.914C155.684 114.439 153.01 115.558 150.174 115.927C149.974 115.342 149.773 114.757 149.567 114.155C150.059 113.771 150.533 113.596 151.093 113.402C151.311 113.324 151.529 113.245 151.748 113.167C151.919 113.105 151.919 113.105 152.094 113.043C152.691 112.826 153.285 112.6 153.879 112.371C153.995 112.328 154.111 112.284 154.231 112.238C154.834 112.005 155.371 111.743 155.925 111.375C156.748 110.901 157.488 111.529 158.21 112.028Z" fill="#C8AB78"/>
<path d="M132.435 104.584C132.561 104.776 132.561 104.776 132.691 104.972C133.154 105.63 133.604 106.215 134.226 106.667C134.6 107.117 134.611 107.208 134.624 107.808C134.591 108.496 134.475 109.136 134.332 109.804C134.176 110.71 134.149 111.638 134.102 112.56C132.811 112.076 131.793 110.596 131.127 109.259C130.759 108.399 130.642 107.668 130.615 106.711C130.696 106.661 130.777 106.612 130.859 106.561C131.668 106.025 132.039 105.567 132.435 104.584Z" fill="#FFFDFC"/>
<path d="M127.431 101.394C127.691 101.681 127.943 101.978 128.19 102.28C128.535 102.592 128.891 102.878 129.251 103.166C129.178 103.299 129.105 103.431 129.029 103.568C128.934 103.743 128.838 103.917 128.739 104.097C128.644 104.27 128.549 104.442 128.451 104.62C128.242 105.016 128.056 105.405 127.886 105.825C126.994 105.898 126.221 105.671 125.356 105.423C124.687 105.25 124.021 105.168 123.338 105.116C124.011 103.409 125.753 101.394 127.431 101.394Z" fill="#FFFDFB"/>
<path d="M107.873 93.7734C108.428 94.4054 108.941 95.061 109.437 95.7561C109.54 95.8978 109.54 95.8978 109.645 96.0424C110.147 96.7438 110.147 96.7438 110.147 97.1407C109.627 97.4378 109.106 97.7325 108.584 98.0268C108.436 98.1114 108.288 98.1959 108.135 98.283C107.993 98.3629 107.851 98.4429 107.704 98.5253C107.508 98.6367 107.508 98.6367 107.307 98.7503C106.964 98.913 106.964 98.913 106.509 98.913C106.231 98.4904 105.985 98.0762 105.741 97.6281C105.673 97.5072 105.606 97.3864 105.536 97.2618C105.225 96.7018 104.939 96.1472 104.689 95.5456C105.134 95.3077 105.58 95.072 106.025 94.8367C106.152 94.7691 106.278 94.7015 106.408 94.6318C106.53 94.5678 106.652 94.5039 106.777 94.438C106.889 94.3786 107.001 94.3192 107.116 94.258C107.418 94.1278 107.418 94.1278 107.873 94.1278C107.873 94.0108 107.873 93.8939 107.873 93.7734Z" fill="#DFB284"/>
<path d="M126.522 94.4823C128.006 94.7515 129.843 95.516 130.767 96.9637C130.778 97.8273 130.607 98.5911 130.464 99.4449C129.513 99.3279 128.563 99.2109 127.583 99.0904C127.356 98.2921 127.151 97.4991 126.967 96.6868C126.941 96.5722 126.915 96.4576 126.888 96.3396C126.748 95.7237 126.622 95.1087 126.522 94.4823Z" fill="#FFFDFA"/>
<path d="M136.832 101.217C136.958 101.28 136.958 101.28 137.086 101.344C137.469 101.535 137.851 101.725 138.234 101.915C138.366 101.981 138.499 102.047 138.635 102.115C138.763 102.179 138.891 102.242 139.023 102.307C139.14 102.366 139.258 102.424 139.379 102.485C139.69 102.625 139.993 102.727 140.319 102.812C140.267 103.304 140.21 103.481 139.874 103.798C137.619 105.311 137.619 105.311 136.817 105.282C136.38 105.031 136.27 104.665 136.055 104.163C135.823 103.631 135.6 103.133 135.315 102.635C135.412 102.547 135.509 102.46 135.609 102.37C135.734 102.256 135.859 102.143 135.988 102.026C136.113 101.913 136.238 101.799 136.367 101.683C136.661 101.423 136.661 101.423 136.832 101.217Z" fill="#FFFDFC"/>
<path d="M135.467 93.7734C135.567 93.7734 135.667 93.7734 135.77 93.7734C136.025 94.2939 136.111 94.6653 136.109 95.2632C136.108 95.4096 136.108 95.5561 136.108 95.7069C136.105 95.9341 136.105 95.9342 136.102 96.1659C136.102 96.3174 136.102 96.4689 136.102 96.6249C136.098 97.3025 136.081 97.9033 135.922 98.5585C135.749 98.5938 135.749 98.5938 135.573 98.6298C135.423 98.6611 135.272 98.6924 135.117 98.7247C134.967 98.7555 134.818 98.7863 134.664 98.8181C134.242 98.9054 134.242 98.9054 133.799 99.0902C133.727 98.7838 133.654 98.4774 133.582 98.1708C133.541 98.0002 133.501 97.8295 133.459 97.6537C133.355 97.1891 133.269 96.7262 133.193 96.2546C133.332 96.12 133.471 95.9854 133.614 95.8468C133.796 95.6689 133.978 95.491 134.16 95.313C134.297 95.1802 134.297 95.1802 134.437 95.0448C134.525 94.9585 134.613 94.8723 134.703 94.7834C134.784 94.7045 134.865 94.6256 134.949 94.5444C135.203 94.2798 135.202 94.2798 135.467 93.7734Z" fill="#FFFDFC"/>
</g>
</svg>
