<svg width="32" height="32" viewBox="0 0 32 32" fill="none" xmlns="http://www.w3.org/2000/svg">
<g clip-path="url(#clip0_448_878)">
<path d="M31.3587 29.669L29.5704 18.1289V11.2755C29.5663 10.7114 29.3697 10.1656 29.0131 9.72859C28.6565 9.29154 28.1612 8.98945 27.6094 8.87235V7.35361C27.6071 7.33678 27.6038 7.32008 27.5996 7.30361C28.2874 6.90517 28.8379 6.30714 29.1782 5.58877L29.185 5.577C29.4329 5.06028 29.5631 4.49505 29.5664 3.92198C29.5694 3.03181 29.2687 2.16725 28.7141 1.47099C28.1595 0.774729 27.384 0.28838 26.5157 0.0922164C25.6474 -0.103947 24.7382 0.0017998 23.9381 0.392004C23.1381 0.782208 22.4949 1.43355 22.1149 2.23851C22.108 2.24734 22.1051 2.25812 22.0982 2.26793C21.6748 3.1526 21.6037 4.16522 21.8994 5.10037C22.1951 6.03553 22.8354 6.8232 23.6905 7.30361C23.6863 7.32008 23.6831 7.33678 23.6807 7.35361V9.12629C23.5569 9.19396 23.4397 9.27308 23.3307 9.36259L20.7158 11.4471C20.4591 11.6571 20.1366 11.7699 19.8049 11.7657H16.8243C16.4489 11.7679 16.0821 11.8779 15.7674 12.0824C15.4519 11.8764 15.0833 11.7663 14.7065 11.7657H11.719C11.385 11.7656 11.061 11.6519 10.8003 11.4431L8.19619 9.36161C8.08554 9.27342 7.96744 9.19501 7.84322 9.12728V7.35361C7.84087 7.33678 7.8376 7.32008 7.83342 7.30361C8.68874 6.82319 9.32919 6.03528 9.62473 5.09985C9.92027 4.16442 9.84876 3.15157 9.42472 2.26695C9.41883 2.25714 9.41589 2.24734 9.40903 2.23851C9.19466 1.76652 8.88855 1.34187 8.50851 0.989298C8.12848 0.636721 7.68212 0.363253 7.1954 0.184811C6.70868 0.0063694 6.19133 -0.0734827 5.67346 -0.0500975C5.15559 -0.0267122 4.64755 0.0994432 4.17889 0.321026C3.71024 0.54261 3.29034 0.855195 2.94363 1.24059C2.59692 1.62598 2.33033 2.07649 2.15937 2.56588C1.98842 3.05528 1.9165 3.57379 1.94783 4.09124C1.97915 4.60869 2.11308 5.11474 2.34182 5.57995L2.35261 5.58877C2.69285 6.30714 3.24336 6.90517 3.93116 7.30361C3.92698 7.32008 3.92371 7.33678 3.92136 7.35361V8.87431C3.36787 8.98729 2.87039 9.28798 2.51307 9.72552C2.15576 10.1631 1.96053 10.7106 1.96042 11.2755V18.1015L0.167148 29.6739C0.111541 30.0529 0.204108 30.4388 0.425613 30.7513C0.647117 31.0639 0.980525 31.279 1.35655 31.3521C1.73258 31.4252 2.12231 31.3506 2.44475 31.1438C2.76719 30.937 2.99755 30.6139 3.08796 30.2416L5.69208 21.9439L6.83922 23.2038L6.03916 29.6337C6.02531 29.7071 6.01907 29.7817 6.02053 29.8563C6.0194 30.2264 6.15368 30.584 6.39805 30.8619C6.64242 31.1398 6.98 31.3187 7.34716 31.3649C7.71432 31.4111 8.08569 31.3213 8.39127 31.1126C8.69684 30.9039 8.91551 30.5906 9.00606 30.2318L10.614 23.8862C10.7381 23.3909 10.7077 22.8695 10.5268 22.392L8.82369 18.0466V14.7071L8.95409 14.8052C9.71873 15.3762 10.647 15.6856 11.6014 15.6876H14.7065C15.0833 15.6869 15.4519 15.5769 15.7674 15.3709C16.0821 15.5754 16.4489 15.6854 16.8243 15.6876H19.9226C20.8777 15.6907 21.8076 15.3807 22.5698 14.8052L22.7071 14.7071V18.0407L21.0001 22.3999C20.82 22.8769 20.7899 23.3975 20.9138 23.8921L22.5228 30.2387C22.6149 30.5959 22.8342 30.9073 23.1395 31.1145C23.4449 31.3216 23.8153 31.4103 24.1813 31.3638C24.5473 31.3174 24.8838 31.1391 25.1278 30.8623C25.3717 30.5855 25.5063 30.2292 25.5063 29.8602C25.5081 29.7958 25.5032 29.7314 25.4916 29.6681L24.6857 23.2038L25.8328 21.943L28.4271 30.1985C28.5083 30.5767 28.7333 30.9085 29.0547 31.1238C29.376 31.3391 29.7685 31.4211 30.1491 31.3523C30.5298 31.2836 30.8688 31.0695 31.0945 30.7554C31.3202 30.4413 31.415 30.0517 31.3587 29.669ZM2.94089 3.92198C2.93877 3.30335 3.13234 2.6999 3.49392 2.19793C3.85549 1.69597 4.36654 1.3212 4.95398 1.12724C5.54142 0.933279 6.17515 0.930054 6.76453 1.11803C7.35391 1.306 7.86875 1.67555 8.23541 2.1738L4.31354 2.95131C4.20281 2.97392 4.10329 3.03408 4.03182 3.12163C3.96036 3.20918 3.92133 3.31873 3.92136 3.43174V4.90244H3.12129C3.00515 4.58845 2.94412 4.25675 2.94089 3.92198ZM3.70565 5.88291H4.41159C4.54161 5.88291 4.6663 5.83126 4.75824 5.73932C4.85017 5.64739 4.90182 5.52269 4.90182 5.39268V3.83471L8.6874 3.08368C8.77372 3.35491 8.81964 3.63737 8.82369 3.92198C8.82585 4.5168 8.64696 5.0982 8.31078 5.58891C7.9746 6.07963 7.49706 6.45643 6.94161 6.66925C6.38616 6.88207 5.77909 6.92082 5.20109 6.78037C4.62308 6.63991 4.1015 6.32689 3.70565 5.88291ZM6.86276 7.70462V8.84098C6.79706 8.83608 6.73137 8.82431 6.66666 8.82431H4.90182V7.70462C5.22135 7.79275 5.55086 7.83954 5.88229 7.84384C6.21372 7.83954 6.54323 7.79275 6.86276 7.70462ZM2.14083 29.9916C2.11522 30.0799 2.06705 30.1601 2.00106 30.2241C1.93507 30.2882 1.85352 30.334 1.76447 30.3569C1.67541 30.3799 1.58191 30.3792 1.49317 30.3551C1.40443 30.3309 1.32352 30.284 1.25841 30.2191C1.21057 30.1649 1.17502 30.101 1.1542 30.0318C1.13339 29.9626 1.12779 29.8897 1.13781 29.8181L2.87128 18.629H5.70482L2.14083 29.9916ZM9.60806 22.7469C9.71634 23.0351 9.73412 23.3494 9.65905 23.648L8.055 29.9867C8.02515 30.1016 7.95864 30.2035 7.86556 30.2772C7.77248 30.3508 7.65792 30.392 7.53928 30.3946C7.46355 30.3925 7.38906 30.3749 7.32046 30.3428C7.25185 30.3106 7.19061 30.2647 7.14056 30.2078C7.0905 30.151 7.05271 30.0844 7.02954 30.0123C7.00638 29.9402 6.99833 29.864 7.0059 29.7887L7.84322 23.1019C7.85226 23.0315 7.84589 22.9599 7.82456 22.8922C7.80323 22.8245 7.76745 22.7622 7.71968 22.7097L6.0323 20.8605L6.73235 18.629H7.99912L9.60806 22.7469ZM11.5984 14.7071C10.8562 14.7054 10.1343 14.4647 9.53943 14.0208L6.66666 11.8638C6.61516 11.8251 6.55655 11.797 6.49419 11.781C6.43183 11.7651 6.36692 11.7615 6.30319 11.7706C6.17448 11.789 6.05835 11.8578 5.98034 11.9618C5.90232 12.0658 5.86883 12.1966 5.88722 12.3253C5.9056 12.454 5.97437 12.5701 6.07838 12.6481L7.84322 13.9718V17.6485H2.94089V11.2755C2.94089 10.8854 3.09584 10.5113 3.37165 10.2355C3.64746 9.95973 4.02153 9.80478 4.41159 9.80478H6.66666C7.00064 9.80487 7.32464 9.91863 7.58536 10.1274L10.1895 12.2099C10.6241 12.5563 11.1632 12.7453 11.719 12.7462H12.7524L12.7799 14.7071H11.5984ZM14.7065 14.7071H13.7603L13.7329 12.7462H14.7065C14.9665 12.7462 15.2159 12.8495 15.3998 13.0334C15.5837 13.2172 15.687 13.4666 15.687 13.7266C15.687 13.9867 15.5837 14.2361 15.3998 14.4199C15.2159 14.6038 14.9665 14.7071 14.7065 14.7071ZM16.8243 14.7071C16.6917 14.7066 16.5607 14.6793 16.439 14.6267C16.5892 14.3507 16.6678 14.0414 16.6678 13.7271C16.6678 13.4129 16.5892 13.1036 16.439 12.8276C16.5606 12.7746 16.6917 12.747 16.8243 12.7462H17.6548L17.6822 14.7071H16.8243ZM25.6485 0.980576C26.4286 0.980576 27.1768 1.29047 27.7284 1.84209C28.28 2.39371 28.5899 3.14187 28.5899 3.92198C28.5867 4.25675 28.5256 4.58845 28.4095 4.90244H27.6094V3.43174C27.6095 3.31873 27.5704 3.20918 27.499 3.12163C27.4275 3.03408 27.328 2.97392 27.2172 2.95131L23.2954 2.1738C23.5666 1.80533 23.9204 1.50549 24.3283 1.29829C24.7363 1.09109 25.187 0.982277 25.6446 0.980576H25.6485ZM22.7071 3.92198C22.7111 3.63737 22.7571 3.35491 22.8434 3.08368L26.629 3.83471V5.39268C26.629 5.52269 26.6806 5.64739 26.7726 5.73932C26.8645 5.83126 26.9892 5.88291 27.1192 5.88291H27.8251C27.4293 6.32689 26.9077 6.63991 26.3297 6.78037C25.7517 6.92082 25.1446 6.88207 24.5892 6.66925C24.0337 6.45643 23.5562 6.07963 23.22 5.58891C22.8838 5.0982 22.7049 4.5168 22.7071 3.92198ZM26.629 7.70462V8.82431H24.8641C24.7965 8.82431 24.7308 8.83608 24.668 8.84098V7.70462C25.3085 7.89031 25.9885 7.89031 26.629 7.70462ZM21.9806 14.0208C21.3879 14.4687 20.6645 14.7098 19.9216 14.7071H18.6627L18.6352 12.7462H19.8049C20.3624 12.7496 20.9037 12.5593 21.3364 12.2079L23.9513 10.1234C24.2085 9.91295 24.5318 9.80009 24.8641 9.80478H27.1192C27.5081 9.80861 27.8799 9.96479 28.1549 10.2398C28.4299 10.5148 28.5861 10.8866 28.5899 11.2755V17.6485H23.6876V13.9688L25.4524 12.6481C25.5039 12.6095 25.5473 12.5611 25.5801 12.5057C25.6129 12.4503 25.6345 12.389 25.6436 12.3253C25.6527 12.2615 25.6491 12.1966 25.6332 12.1343C25.6172 12.0719 25.5891 12.0133 25.5505 11.9618C25.5118 11.9103 25.4634 11.8669 25.408 11.8341C25.3526 11.8013 25.2913 11.7797 25.2276 11.7706C25.1639 11.7615 25.099 11.7651 25.0366 11.781C24.9742 11.797 24.9156 11.8251 24.8641 11.8638L21.9806 14.0208ZM23.8111 22.7097C23.7633 22.7622 23.7276 22.8245 23.7062 22.8922C23.6849 22.9599 23.6785 23.0315 23.6876 23.1019L24.5268 29.8563C24.5273 29.9869 24.48 30.1131 24.3939 30.2112C24.3077 30.3094 24.1887 30.3726 24.0592 30.3891C23.9297 30.4056 23.7986 30.3742 23.6906 30.3009C23.5826 30.2275 23.5052 30.1171 23.4728 29.9906L21.8639 23.648C21.7888 23.3502 21.8059 23.0367 21.9129 22.7489L23.5307 18.629H24.7975L25.4916 20.8605L23.8111 22.7097ZM30.2685 30.2181C30.2012 30.2873 30.1162 30.3367 30.0227 30.3609C29.9293 30.385 29.831 30.383 29.7386 30.3551C29.6462 30.3272 29.5632 30.2744 29.4988 30.2025C29.4344 30.1306 29.391 30.0424 29.3733 29.9475L25.822 18.629H28.6556L30.3891 29.8122C30.3998 29.8846 30.3947 29.9585 30.374 30.0288C30.3534 30.0991 30.3177 30.164 30.2694 30.2191L30.2685 30.2181Z" fill="black"/>
</g>
<defs>
<clipPath id="clip0_448_878">
<rect width="31.3749" height="31.3749" fill="white"/>
</clipPath>
</defs>
</svg>
