<svg width="31" height="31" viewBox="0 0 31 31" fill="none" xmlns="http://www.w3.org/2000/svg">
<g clip-path="url(#clip0_306_292)">
<path d="M31.018 11.4034C30.9671 11.2446 30.8725 11.1034 30.745 10.9958C30.6175 10.8883 30.4623 10.8189 30.2971 10.7956L28.1333 10.4812C28.1191 10.4777 28.1046 10.4749 28.0899 10.4727L26.5525 10.2493L24.8711 6.84257C24.7956 6.693 24.6801 6.56731 24.5374 6.4795C24.3947 6.3917 24.2304 6.34521 24.0628 6.34521C23.8953 6.34522 23.731 6.39172 23.5883 6.47954C23.4456 6.56736 23.3301 6.69305 23.2545 6.84263L21.5733 10.2493L20.0358 10.4727C20.0213 10.4748 20.007 10.4776 19.9928 10.4812L18.2104 10.7402L16.3876 7.04679C16.3001 6.8695 16.1648 6.72022 15.9968 6.61584C15.8289 6.51146 15.6352 6.45614 15.4375 6.45614C15.2397 6.45614 15.046 6.51146 14.8781 6.61584C14.7101 6.72022 14.5748 6.8695 14.4873 7.04679L12.6729 10.7232L11.0074 10.4812C10.9931 10.4777 10.9786 10.4749 10.9639 10.4727L9.42648 10.2493L7.7451 6.84269C7.66959 6.6931 7.55406 6.56739 7.41135 6.47956C7.26864 6.39173 7.10436 6.34523 6.93679 6.34523C6.76923 6.34523 6.60495 6.39173 6.46224 6.47956C6.31953 6.56739 6.204 6.6931 6.12849 6.84269L4.44729 10.2493L2.90988 10.4727C2.8954 10.4748 2.88103 10.4776 2.86683 10.4812L0.702707 10.7956C0.537784 10.8196 0.382853 10.8892 0.255435 10.9966C0.128017 11.104 0.0331971 11.2449 -0.0183017 11.4034C-0.0698005 11.5619 -0.0759232 11.7317 -0.0359774 11.8935C0.00396834 12.0553 0.0883888 12.2027 0.207736 12.319L2.92811 14.9707L2.28589 18.715C2.25727 18.8793 2.27531 19.0484 2.33797 19.203C2.40063 19.3576 2.50539 19.4916 2.64035 19.5897C2.77532 19.6877 2.93508 19.746 3.1015 19.7578C3.26791 19.7696 3.4343 19.7345 3.58177 19.6565L6.93692 17.8926L9.85909 19.4289L9.18254 23.3734C9.1491 23.5683 9.17086 23.7687 9.24534 23.9518C9.31983 24.135 9.44408 24.2936 9.60403 24.4098C9.76399 24.526 9.95327 24.5952 10.1505 24.6094C10.3477 24.6237 10.5449 24.5825 10.7199 24.4905L15.3672 22.0472C15.3889 22.0358 15.413 22.0298 15.4376 22.0298C15.4621 22.0298 15.4862 22.0358 15.5079 22.0473L20.1551 24.4905C20.3301 24.5825 20.5274 24.6237 20.7246 24.6094C20.9218 24.5951 21.111 24.526 21.271 24.4098C21.4309 24.2936 21.5552 24.1349 21.6296 23.9518C21.7041 23.7687 21.7259 23.5684 21.6925 23.3735L21.0262 19.4887L24.063 17.8926L27.4182 19.6565C27.5657 19.7341 27.7319 19.7688 27.8981 19.7568C28.0643 19.7448 28.2239 19.6865 28.3587 19.5885C28.4935 19.4906 28.5982 19.3568 28.661 19.2025C28.7238 19.0481 28.7421 18.8793 28.7139 18.715L28.0718 14.9707L30.7922 12.319C30.9121 12.203 30.9969 12.0556 31.0368 11.8937C31.0768 11.7318 31.0703 11.5619 31.0182 11.4034H31.018ZM10.07 18.1988L10.0204 18.4876L7.34506 17.0811C7.22128 17.0163 7.08406 16.9813 6.94436 16.979C6.93936 16.9789 6.93435 16.9789 6.92935 16.979C6.78965 16.9814 6.65244 17.0163 6.52865 17.0811L3.18616 18.8384L3.82456 15.1164C3.84903 14.9737 3.83842 14.8271 3.79367 14.6894C3.74892 14.5517 3.67135 14.427 3.56766 14.3259L0.86358 11.69L3.04109 11.3735C3.05555 11.3715 3.0699 11.3686 3.08408 11.3651L4.58564 11.147C4.72897 11.1262 4.86509 11.0708 4.98226 10.9857C5.09943 10.9006 5.19413 10.7882 5.25819 10.6584L6.93685 7.25701L8.61552 10.6583C8.67958 10.7882 8.77427 10.9005 8.89143 10.9856C9.00859 11.0708 9.14469 11.1261 9.28801 11.1469L10.7892 11.3651C10.8036 11.3686 10.818 11.3714 10.8327 11.3735L12.2503 11.5795L12.1637 11.7549C12.1528 11.7769 12.1368 11.7959 12.117 11.8104C12.0971 11.8248 12.0741 11.8342 12.0498 11.8377L6.85403 12.5928C6.65836 12.6212 6.47455 12.7038 6.32338 12.8312C6.17221 12.9586 6.05971 13.1258 5.99861 13.3139C5.9375 13.5019 5.93023 13.7033 5.97761 13.8953C6.02499 14.0872 6.12514 14.2621 6.26672 14.4001L10.0266 18.0649C10.0441 18.082 10.0572 18.1032 10.0648 18.1265C10.0723 18.1498 10.0741 18.1746 10.07 18.1988H10.07ZM20.7371 23.675C20.7145 23.6923 20.6874 23.7026 20.6591 23.7047C20.6308 23.7067 20.6025 23.7004 20.5777 23.6865L15.9305 21.2435C15.7785 21.1634 15.6093 21.1216 15.4375 21.1216C15.2656 21.1216 15.0964 21.1634 14.9444 21.2434L10.2973 23.6866C10.2723 23.6997 10.2441 23.7056 10.2159 23.7036C10.1877 23.7016 10.1607 23.6917 10.1378 23.6751C10.1149 23.6585 10.0972 23.6358 10.0865 23.6096C10.0759 23.5835 10.0728 23.5548 10.0775 23.527L10.9651 18.3523C10.9942 18.183 10.9816 18.0092 10.9285 17.8458C10.8755 17.6824 10.7834 17.5343 10.6604 17.4144L6.90077 13.7497C6.88053 13.73 6.86621 13.705 6.85943 13.6776C6.85265 13.6502 6.85368 13.6214 6.8624 13.5945C6.87111 13.5677 6.88718 13.5438 6.90877 13.5256C6.93036 13.5073 6.95661 13.4955 6.98457 13.4915L12.1804 12.7365C12.3504 12.7118 12.5118 12.6461 12.6508 12.5452C12.7898 12.4442 12.9021 12.3109 12.9782 12.1569L15.3018 7.44876C15.3143 7.42345 15.3336 7.40213 15.3576 7.38723C15.3816 7.37233 15.4092 7.36443 15.4375 7.36443C15.4657 7.36443 15.4934 7.37233 15.5174 7.38723C15.5414 7.40213 15.5607 7.42345 15.5732 7.44876L17.8967 12.1568C17.9728 12.3109 18.0851 12.4442 18.2241 12.5451C18.3631 12.6461 18.5246 12.7118 18.6946 12.7365L23.8903 13.4915C23.9182 13.4956 23.9445 13.5074 23.9661 13.5256C23.9876 13.5438 24.0037 13.5677 24.0124 13.5946C24.0212 13.6214 24.0222 13.6502 24.0154 13.6776C24.0087 13.705 23.9944 13.73 23.9741 13.7497L20.2145 17.4144C20.0915 17.5343 19.9995 17.6824 19.9464 17.8457C19.8933 18.0091 19.8808 18.183 19.9098 18.3523L20.0758 19.3202L20.0764 19.3238L20.7973 23.527C20.8028 23.5548 20.8001 23.5837 20.7894 23.61C20.7786 23.6363 20.7605 23.6589 20.7371 23.675ZM27.4322 14.3259C27.3284 14.427 27.2508 14.5517 27.2061 14.6895C27.1613 14.8272 27.1508 14.9738 27.1753 15.1165L27.8136 18.8384L24.4712 17.0812C24.3473 17.0164 24.2101 16.9814 24.0703 16.9791C24.0654 16.979 24.0604 16.979 24.0554 16.9791C23.9157 16.9814 23.7785 17.0164 23.6548 17.0812L20.8648 18.5476L20.8049 18.1989C20.8008 18.1747 20.8026 18.1498 20.8101 18.1265C20.8177 18.1031 20.8309 18.082 20.8485 18.0649L24.6081 14.4001C24.7497 14.2621 24.8499 14.0872 24.8972 13.8953C24.9446 13.7033 24.9373 13.5019 24.8762 13.3139C24.8151 13.1258 24.7026 12.9586 24.5515 12.8312C24.4003 12.7038 24.2165 12.6212 24.0208 12.5928L18.8252 11.8378C18.8009 11.8343 18.7779 11.8249 18.758 11.8105C18.7381 11.796 18.7221 11.777 18.7112 11.755L18.633 11.5965L20.1671 11.3737C20.1816 11.3716 20.1959 11.3687 20.2101 11.3652L21.7117 11.147C21.855 11.1262 21.9911 11.0709 22.1083 10.9858C22.2254 10.9006 22.3201 10.7883 22.3842 10.6584L24.0629 7.25701L25.7415 10.6584C25.8056 10.7882 25.9003 10.9006 26.0174 10.9857C26.1346 11.0708 26.2707 11.1262 26.4141 11.147L27.9153 11.3651C27.9295 11.3686 27.944 11.3715 27.9587 11.3736L30.1362 11.6901L27.4322 14.3259Z" fill="#272A33" stroke="#1C3B3A" stroke-width="0.5"/>
</g>
<defs>
<clipPath id="clip0_306_292">
<rect width="31" height="31" fill="white"/>
</clipPath>
</defs>
</svg>
