<svg width="72" height="72" viewBox="0 0 72 72" fill="none" xmlns="http://www.w3.org/2000/svg">
<path d="M39.656 6.32812C40.254 6.77054 40.3912 7.33047 40.5629 8.02218C40.5923 8.13393 40.6216 8.24568 40.6518 8.36082C40.7438 8.71401 40.833 9.06783 40.9217 9.42187C40.9772 9.63973 41.0329 9.85757 41.0886 10.0754C41.2621 10.7592 41.4307 11.4443 41.599 12.1295C41.6628 12.3882 41.7267 12.6469 41.7906 12.9057C41.9612 13.5965 42.1314 14.2875 42.3014 14.9785C42.4793 15.7008 42.6576 16.4229 42.8358 17.1451C43.1296 18.3359 43.4233 19.5268 43.7167 20.7177C44.142 22.4436 44.568 24.1692 44.9943 25.8948C45.0606 26.1633 45.127 26.4319 45.1933 26.7004C45.29 27.0917 45.3866 27.4831 45.4833 27.8744C45.8113 29.2025 46.1392 30.5306 46.467 31.8587C46.4931 31.9645 46.5192 32.0702 46.5461 32.1792C46.6869 32.7497 46.8277 33.3202 46.9685 33.8906C47.2385 33.4092 47.3668 32.9289 47.4997 32.3945C47.5232 32.3009 47.5466 32.2074 47.5708 32.111C47.649 31.7986 47.7263 31.4859 47.8035 31.1732C47.8592 30.9498 47.9149 30.7264 47.9707 30.5031C48.1216 29.8982 48.2716 29.2932 48.4215 28.6881C48.5471 28.1819 48.6731 27.6758 48.7992 27.1697C49.4589 24.521 50.1141 21.871 50.7671 19.2206C50.7951 19.1068 50.8231 18.993 50.852 18.8757C51.1189 17.7926 51.3856 16.7094 51.6511 15.626C51.8894 14.6537 52.129 13.6818 52.3708 12.7104C52.5011 12.1867 52.6303 11.6627 52.7581 11.1384C52.8977 10.5658 53.0392 9.99374 53.182 9.42194C53.2363 9.20317 53.2899 8.98423 53.3428 8.76511C53.4162 8.46147 53.492 8.15855 53.5685 7.85567C53.6111 7.68257 53.6537 7.50947 53.6977 7.33112C53.871 6.8582 54.0241 6.63299 54.4217 6.32812C54.9721 6.24948 55.2708 6.23914 55.74 6.54785C56.1397 7.1473 56.1351 7.71703 56.0203 8.41545C55.9715 8.61459 55.9208 8.81325 55.8684 9.01147C55.8271 9.17656 55.8271 9.17655 55.785 9.34498C55.6932 9.71055 55.5988 10.0754 55.5044 10.4403C55.4384 10.7008 55.3726 10.9613 55.307 11.2219C55.1664 11.7787 55.0247 12.3353 54.8822 12.8916C54.657 13.7703 54.4343 14.6496 54.2121 15.5291C53.9857 16.4251 53.7591 17.3212 53.5317 18.217C53.0706 20.0339 52.614 21.8518 52.1651 23.6717C52.1379 23.7818 52.1108 23.8919 52.0828 24.0053C51.821 25.0671 51.5603 26.1291 51.3002 27.1912C51.1753 27.7012 51.0503 28.2111 50.9253 28.721C50.9011 28.8196 50.8769 28.9182 50.852 29.0198C50.514 30.3988 50.167 31.7753 49.8139 33.1505C49.6471 33.8015 49.4826 34.4531 49.3177 35.1046C49.2295 35.4501 49.1402 35.7953 49.0498 36.1402C48.9267 36.6095 48.8074 37.0797 48.689 37.5502C48.6525 37.6849 48.6161 37.8196 48.5785 37.9584C48.3392 38.9319 48.4147 39.6748 48.656 40.6406C48.69 40.7869 48.7239 40.9333 48.7588 41.084C48.8734 41.5721 48.9932 42.0586 49.1142 42.5451C49.1575 42.7208 49.2008 42.8966 49.2454 43.0776C49.3592 43.5394 49.4735 44.001 49.588 44.4626C49.7052 44.9358 49.8219 45.4091 49.9387 45.8825C50.1669 46.8072 50.3956 47.7318 50.6248 48.6562C50.7284 48.5891 50.832 48.5219 50.9388 48.4527C51.0761 48.3643 51.2134 48.276 51.3548 48.1849C51.4903 48.0975 51.6259 48.01 51.7655 47.9198C53.2236 47.0298 54.7642 46.773 56.4393 47.1407C58.1117 47.6308 59.4533 48.731 60.2933 50.2564C61.2235 52.2131 61.5063 54.3153 60.8959 56.4175C60.2514 58.1596 59.2401 59.3799 57.656 60.3281C58.0375 61.1294 58.5181 61.5387 59.3435 61.875C59.5831 61.9224 59.8234 61.9661 60.0642 62.0068C60.4945 62.0878 60.7422 62.1515 61.1189 62.3848C61.4019 62.8736 61.4195 63.2932 61.3123 63.8438C61.1101 64.1953 61.1101 64.1953 60.7498 64.4062C59.4741 64.5682 58.0917 64.2039 57.0408 63.457C56.3605 62.8874 55.7017 62.256 55.3643 61.4268C55.1621 60.9908 55.1621 60.9908 54.7122 60.917C54.5496 60.9083 54.387 60.8996 54.2195 60.8906C52.4148 60.6973 51.2222 59.8671 50.0623 58.5C49.0569 57.2353 48.6345 55.568 48.6385 53.9736C48.6379 53.7575 48.6379 53.7575 48.6374 53.5369C48.656 53.0156 48.656 53.0156 48.7011 52.6836C48.835 51.6585 48.7086 50.833 48.4413 49.8411C48.4036 49.6935 48.3659 49.5459 48.3271 49.3937C48.2077 48.9275 48.0848 48.4623 47.9617 47.9971C47.8795 47.679 47.7976 47.3608 47.7159 47.0426C47.5163 46.2673 47.3138 45.4928 47.1092 44.7188C46.9008 45.1084 46.7609 45.4759 46.6518 45.9037C46.6203 46.0258 46.589 46.1479 46.5566 46.2737C46.5238 46.4048 46.4909 46.5359 46.4571 46.671C46.4229 46.8074 46.3886 46.9437 46.3533 47.0841C46.2812 47.3727 46.2094 47.6614 46.1381 47.9501C46.0291 48.3886 45.917 48.8261 45.8048 49.2638C45.7349 49.545 45.6653 49.8262 45.5958 50.1075C45.5453 50.3016 45.5453 50.3016 45.4937 50.4997C45.2805 51.3843 45.2904 52.1195 45.4217 53.0156C45.5424 55.1651 45.13 57.1686 43.7693 58.8955C42.6144 60.1254 41.1636 60.8858 39.4768 60.9569C37.644 60.9808 36.2507 60.4433 34.8748 59.2031C33.3599 57.5463 32.8549 55.6168 32.8764 53.421C32.9803 51.5087 33.7831 49.932 35.0857 48.548C36.3489 47.421 37.853 46.9893 39.5154 46.9688C40.8369 47.0658 41.916 47.5509 42.9826 48.318C43.0708 48.3813 43.159 48.4447 43.2499 48.5099C43.3169 48.5582 43.3839 48.6065 43.4529 48.6562C43.7513 47.5053 44.0473 46.3538 44.3403 45.2015C44.4764 44.6663 44.6134 44.1314 44.7522 43.5969C44.8863 43.0804 45.0183 42.5634 45.1488 42.046C45.1988 41.8494 45.2496 41.653 45.3011 41.4568C45.5774 40.4027 45.8165 39.4689 45.5623 38.3906C45.507 38.1466 45.507 38.1466 45.4506 37.8976C45.306 37.2776 45.1487 36.6609 44.9915 36.0439C44.9324 35.8091 44.8734 35.5743 44.8144 35.3395C44.6882 34.8375 44.5614 34.3356 44.4343 33.8339C44.2326 33.0375 44.0321 32.2409 43.8319 31.4442C43.7982 31.3103 43.7645 31.1763 43.7298 31.0383C43.6615 30.7663 43.5931 30.4942 43.5247 30.2222C43.4211 29.8101 43.3174 29.398 43.2137 28.986C42.4597 25.9891 41.7194 22.9889 40.9825 19.9878C40.9063 19.6775 40.8301 19.3672 40.7539 19.057C40.7037 18.8526 40.6535 18.6482 40.6033 18.4438C40.2481 16.9971 39.8879 15.5517 39.5247 14.1069C39.3731 13.5034 39.2224 12.8997 39.0718 12.2959C38.9535 11.8223 38.8346 11.3488 38.7143 10.8756C38.5838 10.3616 38.4553 9.84702 38.3272 9.33234C38.2884 9.18169 38.2496 9.03104 38.2096 8.87583C37.8923 7.58553 37.8923 7.58553 38.1092 6.89062C38.5349 6.26837 38.9275 6.22404 39.656 6.32812ZM36.097 50.9843C35.2946 52.1443 35.0312 53.4655 35.2132 54.8597C35.5116 56.2578 36.1998 57.4214 37.406 58.2188C38.2664 58.6842 39.1272 58.7719 40.0823 58.5846C41.1899 58.2462 42.061 57.4156 42.6004 56.4082C43.2392 54.9603 43.3343 53.5296 42.8201 52.0225C42.3657 50.994 41.5985 50.0681 40.5877 49.5527C38.8009 48.9033 37.2579 49.5631 36.097 50.9843ZM51.8476 50.987C50.9598 52.2572 50.8703 53.6171 51.0467 55.125C51.3369 56.3921 52.1044 57.5153 53.1967 58.2237C54.0368 58.6975 54.8972 58.7663 55.8334 58.5851C56.8091 58.2839 57.6101 57.5949 58.1636 56.7471C58.9428 55.2597 59.1176 53.8766 58.6355 52.2658C58.1872 51.0263 57.2988 50.0412 56.1267 49.4297C54.3191 49.1405 53.0202 49.5366 51.8476 50.987Z" fill="#A3B38C"/>
<path d="M28.3621 7.7959C28.552 7.81651 28.552 7.81651 28.7457 7.83754C29.4327 7.92788 29.8891 8.04295 30.3748 8.57812C30.4632 8.85937 30.4632 8.85937 30.4539 9.14062C30.4541 9.23344 30.4542 9.32625 30.4544 9.42187C30.3391 9.82925 30.1366 9.99835 29.8123 10.2656C29.4571 10.3277 29.4571 10.3277 29.0559 10.3134C28.9065 10.3083 28.7571 10.3032 28.6032 10.298C27.7874 10.2428 26.9768 10.1591 26.1648 10.0635C24.0992 9.82613 22.0709 9.67956 19.9922 9.68479C19.6322 9.68555 19.2722 9.68479 18.9122 9.6839C18.6802 9.68399 18.4482 9.68417 18.2162 9.68445C18.0571 9.68402 18.0571 9.68402 17.8948 9.68358C17.2596 9.68637 16.6578 9.73985 16.031 9.84375C12.9158 17.4312 14.1897 27.4897 14.783 35.4727C15.2012 41.278 14.4646 46.91 13.6597 52.6417C13.6457 52.7416 13.6317 52.8415 13.6173 52.9444C13.5509 53.4175 13.4842 53.8906 13.4166 54.3635C12.8118 58.5097 12.8118 58.5097 13.7283 62.5166C14.3569 63.1617 15.1337 63.3014 16.0135 63.3252C17.0605 63.2893 18.2484 63.1916 19.1248 62.5781C20.1385 60.9701 19.7008 58.6962 19.4412 56.918C19.4161 56.738 19.391 56.558 19.3652 56.3726C19.1696 54.9729 18.9619 53.5747 18.7462 52.1781C18.2485 48.9151 17.8622 45.0087 19.8905 42.1782C20.9599 40.8482 22.3653 40.6104 23.9754 40.4249C24.9295 40.3227 25.8853 40.2523 26.8431 40.1948C27.1721 40.1745 27.5008 40.1509 27.8295 40.1273C28.0413 40.1142 28.253 40.1013 28.4648 40.0886C28.5618 40.0811 28.6588 40.0737 28.7587 40.066C29.3802 40.0336 29.7363 40.1264 30.2342 40.5C30.4562 40.7221 30.404 40.9492 30.4099 41.2559C30.4136 41.3672 30.4172 41.4785 30.4209 41.5931C30.3639 41.9804 30.2607 42.0937 29.9529 42.3281C29.4101 42.5091 28.8756 42.5278 28.3088 42.5649C28.0602 42.5823 27.8117 42.5998 27.5631 42.6173C27.1728 42.6442 26.7825 42.6707 26.3922 42.6969C26.0144 42.7224 25.6367 42.7491 25.259 42.7758C25.1445 42.7832 25.0301 42.7905 24.9122 42.798C23.101 42.9023 23.101 42.9023 21.656 43.875C19.8696 47.3675 21.1585 52.2558 21.7713 55.9134C22.1807 58.3733 22.7111 61.5898 21.277 63.7872C20.3647 64.9229 19.2099 65.4409 17.7856 65.6323C15.9569 65.7803 14.0149 65.9262 12.5154 64.6875C11.3263 63.5959 10.7717 62.2472 10.6602 60.6405C10.5784 57.51 10.9015 54.4995 11.3401 51.404C11.4231 50.8148 11.5035 50.2253 11.5838 49.6357C11.5993 49.5219 11.6148 49.408 11.6308 49.2908C11.6767 48.9533 11.7225 48.6158 11.7683 48.2783C11.7907 48.1138 11.7907 48.1138 11.8136 47.9461C12.1331 45.6005 12.1331 45.6005 12.35 43.2437C12.3669 43.0027 12.3855 42.7618 12.4056 42.5211C12.6357 39.6519 12.415 36.7958 12.2338 33.9298C12.0351 30.7879 11.9267 27.6587 11.9269 24.51C11.9265 23.9532 11.924 23.3965 11.9213 22.8398C11.8956 11.148 11.8956 11.148 14.3946 8.21228C17.1285 5.57848 24.9917 7.39581 28.3621 7.7959Z" fill="#A3B38C"/>
<path d="M21.029 21.4792C21.1656 21.4785 21.1656 21.4785 21.305 21.4777C21.6051 21.4765 21.9052 21.4773 22.2054 21.4783C22.4144 21.4781 22.6235 21.4778 22.8326 21.4775C23.2705 21.477 23.7083 21.4776 24.1462 21.479C24.707 21.4806 25.2678 21.4796 25.8286 21.478C26.2603 21.4769 26.6919 21.4773 27.1235 21.478C27.3303 21.4782 27.5371 21.4779 27.7439 21.4773C28.033 21.4766 28.3221 21.4777 28.6112 21.4792C28.7756 21.4795 28.9401 21.4797 29.1095 21.4799C29.5203 21.5147 29.7513 21.5741 30.0935 21.7969C30.3884 22.176 30.3741 22.3724 30.3484 22.8603C30.1975 23.499 30.1975 23.499 29.8123 23.7656C29.4134 23.8986 29.1702 23.9243 28.757 23.9249C28.5569 23.9254 28.5569 23.9254 28.3528 23.9259C28.1312 23.9248 28.1312 23.9248 27.9051 23.9238C27.7501 23.9232 27.5952 23.9227 27.4356 23.9221C26.9773 23.9192 26.519 23.9151 26.0606 23.9099C25.8313 23.9073 25.6019 23.9049 25.3725 23.9026C24.5756 23.8943 23.7788 23.8832 22.982 23.8691C22.7133 23.8646 22.4445 23.8607 22.1758 23.8576C21.7946 23.8529 21.4136 23.8456 21.0326 23.8376C20.9171 23.8367 20.8017 23.8358 20.6828 23.8349C19.8903 23.8142 19.8903 23.8142 19.5909 23.5811C19.2933 23.1989 19.2904 22.8333 19.2654 22.3594C19.375 21.9907 19.461 21.8526 19.782 21.6437C20.2114 21.4756 20.5678 21.4799 21.029 21.4792Z" fill="#A3B38C"/>
<path d="M22.9797 26.279C23.8295 26.2642 24.6791 26.2581 25.529 26.2554C25.8858 26.2537 26.2427 26.2508 26.5996 26.2467C27.1192 26.2408 27.6387 26.2384 28.1583 26.237C28.3982 26.2333 28.3982 26.2333 28.643 26.2295C28.7905 26.2299 28.9381 26.2304 29.0901 26.2308C29.2198 26.23 29.3495 26.2291 29.4831 26.2283C29.8123 26.2969 29.8123 26.2969 30.0642 26.5647C30.245 26.8782 30.2989 27.0628 30.3045 27.4219C30.3088 27.5147 30.3132 27.6075 30.3177 27.7031C30.1842 28.1528 29.9177 28.2945 29.531 28.5469C29.1609 28.6051 28.8474 28.6319 28.4774 28.6326C28.3747 28.6349 28.2719 28.6373 28.166 28.6397C27.83 28.6467 27.4941 28.6497 27.158 28.6523C26.9252 28.6558 26.6923 28.6594 26.4595 28.6631C25.9832 28.6703 25.507 28.6756 25.0306 28.6797C24.4702 28.685 23.9102 28.6966 23.3499 28.7115C22.9499 28.7216 22.5498 28.7287 22.1497 28.735C21.872 28.7401 21.5943 28.7483 21.3166 28.7566C19.9399 28.7688 19.9399 28.7688 19.5033 28.359C19.2099 27.8969 19.1646 27.6783 19.2654 27.1406C19.5502 26.6798 19.7 26.4683 20.2351 26.3396C20.4014 26.3351 20.5678 26.3306 20.7392 26.326C20.8826 26.3211 20.8826 26.3211 21.0289 26.316C21.679 26.2967 22.3295 26.2919 22.9797 26.279Z" fill="#A3B38C"/>
<path d="M27.0171 30.9228C27.444 30.9099 27.8708 30.9013 28.2978 30.8941C28.4278 30.8899 28.5577 30.8857 28.6916 30.8813C29.5797 30.8731 29.5797 30.8731 30.0338 31.1912C30.3326 31.6517 30.3189 31.9476 30.2342 32.4844C29.8653 32.9572 29.6474 33.1622 29.0557 33.2909C28.875 33.2981 28.6943 33.3053 28.5082 33.3127C28.4086 33.3176 28.3089 33.3225 28.2062 33.3276C27.8803 33.3428 27.5544 33.3532 27.2283 33.3633C27.0021 33.3724 26.776 33.3818 26.5499 33.3914C26.0858 33.4105 25.6217 33.4276 25.1574 33.4433C24.6042 33.4627 24.0517 33.489 23.4989 33.5191C23.0993 33.5406 22.6996 33.5596 22.2998 33.5781C22.0213 33.5916 21.7428 33.6074 21.4644 33.6232C21.2958 33.6299 21.1272 33.6366 20.9535 33.6434C20.7334 33.654 20.7334 33.654 20.5088 33.6648C19.9936 33.5933 19.7697 33.412 19.406 33.0469C19.2566 32.5635 19.2566 32.5635 19.2654 32.0625C19.5588 31.5805 19.7118 31.3981 20.2498 31.2188C20.4425 31.1991 20.636 31.1858 20.8295 31.177C20.9462 31.1713 21.0628 31.1657 21.183 31.1599C21.3096 31.1545 21.4361 31.1491 21.5665 31.1435C21.699 31.1374 21.8315 31.1314 21.9681 31.1252C22.2505 31.1125 22.5329 31.1001 22.8153 31.088C23.236 31.0698 23.6566 31.0503 24.0771 31.0306C25.0569 30.9862 26.0369 30.9555 27.0171 30.9228Z" fill="#A3B38C"/>
<path d="M21.9593 16.5784C22.0855 16.5818 22.2117 16.5851 22.3417 16.5886C22.7461 16.6 23.1502 16.6144 23.5545 16.6289C23.8176 16.6366 24.0807 16.6441 24.3438 16.6514C24.87 16.6665 25.396 16.6848 25.922 16.7055C26.4648 16.7268 27.0071 16.7398 27.5502 16.7478C27.8164 16.7543 28.0827 16.7608 28.3489 16.7673C28.4716 16.7677 28.5943 16.7681 28.7208 16.7685C29.3347 16.7875 29.5981 16.819 30.101 17.202C30.3748 17.5781 30.3748 17.5781 30.4539 18.0791C30.3608 18.648 30.265 18.7812 29.8123 19.125C29.3787 19.1911 29.3787 19.1911 28.8647 19.1849C28.7711 19.1845 28.6775 19.1841 28.5811 19.1837C28.2736 19.1816 27.9664 19.1754 27.659 19.1689C27.4455 19.1663 27.2321 19.1638 27.0186 19.1614C26.466 19.1545 25.9136 19.1436 25.3611 19.1317C25.0376 19.1251 24.7141 19.1201 24.3905 19.1155C23.8873 19.1084 23.3842 19.099 22.8811 19.0874C22.6012 19.0812 22.3212 19.0764 22.0412 19.0716C21.7861 19.064 21.7861 19.064 21.5258 19.0563C21.3773 19.0527 21.2288 19.049 21.0758 19.0452C20.612 18.9754 20.3431 18.8417 19.9685 18.5625C19.7386 18.1026 19.6606 17.8462 19.7664 17.3408C20.2978 16.4859 21.0573 16.542 21.9593 16.5784Z" fill="#A3B38C"/>
<path d="M21.8582 11.7598C21.9687 11.7618 22.0793 11.7638 22.1932 11.7659C22.6238 11.7765 23.0538 11.7941 23.4842 11.8125C23.6301 11.8186 23.6301 11.8186 23.779 11.8248C24.5745 11.8581 25.3697 11.8958 26.1648 11.9355C26.2786 11.941 26.3923 11.9465 26.5096 11.9521C29.3798 12.0936 29.3798 12.0936 30.0935 12.375C30.3949 12.827 30.417 13.1026 30.4396 13.6357C30.3433 14.061 30.1512 14.2152 29.8123 14.4844C29.3886 14.5439 29.3886 14.5439 28.8872 14.5278C28.7498 14.5243 28.7498 14.5243 28.6097 14.5208C28.3072 14.512 28.0052 14.4986 27.7029 14.4844C27.599 14.4801 27.4951 14.4758 27.388 14.4714C26.7269 14.4439 26.0663 14.4097 25.4057 14.3719C25.0646 14.3524 24.7235 14.3339 24.3823 14.3155C21.1018 14.1355 21.1018 14.1355 20.5047 13.8428C20.1931 13.4237 20.1711 13.1666 20.1701 12.6562C20.4171 11.7841 21.0656 11.7316 21.8582 11.7598Z" fill="#A3B38C"/>
<path d="M28.8355 35.5533C29.0201 35.5494 29.0201 35.5494 29.2085 35.5455C29.531 35.5781 29.531 35.5781 29.9793 35.8769C30.2829 36.3586 30.3504 36.5672 30.2342 37.125C29.8516 37.6171 29.6245 37.8065 29.0114 37.9484C28.804 37.9673 28.5963 37.9826 28.3885 37.9951C28.2742 38.0044 28.1599 38.0137 28.0422 38.0233C27.788 38.0436 27.5337 38.0623 27.2794 38.0798C26.8269 38.1116 26.3751 38.1495 25.9231 38.1879C24.5063 38.3055 23.0867 38.4152 21.6648 38.4434C21.4837 38.4473 21.3026 38.4513 21.1161 38.4554C20.6717 38.3906 20.6717 38.3906 20.3333 38.1363C20.1092 37.8281 20.1092 37.8281 20.0301 37.3447C20.1335 36.6895 20.281 36.5368 20.8123 36.1406C21.3355 36.0096 21.8581 35.9803 22.3954 35.9489C22.5499 35.9374 22.7045 35.9259 22.8637 35.9141C23.3574 35.8782 23.8514 35.8468 24.3455 35.8154C24.6747 35.7918 25.004 35.7679 25.3332 35.7437C27.6887 35.5762 27.6887 35.5762 28.8355 35.5533Z" fill="#A3B38C"/>
<path d="M39.656 6.32812C40.254 6.77054 40.3912 7.33047 40.5629 8.02218C40.5923 8.13393 40.6216 8.24568 40.6518 8.36082C40.7438 8.71401 40.833 9.06783 40.9217 9.42187C40.9772 9.63973 41.0329 9.85757 41.0886 10.0754C41.2621 10.7592 41.4307 11.4443 41.599 12.1295C41.6628 12.3882 41.7267 12.6469 41.7906 12.9057C41.9612 13.5965 42.1314 14.2875 42.3014 14.9785C42.4793 15.7008 42.6576 16.4229 42.8358 17.1451C43.1296 18.3359 43.4233 19.5268 43.7167 20.7177C44.142 22.4436 44.568 24.1692 44.9943 25.8948C45.0606 26.1633 45.127 26.4319 45.1933 26.7004C45.29 27.0917 45.3866 27.4831 45.4833 27.8744C45.8113 29.2025 46.1392 30.5306 46.467 31.8587C46.4931 31.9645 46.5192 32.0702 46.5461 32.1792C46.6869 32.7497 46.8277 33.3202 46.9685 33.8906C47.2385 33.4092 47.3668 32.9289 47.4997 32.3945C47.5232 32.3009 47.5466 32.2074 47.5708 32.111C47.649 31.7986 47.7263 31.4859 47.8035 31.1732C47.8592 30.9498 47.9149 30.7264 47.9707 30.5031C48.1216 29.8982 48.2716 29.2932 48.4215 28.6881C48.5471 28.1819 48.6731 27.6758 48.7992 27.1697C49.4589 24.521 50.1141 21.871 50.7671 19.2206C50.7951 19.1068 50.8231 18.993 50.852 18.8757C51.1189 17.7926 51.3856 16.7094 51.6511 15.626C51.8894 14.6537 52.129 13.6818 52.3708 12.7104C52.5011 12.1867 52.6303 11.6627 52.7581 11.1384C52.8977 10.5658 53.0392 9.99374 53.182 9.42194C53.2363 9.20317 53.2899 8.98423 53.3428 8.76511C53.4162 8.46147 53.492 8.15855 53.5685 7.85567C53.6111 7.68257 53.6537 7.50947 53.6977 7.33112C53.871 6.8582 54.0241 6.63299 54.4217 6.32812C54.9721 6.24948 55.2708 6.23914 55.74 6.54785C56.1397 7.1473 56.1351 7.71703 56.0203 8.41545C55.9715 8.61459 55.9208 8.81325 55.8684 9.01147C55.8271 9.17656 55.8271 9.17655 55.785 9.34498C55.6932 9.71055 55.5988 10.0754 55.5044 10.4403C55.4384 10.7008 55.3726 10.9613 55.307 11.2219C55.1664 11.7787 55.0247 12.3353 54.8822 12.8916C54.657 13.7703 54.4343 14.6496 54.2121 15.5291C53.9857 16.4251 53.7591 17.3212 53.5317 18.217C53.0706 20.0339 52.614 21.8518 52.1651 23.6717C52.1379 23.7818 52.1108 23.8919 52.0828 24.0053C51.821 25.0671 51.5603 26.1291 51.3002 27.1912C51.1753 27.7012 51.0503 28.2111 50.9253 28.721C50.9011 28.8196 50.8769 28.9182 50.852 29.0198C50.514 30.3988 50.167 31.7753 49.8139 33.1505C49.6471 33.8015 49.4826 34.4531 49.3177 35.1046C49.2295 35.4501 49.1402 35.7953 49.0498 36.1402C48.9267 36.6095 48.8074 37.0797 48.689 37.5502C48.6525 37.6849 48.6161 37.8196 48.5785 37.9584C48.3392 38.9319 48.4147 39.6748 48.656 40.6406C48.69 40.7869 48.7239 40.9333 48.7588 41.084C48.8734 41.5721 48.9932 42.0586 49.1142 42.5451C49.1575 42.7208 49.2008 42.8966 49.2454 43.0776C49.3592 43.5394 49.4735 44.001 49.588 44.4626C49.7052 44.9358 49.8219 45.4091 49.9387 45.8825C50.1669 46.8072 50.3956 47.7318 50.6248 48.6562C50.7284 48.5891 50.832 48.5219 50.9388 48.4527C51.0761 48.3643 51.2134 48.276 51.3548 48.1849C51.4903 48.0975 51.6259 48.01 51.7655 47.9198C53.2236 47.0298 54.7642 46.773 56.4393 47.1407C58.1117 47.6308 59.4533 48.731 60.2933 50.2564C61.2235 52.2131 61.5063 54.3153 60.8959 56.4175C60.2514 58.1596 59.2401 59.3799 57.656 60.3281C58.0375 61.1294 58.5181 61.5387 59.3435 61.875C59.5831 61.9224 59.8234 61.9661 60.0642 62.0068C60.4945 62.0878 60.7422 62.1515 61.1189 62.3848C61.4019 62.8736 61.4195 63.2932 61.3123 63.8438C61.1101 64.1953 61.1101 64.1953 60.7498 64.4062C59.4741 64.5682 58.0917 64.2039 57.0408 63.457C56.3605 62.8874 55.7017 62.256 55.3643 61.4268C55.1621 60.9908 55.1621 60.9908 54.7122 60.917C54.5496 60.9083 54.387 60.8996 54.2195 60.8906C52.4148 60.6973 51.2222 59.8671 50.0623 58.5C49.0569 57.2353 48.6345 55.568 48.6385 53.9736C48.6379 53.7575 48.6379 53.7575 48.6374 53.5369C48.656 53.0156 48.656 53.0156 48.7011 52.6836C48.835 51.6585 48.7086 50.833 48.4413 49.8411C48.4036 49.6935 48.3659 49.5459 48.3271 49.3937C48.2077 48.9275 48.0848 48.4623 47.9617 47.9971C47.8795 47.679 47.7976 47.3608 47.7159 47.0426C47.5163 46.2673 47.3138 45.4928 47.1092 44.7188C46.9008 45.1084 46.7609 45.4759 46.6518 45.9037C46.6203 46.0258 46.589 46.1479 46.5566 46.2737C46.5238 46.4048 46.4909 46.5359 46.4571 46.671C46.4229 46.8074 46.3886 46.9437 46.3533 47.0841C46.2812 47.3727 46.2094 47.6614 46.1381 47.9501C46.0291 48.3886 45.917 48.8261 45.8048 49.2638C45.7349 49.545 45.6653 49.8262 45.5958 50.1075C45.5453 50.3016 45.5453 50.3016 45.4937 50.4997C45.2805 51.3843 45.2904 52.1195 45.4217 53.0156C45.5424 55.1651 45.13 57.1686 43.7693 58.8955C42.6144 60.1254 41.1636 60.8858 39.4768 60.9569C37.644 60.9808 36.2507 60.4433 34.8748 59.2031C33.3599 57.5463 32.8549 55.6168 32.8764 53.421C32.9803 51.5087 33.7831 49.932 35.0857 48.548C36.3489 47.421 37.853 46.9893 39.5154 46.9688C40.8369 47.0658 41.916 47.5509 42.9826 48.318C43.0708 48.3813 43.159 48.4447 43.2499 48.5099C43.3169 48.5582 43.3839 48.6065 43.4529 48.6562C43.7513 47.5053 44.0473 46.3538 44.3403 45.2015C44.4764 44.6663 44.6134 44.1314 44.7522 43.5969C44.8863 43.0804 45.0183 42.5634 45.1488 42.046C45.1988 41.8494 45.2496 41.653 45.3011 41.4568C45.5774 40.4027 45.8165 39.4689 45.5623 38.3906C45.507 38.1466 45.507 38.1466 45.4506 37.8976C45.306 37.2776 45.1487 36.6609 44.9915 36.0439C44.9324 35.8091 44.8734 35.5743 44.8144 35.3395C44.6882 34.8375 44.5614 34.3356 44.4343 33.8339C44.2326 33.0375 44.0321 32.2409 43.8319 31.4442C43.7982 31.3103 43.7645 31.1763 43.7298 31.0383C43.6615 30.7663 43.5931 30.4942 43.5247 30.2222C43.4211 29.8101 43.3174 29.398 43.2137 28.986C42.4597 25.9891 41.7194 22.9889 40.9825 19.9878C40.9063 19.6775 40.8301 19.3672 40.7539 19.057C40.7037 18.8526 40.6535 18.6482 40.6033 18.4438C40.2481 16.9971 39.8879 15.5517 39.5247 14.1069C39.3731 13.5034 39.2224 12.8997 39.0718 12.2959C38.9535 11.8223 38.8346 11.3488 38.7143 10.8756C38.5838 10.3616 38.4553 9.84702 38.3272 9.33234C38.2884 9.18169 38.2496 9.03104 38.2096 8.87583C37.8923 7.58553 37.8923 7.58553 38.1092 6.89062C38.5349 6.26837 38.9275 6.22404 39.656 6.32812ZM36.097 50.9843C35.2946 52.1443 35.0312 53.4655 35.2132 54.8597C35.5116 56.2578 36.1998 57.4214 37.406 58.2188C38.2664 58.6842 39.1272 58.7719 40.0823 58.5846C41.1899 58.2462 42.061 57.4156 42.6004 56.4082C43.2392 54.9603 43.3343 53.5296 42.8201 52.0225C42.3657 50.994 41.5985 50.0681 40.5877 49.5527C38.8009 48.9033 37.2579 49.5631 36.097 50.9843ZM51.8476 50.987C50.9598 52.2572 50.8703 53.6171 51.0467 55.125C51.3369 56.3921 52.1044 57.5153 53.1967 58.2237C54.0368 58.6975 54.8972 58.7663 55.8334 58.5851C56.8091 58.2839 57.6101 57.5949 58.1636 56.7471C58.9428 55.2597 59.1176 53.8766 58.6355 52.2658C58.1872 51.0263 57.2988 50.0412 56.1267 49.4297C54.3191 49.1405 53.0202 49.5366 51.8476 50.987Z" stroke="#A3B38C" stroke-width="0.5"/>
<path d="M28.3621 7.7959C28.552 7.81651 28.552 7.81651 28.7457 7.83754C29.4327 7.92788 29.8891 8.04295 30.3748 8.57812C30.4632 8.85937 30.4632 8.85937 30.4539 9.14062C30.4541 9.23344 30.4542 9.32625 30.4544 9.42187C30.3391 9.82925 30.1366 9.99835 29.8123 10.2656C29.4571 10.3277 29.4571 10.3277 29.0559 10.3134C28.9065 10.3083 28.7571 10.3032 28.6032 10.298C27.7874 10.2428 26.9768 10.1591 26.1648 10.0635C24.0992 9.82613 22.0709 9.67956 19.9922 9.68479C19.6322 9.68555 19.2722 9.68479 18.9122 9.6839C18.6802 9.68399 18.4482 9.68417 18.2162 9.68445C18.0571 9.68402 18.0571 9.68402 17.8948 9.68358C17.2596 9.68637 16.6578 9.73985 16.031 9.84375C12.9158 17.4312 14.1897 27.4897 14.783 35.4727C15.2012 41.278 14.4646 46.91 13.6597 52.6417C13.6457 52.7416 13.6317 52.8415 13.6173 52.9444C13.5509 53.4175 13.4842 53.8906 13.4166 54.3635C12.8118 58.5097 12.8118 58.5097 13.7283 62.5166C14.3569 63.1617 15.1337 63.3014 16.0135 63.3252C17.0605 63.2893 18.2484 63.1916 19.1248 62.5781C20.1385 60.9701 19.7008 58.6962 19.4412 56.918C19.4161 56.738 19.391 56.558 19.3652 56.3726C19.1696 54.9729 18.9619 53.5747 18.7462 52.1781C18.2485 48.9151 17.8622 45.0087 19.8905 42.1782C20.9599 40.8482 22.3653 40.6104 23.9754 40.4249C24.9295 40.3227 25.8853 40.2523 26.8431 40.1948C27.1721 40.1745 27.5008 40.1509 27.8295 40.1273C28.0413 40.1142 28.253 40.1013 28.4648 40.0886C28.5618 40.0811 28.6588 40.0737 28.7587 40.066C29.3802 40.0336 29.7363 40.1264 30.2342 40.5C30.4562 40.7221 30.404 40.9492 30.4099 41.2559C30.4136 41.3672 30.4172 41.4785 30.4209 41.5931C30.3639 41.9804 30.2607 42.0937 29.9529 42.3281C29.4101 42.5091 28.8756 42.5278 28.3088 42.5649C28.0602 42.5823 27.8117 42.5998 27.5631 42.6173C27.1728 42.6442 26.7825 42.6707 26.3922 42.6969C26.0144 42.7224 25.6367 42.7491 25.259 42.7758C25.1445 42.7832 25.0301 42.7905 24.9122 42.798C23.101 42.9023 23.101 42.9023 21.656 43.875C19.8696 47.3675 21.1585 52.2558 21.7713 55.9134C22.1807 58.3733 22.7111 61.5898 21.277 63.7872C20.3647 64.9229 19.2099 65.4409 17.7856 65.6323C15.9569 65.7803 14.0149 65.9262 12.5154 64.6875C11.3263 63.5959 10.7717 62.2472 10.6602 60.6405C10.5784 57.51 10.9015 54.4995 11.3401 51.404C11.4231 50.8148 11.5035 50.2253 11.5838 49.6357C11.5993 49.5219 11.6148 49.408 11.6308 49.2908C11.6767 48.9533 11.7225 48.6158 11.7683 48.2783C11.7907 48.1138 11.7907 48.1138 11.8136 47.9461C12.1331 45.6005 12.1331 45.6005 12.35 43.2437C12.3669 43.0027 12.3855 42.7618 12.4056 42.5211C12.6357 39.6519 12.415 36.7958 12.2338 33.9298C12.0351 30.7879 11.9267 27.6587 11.9269 24.51C11.9265 23.9532 11.924 23.3965 11.9213 22.8398C11.8956 11.148 11.8956 11.148 14.3946 8.21228C17.1285 5.57848 24.9917 7.39581 28.3621 7.7959Z" stroke="#A3B38C" stroke-width="0.5"/>
<path d="M21.029 21.4792C21.1656 21.4785 21.1656 21.4785 21.305 21.4777C21.6051 21.4765 21.9052 21.4773 22.2054 21.4783C22.4144 21.4781 22.6235 21.4778 22.8326 21.4775C23.2705 21.477 23.7083 21.4776 24.1462 21.479C24.707 21.4806 25.2678 21.4796 25.8286 21.478C26.2603 21.4769 26.6919 21.4773 27.1235 21.478C27.3303 21.4782 27.5371 21.4779 27.7439 21.4773C28.033 21.4766 28.3221 21.4777 28.6112 21.4792C28.7756 21.4795 28.9401 21.4797 29.1095 21.4799C29.5203 21.5147 29.7513 21.5741 30.0935 21.7969C30.3884 22.176 30.3741 22.3724 30.3484 22.8603C30.1975 23.499 30.1975 23.499 29.8123 23.7656C29.4134 23.8986 29.1702 23.9243 28.757 23.9249C28.5569 23.9254 28.5569 23.9254 28.3528 23.9259C28.1312 23.9248 28.1312 23.9248 27.9051 23.9238C27.7501 23.9232 27.5952 23.9227 27.4356 23.9221C26.9773 23.9192 26.519 23.9151 26.0606 23.9099C25.8313 23.9073 25.6019 23.9049 25.3725 23.9026C24.5756 23.8943 23.7788 23.8832 22.982 23.8691C22.7133 23.8646 22.4445 23.8607 22.1758 23.8576C21.7946 23.8529 21.4136 23.8456 21.0326 23.8376C20.9171 23.8367 20.8017 23.8358 20.6828 23.8349C19.8903 23.8142 19.8903 23.8142 19.5909 23.5811C19.2933 23.1989 19.2904 22.8333 19.2654 22.3594C19.375 21.9907 19.461 21.8526 19.782 21.6437C20.2114 21.4756 20.5678 21.4799 21.029 21.4792Z" stroke="#A3B38C" stroke-width="0.5"/>
<path d="M22.9797 26.279C23.8295 26.2642 24.6791 26.2581 25.529 26.2554C25.8858 26.2537 26.2427 26.2508 26.5996 26.2467C27.1192 26.2408 27.6387 26.2384 28.1583 26.237C28.3982 26.2333 28.3982 26.2333 28.643 26.2295C28.7905 26.2299 28.9381 26.2304 29.0901 26.2308C29.2198 26.23 29.3495 26.2291 29.4831 26.2283C29.8123 26.2969 29.8123 26.2969 30.0642 26.5647C30.245 26.8782 30.2989 27.0628 30.3045 27.4219C30.3088 27.5147 30.3132 27.6075 30.3177 27.7031C30.1842 28.1528 29.9177 28.2945 29.531 28.5469C29.1609 28.6051 28.8474 28.6319 28.4774 28.6326C28.3747 28.6349 28.2719 28.6373 28.166 28.6397C27.83 28.6467 27.4941 28.6497 27.158 28.6523C26.9252 28.6558 26.6923 28.6594 26.4595 28.6631C25.9832 28.6703 25.507 28.6756 25.0306 28.6797C24.4702 28.685 23.9102 28.6966 23.3499 28.7115C22.9499 28.7216 22.5498 28.7287 22.1497 28.735C21.872 28.7401 21.5943 28.7483 21.3166 28.7566C19.9399 28.7688 19.9399 28.7688 19.5033 28.359C19.2099 27.8969 19.1646 27.6783 19.2654 27.1406C19.5502 26.6798 19.7 26.4683 20.2351 26.3396C20.4014 26.3351 20.5678 26.3306 20.7392 26.326C20.8826 26.3211 20.8826 26.3211 21.0289 26.316C21.679 26.2967 22.3295 26.2919 22.9797 26.279Z" stroke="#A3B38C" stroke-width="0.5"/>
<path d="M27.0171 30.9228C27.444 30.9099 27.8708 30.9013 28.2978 30.8941C28.4278 30.8899 28.5577 30.8857 28.6916 30.8813C29.5797 30.8731 29.5797 30.8731 30.0338 31.1912C30.3326 31.6517 30.3189 31.9476 30.2342 32.4844C29.8653 32.9572 29.6474 33.1622 29.0557 33.2909C28.875 33.2981 28.6943 33.3053 28.5082 33.3127C28.4086 33.3176 28.3089 33.3225 28.2062 33.3276C27.8803 33.3428 27.5544 33.3532 27.2283 33.3633C27.0021 33.3724 26.776 33.3818 26.5499 33.3914C26.0858 33.4105 25.6217 33.4276 25.1574 33.4433C24.6042 33.4627 24.0517 33.489 23.4989 33.5191C23.0993 33.5406 22.6996 33.5596 22.2998 33.5781C22.0213 33.5916 21.7428 33.6074 21.4644 33.6232C21.2958 33.6299 21.1272 33.6366 20.9535 33.6434C20.7334 33.654 20.7334 33.654 20.5088 33.6648C19.9936 33.5933 19.7697 33.412 19.406 33.0469C19.2566 32.5635 19.2566 32.5635 19.2654 32.0625C19.5588 31.5805 19.7118 31.3981 20.2498 31.2188C20.4425 31.1991 20.636 31.1858 20.8295 31.177C20.9462 31.1713 21.0628 31.1657 21.183 31.1599C21.3096 31.1545 21.4361 31.1491 21.5665 31.1435C21.699 31.1374 21.8315 31.1314 21.9681 31.1252C22.2505 31.1125 22.5329 31.1001 22.8153 31.088C23.236 31.0698 23.6566 31.0503 24.0771 31.0306C25.0569 30.9862 26.0369 30.9555 27.0171 30.9228Z" stroke="#A3B38C" stroke-width="0.5"/>
<path d="M21.9593 16.5784C22.0855 16.5818 22.2117 16.5851 22.3417 16.5886C22.7461 16.6 23.1502 16.6144 23.5545 16.6289C23.8176 16.6366 24.0807 16.6441 24.3438 16.6514C24.87 16.6665 25.396 16.6848 25.922 16.7055C26.4648 16.7268 27.0071 16.7398 27.5502 16.7478C27.8164 16.7543 28.0827 16.7608 28.3489 16.7673C28.4716 16.7677 28.5943 16.7681 28.7208 16.7685C29.3347 16.7875 29.5981 16.819 30.101 17.202C30.3748 17.5781 30.3748 17.5781 30.4539 18.0791C30.3608 18.648 30.265 18.7812 29.8123 19.125C29.3787 19.1911 29.3787 19.1911 28.8647 19.1849C28.7711 19.1845 28.6775 19.1841 28.5811 19.1837C28.2736 19.1816 27.9664 19.1754 27.659 19.1689C27.4455 19.1663 27.2321 19.1638 27.0186 19.1614C26.466 19.1545 25.9136 19.1436 25.3611 19.1317C25.0376 19.1251 24.7141 19.1201 24.3905 19.1155C23.8873 19.1084 23.3842 19.099 22.8811 19.0874C22.6012 19.0812 22.3212 19.0764 22.0412 19.0716C21.7861 19.064 21.7861 19.064 21.5258 19.0563C21.3773 19.0527 21.2288 19.049 21.0758 19.0452C20.612 18.9754 20.3431 18.8417 19.9685 18.5625C19.7386 18.1026 19.6606 17.8462 19.7664 17.3408C20.2978 16.4859 21.0573 16.542 21.9593 16.5784Z" stroke="#A3B38C" stroke-width="0.5"/>
<path d="M21.8582 11.7598C21.9687 11.7618 22.0793 11.7638 22.1932 11.7659C22.6238 11.7765 23.0538 11.7941 23.4842 11.8125C23.6301 11.8186 23.6301 11.8186 23.779 11.8248C24.5745 11.8581 25.3697 11.8958 26.1648 11.9355C26.2786 11.941 26.3923 11.9465 26.5096 11.9521C29.3798 12.0936 29.3798 12.0936 30.0935 12.375C30.3949 12.827 30.417 13.1026 30.4396 13.6357C30.3433 14.061 30.1512 14.2152 29.8123 14.4844C29.3886 14.5439 29.3886 14.5439 28.8872 14.5278C28.7498 14.5243 28.7498 14.5243 28.6097 14.5208C28.3072 14.512 28.0052 14.4986 27.7029 14.4844C27.599 14.4801 27.4951 14.4758 27.388 14.4714C26.7269 14.4439 26.0663 14.4097 25.4057 14.3719C25.0646 14.3524 24.7235 14.3339 24.3823 14.3155C21.1018 14.1355 21.1018 14.1355 20.5047 13.8428C20.1931 13.4237 20.1711 13.1666 20.1701 12.6562C20.4171 11.7841 21.0656 11.7316 21.8582 11.7598Z" stroke="#A3B38C" stroke-width="0.5"/>
<path d="M28.8355 35.5533C29.0201 35.5494 29.0201 35.5494 29.2085 35.5455C29.531 35.5781 29.531 35.5781 29.9793 35.8769C30.2829 36.3586 30.3504 36.5672 30.2342 37.125C29.8516 37.6171 29.6245 37.8065 29.0114 37.9484C28.804 37.9673 28.5963 37.9826 28.3885 37.9951C28.2742 38.0044 28.1599 38.0137 28.0422 38.0233C27.788 38.0436 27.5337 38.0623 27.2794 38.0798C26.8269 38.1116 26.3751 38.1495 25.9231 38.1879C24.5063 38.3055 23.0867 38.4152 21.6648 38.4434C21.4837 38.4473 21.3026 38.4513 21.1161 38.4554C20.6717 38.3906 20.6717 38.3906 20.3333 38.1363C20.1092 37.8281 20.1092 37.8281 20.0301 37.3447C20.1335 36.6895 20.281 36.5368 20.8123 36.1406C21.3355 36.0096 21.8581 35.9803 22.3954 35.9489C22.5499 35.9374 22.7045 35.9259 22.8637 35.9141C23.3574 35.8782 23.8514 35.8468 24.3455 35.8154C24.6747 35.7918 25.004 35.7679 25.3332 35.7437C27.6887 35.5762 27.6887 35.5762 28.8355 35.5533Z" stroke="#A3B38C" stroke-width="0.5"/>
</svg>
