<svg width="18" height="18" viewBox="0 0 18 18" fill="none" xmlns="http://www.w3.org/2000/svg">
<path fill-rule="evenodd" clip-rule="evenodd" d="M9 3C8.60217 3 8.22064 3.15803 7.93934 3.43934C7.65803 3.72064 7.5 4.10217 7.5 4.5H10.5C10.5 4.10217 10.342 3.72064 10.0607 3.43934C9.77935 3.15803 9.39782 3 9 3ZM7.0155 2.25C7.54425 1.7835 8.2395 1.5 9 1.5C9.7605 1.5 10.455 1.7835 10.9845 2.25H13.5C13.8978 2.25 14.2794 2.40804 14.5607 2.68934C14.842 2.97064 15 3.35217 15 3.75V15C15 15.3978 14.842 15.7794 14.5607 16.0607C14.2794 16.342 13.8978 16.5 13.5 16.5H4.5C4.10217 16.5 3.72064 16.342 3.43934 16.0607C3.15804 15.7794 3 15.3978 3 15V3.75C3 3.35217 3.15804 2.97064 3.43934 2.68934C3.72064 2.40804 4.10217 2.25 4.5 2.25H7.0155ZM6.0945 3.75H4.5V15H13.5V3.75H11.9055C11.9675 3.9905 11.999 4.2405 12 4.5V5.25C12 5.44891 11.921 5.63968 11.7803 5.78033C11.6397 5.92098 11.4489 6 11.25 6H6.75C6.55109 6 6.36032 5.92098 6.21967 5.78033C6.07902 5.63968 6 5.44891 6 5.25V4.5C6.001 4.2405 6.0325 3.9905 6.0945 3.75ZM6 8.25C6 8.05109 6.07902 7.86032 6.21967 7.71967C6.36032 7.57902 6.55109 7.5 6.75 7.5H11.25C11.4489 7.5 11.6397 7.57902 11.7803 7.71967C11.921 7.86032 12 8.05109 12 8.25C12 8.44891 11.921 8.63968 11.7803 8.78033C11.6397 8.92098 11.4489 9 11.25 9H6.75C6.55109 9 6.36032 8.92098 6.21967 8.78033C6.07902 8.63968 6 8.44891 6 8.25ZM6 11.25C6 11.0511 6.07902 10.8603 6.21967 10.7197C6.36032 10.579 6.55109 10.5 6.75 10.5H9C9.19891 10.5 9.38968 10.579 9.53033 10.7197C9.67098 10.8603 9.75 11.0511 9.75 11.25C9.75 11.4489 9.67098 11.6397 9.53033 11.7803C9.38968 11.921 9.19891 12 9 12H6.75C6.55109 12 6.36032 11.921 6.21967 11.7803C6.07902 11.6397 6 11.4489 6 11.25Z" fill="#1C3B3A"/>
</svg>
