<svg width="24" height="24" viewBox="0 0 24 24" fill="none" xmlns="http://www.w3.org/2000/svg">
<path d="M11.7422 3.76141C10.0286 4.79007 8.03433 5.2521 6.04297 5.08173L5.5 5.03583V11.8796C5.49918 13.0739 5.7841 14.251 6.33008 15.3132C6.80787 16.2427 7.47317 17.0613 8.2832 17.7165L8.63965 17.987L11.71 20.1774L12 20.3845L12.29 20.1774L15.3604 17.987C16.3321 17.2926 17.1239 16.3754 17.6699 15.3132C18.2159 14.251 18.5008 13.0739 18.5 11.8796V5.03583L17.957 5.08173C15.9657 5.2521 13.9714 4.79008 12.2578 3.76141L12 3.60712L11.7422 3.76141ZM14.29 9.78583C14.4237 9.78584 14.552 9.83883 14.6465 9.93329C14.741 10.0278 14.7939 10.1561 14.7939 10.2897C14.7939 10.3902 14.764 10.4877 14.709 10.57L14.6465 10.6462L11.208 14.0554L11.2051 14.0583C11.1586 14.1051 11.1029 14.1423 11.042 14.1677C10.9812 14.1929 10.9155 14.2057 10.8496 14.2057C10.7839 14.2057 10.7189 14.1929 10.6582 14.1677C10.5974 14.1423 10.5415 14.105 10.4951 14.0583L8.89355 12.4567C8.79908 12.3623 8.74617 12.2339 8.74609 12.1003C8.74609 11.9667 8.79911 11.8384 8.89355 11.7438C8.98809 11.6493 9.11631 11.5964 9.25 11.5964C9.35012 11.5964 9.44717 11.6257 9.5293 11.6804L9.60645 11.7438L10.4941 12.6413L10.8486 12.9997L11.2041 12.6432L13.7959 10.0417L13.8359 10.0319L13.9336 9.93329C14.0281 9.83885 14.1564 9.78583 14.29 9.78583ZM4.5 4.42841C4.49975 4.35385 4.51595 4.27997 4.54785 4.21259C4.5638 4.17897 4.58362 4.14695 4.60645 4.11786L4.68457 4.03876C4.74257 3.99185 4.81026 3.95842 4.88281 3.9411C4.95549 3.9238 5.03146 3.92338 5.10449 3.93915H5.10742C6.24277 4.17709 7.41519 4.18 8.55176 3.94794C9.68763 3.71596 10.7631 3.25292 11.7139 2.58954L11.7148 2.59052C11.7985 2.53247 11.8982 2.50165 12 2.50165C12.1018 2.50165 12.2015 2.53247 12.2852 2.59052V2.58954C13.2361 3.25317 14.3121 3.7159 15.4482 3.94794C16.5848 4.18 17.7572 4.17709 18.8926 3.93915H18.8955C18.9685 3.92338 19.0445 3.9238 19.1172 3.9411C19.1535 3.94977 19.1884 3.96281 19.2217 3.97919L19.3154 4.03876C19.3732 4.08576 19.4202 4.14528 19.4521 4.21259C19.484 4.27997 19.5003 4.35384 19.5 4.42841V11.8806C19.5008 13.2346 19.1779 14.569 18.5586 15.7731C17.9393 16.9772 17.0413 18.0156 15.9395 18.8024L12.29 21.403C12.2054 21.4632 12.1039 21.4958 12 21.4958C11.8961 21.4958 11.7946 21.4633 11.71 21.403L8.05957 18.8024C6.95802 18.0156 6.06056 16.9769 5.44141 15.7731C4.82212 14.569 4.4992 13.2346 4.5 11.8806V4.42841Z" fill="#1C3B3A" stroke="#1C3B3A"/>
</svg>
