<svg width="62" height="73" viewBox="0 0 62 73" fill="none" xmlns="http://www.w3.org/2000/svg">
<path d="M30.0891 0.00318624C30.1888 0.0023349 30.2885 0.00148356 30.3912 0.000606417C32.2915 -0.0118606 34.1529 0.166566 35.9791 0.659436C36.1344 0.700469 36.1344 0.700469 36.2928 0.742331C37.2711 1.00967 38.1972 1.35239 39.114 1.75765C39.3135 1.84508 39.3135 1.84508 39.517 1.93427C45.593 4.73872 49.2235 10.358 51.2663 16.0077C52.5011 19.5901 52.5011 19.5901 52.4577 20.8291C52.6027 20.8644 52.7477 20.8998 52.8971 20.9362C55.2064 21.6393 57.0032 23.3916 58.0797 25.3023C58.5371 26.1462 58.9144 27.0117 59.2488 27.9005C59.2987 28.0312 59.3486 28.1618 59.4 28.2964C60.2233 30.5688 60.6155 33.0329 60.9167 35.4005C60.9271 35.4817 60.9375 35.563 60.9482 35.6466C61.0241 36.2779 61.0565 36.9015 61.0601 37.5363C61.0607 37.6345 61.0614 37.7328 61.0621 37.8341C61.0632 38.0411 61.064 38.2481 61.0645 38.4551C61.0656 38.7647 61.0693 39.0742 61.0731 39.3838C61.0836 41.0209 60.971 42.6781 60.3508 44.2331C60.3206 44.3116 60.2905 44.39 60.2594 44.4709C59.7938 45.6313 59.1186 46.706 57.9829 47.4273C57.8683 47.5008 57.7537 47.5742 57.6357 47.6499C57.0993 47.9777 56.6717 48.0058 56.032 47.9362C55.6231 47.7557 55.3954 47.6147 55.1458 47.2733C55.0469 46.8283 55.0368 46.4418 55.198 46.0076C55.4403 45.7425 55.7207 45.5604 56.032 45.3648C57.2851 44.5673 57.6635 43.0104 57.9382 41.7219C58.7249 36.7151 57.8894 29.7319 54.7061 25.4856C53.5332 24.0984 51.912 23.2769 50.0005 23.0058C49.4737 22.9614 48.9507 22.9446 48.4218 22.9385C48.3286 22.9366 48.2354 22.9347 48.1394 22.9327C45.6259 22.9354 43.155 23.5721 40.7306 24.1036C40.3663 24.1831 40.0017 24.2615 39.6371 24.3399C36.4125 25.0337 33.1726 25.7397 30.0295 26.6952C29.9425 26.7214 29.8554 26.7477 29.7658 26.7747C23.1009 28.7967 17.4728 32.2367 14.2594 37.985C11.4724 43.1956 11.1296 48.9273 13.1945 54.3795C14.142 56.8103 15.4506 59.065 17.1921 61.1148C17.2673 61.2051 17.2673 61.2051 17.344 61.2973C20.4398 65.0135 25.0225 68.6304 30.2976 69.3648C33.8822 69.6758 37.1187 68.3139 39.8512 66.3246C41.0307 65.4482 42.199 64.5434 43.1648 63.4719C43.2719 63.3567 43.3791 63.2415 43.4864 63.1262C47.7922 58.4465 50.2591 52.3928 50.4323 46.3291C50.4371 46.2287 50.4419 46.1283 50.4468 46.0248C50.5786 41.388 47.9455 37.338 44.533 34.0478C43.7346 33.2929 42.8823 32.618 41.9734 31.9719C41.8413 31.8734 41.7094 31.7746 41.5778 31.6756C39.9642 30.4715 38.212 29.4501 36.3527 28.5791C35.7784 28.305 35.1995 28.0249 34.9664 27.4456C34.9146 26.9008 34.9336 26.5423 35.3015 26.0791C35.6814 25.7862 36.0532 25.6797 36.5571 25.7016C39.6046 26.2845 42.9827 29.0589 45.213 30.9411C45.5255 31.2034 45.8442 31.4574 46.1656 31.7108C46.7608 32.1933 47.2919 32.7093 47.8113 33.2576C47.8688 33.3177 47.9264 33.3777 47.9858 33.4396C51.9366 37.5796 53.7757 42.444 53.3492 47.8832C52.662 55.5131 48.8643 62.8421 42.4575 67.9413C41.9947 68.2935 41.5138 68.6199 41.0202 68.9362C40.9514 68.9809 40.8826 69.0255 40.8117 69.0715C37.4285 71.2458 33.5334 72.5641 29.3254 71.9697C28.8057 71.8796 28.3013 71.7542 27.7956 71.6148C27.7157 71.5941 27.6359 71.5734 27.5536 71.5521C24.0787 70.6387 20.813 68.6394 18.3165 66.3045C18.1223 66.1246 18.1223 66.1246 17.7878 65.8894C17.4351 65.6184 17.1456 65.3393 16.8463 65.0222C16.6585 64.8234 16.4686 64.6276 16.2758 64.4329C11.2732 59.3435 8.52596 52.6887 8.85227 45.9005C9.21818 40.7033 11.5487 35.5369 15.405 31.6505C15.461 31.5936 15.5169 31.5366 15.5746 31.478C16.2315 30.8113 16.8993 30.1783 17.6687 29.6148C17.7942 29.5195 17.9197 29.4242 18.0452 29.3289C24.2334 24.6909 32.4407 23.1091 40.0794 21.4685C40.3098 21.419 40.5401 21.3694 40.7704 21.3198C43.2159 20.7943 45.5992 20.3245 48.1166 20.2331C48.2968 20.2262 48.2968 20.2262 48.4807 20.2191C48.7738 20.2078 49.0669 20.1969 49.3601 20.1862C48.1636 15.4587 46.2374 10.8827 42.4499 7.32908C42.3527 7.23489 42.2555 7.14069 42.1553 7.04364C39.3221 4.37939 35.3167 2.78894 31.2186 2.69641C25.4473 2.61565 19.6833 3.74802 15.405 7.43622C15.3073 7.51729 15.2097 7.59837 15.109 7.6819C12.8009 9.65764 11.4563 12.3515 10.5202 15.0434C10.9122 14.7429 11.303 14.4418 11.6865 14.1327C16.0542 10.67 21.6114 8.69905 27.4382 8.93622C28.3847 9.01379 29.1715 9.16409 29.9402 9.68622C30.2845 10.1258 30.3543 10.465 30.2562 10.9828C30.1011 11.3886 29.7612 11.6417 29.3445 11.8291C29.0983 11.8471 29.0983 11.8471 28.8009 11.8492C28.7049 11.8507 28.6089 11.8522 28.51 11.8538C28.2035 11.8326 27.9441 11.7879 27.6472 11.7228C27.0764 11.6033 26.5336 11.5777 25.9489 11.5813C25.794 11.5821 25.794 11.5821 25.6358 11.5829C23.1169 11.6233 20.7488 12.3473 18.5027 13.3291C18.4154 13.3672 18.328 13.4054 18.2381 13.4447C17.0097 13.9892 15.8966 14.6172 14.8093 15.3648C14.7044 15.4363 14.5995 15.5079 14.4914 15.5816C9.77696 18.8844 6.95027 23.9056 4.92063 28.8648C4.88122 28.9604 4.84181 29.0559 4.8012 29.1544C4.1714 30.7026 3.72942 32.2846 3.37181 33.9005C3.3395 34.0464 3.3395 34.0464 3.30653 34.1952C2.37793 38.6106 2.98844 43.6158 5.84397 47.3854C6.17412 47.7999 6.51957 48.1994 6.88273 48.5908C7.21721 48.9622 7.23231 49.2563 7.22479 49.7229C7.15329 50.1627 6.96068 50.3229 6.5886 50.6148C5.947 50.8712 5.56945 50.8303 4.92063 50.6148C3.88475 49.8609 3.18854 48.7502 2.53782 47.7219C2.49513 47.655 2.45243 47.5881 2.40844 47.5191C0.883563 45.0839 0.0372113 42.156 0.00747941 39.3627C0.00631256 39.2719 0.00514571 39.181 0.00394351 39.0874C-0.0173475 36.9971 0.0334555 34.9902 0.512431 32.9362C0.53733 32.8262 0.562229 32.7161 0.587883 32.6027C1.46974 28.7907 3.41362 22.5058 6.5886 19.6505C6.6243 19.4447 6.6532 19.238 6.67935 19.0311C6.70546 18.8347 6.70546 18.8347 6.73209 18.6342C6.74139 18.5641 6.75068 18.4941 6.76026 18.4218C7.41763 13.5511 9.31483 9.17902 13.1413 5.61479C13.2369 5.52506 13.2369 5.52506 13.3345 5.43352C16.4194 2.59111 20.6779 1.10262 24.9363 0.364793C25.0375 0.346942 25.1388 0.329091 25.2431 0.310699C26.8504 0.0411965 28.4592 0.0104663 30.0891 0.00318624Z" fill="#2F7D7A"/>
<path d="M45.731 36.3259C47.3367 37.7126 48.1515 39.513 48.2134 41.5076C48.1475 43.5532 47.2441 45.3702 45.6165 46.7962C43.8906 48.1646 41.7762 48.673 39.5082 48.5565C37.1638 48.3068 35.3928 47.2654 33.8941 45.6707C32.558 44.0342 32.3524 41.9297 32.6078 39.9725C32.6852 39.6815 32.7868 39.4254 32.9187 39.1505C32.9494 39.0857 32.9802 39.0209 33.0119 38.9541C33.499 37.9497 34.0549 37.1289 34.9441 36.3648C35.0535 36.2633 35.0535 36.2633 35.1651 36.1597C38.0649 33.6354 42.8483 34.0642 45.731 36.3259ZM36.4803 38.6491C35.572 39.7325 35.2583 40.915 35.4206 42.2576C35.6778 43.4299 36.3564 44.4267 37.4237 45.1438C38.7818 45.9136 40.1908 46.1194 41.7612 45.8298C43.1011 45.4388 44.1436 44.5594 44.803 43.4563C45.404 42.3002 45.4338 41.1475 44.9966 39.934C44.4502 38.703 43.4298 37.8949 42.1321 37.327C40.1646 36.5831 37.8606 37.2812 36.4803 38.6491Z" fill="#2F7D7A"/>
<path d="M27.1241 36.307C28.7398 37.7063 29.538 39.514 29.6274 41.5076C29.5297 43.5283 28.7056 45.3377 27.0808 46.7576C25.2863 48.1233 23.2425 48.6757 20.9222 48.5565C18.7335 48.3233 16.948 47.4002 15.5241 45.9005C14.0495 44.0915 13.7401 42.1281 14.026 39.9411C14.48 38.0954 15.7914 36.5235 17.5495 35.5076C20.6864 33.8702 24.3568 34.1841 27.1241 36.307ZM18.0038 38.521C16.9677 39.6844 16.693 40.919 16.8347 42.3648C17.0977 43.5119 17.8622 44.5253 18.9215 45.1999C20.2718 45.9521 21.6341 46.1112 23.1827 45.8294C24.5087 45.4441 25.5429 44.5616 26.217 43.4831C26.8132 42.3414 26.8359 41.1444 26.3874 39.965C25.8059 38.6774 24.8415 37.8704 23.4414 37.327C21.5725 36.6552 19.3592 37.2231 18.0038 38.521Z" fill="#2F7D7A"/>
<path d="M26.9616 60.3648C27.1914 60.4579 27.4171 60.5592 27.6393 60.6661C29.5333 61.5578 32.0976 61.6346 34.152 61.1219C34.5988 60.9601 34.9849 60.7337 35.3876 60.4983C35.8362 60.2775 36.1083 60.2893 36.612 60.3648C36.9818 60.5372 37.2336 60.6866 37.4907 60.9809C37.6548 61.512 37.6462 61.9206 37.3939 62.4139C36.3534 63.4637 34.7865 63.8416 33.2761 64.0076C32.7619 64.0295 32.2481 64.0321 31.7334 64.0334C31.4929 64.0344 31.2525 64.0378 31.012 64.0411C29.1167 64.0478 26.9718 63.7909 25.4677 62.6638C25.1418 62.3714 25.0605 62.1525 25.0489 61.743C25.0747 61.2753 25.1288 61.0583 25.4649 60.6862C25.9532 60.3435 26.3516 60.2706 26.9616 60.3648Z" fill="#2F7D7A"/>
<path d="M39.2778 40.7175C39.6298 41.0039 39.7248 41.2033 39.8288 41.6148C40.1827 41.6148 40.5365 41.6148 40.9011 41.6148C40.9109 41.5352 40.9208 41.4557 40.9309 41.3737C41.0386 41.0184 41.1836 40.8824 41.4968 40.6505C42.0353 40.4891 42.4928 40.4635 43.0159 40.6773C43.4071 40.9509 43.5967 41.1576 43.7381 41.588C43.7819 42.2707 43.5793 42.8343 43.1201 43.3713C42.243 44.1506 41.2109 44.2183 40.0505 44.2202C39.3295 44.2096 38.7654 44.1337 38.1609 43.7576C38.0441 43.6858 38.0441 43.6858 37.9249 43.6124C37.3474 43.213 37.0356 42.7901 36.9322 42.1254C36.8978 41.548 37.0095 41.2048 37.446 40.7576C37.9939 40.3705 38.6935 40.4645 39.2778 40.7175Z" fill="#2F7D7A"/>
<path d="M20.6919 40.7175C21.0439 41.0039 21.1389 41.2033 21.2429 41.6148C21.7271 41.594 21.7271 41.594 22.196 41.5076C22.4222 41.2609 22.4222 41.2609 22.5534 40.9719C22.8848 40.6243 23.1513 40.5533 23.6629 40.5099C24.1834 40.5495 24.4157 40.6781 24.8171 40.9719C25.1724 41.4512 25.1128 41.9099 25.0554 42.4719C24.7399 43.2784 24.0846 43.7054 23.2683 44.0791C22.3238 44.3361 20.9409 44.3552 20.0292 44.0121C19.7923 43.8928 19.7923 43.8928 19.5749 43.7576C19.4581 43.6858 19.4581 43.6858 19.339 43.6124C18.7615 43.213 18.4497 42.7901 18.3463 42.1254C18.3118 41.548 18.4235 41.2048 18.8601 40.7576C19.408 40.3705 20.1076 40.4645 20.6919 40.7175Z" fill="#2F7D7A"/>
</svg>
