<svg width="24" height="24" viewBox="0 0 24 24" fill="none" xmlns="http://www.w3.org/2000/svg">
<path d="M12 2.94501C12.4484 2.94501 12.8458 3.19097 13.0459 3.58466V3.58563L15.2441 7.94305L15.2451 7.94208C15.3299 8.1169 15.4728 8.21745 15.6094 8.26727L15.7471 8.30243L20.6367 8.99969H20.6377C21.0825 9.06249 21.4434 9.36969 21.5811 9.79559V9.79657C21.7187 10.2313 21.603 10.6838 21.2783 10.9929H21.2773L17.7607 14.3454H17.7598L17.752 14.3542C17.6399 14.4662 17.5168 14.6765 17.5684 14.9352L17.5674 14.9362L18.4004 19.6843V19.6862C18.4785 20.1183 18.3024 20.5585 17.9443 20.822L17.9424 20.8239C17.7359 20.9774 17.4948 21.0554 17.25 21.0554C17.0639 21.0553 16.8828 21.0121 16.7197 20.9255L16.7139 20.9225L12.3037 18.6579L12.2881 18.6501L12.2725 18.6432L12.1357 18.6003C11.9974 18.5717 11.8544 18.586 11.7207 18.6432L11.7051 18.6501L11.6895 18.6579L7.28613 20.9225C6.88326 21.129 6.41444 21.0902 6.06055 20.8249L6.05664 20.822L5.93066 20.7155C5.65777 20.4499 5.53089 20.0701 5.59961 19.6852L5.60059 19.6843L6.43262 14.9362L6.43457 14.9284L6.43555 14.9206C6.46273 14.73 6.40956 14.5149 6.24902 14.3542L6.24023 14.3454L2.72266 10.9929L2.61035 10.8708C2.37241 10.5712 2.29851 10.177 2.41895 9.79657C2.55546 9.36602 2.91432 9.06305 3.3623 8.99969H3.36328L8.25293 8.30243L8.25195 8.30145C8.48488 8.2756 8.66618 8.12326 8.75488 7.94208L8.75684 7.94305L10.9541 3.58563C11.154 3.19144 11.5513 2.9451 12 2.94501ZM12 3.44501C11.8538 3.44507 11.5599 3.50076 11.4043 3.81024L9.20703 8.16571C9.03497 8.50463 8.71193 8.73753 8.33008 8.79755L3.43945 9.49481C3.32859 9.50965 3.20982 9.55239 3.10547 9.63934C3.02464 9.70671 2.96977 9.78687 2.93262 9.86591L2.90723 9.92743C2.9064 9.92965 2.90608 9.93205 2.90527 9.93427C2.90411 9.93759 2.90247 9.94072 2.90137 9.94403H2.90234C2.80167 10.2348 2.93185 10.4861 3.06641 10.6208L3.0752 10.6296L6.59277 13.9821L6.59473 13.9831C6.87322 14.2461 7.00243 14.6381 6.94043 15.0261L6.10742 19.7741H6.1084C6.08777 19.8838 6.08981 20.0149 6.14648 20.1472C6.19652 20.2638 6.27559 20.3473 6.35547 20.4069V20.4079C6.51655 20.5368 6.79133 20.62 7.07129 20.4802L7.07617 20.4772L11.4863 18.2126L11.4873 18.2116C11.8234 18.0385 12.2225 18.0384 12.5586 18.2116L12.5596 18.2126L16.9697 20.4772V20.4763C17.1015 20.5453 17.2489 20.5722 17.3965 20.5446C17.5194 20.5216 17.609 20.4647 17.666 20.4225L17.668 20.4245C17.6722 20.4215 17.6756 20.4168 17.6797 20.4138C17.6829 20.4113 17.6875 20.4103 17.6904 20.4079L17.6895 20.4059C17.8827 20.2561 17.9676 20.0316 17.9424 19.8044L17.9404 19.7888L17.9375 19.7741L17.1055 15.0261V15.0251L17.0889 14.8815C17.0724 14.548 17.2032 14.2173 17.4512 13.9831L17.4531 13.9821L20.9707 10.6296L20.9688 10.6276C21.1898 10.4234 21.1989 10.1557 21.1553 9.98114L21.1504 9.96259L21.1445 9.94403C21.1102 9.84117 21.0472 9.72915 20.9395 9.63934C20.8347 9.55216 20.7157 9.50944 20.6045 9.49481H20.6055L15.7158 8.79755H15.7139C15.3396 8.74553 15.0129 8.5105 14.8379 8.16571L12.6416 3.81024C12.486 3.50043 12.1911 3.44501 12.0449 3.44501H12Z" fill="#1C3B3A" stroke="#1C3B3A"/>
</svg>
