<svg width="241" height="331" viewBox="0 0 241 331" fill="none" xmlns="http://www.w3.org/2000/svg">
<g opacity="0.6">
<path fill-rule="evenodd" clip-rule="evenodd" d="M202.013 301.603C201.838 301.868 195.887 295.998 187.983 283.911C179.914 271.573 170.633 253.858 163.47 230.647C154.31 200.967 152.416 174.653 152.491 158.055C152.534 148.815 153.126 143.499 153.359 143.514C153.68 143.534 153.608 148.878 153.996 158.002C154.698 174.532 156.979 199.969 166.001 229.202C173.045 252.024 181.859 269.542 189.458 282.201C196.856 294.523 202.265 301.219 202.013 301.603Z" fill="#2F7D7A"/>
<path fill-rule="evenodd" clip-rule="evenodd" d="M245.925 330.778C245.988 329.988 217.924 331.826 181.529 304.581C164.753 292.022 147.393 273.717 132.669 248.738C128.493 241.655 124.726 234.361 121.361 226.933C103.199 186.828 98.3829 146.808 98.2417 118.783C98.1195 94.2366 101.168 80.1548 101.193 80.1587C101.511 80.2319 99.3633 94.6233 99.9494 118.736C100.622 146.444 105.736 185.659 123.671 224.99C126.993 232.277 130.705 239.438 134.81 246.402C149.284 270.955 166.277 289.093 182.699 301.729C217.439 328.46 245.98 330.079 245.925 330.778Z" fill="#2F7D7A"/>
<path fill-rule="evenodd" clip-rule="evenodd" d="M156.103 312.812C156.126 313.041 147.399 316.173 132.82 315.309C118.044 314.433 98.5094 309.265 78.7156 294.156C67.9872 285.967 59.0194 276.225 51.7605 266.007C32.3459 238.666 27.4681 213.282 27.4047 213.316C27.9106 213.025 34.6327 237.871 53.5326 263.636C60.751 273.481 69.5623 282.891 80.0569 290.897C99.4189 305.669 118.412 311.124 132.937 312.672C147.163 314.189 156.051 312.302 156.103 312.812Z" fill="#2F7D7A"/>
<path fill-rule="evenodd" clip-rule="evenodd" d="M58.5185 81.3769C75.9871 81.0557 91.9602 103.067 108.468 59.5512C97.0578 110.767 117.471 110.462 128.43 130.429C130.765 108.562 145.073 92.8615 128.925 65.5271C146.437 82.1059 154.342 68.1134 167.912 66.8071C155.813 54.83 153.091 33.6063 127.249 39.8993C141.923 27.9166 131.992 15.5624 131.748 1.63875C123.516 8.97949 110.097 5.82096 111.122 27.6914C105.499 1.6489 93.1067 7.48208 81.9622 1.70636e-05C85.7911 14.9018 79.328 30.5438 99.2912 41.4235C64.2946 35.6788 69.153 63.2542 58.5185 81.3769ZM74.4455 70.5518C78.5096 67.0979 84.6278 62.0017 92.6606 56.4946C98.125 52.7543 103.102 49.7778 107.209 47.5156C106.988 46.9794 106.843 46.4294 106.778 45.882C104.593 46.1882 102.143 46.7213 99.485 47.6624C92.6245 50.1218 87.4801 54.1837 84.4314 57.121C87.4971 54.1669 92.4968 49.9143 99.3814 47.1536C102.033 46.0786 104.516 45.4195 106.739 45.0145C106.742 44.9221 106.747 44.8301 106.754 44.7388C106.758 44.7139 106.762 44.689 106.766 44.6641C104.556 44.5175 102.056 44.5103 99.2943 44.8055C95.6499 45.1427 92.6004 45.9077 90.7331 46.5423C92.6781 45.8812 95.5271 44.9125 99.258 44.2812C101.958 43.8634 104.446 43.7471 106.663 43.7939C105.183 42.8221 103.619 41.6411 102.025 40.186C99.7861 38.0821 98.2032 36.122 97.1367 34.7904C98.1661 36.0757 99.9156 37.987 102.175 39.8694C103.876 41.3303 105.529 42.4908 107.074 43.4223C107.173 43.1649 107.294 42.9189 107.437 42.6866C105.923 41.3346 104.315 39.7324 102.682 37.8225C99.4602 34.0263 97.2804 30.4076 95.8981 27.9876C97.2591 30.3701 99.5918 33.9462 102.86 37.5336C104.556 39.41 106.204 40.9565 107.746 42.2531C107.874 42.096 108.013 41.9478 108.162 41.8093C106.772 40.1859 105.297 38.3031 103.806 36.118C100.763 31.6537 98.705 27.5288 97.2912 24.4272C98.7259 27.4884 100.934 31.6031 104.007 35.858C105.585 38.0461 107.123 39.8955 108.559 41.4792C108.91 41.2195 109.302 41.0084 109.725 40.8506C107.765 37.4892 105.43 33.627 102.588 29.3103C98.0319 22.3821 93.9298 16.953 91.2704 13.6451C94.0028 17.0437 98.0528 22.1536 102.792 29.0568C105.736 33.3477 108.209 37.2784 110.257 40.6846C110.611 40.5943 110.98 40.5392 111.359 40.5202C110.728 38.6659 109.959 36.652 108.991 34.5335C106.103 28.266 102.819 23.9844 100.593 21.5302C102.833 24.0001 106.179 28.1035 109.223 34.3291C110.292 36.4983 111.151 38.5901 111.851 40.5152C111.938 40.5175 112.025 40.5218 112.113 40.5278C111.695 38.5627 111.161 36.3986 110.447 34.0741C109.431 30.6718 108.335 27.9345 107.58 26.2949C108.366 28.002 109.518 30.5037 110.701 33.9212C111.504 36.2973 112.117 38.5458 112.595 40.5831C112.823 40.6145 113.051 40.6582 113.278 40.714C113.298 40.7197 113.318 40.7255 113.338 40.7315C113.197 38.4367 113.209 35.8472 113.528 33.0353C113.901 30.0821 114.482 27.8475 114.881 26.3572C114.494 27.8033 114.013 30.1858 113.789 33.0839C113.529 35.962 113.585 38.5765 113.782 40.8666C113.96 40.9274 114.136 40.9955 114.311 41.0706C114.481 38.7126 114.838 36.0519 115.506 33.2254C116.578 28.7644 118.03 25.5056 119.029 23.4485C118.041 25.4823 116.678 28.8855 115.758 33.329C115.147 36.2249 114.855 38.9145 114.74 41.2717C114.875 41.3388 115.009 41.4102 115.141 41.4858C115.614 39.2395 116.29 36.7181 117.252 34.0832C118.862 29.6853 120.699 26.5 122.147 24.275C120.73 26.5214 118.959 29.8612 117.491 34.2372C116.581 36.9439 115.973 39.4888 115.554 41.7397C115.892 41.9673 116.213 42.2217 116.511 42.4997C117.976 39.4286 119.656 35.7074 121.416 31.1939C124.003 24.5714 125.774 18.7807 126.784 15.0686C125.751 18.8663 124.149 24.5483 121.65 31.357C119.979 35.8997 118.338 39.7425 116.897 42.8855C117.107 43.1094 117.303 43.3449 117.482 43.59C117.626 43.558 117.779 43.5305 117.927 43.5C118.895 42.3925 119.913 41.0761 120.916 39.4842C123.777 34.917 125.197 30.244 125.854 27.2196C125.195 30.2545 123.908 34.9614 121.119 39.7114C120.31 41.0984 119.477 42.3007 118.664 43.3491C118.989 43.2895 119.328 43.2409 119.667 43.1892C120.409 42.5421 121.176 41.8181 121.96 40.9943C123.779 39.1304 125.16 37.2894 125.958 36.0683C125.129 37.3371 123.909 39.203 122.125 41.2735C121.545 41.9311 120.972 42.5233 120.407 43.0802C122.457 42.8145 124.726 42.7059 127.179 42.8914C130.423 43.1931 132.931 43.8945 134.623 44.3792C132.988 43.9109 130.333 43.3935 127.165 43.3307C124.32 43.2249 121.755 43.5031 119.5 43.9419C119.241 44.1788 118.985 44.41 118.733 44.6263C121.406 44.6678 124.503 44.9591 127.9 45.7431C132.391 46.7994 135.926 48.346 138.48 49.5987C135.93 48.4016 132.261 47.0091 127.85 46.177C124.307 45.493 121.138 45.3309 118.434 45.3917C118.469 45.487 118.502 45.5827 118.532 45.6787C121.246 46.1963 124.395 47.0095 127.829 48.3107C133.148 50.3273 137.292 52.7772 140.282 54.7289C137.292 52.8364 132.997 50.5184 127.747 48.7365C124.383 47.5938 121.341 46.912 118.707 46.4795C118.776 46.919 118.794 47.3554 118.758 47.7804C122.612 49.6784 127.24 51.8446 132.75 54.0784C140.716 57.315 147.506 59.4643 151.802 60.6512C147.379 59.4292 140.811 57.566 132.66 54.5008C127.225 52.4524 122.519 50.3917 118.622 48.5612C118.524 48.9508 118.378 49.3207 118.187 49.6641C119.863 51.0725 121.787 52.5413 123.992 53.9536C130.02 57.7847 135.43 59.473 138.899 60.2002C135.402 59.4675 130.02 58.0118 123.858 54.3563C121.589 53.0204 119.58 51.5932 117.832 50.2108C117.789 50.267 117.744 50.3221 117.698 50.3761C119.198 52.0195 120.924 53.7769 122.918 55.5532C125.73 58.1078 128.26 59.9611 129.87 60.9926C128.185 59.9131 125.736 58.3552 122.746 55.9248C120.75 54.2696 118.987 52.598 117.448 51.0144C119.355 54.0206 121.347 57.715 123.136 62.157C124.877 66.6248 125.86 70.3865 126.509 72.9227C125.881 70.4672 124.674 66.6335 122.8 62.417C120.845 57.8775 118.708 54.2044 116.703 51.2451C116.563 51.335 116.417 51.4178 116.266 51.4931C117.944 55.1397 119.7 59.5839 121.218 64.8181C123.101 71.3728 124.008 76.9817 124.551 81.1146C123.967 77.0182 122.863 71.3294 120.859 65.0181C119.202 59.7474 117.338 55.3597 115.593 51.7786C115.505 51.805 115.417 51.8293 115.328 51.8513C116.622 55.8475 117.956 60.6837 119.045 66.2581C120.898 75.7592 121.349 83.7112 121.517 88.8958C121.351 83.771 120.701 75.7136 118.672 66.4004C117.441 60.747 115.992 55.9426 114.622 51.9933C114.3 52.0359 113.969 52.0513 113.633 52.0392C114.455 58.5961 115.6 66.7585 117.296 76.2192C119.532 88.7254 121.94 98.9967 123.604 105.396C121.895 98.8218 119.394 88.9873 116.92 76.3493C115.085 66.9501 113.779 58.5898 112.883 51.9689C112.667 51.9376 112.451 51.8953 112.235 51.8422C112.19 51.8289 112.146 51.8152 112.101 51.801C111.863 55.4223 111.751 59.7007 112 64.5393C112.552 74.8098 114.496 83.0038 116.025 88.0184C114.486 82.9701 112.38 74.9431 111.614 64.5859C111.253 59.8299 111.254 55.5349 111.415 51.8817C110.845 55.334 110.314 59.4116 110.014 64.076C109.64 69.3019 109.666 73.7594 109.801 76.5186C109.66 73.6393 109.451 69.4373 109.627 64.0383C109.807 59.4913 110.225 55.421 110.716 51.9511C109.086 55.3946 106.895 59.2017 103.955 62.8507C101.34 66.0012 99.0061 68.0125 97.4337 69.3434C98.9587 68.0529 101.282 65.7378 103.69 62.467C106.643 58.5733 108.771 54.5789 110.326 51.0411C110.214 50.9762 110.104 50.9084 109.995 50.8377C107.865 53.9466 105.106 57.3846 101.643 60.6016C97.6398 64.2908 94.0294 66.4853 91.3419 67.922C93.9972 66.4356 97.6126 63.9704 101.42 60.1704C104.739 56.8853 107.339 53.4574 109.366 50.3738C109.281 50.3031 109.198 50.2308 109.116 50.1566C106.695 52.6415 103.69 55.3314 100.101 57.7982C94.045 61.9591 88.7102 63.8862 85.2237 64.9511C88.6752 63.8966 94.0348 61.6887 99.9216 57.3316C103.374 54.7776 106.221 52.0697 108.535 49.5873C108.185 49.1988 107.879 48.7787 107.623 48.3364C103.495 50.4994 98.4909 53.3029 92.833 56.9673C84.832 62.1406 78.4122 67.1835 74.4482 70.5525L74.4455 70.5518ZM118.053 44.5053C118.206 44.3881 118.359 44.2705 118.516 44.146C118.316 44.191 118.121 44.2377 117.926 44.2848C117.97 44.3577 118.012 44.4312 118.053 44.5053Z" fill="#D4A24C"/>
<path d="M62.2101 173.752C58.7051 185.285 58.5463 198.259 69.2269 215.903C64.9628 212.968 60.6581 210.141 54.6317 211.869C60.238 217.056 71.6758 244.408 85.3689 251.501C79.2311 248.478 74.5696 250.528 69.9696 252.79C77.5758 254.252 104.932 296.571 142.762 293.663C103.481 277.322 87.2399 236.178 80.6504 220.827C88.9109 229.078 97.647 237.657 104.846 247.693C118.272 266.407 127.53 287.868 142.947 293.636C120.228 280.671 126.771 246.732 111.546 222.029C108.717 227.001 108.545 230.734 107.968 234.655C105.138 225.437 103.118 216.429 99.922 208.978C96.9792 202.118 92.0162 198.867 90.3329 189.15C88.1174 194.074 86.2457 199.046 86.5734 204.335C79.6359 192.852 68.1629 188.762 62.2101 173.752Z" fill="#A3B38C"/>
<path d="M146.675 189.409C147.087 188.818 147.582 188.343 148.129 188.011C148.677 187.68 149.267 187.498 149.866 187.477C150.465 187.456 151.062 187.596 151.621 187.888C152.181 188.181 152.692 188.62 153.127 189.182C153.561 189.743 153.911 190.416 154.154 191.161C154.398 191.906 154.531 192.709 154.547 193.524C154.562 194.34 154.46 195.151 154.245 195.912C154.03 196.674 153.707 197.37 153.294 197.962C152.461 199.156 151.313 199.851 150.103 199.894C148.893 199.936 147.72 199.323 146.842 198.189C145.964 197.055 145.453 195.493 145.422 193.846C145.391 192.2 145.841 190.604 146.675 189.409Z" fill="#2F7D7A"/>
<path d="M145.282 175.005C145.657 174.467 146.106 174.035 146.604 173.734C147.102 173.433 147.639 173.268 148.183 173.248C148.728 173.229 149.27 173.356 149.779 173.622C150.287 173.888 150.752 174.288 151.148 174.798C151.946 175.829 152.41 177.249 152.438 178.746C152.467 180.243 152.057 181.694 151.3 182.78C150.925 183.317 150.475 183.749 149.977 184.051C149.48 184.352 148.943 184.517 148.398 184.536C147.854 184.556 147.312 184.429 146.803 184.163C146.294 183.897 145.829 183.497 145.434 182.987C145.039 182.476 144.722 181.865 144.5 181.187C144.279 180.51 144.157 179.78 144.143 179.039C144.129 178.298 144.222 177.56 144.418 176.868C144.613 176.176 144.907 175.543 145.282 175.005Z" fill="#2F7D7A"/>
<path d="M148.091 146.379C148.203 146.218 148.338 146.088 148.487 145.998C148.637 145.907 148.798 145.858 148.961 145.852C149.124 145.846 149.287 145.884 149.44 145.964C149.592 146.044 149.732 146.164 149.85 146.317C149.969 146.47 150.064 146.654 150.131 146.857C150.197 147.06 150.233 147.279 150.238 147.501C150.242 147.724 150.214 147.945 150.155 148.153C150.097 148.36 150.009 148.55 149.896 148.711C149.669 149.037 149.356 149.227 149.026 149.238C148.696 149.25 148.376 149.083 148.136 148.774C148.018 148.62 147.923 148.437 147.856 148.234C147.79 148.031 147.753 147.812 147.749 147.589C147.745 147.367 147.773 147.146 147.831 146.938C147.89 146.73 147.978 146.54 148.091 146.379Z" fill="#2F7D7A"/>
<path fill-rule="evenodd" clip-rule="evenodd" d="M0.346503 160.89C0.113151 161.058 2.38781e-05 161.191 2.38781e-05 161.191C2.38781e-05 161.191 2.39111 162.203 4.4867 165.784C5.44672 167.42 6.23543 169.489 6.567 171.573C6.89976 173.42 6.87746 175.365 6.81446 177.534C6.74198 179.559 6.46996 181.768 6.28252 184.334C6.15693 185.829 6.04631 187.488 6.02725 189.347C6.01748 190.296 6.03157 191.303 6.0781 192.365C6.18679 195.52 6.76373 199.12 7.92996 202.78C10.5024 210.427 15.0082 214.52 18.7856 215.444C22.4628 216.282 24.8956 214.14 26.0943 212.449C26.5618 211.787 26.8937 211.17 27.1256 210.654C27.488 210.677 27.9276 210.664 28.4405 210.569C29.9759 210.287 32.4391 209.053 34.1029 205.104C35.7806 201.016 36.2694 194.61 33.8646 188.238C32.6767 185.25 31.185 182.857 29.652 181.14C29.1419 180.553 28.6407 180.024 28.1555 179.548C27.205 178.616 26.3042 177.874 25.4772 177.23C24.074 176.097 22.8025 175.228 21.7381 174.262C20.6062 173.213 19.6107 172.24 18.8664 170.978C18.0011 169.595 17.403 167.782 17.1215 166.027C16.5009 162.19 17.3469 159.384 17.3469 159.384C17.3469 159.384 15.2477 160.033 13.8927 164.842C13.5277 166.143 13.2633 167.751 13.2234 169.584C12.8334 168.711 12.4134 167.874 11.9656 167.083C9.98752 163.671 7.71894 161.786 5.84523 160.922C2.81876 159.534 1.04459 160.381 0.346503 160.89ZM16.3595 182.13C16.499 182.387 16.6399 182.642 16.7863 182.891C20.848 189.611 28.8727 189.326 29.1519 201.648C29.2583 204.292 28.4343 206.723 27.5837 208.236C27.2797 208.777 26.9853 209.199 26.73 209.525C26.3205 209.623 25.7874 209.702 25.1369 209.678C23.5871 209.62 21.4555 208.856 19.7996 206.786C18.1468 204.789 16.9439 201.549 16.8083 199.205C16.6548 197.999 16.7062 196.442 16.6771 194.603C16.6769 193.971 16.6875 193.299 16.6979 192.587C16.7182 191.204 16.7392 189.606 16.6998 187.834C16.6762 186.046 16.573 184.129 16.3595 182.13Z" fill="#D4A24C"/>
</g>
</svg>
