<svg width="61" height="61" viewBox="0 0 61 61" fill="none" xmlns="http://www.w3.org/2000/svg">
<rect width="60.6582" height="60.6582" rx="30.3291" fill="#F3E4C6"/>
<path d="M13.2124 43.5239C13.2124 43.9854 13.5606 44.3599 13.9897 44.3599C14.4188 44.3599 14.767 43.9871 14.767 43.5239V43.5356C14.767 41.9421 15.9936 40.081 17.3911 39.5543L25.248 36.6414C25.5278 36.5378 25.7299 36.2719 25.7657 35.9559L25.845 34.971C25.8978 34.5112 25.5947 34.0931 25.1703 34.0363C24.7505 33.9844 24.3541 34.3038 24.3013 34.762L24.2826 35.2302L16.8797 37.9741C14.8587 38.7349 13.2124 41.2297 13.2124 43.5356V43.5239Z" fill="#D4A24C"/>
<path d="M42.7495 43.5373V43.5256M13.9897 44.3599C13.5606 44.3599 13.2124 43.9854 13.2124 43.5239V43.5356C13.2124 41.2297 14.8587 38.7349 16.8797 37.9741L24.2826 35.2302L24.3013 34.762C24.3541 34.3038 24.7505 33.9844 25.1703 34.0363C25.5947 34.0931 25.8978 34.5112 25.845 34.971L25.7657 35.9559C25.7299 36.2719 25.5278 36.5378 25.248 36.6414L17.3911 39.5543C15.9936 40.081 14.767 41.9421 14.767 43.5356V43.5239C14.767 43.9871 14.4188 44.3599 13.9897 44.3599Z" stroke="#D4A24C"/>
<path d="M28.7584 33.5037C24.4382 33.5037 22.2416 30.4203 22.2276 22.6867C22.2245 20.7237 22.4188 18.7355 24.1351 16.8861C25.2279 15.7073 26.7825 15.1104 28.7584 15.1104C30.7343 15.1104 32.2889 15.7073 33.3833 16.8878C35.0995 18.7355 35.2939 20.7253 35.2908 22.6884C35.2752 30.4203 33.0786 33.5037 28.7584 33.5037ZM28.7584 16.7825C27.1898 16.7825 26.0379 17.2038 25.2341 18.0683C24.2516 19.1268 23.7759 20.0749 23.7806 22.6851C23.793 29.4036 25.4207 31.8332 28.7568 31.8332C32.093 31.8332 33.7206 29.4036 33.7331 22.6851C33.7377 20.0749 33.262 19.1268 32.2795 18.0683C31.4789 17.2038 30.327 16.7825 28.7584 16.7825Z" fill="#D4A24C" stroke="#D4A24C"/>
<path d="M45.0462 33.6037H42.8798V32.8365C42.8798 32.4296 42.7277 32.0394 42.4568 31.7516C42.186 31.4639 41.8186 31.3022 41.4356 31.3022H38.5471C38.164 31.3022 37.7967 31.4639 37.5258 31.7516C37.255 32.0394 37.1028 32.4296 37.1028 32.8365V33.6037H34.9364C34.3618 33.6037 33.8108 33.8461 33.4045 34.2777C32.9983 34.7093 32.77 35.2947 32.77 35.9051V42.8093C32.77 43.4197 32.9983 44.0051 33.4045 44.4367C33.8108 44.8683 34.3618 45.1107 34.9364 45.1107H45.0462C45.6208 45.1107 46.1718 44.8683 46.5781 44.4367C46.9844 44.0051 47.2126 43.4197 47.2126 42.8093V35.9051C47.2126 35.2947 46.9844 34.7093 46.5781 34.2777C46.1718 33.8461 45.6208 33.6037 45.0462 33.6037ZM38.5471 32.8365H41.4356V33.6037H38.5471V32.8365ZM45.7684 42.8093C45.7684 43.0128 45.6923 43.2079 45.5569 43.3518C45.4214 43.4956 45.2378 43.5765 45.0462 43.5765H34.9364C34.7449 43.5765 34.5612 43.4956 34.4258 43.3518C34.2904 43.2079 34.2143 43.0128 34.2143 42.8093V38.5057L37.5938 39.7408C37.6705 39.7518 37.7483 39.7518 37.8249 39.7408H42.1577C42.236 39.7392 42.3138 39.7263 42.3888 39.7024L45.7684 38.5057V42.8093ZM45.7684 36.887L42.0422 38.2065H37.9405L34.2143 36.887V35.9051C34.2143 35.7016 34.2904 35.5065 34.4258 35.3626C34.5612 35.2188 34.7449 35.1379 34.9364 35.1379H45.0462C45.2378 35.1379 45.4214 35.2188 45.5569 35.3626C45.6923 35.5065 45.7684 35.7016 45.7684 35.9051V36.887Z" fill="#D4A24C" stroke="#D4A24C" stroke-width="0.5"/>
</svg>
