<svg width="31" height="31" viewBox="0 0 31 31" fill="none" xmlns="http://www.w3.org/2000/svg">
<path d="M19.0777 7.58208C19.3743 7.75048 19.7254 7.79474 20.0545 7.70521C20.3836 7.61567 20.664 7.39961 20.8344 7.10417C20.9754 6.85534 21.195 6.66034 21.4587 6.54976C21.7225 6.43917 22.0155 6.41926 22.2918 6.49314C22.5681 6.56701 22.812 6.7305 22.9854 6.95797C23.1588 7.18543 23.2518 7.464 23.2498 7.75C23.2498 8.09257 23.1137 8.42111 22.8715 8.66335C22.6292 8.90558 22.3007 9.04167 21.9581 9.04167C21.6155 9.04167 21.287 9.17775 21.0448 9.41999C20.8025 9.66222 20.6664 9.99076 20.6664 10.3333C20.6664 10.6759 20.8025 11.0044 21.0448 11.2467C21.287 11.4889 21.6155 11.625 21.9581 11.625C22.6382 11.6246 23.3062 11.4451 23.895 11.1048C24.4838 10.7644 24.9726 10.275 25.3124 9.68589C25.6522 9.09674 25.8309 8.42855 25.8306 7.74845C25.8303 7.06835 25.6511 6.4003 25.3108 5.81142C24.9706 5.22255 24.4814 4.73359 23.8923 4.39369C23.3032 4.05378 22.6351 3.87489 21.955 3.875C21.2749 3.87511 20.6068 4.05421 20.0179 4.39431C19.4289 4.7344 18.9398 5.22352 18.5998 5.8125C18.5144 5.95992 18.459 6.12278 18.4368 6.29171C18.4146 6.46063 18.426 6.63227 18.4704 6.79675C18.5149 6.96123 18.5914 7.1153 18.6956 7.25008C18.7998 7.38487 18.9297 7.4977 19.0777 7.58208ZM24.6319 16.7917C24.2928 16.7477 23.9501 16.8399 23.6789 17.0481C23.4078 17.2563 23.2302 17.5636 23.1852 17.9025C22.9141 20.0921 21.8518 22.107 20.1984 23.5678C18.5449 25.0285 16.4144 25.8343 14.2081 25.8333H6.98769L7.82727 24.9938C8.06785 24.7517 8.20288 24.4244 8.20288 24.0831C8.20288 23.7419 8.06785 23.4145 7.82727 23.1725C6.56783 21.9081 5.71073 20.2993 5.36393 18.5487C5.01712 16.7981 5.19613 14.984 5.87841 13.3349C6.56068 11.6859 7.7157 10.2756 9.19798 9.28177C10.6803 8.28793 12.4235 7.75496 14.2081 7.75C14.5507 7.75 14.8792 7.61391 15.1215 7.37168C15.3637 7.12944 15.4998 6.8009 15.4998 6.45833C15.4998 6.11576 15.3637 5.78722 15.1215 5.54499C14.8792 5.30275 14.5507 5.16667 14.2081 5.16667C12.0242 5.17578 9.88702 5.79989 8.04143 6.9675C6.19583 8.13511 4.71647 9.799 3.77281 11.7685C2.82916 13.7381 2.4594 15.9336 2.70587 18.1036C2.95235 20.2735 3.80511 22.3302 5.16644 24.0379L2.95769 26.2079C2.77846 26.3896 2.65705 26.6202 2.60877 26.8708C2.5605 27.1214 2.58752 27.3806 2.68644 27.6158C2.78334 27.8517 2.9479 28.0536 3.15937 28.1962C3.37084 28.3387 3.61977 28.4154 3.87477 28.4167H14.2081C17.0387 28.4171 19.7722 27.3846 21.8959 25.5131C24.0195 23.6415 25.3873 21.0595 25.7427 18.2513C25.7663 18.0824 25.7563 17.9105 25.7131 17.7455C25.67 17.5805 25.5946 17.4257 25.4913 17.2901C25.3881 17.1544 25.2589 17.0405 25.1114 16.9549C24.9639 16.8694 24.8009 16.8139 24.6319 16.7917ZM22.4489 13.0071C22.2138 12.903 21.9529 12.8716 21.6998 12.9167L21.4673 12.9942L21.2348 13.1104L21.041 13.2783C20.9248 13.3974 20.8327 13.5377 20.7698 13.6917C20.6934 13.8528 20.6579 14.0302 20.6664 14.2083C20.6627 14.3806 20.6934 14.5519 20.7569 14.7121C20.8237 14.8671 20.9202 15.0075 21.041 15.1254C21.1617 15.2451 21.3049 15.3398 21.4622 15.4041C21.6196 15.4684 21.7881 15.501 21.9581 15.5C22.3007 15.5 22.6292 15.3639 22.8715 15.1217C23.1137 14.8794 23.2498 14.5509 23.2498 14.2083C23.2541 14.0389 23.2187 13.8708 23.1464 13.7175C23.0076 13.4071 22.7593 13.1588 22.4489 13.02V13.0071Z" fill="#1C3B3A"/>
</svg>
