<svg width="33" height="33" viewBox="0 0 33 33" fill="none" xmlns="http://www.w3.org/2000/svg">
<path d="M16.5 0.5C7.66889 0.5 0.5 7.66889 0.5 16.5C0.5 25.3311 7.66889 32.5 16.5 32.5C25.3311 32.5 32.5 25.3311 32.5 16.5C32.5 7.66889 25.3311 0.5 16.5 0.5ZM16.5 1.38889C24.8644 1.38889 31.6387 8.13556 31.6387 16.5C31.6387 24.8644 24.8644 31.6387 16.5 31.6387C8.13556 31.6387 1.36133 24.8644 1.36133 16.5C1.36133 8.13556 8.13556 1.38889 16.5 1.38889ZM8.36133 11.6947C8.24833 11.7085 8.14496 11.7652 8.07252 11.853C8.00008 11.9408 7.9641 12.0531 7.972 12.1667V22.2778C7.972 22.3957 8.01883 22.5087 8.10217 22.592C8.18552 22.6754 8.29857 22.7222 8.41644 22.7222H24.5836C24.7014 22.7222 24.8145 22.6754 24.8978 22.592C24.9812 22.5087 25.028 22.3957 25.028 22.2778V12.2218C25.0403 12.1569 25.038 12.0901 25.0212 12.0262C25.0045 11.9624 24.9737 11.903 24.9311 11.8525C24.8885 11.8021 24.8353 11.7617 24.7751 11.7344C24.715 11.7071 24.6496 11.6935 24.5836 11.6947H16.5L8.5 11.7222C8.47313 11.7103 8.44514 11.7011 8.41644 11.6947C8.39809 11.6935 8.37969 11.6935 8.36133 11.6947ZM16.5 12.5836H23.0556L16.5 16.6947L9.972 12.6111L16.5 12.5836ZM8.86089 12.9444L16.2778 17.5836C16.3485 17.6279 16.4303 17.6514 16.5138 17.6514C16.5973 17.6514 16.679 17.6279 16.7498 17.5836L24.1391 12.9444V21.8333H8.86089V12.9444Z" fill="#1C3B3A" stroke="#1C3B3A"/>
</svg>
