<svg width="32" height="32" viewBox="0 0 32 32" fill="none" xmlns="http://www.w3.org/2000/svg">
<path d="M15.75 0.25C14.5741 0.25 13.6121 1.32308 13.6121 2.63462V6.21154H1.98172C0.998276 6.21154 0.25 7.18565 0.25 8.29808V29.1635C0.25 30.2759 0.998276 31.25 1.98172 31.25H29.5183C30.5017 31.25 31.25 30.2759 31.25 29.1635V8.29808C31.25 7.18565 30.5017 6.21154 29.5183 6.21154H17.8879V2.63462C17.8879 1.32308 16.9259 0.25 15.75 0.25ZM15.75 1.44231C16.3518 1.44231 16.819 1.96335 16.819 2.63462V9.19231H14.681V2.63462C14.681 1.96335 15.1482 1.44231 15.75 1.44231ZM15.75 2.03846C15.6082 2.03846 15.4723 2.10127 15.3721 2.21307C15.2718 2.32487 15.2155 2.47651 15.2155 2.63462C15.2155 2.79273 15.2718 2.94436 15.3721 3.05616C15.4723 3.16796 15.6082 3.23077 15.75 3.23077C15.8918 3.23077 16.0277 3.16796 16.1279 3.05616C16.2282 2.94436 16.2845 2.79273 16.2845 2.63462C16.2845 2.47651 16.2282 2.32487 16.1279 2.21307C16.0277 2.10127 15.8918 2.03846 15.75 2.03846ZM1.98172 7.40385H13.6121V9.19231H12.5431V10.3846H18.9569V9.19231H17.8879V7.40385H29.5183C29.8625 7.40385 30.181 7.75915 30.181 8.29808V10.9808H1.31897V8.29808C1.31897 7.75915 1.63752 7.40385 1.98172 7.40385ZM1.31897 12.1731H30.181V29.1635C30.181 29.7024 29.8625 30.0577 29.5183 30.0577H1.98172C1.63752 30.0577 1.31897 29.7024 1.31897 29.1635V12.1731ZM6.03738 14.5648V14.572C5.86393 14.6156 5.71227 14.7322 5.61407 14.8975C5.55028 15.0099 5.50435 15.1337 5.47831 15.2635L5.45907 15.3375L5.46121 15.4173C5.46548 15.9336 5.45052 16.4725 5.46762 17.0282C5.46762 17.5098 5.76479 17.8079 5.86421 17.92H5.86848L5.87062 17.9999C5.88879 18.5126 5.77869 19.2971 6.11648 20.084C6.21803 20.4143 6.39548 20.6408 6.51521 20.778C6.54728 20.8137 6.53231 20.7911 6.55262 20.8197C6.50772 20.8924 6.48848 20.9663 6.39014 21.0438C6.22338 21.175 5.98072 21.2954 5.73272 21.423C5.25169 21.6615 4.48845 21.7306 3.81393 22.3423L3.75086 22.4019L3.7049 22.4758C3.37779 23.029 3.45583 23.5847 3.45903 23.7885L3.46331 24.0103L3.59479 24.1748C4.05979 24.7579 4.63383 25.2038 5.20466 25.552H5.21641C6.32814 26.1839 7.6419 26.6 8.97062 26.4295C10.5687 26.2912 12.1283 25.5043 13.2304 24.176L13.3865 23.9888L13.3694 23.7325C13.3651 23.649 13.3908 23.4487 13.3694 23.1793C13.3502 22.9122 13.2187 22.5116 12.9172 22.285C12.1797 21.6984 11.3993 21.6579 10.9226 21.3813L10.9108 21.3693H10.898C10.5538 21.1941 10.3571 20.9532 10.2651 20.7136C10.7291 20.1198 11.0188 19.3806 10.9589 18.596L10.961 18.6378C10.9536 18.0094 10.9792 17.3477 10.9461 16.6609V16.6347L10.9418 16.6097C10.8082 15.5437 9.90917 14.8283 8.97703 14.9559H6.83269L6.67876 14.8021C6.6198 14.7418 6.55447 14.6898 6.48421 14.6471C6.34883 14.5611 6.19048 14.5327 6.03738 14.5648ZM14.1466 15.75V16.9423H26.9741V15.75H14.1466ZM6.53231 16.0409C6.65631 16.0934 6.74931 16.184 6.91714 16.1458L6.80597 16.1578H9.10638C9.44203 16.1101 9.83007 16.426 9.87924 16.7897C9.9049 17.3858 9.88459 18.013 9.89207 18.6676V18.689L9.89421 18.7129C9.93697 19.2852 9.71141 19.8813 9.30948 20.2188L9.06041 20.4286L9.10317 20.7732C9.21221 21.7056 9.91665 22.1897 10.4426 22.4591C11.2005 22.8955 11.9007 22.9444 12.3047 23.2723L12.309 23.277C12.3047 23.2747 12.3004 23.2735 12.3026 23.3092C12.3058 23.3426 12.3047 23.4523 12.3026 23.5119C11.3835 24.5312 10.1705 25.1546 8.87869 25.2718H8.85731C7.80652 25.4089 6.68197 25.0727 5.70493 24.5182H5.70279C5.28069 24.2543 4.89418 23.9252 4.55472 23.5405C4.54724 23.4595 4.54083 23.3343 4.58679 23.2437C4.9481 22.967 5.51145 22.8621 6.17528 22.5283H6.17955C6.41259 22.409 6.71297 22.2695 7.00372 22.0418C7.29555 21.8153 7.59165 21.4683 7.7039 20.9807L7.7349 20.8376L7.70603 20.6957C7.62052 20.2963 7.40565 20.1091 7.28165 19.9684C7.21808 19.8998 7.16209 19.8229 7.1149 19.7395L7.09779 19.6739L7.07107 19.6143C6.90217 19.2506 6.96417 18.6807 6.93959 17.9713L6.91821 18.1644C6.97596 17.9337 6.96086 17.6879 6.87545 17.4681C6.79528 17.2809 6.69372 17.176 6.62852 17.1009C6.56545 17.0293 6.54407 17.0031 6.53659 16.9983C6.52697 16.6943 6.53124 16.3688 6.53231 16.0505V16.0409ZM14.1466 18.1346V19.3269H22.6983V18.1346H14.1466ZM14.1466 20.5192V21.7115H25.9052V20.5192H14.1466ZM14.1466 22.9038V24.0962H21.6293V22.9038H14.1466ZM14.1466 25.2885V26.4808H24.8362V25.2885H14.1466Z" fill="#1C3B3A" stroke="#1C3B3A" stroke-width="0.5"/>
</svg>
