<svg width="32" height="32" viewBox="0 0 32 32" fill="none" xmlns="http://www.w3.org/2000/svg">
<g clip-path="url(#clip0_448_855)">
<path d="M15.5688 0C6.97722 0 0 6.97722 0 15.5688C0 24.1604 6.97722 31.1376 15.5688 31.1376C24.1604 31.1376 31.1376 24.1604 31.1376 15.5688C31.1376 6.97722 24.1604 0 15.5688 0ZM15.5688 1.1976C23.5125 1.1976 29.94 7.62512 29.94 15.5688C29.94 23.5125 23.5125 29.94 15.5688 29.94C7.62512 29.94 1.1976 23.5125 1.1976 15.5688C1.1976 7.62512 7.62512 1.1976 15.5688 1.1976ZM19.1616 7.20236C17.1856 7.20236 15.5688 8.81793 15.5688 10.7952C15.5688 11.9101 16.0945 12.897 16.8981 13.5568C16.4284 13.7068 15.9747 13.9029 15.5436 14.1425C15.4131 12.2802 13.8682 10.7952 11.976 10.7952C9.99996 10.7952 8.3832 12.4107 8.3832 14.388C8.3832 15.5089 8.91374 16.4993 9.72451 17.1592C8.31415 17.6121 7.06453 18.4625 6.12572 19.6083L5.988 19.7748V22.7544H17.964V19.7652L17.8263 19.5987C17.7029 19.4502 17.5676 19.3161 17.4359 19.1784H25.1496V16.1724L25.0119 16.0059C24.815 15.7681 24.6047 15.5418 24.3819 15.3281C23.5456 14.5197 22.5354 13.9135 21.4287 13.5556C21.8407 13.2225 22.1734 12.8018 22.4027 12.3242C22.632 11.8465 22.7521 11.3238 22.7544 10.794C22.7544 8.81673 21.1376 7.20236 19.1616 7.20236ZM19.1616 8.39996C20.4909 8.39996 21.5568 9.46583 21.5568 10.7952C21.5568 12.1245 20.4909 13.1904 19.1616 13.1904C17.8323 13.1904 16.7664 12.1245 16.7664 10.7952C16.7664 9.46583 17.8323 8.39996 19.1616 8.39996ZM11.976 11.9928C13.3053 11.9928 14.3712 13.0586 14.3712 14.388C14.3712 15.7173 13.3053 16.7832 11.976 16.7832C10.6467 16.7832 9.5808 15.7173 9.5808 14.388C9.5808 13.0586 10.6467 11.9928 11.976 11.9928ZM18.5628 14.4299V16.7832H19.7604V14.4311C21.1872 14.5713 22.5242 15.192 23.552 16.1915C23.6921 16.3269 23.8227 16.4754 23.952 16.6227V17.9796H15.9999C15.4505 17.6282 14.8575 17.3504 14.2359 17.1532C14.691 16.7796 15.0622 16.3065 15.2933 15.7544C16.2343 15.0095 17.3688 14.5507 18.5628 14.4299ZM11.3772 18.0059V20.376H12.5748V18.0059C13.9293 18.14 15.261 18.7245 16.3664 19.7855C16.5065 19.9209 16.6371 20.0694 16.7664 20.2167V21.5568H7.1856V20.2586C8.34128 18.9317 9.8299 18.1628 11.3772 18.0071V18.0059Z" fill="black"/>
</g>
<defs>
<clipPath id="clip0_448_855">
<rect width="31.1376" height="31.1376" fill="white"/>
</clipPath>
</defs>
</svg>
